  0
SECTION
  2
HEADER
  9
$ACADVER
  1
AC1015
  9
$ACADMAINTVER
 70
     6
  9
$DWGCODEPAGE
  3
ANSI_1252
  9
$INSBASE
 10
0.0
 20
0.0
 30
0.0
  9
$EXTMIN
 10
-8.0
 20
-1.0
 30
0.0
  9
$EXTMAX
 10
8.0
 20
1.0
 30
0.0
  9
$LIMMIN
 10
0.0
 20
0.0
  9
$LIMMAX
 10
12.0
 20
9.0
  9
$ORTHOMODE
 70
     0
  9
$REGENMODE
 70
     1
  9
$FILLMODE
 70
     1
  9
$QTEXTMODE
 70
     0
  9
$MIRRTEXT
 70
     1
  9
$LTSCALE
 40
1.0
  9
$ATTMODE
 70
     1
  9
$TEXTSIZE
 40
0.1377952756
  9
$TRACEWID
 40
0.05
  9
$TEXTSTYLE
  7
Standard
  9
$CLAYER
  8
0
  9
$CELTYPE
  6
ByLayer
  9
$CECOLOR
 62
   256
  9
$CELTSCALE
 40
1.0
  9
$DISPSILH
 70
     0
  9
$DIMSCALE
 40
1.0
  9
$DIMASZ
 40
0.13
  9
$DIMEXO
 40
0.0
  9
$DIMDLI
 40
0.38
  9
$DIMRND
 40
0.0
  9
$DIMDLE
 40
0.0
  9
$DIMEXE
 40
0.125
  9
$DIMTP
 40
0.0
  9
$DIMTM
 40
0.0
  9
$DIMTXT
 40
0.1377952756
  9
$DIMCEN
 40
0.09
  9
$DIMTSZ
 40
0.0
  9
$DIMTOL
 70
     0
  9
$DIMLIM
 70
     0
  9
$DIMTIH
 70
     1
  9
$DIMTOH
 70
     1
  9
$DIMSE1
 70
     0
  9
$DIMSE2
 70
     0
  9
$DIMTAD
 70
     1
  9
$DIMZIN
 70
     1
  9
$DIMBLK
  1

  9
$DIMASO
 70
     1
  9
$DIMSHO
 70
     1
  9
$DIMPOST
  1

  9
$DIMAPOST
  1

  9
$DIMALT
 70
     0
  9
$DIMALTD
 70
     2
  9
$DIMALTF
 40
25.4
  9
$DIMLFAC
 40
1.0
  9
$DIMTOFL
 70
     0
  9
$DIMTVP
 40
0.0
  9
$DIMTIX
 70
     0
  9
$DIMSOXD
 70
     0
  9
$DIMSAH
 70
     0
  9
$DIMBLK1
  1

  9
$DIMBLK2
  1

  9
$DIMSTYLE
  2
Standard
  9
$DIMCLRD
 70
     0
  9
$DIMCLRE
 70
     0
  9
$DIMCLRT
 70
     0
  9
$DIMTFAC
 40
1.0
  9
$DIMGAP
 40
0.06
  9
$DIMJUST
 70
     0
  9
$DIMSD1
 70
     0
  9
$DIMSD2
 70
     0
  9
$DIMTOLJ
 70
     1
  9
$DIMTZIN
 70
     1
  9
$DIMALTZ
 70
     0
  9
$DIMALTTZ
 70
     0
  9
$DIMUPT
 70
     0
  9
$DIMDEC
 70
     2
  9
$DIMTDEC
 70
     2
  9
$DIMALTU
 70
     2
  9
$DIMALTTD
 70
     2
  9
$DIMTXSTY
  7
Standard
  9
$DIMAUNIT
 70
     0
  9
$DIMADEC
 70
     2
  9
$DIMALTRND
 40
0.0
  9
$DIMAZIN
 70
     0
  9
$DIMDSEP
 70
    46
  9
$DIMATFIT
 70
     3
  9
$DIMFRAC
 70
     0
  9
$DIMLDRBLK
  1

  9
$DIMLUNIT
 70
     2
  9
$DIMLWD
 70
    -2
  9
$DIMLWE
 70
    -2
  9
$DIMTMOVE
 70
     0
  9
$LUNITS
 70
     2
  9
$LUPREC
 70
     6
  9
$SKETCHINC
 40
0.1
  9
$FILLETRAD
 40
0.0
  9
$AUNITS
 70
     0
  9
$AUPREC
 70
     2
  9
$MENU
  1
.
  9
$ELEVATION
 40
0.0
  9
$PELEVATION
 40
0.0
  9
$THICKNESS
 40
0.0
  9
$LIMCHECK
 70
     0
  9
$CHAMFERA
 40
0.0
  9
$CHAMFERB
 40
0.0
  9
$CHAMFERC
 40
0.0
  9
$CHAMFERD
 40
0.0
  9
$SKPOLY
 70
     0
  9
$TDCREATE
 40
2460337.762552107
  9
$TDUCREATE
 40
2460338.09588544
  9
$TDUPDATE
 40
2460337.762589329
  9
$TDUUPDATE
 40
2460338.095922662
  9
$TDINDWG
 40
0.0000000116
  9
$TDUSRTIMER
 40
0.0000000116
  9
$USRTIMER
 70
     1
  9
$ANGBASE
 50
0.0
  9
$ANGDIR
 70
     0
  9
$PDMODE
 70
     0
  9
$PDSIZE
 40
-1.0
  9
$PLINEWID
 40
0.0
  9
$SPLFRAME
 70
     0
  9
$SPLINETYPE
 70
     6
  9
$SPLINESEGS
 70
     8
  9
$HANDSEED
  5
D3
  9
$SURFTAB1
 70
     6
  9
$SURFTAB2
 70
     6
  9
$SURFTYPE
 70
     6
  9
$SURFU
 70
     6
  9
$SURFV
 70
     6
  9
$UCSBASE
  2

  9
$UCSNAME
  2

  9
$UCSORG
 10
0.0
 20
0.0
 30
0.0
  9
$UCSXDIR
 10
1.0
 20
0.0
 30
0.0
  9
$UCSYDIR
 10
0.0
 20
1.0
 30
0.0
  9
$UCSORTHOREF
  2

  9
$UCSORTHOVIEW
 70
     0
  9
$UCSORGTOP
 10
0.0
 20
0.0
 30
0.0
  9
$UCSORGBOTTOM
 10
0.0
 20
0.0
 30
0.0
  9
$UCSORGLEFT
 10
0.0
 20
0.0
 30
0.0
  9
$UCSORGRIGHT
 10
0.0
 20
0.0
 30
0.0
  9
$UCSORGFRONT
 10
0.0
 20
0.0
 30
0.0
  9
$UCSORGBACK
 10
0.0
 20
0.0
 30
0.0
  9
$PUCSBASE
  2

  9
$PUCSNAME
  2

  9
$PUCSORG
 10
0.0
 20
0.0
 30
0.0
  9
$PUCSXDIR
 10
1.0
 20
0.0
 30
0.0
  9
$PUCSYDIR
 10
0.0
 20
1.0
 30
0.0
  9
$PUCSORTHOREF
  2

  9
$PUCSORTHOVIEW
 70
     0
  9
$PUCSORGTOP
 10
0.0
 20
0.0
 30
0.0
  9
$PUCSORGBOTTOM
 10
0.0
 20
0.0
 30
0.0
  9
$PUCSORGLEFT
 10
0.0
 20
0.0
 30
0.0
  9
$PUCSORGRIGHT
 10
0.0
 20
0.0
 30
0.0
  9
$PUCSORGFRONT
 10
0.0
 20
0.0
 30
0.0
  9
$PUCSORGBACK
 10
0.0
 20
0.0
 30
0.0
  9
$USERI1
 70
     0
  9
$USERI2
 70
     0
  9
$USERI3
 70
     0
  9
$USERI4
 70
     0
  9
$USERI5
 70
     0
  9
$USERR1
 40
0.0
  9
$USERR2
 40
0.0
  9
$USERR3
 40
0.0
  9
$USERR4
 40
0.0
  9
$USERR5
 40
0.0
  9
$WORLDVIEW
 70
     1
  9
$SHADEDGE
 70
     3
  9
$SHADEDIF
 70
    70
  9
$TILEMODE
 70
     1
  9
$MAXACTVP
 70
    64
  9
$PINSBASE
 10
0.0
 20
0.0
 30
0.0
  9
$PLIMCHECK
 70
     0
  9
$PEXTMIN
 10
1.0000000000E+20
 20
1.0000000000E+20
 30
1.0000000000E+20
  9
$PEXTMAX
 10
-1.0000000000E+20
 20
-1.0000000000E+20
 30
-1.0000000000E+20
  9
$PLIMMIN
 10
0.0
 20
0.0
  9
$PLIMMAX
 10
12.0
 20
9.0
  9
$UNITMODE
 70
     0
  9
$VISRETAIN
 70
     1
  9
$PLINEGEN
 70
     0
  9
$PSLTSCALE
 70
     1
  9
$TREEDEPTH
 70
  3020
  9
$CMLSTYLE
  2
Standard
  9
$CMLJUST
 70
     0
  9
$CMLSCALE
 40
1.0
  9
$PROXYGRAPHICS
 70
     1
  9
$MEASUREMENT
 70
     0
  9
$CELWEIGHT
370
    -1
  9
$ENDCAPS
280
     0
  9
$JOINSTYLE
280
     0
  9
$LWDISPLAY
290
     1
  9
$INSUNITS
 70
     1
  9
$HYPERLINKBASE
  1

  9
$STYLESHEET
  1

  9
$XEDIT
290
     1
  9
$CEPSNTYPE
380
     0
  9
$PSTYLEMODE
290
     1
  9
$FINGERPRINTGUID
  2
{ab6c1003-c1cb-483b-a970-d81607cd0d83}
  9
$VERSIONGUID
  2
{FAEB1C32-E019-11D5-929B-00C0DF256EC4}
  9
$EXTNAMES
290
     1
  9
$PSVPSCALE
 40
0.0
  9
$OLESTARTUP
290
     0
  0
ENDSEC
  0
SECTION
  2
CLASSES
  0
CLASS
  1
ACDBDICTIONARYWDFLT
  2
AcDbDictionaryWithDefault
  3
ObjectDBX Classes
 90
        0
280
     0
281
     0
  0
CLASS
  1
VISUALSTYLE
  2
AcDbVisualStyle
  3
ObjectDBX Classes
 90
     4095
280
     0
281
     0
  0
CLASS
  1
MATERIAL
  2
AcDbMaterial
  3
ObjectDBX Classes
 90
     1153
280
     0
281
     0
  0
CLASS
  1
SCALE
  2
AcDbScale
  3
ObjectDBX Classes
 90
     1153
280
     0
281
     0
  0
CLASS
  1
TABLESTYLE
  2
AcDbTableStyle
  3
ObjectDBX Classes
 90
     4095
280
     0
281
     0
  0
CLASS
  1
MLEADERSTYLE
  2
AcDbMLeaderStyle
  3
ACDB_MLEADERSTYLE_CLASS
 90
     4095
280
     0
281
     0
  0
CLASS
  1
SUN
  2
AcDbSun
  3
SCENEOE
 90
     1153
280
     0
281
     0
  0
CLASS
  1
ACDBPLACEHOLDER
  2
AcDbPlaceHolder
  3
ObjectDBX Classes
 90
        0
280
     0
281
     0
  0
CLASS
  1
LAYOUT
  2
AcDbLayout
  3
ObjectDBX Classes
 90
        0
280
     0
281
     0
  0
ENDSEC
  0
SECTION
  2
TABLES
  0
TABLE
  2
VPORT
  5
8
330
0
100
AcDbSymbolTable
 70
     1
  0
VPORT
  5
29
330
8
100
AcDbSymbolTableRecord
100
AcDbViewportTableRecord
  2
*Active
 70
     0
 10
0.0
 20
0.0
 11
1.0
 21
1.0
 12
0.0
 22
0.0
 13
0.0
 23
0.0
 14
0.5
 24
0.5
 15
0.5
 25
0.5
 16
0.0
 26
0.0
 36
1.0
 17
0.0
 27
0.0
 37
0.0
 40
2.04
 41
8.0
 42
50.0
 43
0.0
 44
0.0
 50
0.0
 51
0.0
 71
     0
 72
   100
 73
     1
 74
     3
 75
     0
 76
     0
 77
     0
 78
     0
281
     0
 65
     1
110
0.0
120
0.0
130
0.0
111
1.0
121
0.0
131
0.0
112
0.0
122
1.0
132
0.0
 79
     0
146
0.0
  0
ENDTAB
  0
TABLE
  2
LTYPE
  5
5
330
0
100
AcDbSymbolTable
 70
     6
  0
LTYPE
  5
14
330
5
100
AcDbSymbolTableRecord
100
AcDbLinetypeTableRecord
  2
ByBlock
 70
     0
  3

 72
    65
 73
     0
 40
0.0
  0
LTYPE
  5
15
330
5
100
AcDbSymbolTableRecord
100
AcDbLinetypeTableRecord
  2
ByLayer
 70
     0
  3

 72
    65
 73
     0
 40
0.0
  0
LTYPE
  5
16
330
5
100
AcDbSymbolTableRecord
100
AcDbLinetypeTableRecord
  2
Continuous
 70
     0
  3
Solid line
 72
    65
 73
     0
 40
0.0
  0
LTYPE
  5
5E
330
5
100
AcDbSymbolTableRecord
100
AcDbLinetypeTableRecord
  2
HIDDEN
 70
     0
  3
Hidden __ __ __ __ __ __ __ __ __ __ __ __ __ __
 72
    65
 73
     2
 40
0.075
 49
0.05
 74
     0
 49
-0.025
 74
     0
  0
LTYPE
  5
5F
330
5
100
AcDbSymbolTableRecord
100
AcDbLinetypeTableRecord
  2
PHANTOM
 70
     0
  3
Phantom ______  __  __  ______  __  __  ______
 72
    65
 73
     6
 40
0.5
 49
0.25
 74
     0
 49
-0.05
 74
     0
 49
0.05
 74
     0
 49
-0.05
 74
     0
 49
0.05
 74
     0
 49
-0.05
 74
     0
  0
LTYPE
  5
60
330
5
100
AcDbSymbolTableRecord
100
AcDbLinetypeTableRecord
  2
CENTER
 70
     0
  3
Center ____ _ ____ _ ____ _ ____ _ ____ _ ____
 72
    65
 73
     4
 40
0.4
 49
0.25
 74
     0
 49
-0.05
 74
     0
 49
0.05
 74
     0
 49
-0.05
 74
     0
  0
LTYPE
  5
61
330
5
100
AcDbSymbolTableRecord
100
AcDbLinetypeTableRecord
  2
CENTERX2
 70
     0
  3
Center (2x) ________  __  ________  __  _____
 72
    65
 73
     4
 40
0.8
 49
0.5
 74
     0
 49
-0.1
 74
     0
 49
0.1
 74
     0
 49
-0.1
 74
     0
  0
LTYPE
  5
62
330
5
100
AcDbSymbolTableRecord
100
AcDbLinetypeTableRecord
  2
DOT2
 70
     0
  3
Dot (.5x) ........................................
 72
    65
 73
     2
 40
0.025
 49
0.0
 74
     0
 49
-0.025
 74
     0
  0
ENDTAB
  0
TABLE
  2
LAYER
  5
2
330
0
100
AcDbSymbolTable
 70
     1
  0
LAYER
  5
10
330
2
100
AcDbSymbolTableRecord
100
AcDbLayerTableRecord
  2
0
 70
     0
 62
     7
  6
Continuous
370
    -3
390
F
  0
ENDTAB
  0
TABLE
  2
STYLE
  5
3
330
0
100
AcDbSymbolTable
 70
     2
  0
STYLE
  5
11
330
3
100
AcDbSymbolTableRecord
100
AcDbTextStyleTableRecord
  2
Standard
 70
     0
 40
0.0
 41
1.0
 50
0.0
 71
     0
 42
0.1377952756
  3
txt
  4

  0
STYLE
  5
CF
330
3
100
AcDbSymbolTableRecord
100
AcDbTextStyleTableRecord
  2
SLDTEXTSTYLE0
 70
     0
 40
0.0
 41
0.7
 50
0.0
 71
     0
 42
0.1377952756
  3
TXT
  4

  0
ENDTAB
  0
TABLE
  2
VIEW
  5
6
330
0
100
AcDbSymbolTable
 70
     0
  0
ENDTAB
  0
TABLE
  2
UCS
  5
7
330
0
100
AcDbSymbolTable
 70
     0
  0
ENDTAB
  0
TABLE
  2
APPID
  5
9
330
0
100
AcDbSymbolTable
 70
     1
  0
APPID
  5
12
330
9
100
AcDbSymbolTableRecord
100
AcDbRegAppTableRecord
  2
ACAD
 70
     0
  0
ENDTAB
  0
TABLE
  2
DIMSTYLE
  5
A
330
0
100
AcDbSymbolTable
 70
     1
100
AcDbDimStyleTable
  0
DIMSTYLE
105
27
330
A
100
AcDbSymbolTableRecord
100
AcDbDimStyleTableRecord
  2
Standard
 70
     0
178
     0
340
11
  0
ENDTAB
  0
TABLE
  2
BLOCK_RECORD
  5
1
330
0
100
AcDbSymbolTable
 70
     1
  0
BLOCK_RECORD
  5
1F
330
1
100
AcDbSymbolTableRecord
100
AcDbBlockTableRecord
  2
*Model_Space
340
22
  0
BLOCK_RECORD
  5
1B
330
1
100
AcDbSymbolTableRecord
100
AcDbBlockTableRecord
  2
*Paper_Space
340
1E
  0
BLOCK_RECORD
  5
23
330
1
100
AcDbSymbolTableRecord
100
AcDbBlockTableRecord
  2
*Paper_Space0
340
26
  0
ENDTAB
  0
ENDSEC
  0
SECTION
  2
BLOCKS
  0
BLOCK
  5
20
330
1F
100
AcDbEntity
  8
0
100
AcDbBlockBegin
  2
*Model_Space
 70
     0
 10
0.0
 20
0.0
 30
0.0
  3
*Model_Space
  1

  0
ENDBLK
  5
21
330
1F
100
AcDbEntity
  8
0
100
AcDbBlockEnd
  0
BLOCK
  5
1C
330
1B
100
AcDbEntity
 67
     1
  8
0
100
AcDbBlockBegin
  2
*Paper_Space
 70
     0
 10
0.0
 20
0.0
 30
0.0
  3
*Paper_Space
  1

  0
ENDBLK
  5
1D
330
1B
100
AcDbEntity
 67
     1
  8
0
100
AcDbBlockEnd
  0
BLOCK
  5
24
330
23
100
AcDbEntity
  8
0
100
AcDbBlockBegin
  2
*Paper_Space0
 70
     0
 10
0.0
 20
0.0
 30
0.0
  3
*Paper_Space0
  1

  0
ENDBLK
  5
25
330
23
100
AcDbEntity
  8
0
100
AcDbBlockEnd
  0
ENDSEC
  0
SECTION
  2
ENTITIES
  0
CIRCLE
  5
63
330
1F
100
AcDbEntity
  8
0
  6
Continuous
 62
     7
370
    25
100
AcDbCircle
 10
-4.75
 20
0.75
 30
0.0
 40
0.09375
  0
CIRCLE
  5
64
330
1F
100
AcDbEntity
  8
0
  6
Continuous
 62
     7
370
    25
100
AcDbCircle
 10
-1.75
 20
0.75
 30
0.0
 40
0.0937500000000002
  0
CIRCLE
  5
65
330
1F
100
AcDbEntity
  8
0
  6
Continuous
 62
     7
370
    25
100
AcDbCircle
 10
0.0
 20
0.75
 30
0.0
 40
0.0937500000000002
  0
CIRCLE
  5
66
330
1F
100
AcDbEntity
  8
0
  6
Continuous
 62
     7
370
    25
100
AcDbCircle
 10
1.75
 20
0.75
 30
0.0
 40
0.0937500000000002
  0
CIRCLE
  5
67
330
1F
100
AcDbEntity
  8
0
  6
Continuous
 62
     7
370
    25
100
AcDbCircle
 10
4.75
 20
0.75
 30
0.0
 40
0.09375
  0
CIRCLE
  5
68
330
1F
100
AcDbEntity
  8
0
  6
Continuous
 62
     7
370
    25
100
AcDbCircle
 10
7.75
 20
0.75
 30
0.0
 40
0.09375
  0
CIRCLE
  5
69
330
1F
100
AcDbEntity
  8
0
  6
Continuous
 62
     7
370
    25
100
AcDbCircle
 10
7.75
 20
-0.75
 30
0.0
 40
0.09375
  0
CIRCLE
  5
6A
330
1F
100
AcDbEntity
  8
0
  6
Continuous
 62
     7
370
    25
100
AcDbCircle
 10
4.75
 20
-0.75
 30
0.0
 40
0.09375
  0
CIRCLE
  5
6B
330
1F
100
AcDbEntity
  8
0
  6
Continuous
 62
     7
370
    25
100
AcDbCircle
 10
1.75
 20
-0.75
 30
0.0
 40
0.0937500000000004
  0
CIRCLE
  5
6C
330
1F
100
AcDbEntity
  8
0
  6
Continuous
 62
     7
370
    25
100
AcDbCircle
 10
0.0
 20
-0.75
 30
0.0
 40
0.0937500000000002
  0
CIRCLE
  5
6D
330
1F
100
AcDbEntity
  8
0
  6
Continuous
 62
     7
370
    25
100
AcDbCircle
 10
-1.75
 20
-0.75
 30
0.0
 40
0.0937500000000002
  0
CIRCLE
  5
6E
330
1F
100
AcDbEntity
  8
0
  6
Continuous
 62
     7
370
    25
100
AcDbCircle
 10
-4.75
 20
-0.75
 30
0.0
 40
0.09375
  0
CIRCLE
  5
6F
330
1F
100
AcDbEntity
  8
0
  6
Continuous
 62
     7
370
    25
100
AcDbCircle
 10
-7.75
 20
-0.75
 30
0.0
 40
0.09375
  0
CIRCLE
  5
70
330
1F
100
AcDbEntity
  8
0
  6
Continuous
 62
     7
370
    25
100
AcDbCircle
 10
-7.75
 20
0.75
 30
0.0
 40
0.09375
  0
LINE
  5
71
330
1F
100
AcDbEntity
  8
0
  6
Continuous
 62
     7
370
    25
100
AcDbLine
 10
-7.25
 20
0.075
 30
0.0
 11
-7.25
 21
-0.075
 31
0.0
  0
ARC
  5
72
330
1F
100
AcDbEntity
  8
0
  6
Continuous
 62
     7
370
    25
100
AcDbCircle
 10
-6.95
 20
0.075
 30
0.0
 40
0.3
100
AcDbArc
 50
90.0
 51
180.0
  0
LINE
  5
73
330
1F
100
AcDbEntity
  8
0
  6
Continuous
 62
     7
370
    25
100
AcDbLine
 10
-6.05
 20
0.375
 30
0.0
 11
-6.95
 21
0.375
 31
0.0
  0
ARC
  5
74
330
1F
100
AcDbEntity
  8
0
  6
Continuous
 62
     7
370
    25
100
AcDbCircle
 10
-6.05
 20
0.075
 30
0.0
 40
0.3
100
AcDbArc
 50
0.0
 51
90.0
  0
LINE
  5
75
330
1F
100
AcDbEntity
  8
0
  6
Continuous
 62
     7
370
    25
100
AcDbLine
 10
-5.75
 20
-0.075
 30
0.0
 11
-5.75
 21
0.075
 31
0.0
  0
ARC
  5
76
330
1F
100
AcDbEntity
  8
0
  6
Continuous
 62
     7
370
    25
100
AcDbCircle
 10
-6.05
 20
-0.075
 30
0.0
 40
0.3
100
AcDbArc
 50
270.0
 51
0.0
  0
LINE
  5
77
330
1F
100
AcDbEntity
  8
0
  6
Continuous
 62
     7
370
    25
100
AcDbLine
 10
-6.95
 20
-0.375
 30
0.0
 11
-6.05
 21
-0.375
 31
0.0
  0
ARC
  5
78
330
1F
100
AcDbEntity
  8
0
  6
Continuous
 62
     7
370
    25
100
AcDbCircle
 10
-6.95
 20
-0.075
 30
0.0
 40
0.3
100
AcDbArc
 50
180.0
 51
270.0
  0
LINE
  5
79
330
1F
100
AcDbEntity
  8
0
  6
Continuous
 62
     7
370
    25
100
AcDbLine
 10
-5.0
 20
0.075
 30
0.0
 11
-5.0
 21
-0.075
 31
0.0
  0
ARC
  5
7A
330
1F
100
AcDbEntity
  8
0
  6
Continuous
 62
     7
370
    25
100
AcDbCircle
 10
-4.7
 20
0.075
 30
0.0
 40
0.3
100
AcDbArc
 50
90.0
 51
180.0
  0
LINE
  5
7B
330
1F
100
AcDbEntity
  8
0
  6
Continuous
 62
     7
370
    25
100
AcDbLine
 10
-3.05
 20
0.375
 30
0.0
 11
-4.7
 21
0.375
 31
0.0
  0
ARC
  5
7C
330
1F
100
AcDbEntity
  8
0
  6
Continuous
 62
     7
370
    25
100
AcDbCircle
 10
-3.05
 20
0.075
 30
0.0
 40
0.3000000000000003
100
AcDbArc
 50
0.0
 51
90.0
  0
LINE
  5
7D
330
1F
100
AcDbEntity
  8
0
  6
Continuous
 62
     7
370
    25
100
AcDbLine
 10
-2.75
 20
-0.075
 30
0.0
 11
-2.75
 21
0.075
 31
0.0
  0
ARC
  5
7E
330
1F
100
AcDbEntity
  8
0
  6
Continuous
 62
     7
370
    25
100
AcDbCircle
 10
-3.05
 20
-0.075
 30
0.0
 40
0.3000000000000003
100
AcDbArc
 50
270.0
 51
0.0
  0
LINE
  5
7F
330
1F
100
AcDbEntity
  8
0
  6
Continuous
 62
     7
370
    25
100
AcDbLine
 10
-4.7
 20
-0.375
 30
0.0
 11
-3.05
 21
-0.375
 31
0.0
  0
ARC
  5
80
330
1F
100
AcDbEntity
  8
0
  6
Continuous
 62
     7
370
    25
100
AcDbCircle
 10
-4.7
 20
-0.075
 30
0.0
 40
0.3
100
AcDbArc
 50
180.0
 51
270.0
  0
LINE
  5
81
330
1F
100
AcDbEntity
  8
0
  6
Continuous
 62
     7
370
    25
100
AcDbLine
 10
4.7
 20
0.375
 30
0.0
 11
3.05
 21
0.375
 31
0.0
  0
ARC
  5
82
330
1F
100
AcDbEntity
  8
0
  6
Continuous
 62
     7
370
    25
100
AcDbCircle
 10
4.7
 20
0.075
 30
0.0
 40
0.3
100
AcDbArc
 50
0.0
 51
90.0
  0
LINE
  5
83
330
1F
100
AcDbEntity
  8
0
  6
Continuous
 62
     7
370
    25
100
AcDbLine
 10
5.0
 20
-0.075
 30
0.0
 11
5.0
 21
0.075
 31
0.0
  0
ARC
  5
84
330
1F
100
AcDbEntity
  8
0
  6
Continuous
 62
     7
370
    25
100
AcDbCircle
 10
4.7
 20
-0.075
 30
0.0
 40
0.3
100
AcDbArc
 50
270.0
 51
0.0
  0
LINE
  5
85
330
1F
100
AcDbEntity
  8
0
  6
Continuous
 62
     7
370
    25
100
AcDbLine
 10
3.05
 20
-0.375
 30
0.0
 11
4.7
 21
-0.375
 31
0.0
  0
ARC
  5
86
330
1F
100
AcDbEntity
  8
0
  6
Continuous
 62
     7
370
    25
100
AcDbCircle
 10
3.05
 20
-0.075
 30
0.0
 40
0.3000000000000003
100
AcDbArc
 50
180.0
 51
270.0
  0
LINE
  5
87
330
1F
100
AcDbEntity
  8
0
  6
Continuous
 62
     7
370
    25
100
AcDbLine
 10
2.75
 20
0.075
 30
0.0
 11
2.75
 21
-0.075
 31
0.0
  0
ARC
  5
88
330
1F
100
AcDbEntity
  8
0
  6
Continuous
 62
     7
370
    25
100
AcDbCircle
 10
3.05
 20
0.075
 30
0.0
 40
0.3000000000000003
100
AcDbArc
 50
90.0
 51
180.0
  0
LINE
  5
89
330
1F
100
AcDbEntity
  8
0
  6
Continuous
 62
     7
370
    25
100
AcDbLine
 10
6.95
 20
0.375
 30
0.0
 11
6.05
 21
0.375
 31
0.0
  0
ARC
  5
8A
330
1F
100
AcDbEntity
  8
0
  6
Continuous
 62
     7
370
    25
100
AcDbCircle
 10
6.95
 20
0.075
 30
0.0
 40
0.3
100
AcDbArc
 50
0.0
 51
90.0
  0
LINE
  5
8B
330
1F
100
AcDbEntity
  8
0
  6
Continuous
 62
     7
370
    25
100
AcDbLine
 10
7.25
 20
-0.075
 30
0.0
 11
7.25
 21
0.075
 31
0.0
  0
ARC
  5
8C
330
1F
100
AcDbEntity
  8
0
  6
Continuous
 62
     7
370
    25
100
AcDbCircle
 10
6.95
 20
-0.075
 30
0.0
 40
0.3
100
AcDbArc
 50
270.0
 51
0.0
  0
LINE
  5
8D
330
1F
100
AcDbEntity
  8
0
  6
Continuous
 62
     7
370
    25
100
AcDbLine
 10
6.05
 20
-0.375
 30
0.0
 11
6.95
 21
-0.375
 31
0.0
  0
ARC
  5
8E
330
1F
100
AcDbEntity
  8
0
  6
Continuous
 62
     7
370
    25
100
AcDbCircle
 10
6.05
 20
-0.075
 30
0.0
 40
0.3
100
AcDbArc
 50
180.0
 51
270.0
  0
LINE
  5
8F
330
1F
100
AcDbEntity
  8
0
  6
Continuous
 62
     7
370
    25
100
AcDbLine
 10
5.75
 20
0.075
 30
0.0
 11
5.75
 21
-0.075
 31
0.0
  0
ARC
  5
90
330
1F
100
AcDbEntity
  8
0
  6
Continuous
 62
     7
370
    25
100
AcDbCircle
 10
6.05
 20
0.075
 30
0.0
 40
0.3
100
AcDbArc
 50
90.0
 51
180.0
  0
LINE
  5
91
330
1F
100
AcDbEntity
  8
0
  6
Continuous
 62
     7
370
    25
100
AcDbLine
 10
-0.8081791667
 20
-0.418
 30
0.0
 11
-0.7527621475
 21
-0.418
 31
0.0
  0
LINE
  5
92
330
1F
100
AcDbEntity
  8
0
  6
Continuous
 62
     7
370
    25
100
AcDbLine
 10
-0.7527621475
 20
-0.418
 30
0.0
 11
-0.7527621475
 21
-0.55
 31
0.0
  0
LINE
  5
93
330
1F
100
AcDbEntity
  8
0
  6
Continuous
 62
     7
370
    25
100
AcDbLine
 10
-0.7527621475
 20
-0.55
 30
0.0
 11
-1.0300125
 21
-0.55
 31
0.0
  0
SPLINE
  5
94
330
1F
100
AcDbEntity
  8
0
  6
Continuous
 62
     7
370
    25
100
AcDbSpline
210
0.0
220
0.0
230
1.0
 70
     8
 71
     3
 72
    23
 73
    19
 74
     0
 42
0.00000001
 43
0.00000001
 40
0.0
 40
0.0
 40
0.0
 40
0.0
 40
0.0724237403210718
 40
0.1400814880688955
 40
0.2043194316182256
 40
0.2657238078172168
 40
0.3245427255907773
 40
0.3813402305580567
 40
0.438302088427264
 40
0.4951818292073515
 40
0.5522325138746309
 40
0.609467244481006
 40
0.6675330251076167
 40
0.7270824771583649
 40
0.789268463819126
 40
0.8554712865108682
 40
0.9255553361255773
 40
1.0
 40
1.0
 40
1.0
 40
1.0
 10
-1.030012500000004
 20
-0.5500000000000002
 30
0.0
 10
-1.036284687596863
 20
-0.5499003323038582
 30
0.0
 10
-1.048416308638805
 20
-0.5497075557484623
 30
0.0
 10
-1.065975344117597
 20
-0.5473064730966207
 30
0.0
 10
-1.082317781804562
 20
-0.5436678076438411
 30
0.0
 10
-1.097544075685391
 20
-0.5387335635406434
 30
0.0
 10
-1.111361335540704
 20
-0.5320120773726476
 30
0.0
 10
-1.123952619161332
 20
-0.5239098482185228
 30
0.0
 10
-1.135205195460995
 20
-0.5142635523569472
 30
0.0
 10
-1.145036784521505
 20
-0.5031754562728847
 30
0.0
 10
-1.153666811384691
 20
-0.491070805711369
 30
0.0
 10
-1.160218147510357
 20
-0.4776185382497953
 30
0.0
 10
-1.165408620614989
 20
-0.4633553815450011
 30
0.0
 10
-1.168407125389281
 20
-0.4480522743952213
 30
0.0
 10
-1.170488686944236
 20
-0.4318845251644172
 30
0.0
 10
-1.169979596182368
 20
-0.4146672125602431
 30
0.0
 10
-1.168224260331219
 20
-0.3964974019182253
 30
0.0
 10
-1.165788142584812
 20
-0.3842198327962462
 30
0.0
 10
-1.164533333333337
 20
-0.3778958333333334
 30
0.0
  0
LINE
  5
95
330
1F
100
AcDbEntity
  8
0
  6
Continuous
 62
     7
370
    25
100
AcDbLine
 10
-1.1645333333
 20
-0.3778958333
 30
0.0
 11
-1.0061791667
 21
0.3778958333
 31
0.0
  0
SPLINE
  5
96
330
1F
100
AcDbEntity
  8
0
  6
Continuous
 62
     7
370
    25
100
AcDbSpline
210
0.0
220
0.0
230
1.0
 70
     8
 71
     3
 72
    15
 73
    11
 74
     0
 42
0.00000001
 43
0.00000001
 40
0.0
 40
0.0
 40
0.0
 40
0.0
 40
0.1328145154722217
 40
0.2591660473005374
 40
0.3828652351135338
 40
0.5077263618779765
 40
0.6318033187241767
 40
0.7526010143237519
 40
0.8740291929606401
 40
1.0
 40
1.0
 40
1.0
 40
1.0
 10
-1.006179166666671
 20
0.3778958333333333
 30
0.0
 10
-1.002836456454984
 20
0.3904093768485926
 30
0.0
 10
-0.9963136980821224
 20
0.414827533245446
 30
0.0
 10
-0.9799216565470239
 20
0.4485624255132214
 30
0.0
 10
-0.9585865857859528
 20
0.4783895928051842
 30
0.0
 10
-0.9323706785555704
 20
0.5037149222233962
 30
0.0
 10
-0.9027250757914199
 20
0.5244306933072643
 30
0.0
 10
-0.8701280006859088
 20
0.5393106947674858
 30
0.0
 10
-0.8351675321804795
 20
0.5483232032448083
 30
0.0
 10
-0.8110589565403442
 20
0.5494342674618743
 30
0.0
 10
-0.7987833333333374
 20
0.55
 30
0.0
  0
LINE
  5
97
330
1F
100
AcDbEntity
  8
0
  6
Continuous
 62
     7
370
    25
100
AcDbLine
 10
-0.7987833333
 20
0.55
 30
0.0
 11
-0.5867075495
 21
0.55
 31
0.0
  0
LINE
  5
98
330
1F
100
AcDbEntity
  8
0
  6
Continuous
 62
     7
370
    25
100
AcDbLine
 10
-0.5867075495
 20
0.55
 30
0.0
 11
-0.5867075495
 21
0.418
 31
0.0
  0
LINE
  5
99
330
1F
100
AcDbEntity
  8
0
  6
Continuous
 62
     7
370
    25
100
AcDbLine
 10
-0.5867075495
 20
0.418
 30
0.0
 11
-0.6340125
 21
0.418
 31
0.0
  0
LINE
  5
9A
330
1F
100
AcDbEntity
  8
0
  6
Continuous
 62
     7
370
    25
100
AcDbLine
 10
-0.6340125
 20
0.418
 30
0.0
 11
-0.8081791667
 21
-0.418
 31
0.0
  0
LINE
  5
9B
330
1F
100
AcDbEntity
  8
0
  6
Continuous
 62
     7
370
    25
100
AcDbLine
 10
-0.4153875
 20
-0.55
 30
0.0
 11
-0.6342003061
 21
-0.55
 31
0.0
  0
LINE
  5
9C
330
1F
100
AcDbEntity
  8
0
  6
Continuous
 62
     7
370
    25
100
AcDbLine
 10
-0.6342003061
 20
-0.55
 30
0.0
 11
-0.6342003061
 21
-0.418
 31
0.0
  0
LINE
  5
9D
330
1F
100
AcDbEntity
  8
0
  6
Continuous
 62
     7
370
    25
100
AcDbLine
 10
-0.6342003061
 20
-0.418
 30
0.0
 11
-0.5801583333
 21
-0.418
 31
0.0
  0
LINE
  5
9E
330
1F
100
AcDbEntity
  8
0
  6
Continuous
 62
     7
370
    25
100
AcDbLine
 10
-0.5801583333
 20
-0.418
 30
0.0
 11
-0.4059916667
 21
0.418
 31
0.0
  0
LINE
  5
9F
330
1F
100
AcDbEntity
  8
0
  6
Continuous
 62
     7
370
    25
100
AcDbLine
 10
-0.4059916667
 20
0.418
 30
0.0
 11
-0.499468731
 21
0.418
 31
0.0
  0
LINE
  5
A0
330
1F
100
AcDbEntity
  8
0
  6
Continuous
 62
     7
370
    25
100
AcDbLine
 10
-0.499468731
 20
0.418
 30
0.0
 11
-0.499468731
 21
0.55
 31
0.0
  0
LINE
  5
A1
330
1F
100
AcDbEntity
  8
0
  6
Continuous
 62
     7
370
    25
100
AcDbLine
 10
-0.499468731
 20
0.55
 30
0.0
 11
-0.1841583333
 21
0.55
 31
0.0
  0
SPLINE
  5
A2
330
1F
100
AcDbEntity
  8
0
  6
Continuous
 62
     7
370
    25
100
AcDbSpline
210
0.0
220
0.0
230
1.0
 70
     8
 71
     3
 72
    23
 73
    19
 74
     0
 42
0.00000001
 43
0.00000001
 40
0.0
 40
0.0
 40
0.0
 40
0.0
 40
0.0724020038837271
 40
0.1400394456049871
 40
0.2042581095088732
 40
0.2656440564970832
 40
0.3244453210299352
 40
0.3812257794403459
 40
0.4381705414256739
 40
0.4950332109675712
 40
0.552066773091507
 40
0.6096843350077881
 40
0.6677326884317041
 40
0.7272642679874988
 40
0.7893375925294921
 40
0.8555146637144116
 40
0.9255776790999224
 40
1.0
 40
1.0
 40
1.0
 40
1.0
 10
-0.1841583333333373
 20
0.55
 30
0.0
 10
-0.1778861465439653
 20
0.5499003319008265
 30
0.0
 10
-0.1657545270638586
 20
0.5497075545658905
 30
0.0
 10
-0.14819548064453
 20
0.5473064773746696
 30
0.0
 10
-0.1318530813655981
 20
0.5436677927517409
 30
0.0
 10
-0.1166266533989944
 20
0.5387336155731971
 30
0.0
 10
-0.1028098638923464
 20
0.5320118946456106
 30
0.0
 10
-0.0902168964384231
 20
0.5239105059233707
 30
0.0
 10
-0.0789705748758285
 20
0.5142610882085341
 30
0.0
 10
-0.0691156299536771
 20
0.503184649460667
 30
0.0
 10
-0.0605531197407725
 20
0.4910079339949253
 30
0.0
 10
-0.0536625295119522
 20
0.4776854832503488
 30
0.0
 10
-0.0485764455233077
 20
0.4633439393440094
 30
0.0
 10
-0.0454328382733875
 20
0.44807122587909
 30
0.0
 10
-0.0438503024732815
 20
0.4318671032569004
 30
0.0
 10
-0.0438464777519235
 20
0.4146691059100291
 30
0.0
 10
-0.0457491536657114
 20
0.3964967428565551
 30
0.0
 10
-0.0481643172630172
 20
0.384219608734193
 30
0.0
 10
-0.0494083333333373
 20
0.3778958333333333
 30
0.0
  0
LINE
  5
A3
330
1F
100
AcDbEntity
  8
0
  6
Continuous
 62
     7
370
    25
100
AcDbLine
 10
-0.0494083333
 20
0.3778958333
 30
0.0
 11
-0.2079916667
 21
-0.3778958333
 31
0.0
  0
SPLINE
  5
A4
330
1F
100
AcDbEntity
  8
0
  6
Continuous
 62
     7
370
    25
100
AcDbSpline
210
0.0
220
0.0
230
1.0
 70
     8
 71
     3
 72
    15
 73
    11
 74
     0
 42
0.00000001
 43
0.00000001
 40
0.0
 40
0.0
 40
0.0
 40
0.0
 40
0.1327962190642632
 40
0.2591303448194222
 40
0.3828124919437835
 40
0.5076564179519281
 40
0.6310719788824126
 40
0.7518530335003044
 40
0.8732644843007348
 40
0.9999999999999999
 40
0.9999999999999999
 40
0.9999999999999999
 40
0.9999999999999999
 10
-0.2079916666666706
 20
-0.3778958333333334
 30
0.0
 10
-0.2113342087006427
 20
-0.3904096204963847
 30
0.0
 10
-0.2178566389018929
 20
-0.4148282523324996
 30
0.0
 10
-0.2342510336971149
 20
-0.448559735310084
 30
0.0
 10
-0.2555774090664385
 20
-0.4783995000677924
 30
0.0
 10
-0.2817805143213101
 20
-0.5036339035111839
 30
0.0
 10
-0.3112455688875941
 20
-0.5244980841600921
 30
0.0
 10
-0.3438211630813583
 20
-0.5392996030829669
 30
0.0
 10
-0.3788465470095657
 20
-0.5483458600887897
 30
0.0
 10
-0.4030341979886073
 20
-0.5494407893549567
 30
0.0
 10
-0.415387500000004
 20
-0.5500000000000002
 30
0.0
  0
LINE
  5
A5
330
1F
100
AcDbEntity
  8
0
  6
Continuous
 62
     7
370
    25
100
AcDbLine
 10
0.0677416667
 20
-0.0389583333
 30
0.0
 11
0.1896583333
 21
0.55
 31
0.0
  0
LINE
  5
A6
330
1F
100
AcDbEntity
  8
0
  6
Continuous
 62
     7
370
    25
100
AcDbLine
 10
0.1896583333
 20
0.55
 30
0.0
 11
0.5540333333
 21
0.55
 31
0.0
  0
LINE
  5
A7
330
1F
100
AcDbEntity
  8
0
  6
Continuous
 62
     7
370
    25
100
AcDbLine
 10
0.5540333333
 20
0.55
 30
0.0
 11
0.4240958333
 21
-0.0806666667
 31
0.0
  0
LINE
  5
A8
330
1F
100
AcDbEntity
  8
0
  6
Continuous
 62
     7
370
    25
100
AcDbLine
 10
0.4240958333
 20
-0.0806666667
 30
0.0
 11
0.6523458333
 21
-0.0806666667
 31
0.0
  0
LINE
  5
A9
330
1F
100
AcDbEntity
  8
0
  6
Continuous
 62
     7
370
    25
100
AcDbLine
 10
0.6523458333
 20
-0.0806666667
 30
0.0
 11
0.7822833333
 21
0.55
 31
0.0
  0
LINE
  5
AA
330
1F
100
AcDbEntity
  8
0
  6
Continuous
 62
     7
370
    25
100
AcDbLine
 10
0.7822833333
 20
0.55
 30
0.0
 11
1.1464291667
 21
0.55
 31
0.0
  0
LINE
  5
AB
330
1F
100
AcDbEntity
  8
0
  6
Continuous
 62
     7
370
    25
100
AcDbLine
 10
1.1464291667
 20
0.55
 30
0.0
 11
0.9152
 21
-0.55
 31
0.0
  0
LINE
  5
AC
330
1F
100
AcDbEntity
  8
0
  6
Continuous
 62
     7
370
    25
100
AcDbLine
 10
0.9152
 20
-0.55
 30
0.0
 11
0.550825
 21
-0.55
 31
0.0
  0
LINE
  5
AD
330
1F
100
AcDbEntity
  8
0
  6
Continuous
 62
     7
370
    25
100
AcDbLine
 10
0.550825
 20
-0.55
 30
0.0
 11
0.6237
 21
-0.2126666667
 31
0.0
  0
LINE
  5
AE
330
1F
100
AcDbEntity
  8
0
  6
Continuous
 62
     7
370
    25
100
AcDbLine
 10
0.6237
 20
-0.2126666667
 30
0.0
 11
0.2024916667
 21
-0.2126666667
 31
0.0
  0
SPLINE
  5
AF
330
1F
100
AcDbEntity
  8
0
  6
Continuous
 62
     7
370
    25
100
AcDbSpline
210
0.0
220
0.0
230
1.0
 70
     8
 71
     3
 72
    23
 73
    19
 74
     0
 42
0.00000001
 43
0.00000001
 40
0.0
 40
0.0
 40
0.0
 40
0.0
 40
0.0720119817964564
 40
0.1392850676327585
 40
0.2031577922532825
 40
0.2644962341321915
 40
0.3229807423503413
 40
0.3794553303190858
 40
0.4360933367764272
 40
0.4938889887024616
 40
0.5513371150563608
 40
0.6082464428579824
 40
0.6668099130943852
 40
0.726020802204178
 40
0.7887252473151151
 40
0.855429210727316
 40
0.9251148039140569
 40
1.0
 40
1.0
 40
1.0
 40
1.0
 10
0.2024916666666618
 20
-0.2126666666666668
 30
0.0
 10
0.196218760758425
 20
-0.2125691095293007
 30
0.0
 10
0.1840857503636787
 20
-0.2123804152018137
 30
0.0
 10
0.1665364471957336
 20
-0.2099507368535964
 30
0.0
 10
0.1501357150339483
 20
-0.2064072469112412
 30
0.0
 10
0.1350065572363269
 20
-0.2011100464668771
 30
0.0
 10
0.1211379634505785
 20
-0.1944667334522574
 30
0.0
 10
0.1085483382454414
 20
-0.1863463234820636
 30
0.0
 10
0.0972346846055977
 20
-0.1766175676467287
 30
0.0
 10
0.087217878365265
 20
-0.1654529945459713
 30
0.0
 10
0.0786842113518817
 20
-0.1530754690945981
 30
0.0
 10
0.0719899090520249
 20
-0.139548846099426
 30
0.0
 10
0.0669155532664951
 20
-0.1251634742908424
 30
0.0
 10
0.0638356521531198
 20
-0.1097319923081484
 30
0.0
 10
0.0617956893725615
 20
-0.093403098281361
 30
0.0
 10
0.062281376308295
 20
-0.0760352169763849
 30
0.0
 10
0.0640708603800309
 20
-0.0577160271445282
 30
0.0
 10
0.0664890735869212
 20
-0.0453590408687234
 30
0.0
 10
0.0677416666666618
 20
-0.0389583333333335
 30
0.0
  0
LINE
  5
B0
330
1F
100
AcDbEntity
  8
0
  6
Continuous
 62
     7
370
    25
100
AcDbLine
 10
2.0716208333
 20
-0.2126666667
 30
0.0
 11
1.6501833333
 21
-0.2126666667
 31
0.0
  0
LINE
  5
B1
330
1F
100
AcDbEntity
  8
0
  6
Continuous
 62
     7
370
    25
100
AcDbLine
 10
1.6501833333
 20
-0.2126666667
 30
0.0
 11
1.6059541667
 21
-0.418
 31
0.0
  0
LINE
  5
B2
330
1F
100
AcDbEntity
  8
0
  6
Continuous
 62
     7
370
    25
100
AcDbLine
 10
1.6059541667
 20
-0.418
 30
0.0
 11
2.19835
 21
-0.418
 31
0.0
  0
LINE
  5
B3
330
1F
100
AcDbEntity
  8
0
  6
Continuous
 62
     7
370
    25
100
AcDbLine
 10
2.19835
 20
-0.418
 30
0.0
 11
2.1697041667
 21
-0.55
 31
0.0
  0
LINE
  5
B4
330
1F
100
AcDbEntity
  8
0
  6
Continuous
 62
     7
370
    25
100
AcDbLine
 10
2.1697041667
 20
-0.55
 30
0.0
 11
1.2131625
 21
-0.55
 31
0.0
  0
LINE
  5
B5
330
1F
100
AcDbEntity
  8
0
  6
Continuous
 62
     7
370
    25
100
AcDbLine
 10
1.2131625
 20
-0.55
 30
0.0
 11
1.2780166667
 21
-0.2484166667
 31
0.0
  0
SPLINE
  5
B6
330
1F
100
AcDbEntity
  8
0
  6
Continuous
 62
     7
370
    25
100
AcDbSpline
210
0.0
220
0.0
230
1.0
 70
     8
 71
     3
 72
    15
 73
    11
 74
     0
 42
0.00000001
 43
0.00000001
 40
0.0
 40
0.0
 40
0.0
 40
0.0
 40
0.1311462259707861
 40
0.2559470591993064
 40
0.3789930469380569
 40
0.5034888202511183
 40
0.6279441990876743
 40
0.7493316879873113
 40
0.872006788638133
 40
0.9999999999999999
 40
0.9999999999999999
 40
0.9999999999999999
 40
0.9999999999999999
 10
1.278016666666661
 20
-0.2484166666666666
 30
0.0
 10
1.281355949877047
 20
-0.2362026142454208
 30
0.0
 10
1.287872948068991
 20
-0.2123654753953832
 30
0.0
 10
1.304354660450201
 20
-0.1795153987920409
 30
0.0
 10
1.325622096854646
 20
-0.1503970830305164
 30
0.0
 10
1.351927338241135
 20
-0.1258037311018602
 30
0.0
 10
1.381479975610262
 20
-0.1054776329718732
 30
0.0
 10
1.414178671284733
 20
-0.0912414193883531
 30
0.0
 10
1.44907956439847
 20
-0.0820071213723902
 30
0.0
 10
1.473283133796085
 20
-0.081119760239369
 30
0.0
 10
1.485641666666661
 20
-0.0806666666666666
 30
0.0
  0
LINE
  5
B7
330
1F
100
AcDbEntity
  8
0
  6
Continuous
 62
     7
370
    25
100
AcDbLine
 10
1.4856416667
 20
-0.0806666667
 30
0.0
 11
1.90685
 21
-0.0806666667
 31
0.0
  0
LINE
  5
B8
330
1F
100
AcDbEntity
  8
0
  6
Continuous
 62
     7
370
    25
100
AcDbLine
 10
1.90685
 20
-0.0806666667
 30
0.0
 11
2.0081416667
 21
0.418
 31
0.0
  0
LINE
  5
B9
330
1F
100
AcDbEntity
  8
0
  6
Continuous
 62
     7
370
    25
100
AcDbLine
 10
2.0081416667
 20
0.418
 30
0.0
 11
1.7801208333
 21
0.418
 31
0.0
  0
LINE
  5
BA
330
1F
100
AcDbEntity
  8
0
  6
Continuous
 62
     7
370
    25
100
AcDbLine
 10
1.7801208333
 20
0.418
 30
0.0
 11
1.7420791667
 21
0.2374166667
 31
0.0
  0
LINE
  5
BB
330
1F
100
AcDbEntity
  8
0
  6
Continuous
 62
     7
370
    25
100
AcDbLine
 10
1.7420791667
 20
0.2374166667
 30
0.0
 11
1.3777041667
 21
0.2374166667
 31
0.0
  0
LINE
  5
BC
330
1F
100
AcDbEntity
  8
0
  6
Continuous
 62
     7
370
    25
100
AcDbLine
 10
1.3777041667
 20
0.2374166667
 30
0.0
 11
1.4079541667
 21
0.3847708333
 31
0.0
  0
SPLINE
  5
BD
330
1F
100
AcDbEntity
  8
0
  6
Continuous
 62
     7
370
    25
100
AcDbSpline
210
0.0
220
0.0
230
1.0
 70
     8
 71
     3
 72
    15
 73
    11
 74
     0
 42
0.00000001
 43
0.00000001
 40
0.0
 40
0.0
 40
0.0
 40
0.0
 40
0.1312710007293951
 40
0.2554880464631468
 40
0.3780841719982168
 40
0.5023294212000662
 40
0.6267386364900223
 40
0.7486260175920904
 40
0.8719371464561959
 40
1.0
 40
1.0
 40
1.0
 40
1.0
 10
1.407954166666661
 20
0.3847708333333333
 30
0.0
 10
1.411284017165192
 20
0.3969134553779174
 30
0.0
 10
1.41776478591196
 20
0.4205462057026158
 30
0.0
 10
1.434304133243046
 20
0.4530039223421974
 30
0.0
 10
1.45558096641379
 20
0.4816598704714896
 30
0.0
 10
1.481880299051678
 20
0.5058135611811659
 30
0.0
 10
1.511499603388831
 20
0.525626359499127
 30
0.0
 10
1.544125092188598
 20
0.5396868096249792
 30
0.0
 10
1.578976156590842
 20
0.5485770718548892
 30
0.0
 10
1.603073547795116
 20
0.5495197507954293
 30
0.0
 10
1.615349999999995
 20
0.5500000000000002
 30
0.0
  0
LINE
  5
BE
330
1F
100
AcDbEntity
  8
0
  6
Continuous
 62
     7
370
    25
100
AcDbLine
 10
1.61535
 20
0.55
 30
0.0
 11
2.229975
 21
0.55
 31
0.0
  0
SPLINE
  5
BF
330
1F
100
AcDbEntity
  8
0
  6
Continuous
 62
     7
370
    25
100
AcDbSpline
210
0.0
220
0.0
230
1.0
 70
     8
 71
     3
 72
    23
 73
    19
 74
     0
 42
0.00000001
 43
0.00000001
 40
0.0
 40
0.0
 40
0.0
 40
0.0
 40
0.0720323478378714
 40
0.1393244594865198
 40
0.2032152482475177
 40
0.2645710375346845
 40
0.323072086026922
 40
0.3795626458349196
 40
0.4362166703486514
 40
0.4934458773703208
 40
0.550910250894363
 40
0.6082336402882368
 40
0.6668136731303406
 40
0.7260413079453591
 40
0.7886712708440067
 40
0.8553883239941864
 40
0.9250936252856277
 40
1.0
 40
1.0
 40
1.0
 40
1.0
 10
2.229974999999995
 20
0.5500000000000002
 30
0.0
 10
2.23624791285482
 20
0.5499024493603506
 30
0.0
 10
2.24838093668561
 20
0.5497137676007012
 30
0.0
 10
2.265930145735091
 20
0.5472840012157353
 30
0.0
 10
2.282331208797578
 20
0.5437408207920499
 30
0.0
 10
2.297459207976215
 20
0.5384425365959592
 30
0.0
 10
2.311331852198404
 20
0.5318030122880189
 30
0.0
 10
2.323906992439485
 20
0.5236690533383818
 30
0.0
 10
2.335236093788238
 20
0.51402398832629
 30
0.0
 10
2.345021809199528
 20
0.5027134044797421
 30
0.0
 10
2.353515209241779
 20
0.4903560986579424
 30
0.0
 10
2.360535508304443
 20
0.4769467257309606
 30
0.0
 10
2.365508683690482
 20
0.4624861856011965
 30
0.0
 10
2.368731103531846
 20
0.4470837226911327
 30
0.0
 10
2.370273327855208
 20
0.4307192846382386
 30
0.0
 10
2.370299207178378
 20
0.4133703714287323
 30
0.0
 10
2.368364262510148
 20
0.3950487178635824
 30
0.0
 10
2.365966829363799
 20
0.3826921549221122
 30
0.0
 10
2.364724999999995
 20
0.3762916666666667
 30
0.0
  0
LINE
  5
C0
330
1F
100
AcDbEntity
  8
0
  6
Continuous
 62
     7
370
    25
100
AcDbLine
 10
2.364725
 20
0.3762916667
 30
0.0
 11
2.2790166667
 21
-0.0389583333
 31
0.0
  0
SPLINE
  5
C1
330
1F
100
AcDbEntity
  8
0
  6
Continuous
 62
     7
370
    25
100
AcDbSpline
210
0.0
220
0.0
230
1.0
 70
     8
 71
     3
 72
    15
 73
    11
 74
     0
 42
0.00000001
 43
0.00000001
 40
0.0
 40
0.0
 40
0.0
 40
0.0
 40
0.1330155700021701
 40
0.2602559345798092
 40
0.3840809369861946
 40
0.5089741040608969
 40
0.6323469769920063
 40
0.7526470117523139
 40
0.8737692182584361
 40
0.9999999999999999
 40
0.9999999999999999
 40
0.9999999999999999
 40
0.9999999999999999
 10
2.279016666666661
 20
-0.0389583333333333
 30
0.0
 10
2.275662082379312
 20
-0.0515421025209222
 30
0.0
 10
2.26909856151618
 20
-0.0761632849163299
 30
0.0
 10
2.252828104796891
 20
-0.1102550835171939
 30
0.0
 10
2.231435476089208
 20
-0.1403713311079093
 30
0.0
 10
2.205230467031356
 20
-0.1658122340756413
 30
0.0
 10
2.175836724273214
 20
-0.1869819770595262
 30
0.0
 10
2.143142391137546
 20
-0.201656236534027
 30
0.0
 10
2.108202260630922
 20
-0.2110902095767067
 30
0.0
 10
2.083981386804723
 20
-0.2121339952102664
 30
0.0
 10
2.071620833333328
 20
-0.2126666666666666
 30
0.0
  0
LINE
  5
C2
330
1F
100
AcDbEntity
  8
0
  6
Continuous
 62
     7
370
    25
100
AcDbLine
 10
8.0
 20
-1.0
 30
0.0
 11
8.0
 21
1.0
 31
0.0
  0
LINE
  5
C3
330
1F
100
AcDbEntity
  8
0
  6
Continuous
 62
     7
370
    25
100
AcDbLine
 10
8.0
 20
1.0
 30
0.0
 11
-8.0
 21
1.0
 31
0.0
  0
LINE
  5
C4
330
1F
100
AcDbEntity
  8
0
  6
Continuous
 62
     7
370
    25
100
AcDbLine
 10
-8.0
 20
1.0
 30
0.0
 11
-8.0
 21
-1.0
 31
0.0
  0
LINE
  5
C5
330
1F
100
AcDbEntity
  8
0
  6
Continuous
 62
     7
370
    25
100
AcDbLine
 10
-8.0
 20
-1.0
 30
0.0
 11
8.0
 21
-1.0
 31
0.0
  0
LINE
  5
C6
330
1F
100
AcDbEntity
  8
0
  6
Continuous
 62
     7
370
    25
100
AcDbLine
 10
-2.00585
 20
0.55
 30
0.0
 11
-1.2200375
 21
0.55
 31
0.0
  0
LINE
  5
C7
330
1F
100
AcDbEntity
  8
0
  6
Continuous
 62
     7
370
    25
100
AcDbLine
 10
-1.2200375
 20
0.55
 30
0.0
 11
-1.4514958333
 21
-0.5371666667
 31
0.0
  0
LINE
  5
C8
330
1F
100
AcDbEntity
  8
0
  6
Continuous
 62
     7
370
    25
100
AcDbLine
 10
-1.4514958333
 20
-0.5371666667
 30
0.0
 11
-1.8156416667
 21
-0.5371666667
 31
0.0
  0
LINE
  5
C9
330
1F
100
AcDbEntity
  8
0
  6
Continuous
 62
     7
370
    25
100
AcDbLine
 10
-1.8156416667
 20
-0.5371666667
 30
0.0
 11
-1.6130583333
 21
0.418
 31
0.0
  0
LINE
  5
CA
330
1F
100
AcDbEntity
  8
0
  6
Continuous
 62
     7
370
    25
100
AcDbLine
 10
-1.6130583333
 20
0.418
 30
0.0
 11
-1.8410791667
 21
0.418
 31
0.0
  0
LINE
  5
CB
330
1F
100
AcDbEntity
  8
0
  6
Continuous
 62
     7
370
    25
100
AcDbLine
 10
-1.8410791667
 20
0.418
 30
0.0
 11
-1.8791208333
 21
0.2374166667
 31
0.0
  0
LINE
  5
CC
330
1F
100
AcDbEntity
  8
0
  6
Continuous
 62
     7
370
    25
100
AcDbLine
 10
-1.8791208333
 20
0.2374166667
 30
0.0
 11
-2.2434958333
 21
0.2374166667
 31
0.0
  0
LINE
  5
CD
330
1F
100
AcDbEntity
  8
0
  6
Continuous
 62
     7
370
    25
100
AcDbLine
 10
-2.2434958333
 20
0.2374166667
 30
0.0
 11
-2.2132458333
 21
0.3847708333
 31
0.0
  0
SPLINE
  5
CE
330
1F
100
AcDbEntity
  8
0
  6
Continuous
 62
     7
370
    25
100
AcDbSpline
210
0.0
220
0.0
230
1.0
 70
     8
 71
     3
 72
    15
 73
    11
 74
     0
 42
0.00000001
 43
0.00000001
 40
0.0
 40
0.0
 40
0.0
 40
0.0
 40
0.1312710007293951
 40
0.2554880464631468
 40
0.3780841719982168
 40
0.5023294212000662
 40
0.6267386364900223
 40
0.7486260175920904
 40
0.8719371464561959
 40
1.0
 40
1.0
 40
1.0
 40
1.0
 10
-2.213245833333337
 20
0.3847708333333332
 30
0.0
 10
-2.209915982834806
 20
0.3969134553779172
 30
0.0
 10
-2.203435214088038
 20
0.4205462057026157
 30
0.0
 10
-2.186895866756953
 20
0.4530039223421972
 30
0.0
 10
-2.165619033586208
 20
0.4816598704714894
 30
0.0
 10
-2.139319700948321
 20
0.5058135611811659
 30
0.0
 10
-2.109700396611167
 20
0.5256263594991268
 30
0.0
 10
-2.077074907811401
 20
0.539686809624979
 30
0.0
 10
-2.042223843409156
 20
0.5485770718548892
 30
0.0
 10
-2.018126452204882
 20
0.549519750795429
 30
0.0
 10
-2.005850000000003
 20
0.55
 30
0.0
  0
MTEXT
  5
D0
330
1F
100
AcDbEntity
  8
0
  6
Continuous
 62
     7
100
AcDbMText
 10
-8.0
 20
-1.0401404091
 30
0.0
 40
0.1903
 41
0.0
 71
     1
 72
     1
  1
SOLIDWORKS Educational Product.
  7
SLDTEXTSTYLE0
 73
     1
 44
1.0
  0
MTEXT
  5
D1
330
1F
100
AcDbEntity
  8
0
  6
Continuous
 62
     7
100
AcDbMText
 10
-8.0
 20
-1.3255904091
 30
0.0
 40
0.1903
 41
0.0
 71
     1
 72
     1
  1
For Instructional Use Only.
  7
SLDTEXTSTYLE0
 73
     1
 44
1.0
  0
ENDSEC
  0
SECTION
  2
OBJECTS
  0
DICTIONARY
  5
C
330
0
100
AcDbDictionary
281
     1
  3
ACAD_GROUP
350
D
  3
ACAD_LAYOUT
350
1A
  3
ACAD_MLINESTYLE
350
17
  3
ACAD_PLOTSETTINGS
350
19
  3
ACAD_PLOTSTYLENAME
350
E
  3
ACAD_SCALELIST
350
47
  3
DWGPROPS
350
D2
  0
DICTIONARY
  5
D
102
{ACAD_REACTORS
330
C
102
}
330
C
100
AcDbDictionary
281
     1
  0
DICTIONARY
  5
1A
102
{ACAD_REACTORS
330
C
102
}
330
C
100
AcDbDictionary
281
     1
  3
Layout1
350
1E
  3
Layout2
350
26
  3
Model
350
22
  0
DICTIONARY
  5
17
102
{ACAD_REACTORS
330
C
102
}
330
C
100
AcDbDictionary
281
     1
  3
Standard
350
18
  0
DICTIONARY
  5
19
102
{ACAD_REACTORS
330
C
102
}
330
C
100
AcDbDictionary
281
     1
  0
ACDBDICTIONARYWDFLT
  5
E
102
{ACAD_REACTORS
330
C
102
}
330
C
100
AcDbDictionary
281
     1
  3
Normal
350
F
100
AcDbDictionaryWithDefault
340
F
  0
DICTIONARY
  5
47
102
{ACAD_REACTORS
330
C
102
}
330
C
100
AcDbDictionary
281
     1
  3
A0
350
48
  3
A1
350
49
  3
A2
350
4A
  3
A3
350
4B
  3
A4
350
4C
  3
A5
350
4D
  3
A6
350
4E
  3
A7
350
4F
  3
A8
350
50
  3
A9
350
51
  3
B1
350
52
  3
B2
350
53
  3
B3
350
54
  3
B4
350
55
  3
B5
350
56
  3
B6
350
57
  3
B7
350
58
  0
XRECORD
  5
D2
102
{ACAD_REACTORS
330
C
102
}
330
C
100
AcDbXrecord
280
     1
  1
DWGPROPS COOKIE
  2

  3

  4

  6

  7

  8
ericg
  9

300
=
301
=
302
=
303
=
304
=
305
=
306
=
307
=
308
=
309
=
 40
0.0
 41
2460338.09588544
 42
2460338.095922662
  1

 90
        0
  0
LAYOUT
  5
1E
102
{ACAD_REACTORS
330
1A
102
}
330
1A
100
AcDbPlotSettings
  1

  2
none_device
  4

  6

 40
0.0
 41
0.0
 42
0.0
 43
0.0
 44
0.0
 45
0.0
 46
0.0
 47
0.0
 48
0.0
 49
0.0
140
0.0
141
0.0
142
1.0
143
1.0
 70
   688
 72
     0
 73
     0
 74
     5
  7

 75
    16
147
1.0
148
0.0
149
0.0
100
AcDbLayout
  1
Layout1
 70
     1
 71
     1
 10
0.0
 20
0.0
 11
12.0
 21
9.0
 12
0.0
 22
0.0
 32
0.0
 14
1.0000000000E+20
 24
1.0000000000E+20
 34
1.0000000000E+20
 15
-1.0000000000E+20
 25
-1.0000000000E+20
 35
-1.0000000000E+20
146
0.0
 13
0.0
 23
0.0
 33
0.0
 16
1.0
 26
0.0
 36
0.0
 17
0.0
 27
1.0
 37
0.0
 76
     0
330
1B
  0
LAYOUT
  5
26
102
{ACAD_REACTORS
330
1A
102
}
330
1A
100
AcDbPlotSettings
  1

  2
none_device
  4

  6

 40
0.0
 41
0.0
 42
0.0
 43
0.0
 44
0.0
 45
0.0
 46
0.0
 47
0.0
 48
0.0
 49
0.0
140
0.0
141
0.0
142
1.0
143
1.0
 70
   688
 72
     0
 73
     0
 74
     5
  7

 75
    16
147
1.0
148
0.0
149
0.0
100
AcDbLayout
  1
Layout2
 70
     1
 71
     2
 10
0.0
 20
0.0
 11
0.0
 21
0.0
 12
0.0
 22
0.0
 32
0.0
 14
0.0
 24
0.0
 34
0.0
 15
0.0
 25
0.0
 35
0.0
146
0.0
 13
0.0
 23
0.0
 33
0.0
 16
1.0
 26
0.0
 36
0.0
 17
0.0
 27
1.0
 37
0.0
 76
     0
330
23
  0
LAYOUT
  5
22
102
{ACAD_REACTORS
330
1A
102
}
330
1A
100
AcDbPlotSettings
  1

  2
none_device
  4
ANSI_A_(11.00_x_8.50_Inches)
  6

 40
6.35
 41
19.05
 42
6.35000508
 43
19.05000254
 44
279.4
 45
215.9
 46
133.34999746
 47
88.89999873
 48
0.0
 49
0.0
140
0.0
141
0.0
142
0.680625
143
1.0
 70
  1696
 72
     0
 73
     0
 74
     0
  7

 75
     0
147
0.5913241897
148
-39.4088153714
149
0.0
100
AcDbLayout
  1
Model
 70
     1
 71
     0
 10
0.0
 20
0.0
 11
12.0
 21
9.0
 12
0.0
 22
0.0
 32
0.0
 14
-8.0
 24
-1.0
 34
0.0
 15
8.0
 25
1.0
 35
0.0
146
0.0
 13
0.0
 23
0.0
 33
0.0
 16
1.0
 26
0.0
 36
0.0
 17
0.0
 27
1.0
 37
0.0
 76
     0
330
1F
331
29
  0
MLINESTYLE
  5
18
102
{ACAD_REACTORS
330
17
102
}
330
17
100
AcDbMlineStyle
  2
Standard
 70
     0
  3

 62
   256
 51
90.0
 52
90.0
 71
     2
 49
0.5
 62
   256
  6
BYLAYER
 49
-0.5
 62
   256
  6
BYLAYER
  0
ACDBPLACEHOLDER
  5
F
102
{ACAD_REACTORS
330
E
102
}
330
E
  0
SCALE
  5
48
102
{ACAD_REACTORS
330
47
102
}
330
47
100
AcDbScale
 70
     0
300
1:1
140
1.0
141
1.0
290
     1
  0
SCALE
  5
49
102
{ACAD_REACTORS
330
47
102
}
330
47
100
AcDbScale
 70
     0
300
1/128" = 1'-0"
140
0.0078125
141
12.0
290
     0
  0
SCALE
  5
4A
102
{ACAD_REACTORS
330
47
102
}
330
47
100
AcDbScale
 70
     0
300
1/64" = 1'-0"
140
0.015625
141
12.0
290
     0
  0
SCALE
  5
4B
102
{ACAD_REACTORS
330
47
102
}
330
47
100
AcDbScale
 70
     0
300
1/32" = 1'-0"
140
0.03125
141
12.0
290
     0
  0
SCALE
  5
4C
102
{ACAD_REACTORS
330
47
102
}
330
47
100
AcDbScale
 70
     0
300
1/16" = 1'-0"
140
0.0625
141
12.0
290
     0
  0
SCALE
  5
4D
102
{ACAD_REACTORS
330
47
102
}
330
47
100
AcDbScale
 70
     0
300
3/32" = 1'-0"
140
0.09375
141
12.0
290
     0
  0
SCALE
  5
4E
102
{ACAD_REACTORS
330
47
102
}
330
47
100
AcDbScale
 70
     0
300
1/8" = 1'-0"
140
0.125
141
12.0
290
     0
  0
SCALE
  5
4F
102
{ACAD_REACTORS
330
47
102
}
330
47
100
AcDbScale
 70
     0
300
3/16" = 1'-0"
140
0.1875
141
12.0
290
     0
  0
SCALE
  5
50
102
{ACAD_REACTORS
330
47
102
}
330
47
100
AcDbScale
 70
     0
300
1/4" = 1'-0"
140
0.25
141
12.0
290
     0
  0
SCALE
  5
51
102
{ACAD_REACTORS
330
47
102
}
330
47
100
AcDbScale
 70
     0
300
3/8" = 1'-0"
140
0.375
141
12.0
290
     0
  0
SCALE
  5
52
102
{ACAD_REACTORS
330
47
102
}
330
47
100
AcDbScale
 70
     0
300
1/2" = 1'-0"
140
0.5
141
12.0
290
     0
  0
SCALE
  5
53
102
{ACAD_REACTORS
330
47
102
}
330
47
100
AcDbScale
 70
     0
300
3/4" = 1'-0"
140
0.75
141
12.0
290
     0
  0
SCALE
  5
54
102
{ACAD_REACTORS
330
47
102
}
330
47
100
AcDbScale
 70
     0
300
1" = 1'-0"
140
1.0
141
12.0
290
     0
  0
SCALE
  5
55
102
{ACAD_REACTORS
330
47
102
}
330
47
100
AcDbScale
 70
     0
300
1-1/2" = 1'-0"
140
1.5
141
12.0
290
     0
  0
SCALE
  5
56
102
{ACAD_REACTORS
330
47
102
}
330
47
100
AcDbScale
 70
     0
300
3" = 1'-0"
140
3.0
141
12.0
290
     0
  0
SCALE
  5
57
102
{ACAD_REACTORS
330
47
102
}
330
47
100
AcDbScale
 70
     0
300
6" = 1'-0"
140
6.0
141
12.0
290
     0
  0
SCALE
  5
58
102
{ACAD_REACTORS
330
47
102
}
330
47
100
AcDbScale
 70
     0
300
1'-0" = 1'-0"
140
12.0
141
12.0
290
     0
  0
ENDSEC
  0
EOF
