  0
SECTION
  2
HEADER
  9
$ACADVER
  1
AC1015
  9
$ACADMAINTVER
 70
     6
  9
$DWGCODEPAGE
  3
ANSI_1252
  9
$INSBASE
 10
0.0
 20
0.0
 30
0.0
  9
$EXTMIN
 10
-5.549824595
 20
-6.25
 30
0.0
  9
$EXTMAX
 10
5.549824595
 20
5.455332
 30
0.0
  9
$LIMMIN
 10
0.0
 20
0.0
  9
$LIMMAX
 10
12.0
 20
9.0
  9
$ORTHOMODE
 70
     0
  9
$REGENMODE
 70
     1
  9
$FILLMODE
 70
     1
  9
$QTEXTMODE
 70
     0
  9
$MIRRTEXT
 70
     1
  9
$LTSCALE
 40
1.0
  9
$ATTMODE
 70
     1
  9
$TEXTSIZE
 40
0.1377952756
  9
$TRACEWID
 40
0.05
  9
$TEXTSTYLE
  7
Standard
  9
$CLAYER
  8
0
  9
$CELTYPE
  6
ByLayer
  9
$CECOLOR
 62
   256
  9
$CELTSCALE
 40
1.0
  9
$DISPSILH
 70
     0
  9
$DIMSCALE
 40
1.0
  9
$DIMASZ
 40
0.13
  9
$DIMEXO
 40
0.0
  9
$DIMDLI
 40
0.38
  9
$DIMRND
 40
0.0
  9
$DIMDLE
 40
0.0
  9
$DIMEXE
 40
0.125
  9
$DIMTP
 40
0.0
  9
$DIMTM
 40
0.0
  9
$DIMTXT
 40
0.1377952756
  9
$DIMCEN
 40
0.09
  9
$DIMTSZ
 40
0.0
  9
$DIMTOL
 70
     0
  9
$DIMLIM
 70
     0
  9
$DIMTIH
 70
     1
  9
$DIMTOH
 70
     1
  9
$DIMSE1
 70
     0
  9
$DIMSE2
 70
     0
  9
$DIMTAD
 70
     1
  9
$DIMZIN
 70
     1
  9
$DIMBLK
  1

  9
$DIMASO
 70
     1
  9
$DIMSHO
 70
     1
  9
$DIMPOST
  1

  9
$DIMAPOST
  1

  9
$DIMALT
 70
     0
  9
$DIMALTD
 70
     2
  9
$DIMALTF
 40
25.4
  9
$DIMLFAC
 40
1.0
  9
$DIMTOFL
 70
     0
  9
$DIMTVP
 40
0.0
  9
$DIMTIX
 70
     0
  9
$DIMSOXD
 70
     0
  9
$DIMSAH
 70
     0
  9
$DIMBLK1
  1

  9
$DIMBLK2
  1

  9
$DIMSTYLE
  2
Standard
  9
$DIMCLRD
 70
     0
  9
$DIMCLRE
 70
     0
  9
$DIMCLRT
 70
     0
  9
$DIMTFAC
 40
1.0
  9
$DIMGAP
 40
0.06
  9
$DIMJUST
 70
     0
  9
$DIMSD1
 70
     0
  9
$DIMSD2
 70
     0
  9
$DIMTOLJ
 70
     1
  9
$DIMTZIN
 70
     1
  9
$DIMALTZ
 70
     0
  9
$DIMALTTZ
 70
     0
  9
$DIMUPT
 70
     0
  9
$DIMDEC
 70
     2
  9
$DIMTDEC
 70
     2
  9
$DIMALTU
 70
     2
  9
$DIMALTTD
 70
     2
  9
$DIMTXSTY
  7
Standard
  9
$DIMAUNIT
 70
     0
  9
$DIMADEC
 70
     2
  9
$DIMALTRND
 40
0.0
  9
$DIMAZIN
 70
     0
  9
$DIMDSEP
 70
    46
  9
$DIMATFIT
 70
     3
  9
$DIMFRAC
 70
     0
  9
$DIMLDRBLK
  1

  9
$DIMLUNIT
 70
     2
  9
$DIMLWD
 70
    -2
  9
$DIMLWE
 70
    -2
  9
$DIMTMOVE
 70
     0
  9
$LUNITS
 70
     2
  9
$LUPREC
 70
     6
  9
$SKETCHINC
 40
0.1
  9
$FILLETRAD
 40
0.0
  9
$AUNITS
 70
     0
  9
$AUPREC
 70
     2
  9
$MENU
  1
.
  9
$ELEVATION
 40
0.0
  9
$PELEVATION
 40
0.0
  9
$THICKNESS
 40
0.0
  9
$LIMCHECK
 70
     0
  9
$CHAMFERA
 40
0.0
  9
$CHAMFERB
 40
0.0
  9
$CHAMFERC
 40
0.0
  9
$CHAMFERD
 40
0.0
  9
$SKPOLY
 70
     0
  9
$TDCREATE
 40
2460336.792992119
  9
$TDUCREATE
 40
2460337.126325452
  9
$TDUPDATE
 40
2460336.793016991
  9
$TDUUPDATE
 40
2460337.126350324
  9
$TDINDWG
 40
0.0000000116
  9
$TDUSRTIMER
 40
0.0000000116
  9
$USRTIMER
 70
     1
  9
$ANGBASE
 50
0.0
  9
$ANGDIR
 70
     0
  9
$PDMODE
 70
     0
  9
$PDSIZE
 40
-1.0
  9
$PLINEWID
 40
0.0
  9
$SPLFRAME
 70
     0
  9
$SPLINETYPE
 70
     6
  9
$SPLINESEGS
 70
     8
  9
$HANDSEED
  5
D4
  9
$SURFTAB1
 70
     6
  9
$SURFTAB2
 70
     6
  9
$SURFTYPE
 70
     6
  9
$SURFU
 70
     6
  9
$SURFV
 70
     6
  9
$UCSBASE
  2

  9
$UCSNAME
  2

  9
$UCSORG
 10
0.0
 20
0.0
 30
0.0
  9
$UCSXDIR
 10
1.0
 20
0.0
 30
0.0
  9
$UCSYDIR
 10
0.0
 20
1.0
 30
0.0
  9
$UCSORTHOREF
  2

  9
$UCSORTHOVIEW
 70
     0
  9
$UCSORGTOP
 10
0.0
 20
0.0
 30
0.0
  9
$UCSORGBOTTOM
 10
0.0
 20
0.0
 30
0.0
  9
$UCSORGLEFT
 10
0.0
 20
0.0
 30
0.0
  9
$UCSORGRIGHT
 10
0.0
 20
0.0
 30
0.0
  9
$UCSORGFRONT
 10
0.0
 20
0.0
 30
0.0
  9
$UCSORGBACK
 10
0.0
 20
0.0
 30
0.0
  9
$PUCSBASE
  2

  9
$PUCSNAME
  2

  9
$PUCSORG
 10
0.0
 20
0.0
 30
0.0
  9
$PUCSXDIR
 10
1.0
 20
0.0
 30
0.0
  9
$PUCSYDIR
 10
0.0
 20
1.0
 30
0.0
  9
$PUCSORTHOREF
  2

  9
$PUCSORTHOVIEW
 70
     0
  9
$PUCSORGTOP
 10
0.0
 20
0.0
 30
0.0
  9
$PUCSORGBOTTOM
 10
0.0
 20
0.0
 30
0.0
  9
$PUCSORGLEFT
 10
0.0
 20
0.0
 30
0.0
  9
$PUCSORGRIGHT
 10
0.0
 20
0.0
 30
0.0
  9
$PUCSORGFRONT
 10
0.0
 20
0.0
 30
0.0
  9
$PUCSORGBACK
 10
0.0
 20
0.0
 30
0.0
  9
$USERI1
 70
     0
  9
$USERI2
 70
     0
  9
$USERI3
 70
     0
  9
$USERI4
 70
     0
  9
$USERI5
 70
     0
  9
$USERR1
 40
0.0
  9
$USERR2
 40
0.0
  9
$USERR3
 40
0.0
  9
$USERR4
 40
0.0
  9
$USERR5
 40
0.0
  9
$WORLDVIEW
 70
     1
  9
$SHADEDGE
 70
     3
  9
$SHADEDIF
 70
    70
  9
$TILEMODE
 70
     1
  9
$MAXACTVP
 70
    64
  9
$PINSBASE
 10
0.0
 20
0.0
 30
0.0
  9
$PLIMCHECK
 70
     0
  9
$PEXTMIN
 10
1.0000000000E+20
 20
1.0000000000E+20
 30
1.0000000000E+20
  9
$PEXTMAX
 10
-1.0000000000E+20
 20
-1.0000000000E+20
 30
-1.0000000000E+20
  9
$PLIMMIN
 10
0.0
 20
0.0
  9
$PLIMMAX
 10
12.0
 20
9.0
  9
$UNITMODE
 70
     0
  9
$VISRETAIN
 70
     1
  9
$PLINEGEN
 70
     0
  9
$PSLTSCALE
 70
     1
  9
$TREEDEPTH
 70
  3020
  9
$CMLSTYLE
  2
Standard
  9
$CMLJUST
 70
     0
  9
$CMLSCALE
 40
1.0
  9
$PROXYGRAPHICS
 70
     1
  9
$MEASUREMENT
 70
     0
  9
$CELWEIGHT
370
    -1
  9
$ENDCAPS
280
     0
  9
$JOINSTYLE
280
     0
  9
$LWDISPLAY
290
     1
  9
$INSUNITS
 70
     1
  9
$HYPERLINKBASE
  1

  9
$STYLESHEET
  1

  9
$XEDIT
290
     1
  9
$CEPSNTYPE
380
     0
  9
$PSTYLEMODE
290
     1
  9
$FINGERPRINTGUID
  2
{0b95cf8d-24ef-4c3a-83c9-2cd935b9a508}
  9
$VERSIONGUID
  2
{FAEB1C32-E019-11D5-929B-00C0DF256EC4}
  9
$EXTNAMES
290
     1
  9
$PSVPSCALE
 40
0.0
  9
$OLESTARTUP
290
     0
  0
ENDSEC
  0
SECTION
  2
CLASSES
  0
CLASS
  1
ACDBDICTIONARYWDFLT
  2
AcDbDictionaryWithDefault
  3
ObjectDBX Classes
 90
        0
280
     0
281
     0
  0
CLASS
  1
VISUALSTYLE
  2
AcDbVisualStyle
  3
ObjectDBX Classes
 90
     4095
280
     0
281
     0
  0
CLASS
  1
MATERIAL
  2
AcDbMaterial
  3
ObjectDBX Classes
 90
     1153
280
     0
281
     0
  0
CLASS
  1
SCALE
  2
AcDbScale
  3
ObjectDBX Classes
 90
     1153
280
     0
281
     0
  0
CLASS
  1
TABLESTYLE
  2
AcDbTableStyle
  3
ObjectDBX Classes
 90
     4095
280
     0
281
     0
  0
CLASS
  1
MLEADERSTYLE
  2
AcDbMLeaderStyle
  3
ACDB_MLEADERSTYLE_CLASS
 90
     4095
280
     0
281
     0
  0
CLASS
  1
SUN
  2
AcDbSun
  3
SCENEOE
 90
     1153
280
     0
281
     0
  0
CLASS
  1
ACDBPLACEHOLDER
  2
AcDbPlaceHolder
  3
ObjectDBX Classes
 90
        0
280
     0
281
     0
  0
CLASS
  1
LAYOUT
  2
AcDbLayout
  3
ObjectDBX Classes
 90
        0
280
     0
281
     0
  0
ENDSEC
  0
SECTION
  2
TABLES
  0
TABLE
  2
VPORT
  5
8
330
0
100
AcDbSymbolTable
 70
     1
  0
VPORT
  5
29
330
8
100
AcDbSymbolTableRecord
100
AcDbViewportTableRecord
  2
*Active
 70
     0
 10
0.0
 20
0.0
 11
1.0
 21
1.0
 12
0.0
 22
-0.397334
 13
0.0
 23
0.0
 14
0.5
 24
0.5
 15
0.5
 25
0.5
 16
0.0
 26
0.0
 36
1.0
 17
0.0
 27
0.0
 37
0.0
 40
11.93943864
 41
0.9482558197
 42
50.0
 43
0.0
 44
0.0
 50
0.0
 51
0.0
 71
     0
 72
   100
 73
     1
 74
     3
 75
     0
 76
     0
 77
     0
 78
     0
281
     0
 65
     1
110
0.0
120
0.0
130
0.0
111
1.0
121
0.0
131
0.0
112
0.0
122
1.0
132
0.0
 79
     0
146
0.0
  0
ENDTAB
  0
TABLE
  2
LTYPE
  5
5
330
0
100
AcDbSymbolTable
 70
     6
  0
LTYPE
  5
14
330
5
100
AcDbSymbolTableRecord
100
AcDbLinetypeTableRecord
  2
ByBlock
 70
     0
  3

 72
    65
 73
     0
 40
0.0
  0
LTYPE
  5
15
330
5
100
AcDbSymbolTableRecord
100
AcDbLinetypeTableRecord
  2
ByLayer
 70
     0
  3

 72
    65
 73
     0
 40
0.0
  0
LTYPE
  5
16
330
5
100
AcDbSymbolTableRecord
100
AcDbLinetypeTableRecord
  2
Continuous
 70
     0
  3
Solid line
 72
    65
 73
     0
 40
0.0
  0
LTYPE
  5
5E
330
5
100
AcDbSymbolTableRecord
100
AcDbLinetypeTableRecord
  2
HIDDEN
 70
     0
  3
Hidden __ __ __ __ __ __ __ __ __ __ __ __ __ __
 72
    65
 73
     2
 40
0.075
 49
0.05
 74
     0
 49
-0.025
 74
     0
  0
LTYPE
  5
5F
330
5
100
AcDbSymbolTableRecord
100
AcDbLinetypeTableRecord
  2
PHANTOM
 70
     0
  3
Phantom ______  __  __  ______  __  __  ______
 72
    65
 73
     6
 40
0.5
 49
0.25
 74
     0
 49
-0.05
 74
     0
 49
0.05
 74
     0
 49
-0.05
 74
     0
 49
0.05
 74
     0
 49
-0.05
 74
     0
  0
LTYPE
  5
60
330
5
100
AcDbSymbolTableRecord
100
AcDbLinetypeTableRecord
  2
CENTER
 70
     0
  3
Center ____ _ ____ _ ____ _ ____ _ ____ _ ____
 72
    65
 73
     4
 40
0.4
 49
0.25
 74
     0
 49
-0.05
 74
     0
 49
0.05
 74
     0
 49
-0.05
 74
     0
  0
LTYPE
  5
61
330
5
100
AcDbSymbolTableRecord
100
AcDbLinetypeTableRecord
  2
CENTERX2
 70
     0
  3
Center (2x) ________  __  ________  __  _____
 72
    65
 73
     4
 40
0.8
 49
0.5
 74
     0
 49
-0.1
 74
     0
 49
0.1
 74
     0
 49
-0.1
 74
     0
  0
LTYPE
  5
62
330
5
100
AcDbSymbolTableRecord
100
AcDbLinetypeTableRecord
  2
DOT2
 70
     0
  3
Dot (.5x) ........................................
 72
    65
 73
     2
 40
0.025
 49
0.0
 74
     0
 49
-0.025
 74
     0
  0
ENDTAB
  0
TABLE
  2
LAYER
  5
2
330
0
100
AcDbSymbolTable
 70
     1
  0
LAYER
  5
10
330
2
100
AcDbSymbolTableRecord
100
AcDbLayerTableRecord
  2
0
 70
     0
 62
     7
  6
Continuous
370
    -3
390
F
  0
ENDTAB
  0
TABLE
  2
STYLE
  5
3
330
0
100
AcDbSymbolTable
 70
     2
  0
STYLE
  5
11
330
3
100
AcDbSymbolTableRecord
100
AcDbTextStyleTableRecord
  2
Standard
 70
     0
 40
0.0
 41
1.0
 50
0.0
 71
     0
 42
0.1377952756
  3
txt
  4

  0
STYLE
  5
D0
330
3
100
AcDbSymbolTableRecord
100
AcDbTextStyleTableRecord
  2
SLDTEXTSTYLE0
 70
     0
 40
0.0
 41
0.7
 50
0.0
 71
     0
 42
0.1377952756
  3
TXT
  4

  0
ENDTAB
  0
TABLE
  2
VIEW
  5
6
330
0
100
AcDbSymbolTable
 70
     0
  0
ENDTAB
  0
TABLE
  2
UCS
  5
7
330
0
100
AcDbSymbolTable
 70
     0
  0
ENDTAB
  0
TABLE
  2
APPID
  5
9
330
0
100
AcDbSymbolTable
 70
     1
  0
APPID
  5
12
330
9
100
AcDbSymbolTableRecord
100
AcDbRegAppTableRecord
  2
ACAD
 70
     0
  0
ENDTAB
  0
TABLE
  2
DIMSTYLE
  5
A
330
0
100
AcDbSymbolTable
 70
     1
100
AcDbDimStyleTable
  0
DIMSTYLE
105
27
330
A
100
AcDbSymbolTableRecord
100
AcDbDimStyleTableRecord
  2
Standard
 70
     0
178
     0
340
11
  0
ENDTAB
  0
TABLE
  2
BLOCK_RECORD
  5
1
330
0
100
AcDbSymbolTable
 70
     1
  0
BLOCK_RECORD
  5
1F
330
1
100
AcDbSymbolTableRecord
100
AcDbBlockTableRecord
  2
*Model_Space
340
22
  0
BLOCK_RECORD
  5
1B
330
1
100
AcDbSymbolTableRecord
100
AcDbBlockTableRecord
  2
*Paper_Space
340
1E
  0
BLOCK_RECORD
  5
23
330
1
100
AcDbSymbolTableRecord
100
AcDbBlockTableRecord
  2
*Paper_Space0
340
26
  0
ENDTAB
  0
ENDSEC
  0
SECTION
  2
BLOCKS
  0
BLOCK
  5
20
330
1F
100
AcDbEntity
  8
0
100
AcDbBlockBegin
  2
*Model_Space
 70
     0
 10
0.0
 20
0.0
 30
0.0
  3
*Model_Space
  1

  0
ENDBLK
  5
21
330
1F
100
AcDbEntity
  8
0
100
AcDbBlockEnd
  0
BLOCK
  5
1C
330
1B
100
AcDbEntity
 67
     1
  8
0
100
AcDbBlockBegin
  2
*Paper_Space
 70
     0
 10
0.0
 20
0.0
 30
0.0
  3
*Paper_Space
  1

  0
ENDBLK
  5
1D
330
1B
100
AcDbEntity
 67
     1
  8
0
100
AcDbBlockEnd
  0
BLOCK
  5
24
330
23
100
AcDbEntity
  8
0
100
AcDbBlockBegin
  2
*Paper_Space0
 70
     0
 10
0.0
 20
0.0
 30
0.0
  3
*Paper_Space0
  1

  0
ENDBLK
  5
25
330
23
100
AcDbEntity
  8
0
100
AcDbBlockEnd
  0
ENDSEC
  0
SECTION
  2
ENTITIES
  0
LINE
  5
63
330
1F
100
AcDbEntity
  8
0
  6
Continuous
 62
     7
370
    25
100
AcDbLine
 10
-0.6860416667
 20
-0.5141298575
 30
0.0
 11
-0.6322329535
 21
-0.5141298575
 31
0.0
  0
LINE
  5
64
330
1F
100
AcDbEntity
  8
0
  6
Continuous
 62
     7
370
    25
100
AcDbLine
 10
-0.6322329535
 20
-0.5141298575
 30
0.0
 11
-0.6322329535
 21
-0.6341298575
 31
0.0
  0
LINE
  5
65
330
1F
100
AcDbEntity
  8
0
  6
Continuous
 62
     7
370
    25
100
AcDbLine
 10
-0.6322329535
 20
-0.6341298575
 30
0.0
 11
-0.8877083333
 21
-0.6341298575
 31
0.0
  0
SPLINE
  5
66
330
1F
100
AcDbEntity
  8
0
  6
Continuous
 62
     7
370
    25
100
AcDbSpline
210
0.0
220
0.0
230
1.0
 70
     8
 71
     3
 72
    23
 73
    19
 74
     0
 42
0.00000001
 43
0.00000001
 40
0.0
 40
0.0
 40
0.0
 40
0.0
 40
0.0724237403210718
 40
0.1400814880688953
 40
0.2043194316182257
 40
0.2657238078172168
 40
0.3245427255907768
 40
0.3813402305580567
 40
0.4383020884272639
 40
0.4951818292073511
 40
0.5522325138746306
 40
0.6094672444810062
 40
0.6675330251076167
 40
0.727082477158365
 40
0.7892684638191259
 40
0.8554712865108681
 40
0.925555336125577
 40
1.0
 40
1.0
 40
1.0
 40
1.0
 10
-0.8877083333333337
 20
-0.6341298575296329
 30
0.0
 10
-0.8934103220577505
 20
-0.6340392505331403
 30
0.0
 10
-0.9044390684595157
 20
-0.6338639991191444
 30
0.0
 10
-0.920401827985691
 20
-0.6316811967083785
 30
0.0
 10
-0.935258589519295
 20
-0.6283733190240339
 30
0.0
 10
-0.9491006748655041
 20
-0.6238876425665818
 30
0.0
 10
-0.961661820188515
 20
-0.6177772005956758
 30
0.0
 10
-0.9731084416618135
 20
-0.61041153772829
 30
0.0
 10
-0.9833380564796891
 20
-0.6016421778541302
 30
0.0
 10
-0.9922758647165171
 20
-0.5915620905049824
 30
0.0
 10
-1.000121343683049
 20
-0.5805578627217867
 30
0.0
 10
-1.006077103797291
 20
-0.5683285286658103
 30
0.0
 10
-1.010795715710592
 20
-0.5553620225705428
 30
0.0
 10
-1.013521629141767
 20
-0.5414501069798339
 30
0.0
 10
-1.015413957828091
 20
-0.5267521531336486
 30
0.0
 10
-1.014951148044573
 20
-0.5111000507662175
 30
0.0
 10
-1.013355388179893
 20
-0.494582041091656
 30
0.0
 10
-1.011140735683159
 20
-0.4834206146171294
 30
0.0
 10
-1.01
 20
-0.4776715241962997
 30
0.0
  0
LINE
  5
67
330
1F
100
AcDbEntity
  8
0
  6
Continuous
 62
     7
370
    25
100
AcDbLine
 10
-1.01
 20
-0.4776715242
 30
0.0
 11
-0.8660416667
 21
0.2094118091
 31
0.0
  0
SPLINE
  5
68
330
1F
100
AcDbEntity
  8
0
  6
Continuous
 62
     7
370
    25
100
AcDbSpline
210
0.0
220
0.0
230
1.0
 70
     8
 71
     3
 72
    15
 73
    11
 74
     0
 42
0.00000001
 43
0.00000001
 40
0.0
 40
0.0
 40
0.0
 40
0.0
 40
0.132814515472222
 40
0.2591660473005374
 40
0.3828652351135338
 40
0.5077263618779765
 40
0.6318033187241772
 40
0.752601014323752
 40
0.8740291929606402
 40
1.0
 40
1.0
 40
1.0
 40
1.0
 10
-0.8660416666666668
 20
0.2094118091370337
 30
0.0
 10
-0.8630028392014972
 20
0.2207877577872694
 30
0.0
 10
-0.8570730588625326
 20
0.242986081784409
 30
0.0
 10
-0.8421712029215334
 20
0.2736541656642048
 30
0.0
 10
-0.8227756840478324
 20
0.3007697722932617
 30
0.0
 10
-0.7989430411111211
 20
0.323792799037091
 30
0.0
 10
-0.771992493143712
 20
0.3426253182042436
 30
0.0
 10
-0.7423587885023379
 20
0.3561525922589908
 30
0.0
 10
-0.7105765444064932
 20
0.3643457817838291
 30
0.0
 10
-0.6886596574609156
 20
0.36535584016298
 30
0.0
 10
-0.6775000000000003
 20
0.365870142470367
 30
0.0
  0
LINE
  5
69
330
1F
100
AcDbEntity
  8
0
  6
Continuous
 62
     7
370
    25
100
AcDbLine
 10
-0.6775
 20
0.3658701425
 30
0.0
 11
-0.4880772694
 21
0.3658701425
 31
0.0
  0
LINE
  5
6A
330
1F
100
AcDbEntity
  8
0
  6
Continuous
 62
     7
370
    25
100
AcDbLine
 10
-0.4880772694
 20
0.3658701425
 30
0.0
 11
-0.4880772694
 21
0.2458701425
 31
0.0
  0
LINE
  5
6B
330
1F
100
AcDbEntity
  8
0
  6
Continuous
 62
     7
370
    25
100
AcDbLine
 10
-0.4880772694
 20
0.2458701425
 30
0.0
 11
-0.5277083333
 21
0.2458701425
 31
0.0
  0
LINE
  5
6C
330
1F
100
AcDbEntity
  8
0
  6
Continuous
 62
     7
370
    25
100
AcDbLine
 10
-0.5277083333
 20
0.2458701425
 30
0.0
 11
-0.6860416667
 21
-0.5141298575
 31
0.0
  0
LINE
  5
6D
330
1F
100
AcDbEntity
  8
0
  6
Continuous
 62
     7
370
    25
100
AcDbLine
 10
-0.3289583333
 20
-0.6341298575
 30
0.0
 11
-0.5327443649
 21
-0.6341298575
 31
0.0
  0
LINE
  5
6E
330
1F
100
AcDbEntity
  8
0
  6
Continuous
 62
     7
370
    25
100
AcDbLine
 10
-0.5327443649
 20
-0.6341298575
 30
0.0
 11
-0.5327443649
 21
-0.5141298575
 31
0.0
  0
LINE
  5
6F
330
1F
100
AcDbEntity
  8
0
  6
Continuous
 62
     7
370
    25
100
AcDbLine
 10
-0.5327443649
 20
-0.5141298575
 30
0.0
 11
-0.47875
 21
-0.5141298575
 31
0.0
  0
LINE
  5
70
330
1F
100
AcDbEntity
  8
0
  6
Continuous
 62
     7
370
    25
100
AcDbLine
 10
-0.47875
 20
-0.5141298575
 30
0.0
 11
-0.3204166667
 21
0.2458701425
 31
0.0
  0
LINE
  5
71
330
1F
100
AcDbEntity
  8
0
  6
Continuous
 62
     7
370
    25
100
AcDbLine
 10
-0.3204166667
 20
0.2458701425
 30
0.0
 11
-0.3794441413
 21
0.2458701425
 31
0.0
  0
LINE
  5
72
330
1F
100
AcDbEntity
  8
0
  6
Continuous
 62
     7
370
    25
100
AcDbLine
 10
-0.3794441413
 20
0.2458701425
 30
0.0
 11
-0.3794441413
 21
0.3658701425
 31
0.0
  0
LINE
  5
73
330
1F
100
AcDbEntity
  8
0
  6
Continuous
 62
     7
370
    25
100
AcDbLine
 10
-0.3794441413
 20
0.3658701425
 30
0.0
 11
-0.11875
 21
0.3658701425
 31
0.0
  0
SPLINE
  5
74
330
1F
100
AcDbEntity
  8
0
  6
Continuous
 62
     7
370
    25
100
AcDbSpline
210
0.0
220
0.0
230
1.0
 70
     8
 71
     3
 72
    23
 73
    19
 74
     0
 42
0.00000001
 43
0.00000001
 40
0.0
 40
0.0
 40
0.0
 40
0.0
 40
0.072402003883727
 40
0.1400394456049872
 40
0.2042581095088733
 40
0.2656440564970834
 40
0.3244453210299354
 40
0.3812257794403461
 40
0.4381705414256739
 40
0.4950332109675713
 40
0.5520667730915072
 40
0.6096843350077881
 40
0.6677326884317043
 40
0.7272642679874985
 40
0.7893375925294924
 40
0.8555146637144113
 40
0.9255776790999222
 40
0.9999999999999999
 40
0.9999999999999999
 40
0.9999999999999999
 40
0.9999999999999999
 10
-0.1187500000000003
 20
0.365870142470367
 30
0.0
 10
-0.1130480120096621
 20
0.3657795351074821
 30
0.0
 10
-0.102019267027747
 20
0.3656042829848129
 30
0.0
 10
-0.08605649755563
 20
0.3634214855382484
 30
0.0
 10
-0.0711997709384193
 20
0.3601135904264951
 30
0.0
 10
-0.0573575636960521
 20
0.3556279748096373
 30
0.0
 10
-0.0447968459627358
 20
0.3495173194209221
 30
0.0
 10
-0.0333486937318964
 20
0.3421524205825224
 30
0.0
 10
-0.0231247650386288
 20
0.3333802226599434
 30
0.0
 10
-0.0141657242003091
 20
0.3233107328891555
 30
0.0
 10
-0.0063816240067597
 20
0.3122409915566625
 30
0.0
 10
-0.0001174510714683
 20
0.3001296726979567
 30
0.0
 10
0.0045062616454812
 20
0.2870919055103756
 30
0.0
 10
0.0073640864181357
 20
0.2732076205422668
 30
0.0
 10
0.0088027553273232
 20
0.2584765999766404
 30
0.0
 10
0.0088062323467395
 20
0.2428420569340299
 30
0.0
 10
0.0070765269705687
 20
0.2263217268854171
 30
0.0
 10
0.0048809237002907
 20
0.2151606958650878
 30
0.0
 10
0.0037499999999997
 20
0.2094118091370337
 30
0.0
  0
LINE
  5
75
330
1F
100
AcDbEntity
  8
0
  6
Continuous
 62
     7
370
    25
100
AcDbLine
 10
0.00375
 20
0.2094118091
 30
0.0
 11
-0.1404166667
 21
-0.4776715242
 31
0.0
  0
SPLINE
  5
76
330
1F
100
AcDbEntity
  8
0
  6
Continuous
 62
     7
370
    25
100
AcDbSpline
210
0.0
220
0.0
230
1.0
 70
     8
 71
     3
 72
    15
 73
    11
 74
     0
 42
0.00000001
 43
0.00000001
 40
0.0
 40
0.0
 40
0.0
 40
0.0
 40
0.1327962190642631
 40
0.2591303448194221
 40
0.3828124919437834
 40
0.5076564179519281
 40
0.6310719788824127
 40
0.7518530335003049
 40
0.8732644843007352
 40
1.0
 40
1.0
 40
1.0
 40
1.0
 10
-0.140416666666667
 20
-0.4776715241962996
 30
0.0
 10
-0.1434553412430052
 20
-0.489047694344528
 30
0.0
 10
-0.1493848232441416
 20
-0.511246450559178
 30
0.0
 10
-0.1642888185125254
 20
-0.5419114350842547
 30
0.0
 10
-0.1836764324846377
 20
-0.5690384939548986
 30
0.0
 10
-0.2074974372617937
 20
-0.591978860721618
 30
0.0
 10
-0.2342838505038701
 20
-0.610946297675171
 30
0.0
 10
-0.2638980270436557
 20
-0.6244022239686938
 30
0.0
 10
-0.2957392851602081
 20
-0.6326260939739871
 30
0.0
 10
-0.3177280587775186
 20
-0.6336214842159572
 30
0.0
 10
-0.3289583333333336
 20
-0.6341298575296329
 30
0.0
  0
LINE
  5
77
330
1F
100
AcDbEntity
  8
0
  6
Continuous
 62
     7
370
    25
100
AcDbLine
 10
1.7372916667
 20
-0.3274631909
 30
0.0
 11
1.3541666667
 21
-0.3274631909
 31
0.0
  0
LINE
  5
78
330
1F
100
AcDbEntity
  8
0
  6
Continuous
 62
     7
370
    25
100
AcDbLine
 10
1.3541666667
 20
-0.3274631909
 30
0.0
 11
1.3139583333
 21
-0.5141298575
 31
0.0
  0
LINE
  5
79
330
1F
100
AcDbEntity
  8
0
  6
Continuous
 62
     7
370
    25
100
AcDbLine
 10
1.3139583333
 20
-0.5141298575
 30
0.0
 11
1.8525
 21
-0.5141298575
 31
0.0
  0
LINE
  5
7A
330
1F
100
AcDbEntity
  8
0
  6
Continuous
 62
     7
370
    25
100
AcDbLine
 10
1.8525
 20
-0.5141298575
 30
0.0
 11
1.8264583333
 21
-0.6341298575
 31
0.0
  0
LINE
  5
7B
330
1F
100
AcDbEntity
  8
0
  6
Continuous
 62
     7
370
    25
100
AcDbLine
 10
1.8264583333
 20
-0.6341298575
 30
0.0
 11
0.956875
 21
-0.6341298575
 31
0.0
  0
LINE
  5
7C
330
1F
100
AcDbEntity
  8
0
  6
Continuous
 62
     7
370
    25
100
AcDbLine
 10
0.956875
 20
-0.6341298575
 30
0.0
 11
1.0158333333
 21
-0.3599631909
 31
0.0
  0
SPLINE
  5
7D
330
1F
100
AcDbEntity
  8
0
  6
Continuous
 62
     7
370
    25
100
AcDbSpline
210
0.0
220
0.0
230
1.0
 70
     8
 71
     3
 72
    15
 73
    11
 74
     0
 42
0.00000001
 43
0.00000001
 40
0.0
 40
0.0
 40
0.0
 40
0.0
 40
0.1311462259707863
 40
0.2559470591993068
 40
0.3789930469380573
 40
0.5034888202511189
 40
0.6279441990876748
 40
0.749331687987312
 40
0.8720067886381334
 40
1.0
 40
1.0
 40
1.0
 40
1.0
 10
1.015833333333334
 20
-0.3599631908629663
 30
0.0
 10
1.018869045342775
 20
-0.3488595068436518
 30
0.0
 10
1.024793589153633
 20
-0.3271893806163449
 30
0.0
 10
1.039776964045643
 20
-0.2973256746133067
 30
0.0
 10
1.059110997140592
 20
-0.270854478466466
 30
0.0
 10
1.083024852946492
 20
-0.2484968858040513
 30
0.0
 10
1.109890886918425
 20
-0.2300186147767904
 30
0.0
 10
1.139616973895218
 20
-0.2170766024281359
 30
0.0
 10
1.171345058544069
 20
-0.2086817860499877
 30
0.0
 10
1.193348303450992
 20
-0.2078750941108775
 30
0.0
 10
1.204583333333334
 20
-0.2074631908629663
 30
0.0
  0
LINE
  5
7E
330
1F
100
AcDbEntity
  8
0
  6
Continuous
 62
     7
370
    25
100
AcDbLine
 10
1.2045833333
 20
-0.2074631909
 30
0.0
 11
1.5875
 21
-0.2074631909
 31
0.0
  0
LINE
  5
7F
330
1F
100
AcDbEntity
  8
0
  6
Continuous
 62
     7
370
    25
100
AcDbLine
 10
1.5875
 20
-0.2074631909
 30
0.0
 11
1.6795833333
 21
0.2458701425
 31
0.0
  0
LINE
  5
80
330
1F
100
AcDbEntity
  8
0
  6
Continuous
 62
     7
370
    25
100
AcDbLine
 10
1.6795833333
 20
0.2458701425
 30
0.0
 11
1.4722916667
 21
0.2458701425
 31
0.0
  0
LINE
  5
81
330
1F
100
AcDbEntity
  8
0
  6
Continuous
 62
     7
370
    25
100
AcDbLine
 10
1.4722916667
 20
0.2458701425
 30
0.0
 11
1.4377083333
 21
0.0817034758
 31
0.0
  0
LINE
  5
82
330
1F
100
AcDbEntity
  8
0
  6
Continuous
 62
     7
370
    25
100
AcDbLine
 10
1.4377083333
 20
0.0817034758
 30
0.0
 11
1.1064583333
 21
0.0817034758
 31
0.0
  0
LINE
  5
83
330
1F
100
AcDbEntity
  8
0
  6
Continuous
 62
     7
370
    25
100
AcDbLine
 10
1.1064583333
 20
0.0817034758
 30
0.0
 11
1.1339583333
 21
0.2156618091
 31
0.0
  0
SPLINE
  5
84
330
1F
100
AcDbEntity
  8
0
  6
Continuous
 62
     7
370
    25
100
AcDbSpline
210
0.0
220
0.0
230
1.0
 70
     8
 71
     3
 72
    15
 73
    11
 74
     0
 42
0.00000001
 43
0.00000001
 40
0.0
 40
0.0
 40
0.0
 40
0.0
 40
0.1312710007293951
 40
0.2554880464631467
 40
0.3780841719982169
 40
0.5023294212000663
 40
0.6267386364900224
 40
0.7486260175920906
 40
0.8719371464561965
 40
1.0
 40
1.0
 40
1.0
 40
1.0
 10
1.133958333333334
 20
0.2156618091370336
 30
0.0
 10
1.13698547015018
 20
0.2267005564502918
 30
0.0
 10
1.142877078101787
 20
0.2481848749272905
 30
0.0
 10
1.157912848402774
 20
0.2776918900541824
 30
0.0
 10
1.177255424012542
 20
0.3037427519899031
 30
0.0
 10
1.201163908228803
 20
0.3257006526350633
 30
0.0
 10
1.228090548535306
 20
0.3437122874695733
 30
0.0
 10
1.257750083807821
 20
0.3564945148567116
 30
0.0
 10
1.289432869628043
 20
0.3645765714293571
 30
0.0
 10
1.311339588904656
 20
0.3654335522843936
 30
0.0
 10
1.3225
 20
0.365870142470367
 30
0.0
  0
LINE
  5
85
330
1F
100
AcDbEntity
  8
0
  6
Continuous
 62
     7
370
    25
100
AcDbLine
 10
1.3225
 20
0.3658701425
 30
0.0
 11
1.88125
 21
0.3658701425
 31
0.0
  0
SPLINE
  5
86
330
1F
100
AcDbEntity
  8
0
  6
Continuous
 62
     7
370
    25
100
AcDbSpline
210
0.0
220
0.0
230
1.0
 70
     8
 71
     3
 72
    23
 73
    19
 74
     0
 42
0.00000001
 43
0.00000001
 40
0.0
 40
0.0
 40
0.0
 40
0.0
 40
0.0720323478378731
 40
0.1393244594865199
 40
0.2032152482475178
 40
0.2645710375346849
 40
0.3230720860269228
 40
0.3795626458349199
 40
0.4362166703486519
 40
0.4934458773703208
 40
0.5509102508943631
 40
0.6082336402882371
 40
0.6668136731303413
 40
0.7260413079453595
 40
0.7886712708440068
 40
0.8553883239941867
 40
0.925093625285628
 40
1.0
 40
1.0
 40
1.0
 40
1.0
 10
1.88125
 20
0.365870142470367
 30
0.0
 10
1.886952648049842
 20
0.3657814600706857
 30
0.0
 10
1.897982669714196
 20
0.3656099311982773
 30
0.0
 10
1.913936496122815
 20
0.3634010526664898
 30
0.0
 10
1.928846553452348
 20
0.3601799795540484
 30
0.0
 10
1.942599279978383
 20
0.3553633575576028
 30
0.0
 10
1.955210774725827
 20
0.3493274263685658
 30
0.0
 10
1.966642720399537
 20
0.3419329182325321
 30
0.0
 10
1.976941903443858
 20
0.3331646773124487
 30
0.0
 10
1.985838008363213
 20
0.3228823283610417
 30
0.0
 10
1.993559281128895
 20
0.3116484139775873
 30
0.0
 10
1.999941371185863
 20
0.2994580749530583
 30
0.0
 10
2.004462439718625
 20
0.2863121293805455
 30
0.0
 10
2.007391912301682
 20
0.2723098903713966
 30
0.0
 10
2.008793934413831
 20
0.2574331285051293
 30
0.0
 10
2.008817461071257
 20
0.24166138922376
 30
0.0
 10
2.007058420463776
 20
0.2250053405281691
 30
0.0
 10
2.004878935785277
 20
0.2137721014904689
 30
0.0
 10
2.00375
 20
0.2079534758037003
 30
0.0
  0
LINE
  5
87
330
1F
100
AcDbEntity
  8
0
  6
Continuous
 62
     7
370
    25
100
AcDbLine
 10
2.00375
 20
0.2079534758
 30
0.0
 11
1.9258333333
 21
-0.1695465242
 31
0.0
  0
SPLINE
  5
88
330
1F
100
AcDbEntity
  8
0
  6
Continuous
 62
     7
370
    25
100
AcDbSpline
210
0.0
220
0.0
230
1.0
 70
     8
 71
     3
 72
    15
 73
    11
 74
     0
 42
0.00000001
 43
0.00000001
 40
0.0
 40
0.0
 40
0.0
 40
0.0
 40
0.1330155700021701
 40
0.2602559345798087
 40
0.3840809369861939
 40
0.508974104060896
 40
0.6323469769920061
 40
0.7526470117523134
 40
0.8737692182584366
 40
1.0
 40
1.0
 40
1.0
 40
1.0
 10
1.925833333333334
 20
-0.1695465241962996
 30
0.0
 10
1.922783711253926
 20
-0.1809863143668349
 30
0.0
 10
1.916816874105624
 20
-0.2033692074535691
 30
0.0
 10
1.902025549815361
 20
-0.234361751636173
 30
0.0
 10
1.882577705535649
 20
-0.2617401585368233
 30
0.0
 10
1.85875497002851
 20
-0.2848682521438523
 30
0.0
 10
1.832033385702927
 20
-0.3041134730382931
 30
0.0
 10
1.802311264670501
 20
-0.317453708924203
 30
0.0
 10
1.770547509664479
 20
-0.3260300480539118
 30
0.0
 10
1.748528533458844
 20
-0.3269789440844207
 30
0.0
 10
1.737291666666667
 20
-0.3274631908629663
 30
0.0
  0
LINE
  5
89
330
1F
100
AcDbEntity
  8
0
  6
Continuous
 62
     7
370
    25
100
AcDbLine
 10
-1.6775
 20
0.3658701425
 30
0.0
 11
-0.963125
 21
0.3658701425
 31
0.0
  0
LINE
  5
8A
330
1F
100
AcDbEntity
  8
0
  6
Continuous
 62
     7
370
    25
100
AcDbLine
 10
-0.963125
 20
0.3658701425
 30
0.0
 11
-1.1735416667
 21
-0.6224631909
 31
0.0
  0
LINE
  5
8B
330
1F
100
AcDbEntity
  8
0
  6
Continuous
 62
     7
370
    25
100
AcDbLine
 10
-1.1735416667
 20
-0.6224631909
 30
0.0
 11
-1.5045833333
 21
-0.6224631909
 31
0.0
  0
LINE
  5
8C
330
1F
100
AcDbEntity
  8
0
  6
Continuous
 62
     7
370
    25
100
AcDbLine
 10
-1.5045833333
 20
-0.6224631909
 30
0.0
 11
-1.3204166667
 21
0.2458701425
 31
0.0
  0
LINE
  5
8D
330
1F
100
AcDbEntity
  8
0
  6
Continuous
 62
     7
370
    25
100
AcDbLine
 10
-1.3204166667
 20
0.2458701425
 30
0.0
 11
-1.5277083333
 21
0.2458701425
 31
0.0
  0
LINE
  5
8E
330
1F
100
AcDbEntity
  8
0
  6
Continuous
 62
     7
370
    25
100
AcDbLine
 10
-1.5277083333
 20
0.2458701425
 30
0.0
 11
-1.5622916667
 21
0.0817034758
 31
0.0
  0
LINE
  5
8F
330
1F
100
AcDbEntity
  8
0
  6
Continuous
 62
     7
370
    25
100
AcDbLine
 10
-1.5622916667
 20
0.0817034758
 30
0.0
 11
-1.8935416667
 21
0.0817034758
 31
0.0
  0
LINE
  5
90
330
1F
100
AcDbEntity
  8
0
  6
Continuous
 62
     7
370
    25
100
AcDbLine
 10
-1.8935416667
 20
0.0817034758
 30
0.0
 11
-1.8660416667
 21
0.2156618091
 31
0.0
  0
SPLINE
  5
91
330
1F
100
AcDbEntity
  8
0
  6
Continuous
 62
     7
370
    25
100
AcDbSpline
210
0.0
220
0.0
230
1.0
 70
     8
 71
     3
 72
    15
 73
    11
 74
     0
 42
0.00000001
 43
0.00000001
 40
0.0
 40
0.0
 40
0.0
 40
0.0
 40
0.1312710007293949
 40
0.2554880464631467
 40
0.3780841719982169
 40
0.5023294212000662
 40
0.6267386364900218
 40
0.7486260175920906
 40
0.8719371464561964
 40
0.9999999999999999
 40
0.9999999999999999
 40
0.9999999999999999
 40
0.9999999999999999
 10
-1.866041666666666
 20
0.2156618091370336
 30
0.0
 10
-1.86301452984982
 20
0.2267005564502918
 30
0.0
 10
-1.857122921898212
 20
0.2481848749272905
 30
0.0
 10
-1.842087151597227
 20
0.2776918900541825
 30
0.0
 10
-1.822744575987458
 20
0.303742751989903
 30
0.0
 10
-1.798836091771197
 20
0.3257006526350633
 30
0.0
 10
-1.771909451464694
 20
0.3437122874695734
 30
0.0
 10
-1.742249916192179
 20
0.3564945148567115
 30
0.0
 10
-1.710567130371957
 20
0.3645765714293572
 30
0.0
 10
-1.688660411095344
 20
0.3654335522843936
 30
0.0
 10
-1.6775
 20
0.365870142470367
 30
0.0
  0
LINE
  5
92
330
1F
100
AcDbEntity
  8
0
  6
Continuous
 62
     7
370
    25
100
AcDbLine
 10
-4.049824595
 20
2.4555868952
 30
0.0
 11
-4.049824595
 21
1.35
 31
0.0
  0
ARC
  5
93
330
1F
100
AcDbEntity
  8
0
  6
Continuous
 62
     7
370
    25
100
AcDbCircle
 10
-3.949824595
 20
2.4555868952
 30
0.0
 40
0.1000000000000001
100
AcDbArc
 50
90.0
 51
180.0
  0
LINE
  5
94
330
1F
100
AcDbEntity
  8
0
  6
Continuous
 62
     7
370
    25
100
AcDbLine
 10
-3.949824595
 20
2.5555868952
 30
0.0
 11
3.949824595
 21
2.5555868952
 31
0.0
  0
ARC
  5
95
330
1F
100
AcDbEntity
  8
0
  6
Continuous
 62
     7
370
    25
100
AcDbCircle
 10
3.949824595
 20
2.4555868952
 30
0.0
 40
0.1000000000000001
100
AcDbArc
 50
0.0
 51
90.0
  0
LINE
  5
96
330
1F
100
AcDbEntity
  8
0
  6
Continuous
 62
     7
370
    25
100
AcDbLine
 10
4.049824595
 20
2.4555868952
 30
0.0
 11
4.049824595
 21
1.35
 31
0.0
  0
ARC
  5
97
330
1F
100
AcDbEntity
  8
0
  6
Continuous
 62
     7
370
    25
100
AcDbCircle
 10
3.949824595
 20
1.35
 30
0.0
 40
0.1000000000000001
100
AcDbArc
 50
270.0
 51
0.0
  0
LINE
  5
98
330
1F
100
AcDbEntity
  8
0
  6
Continuous
 62
     7
370
    25
100
AcDbLine
 10
-3.949824595
 20
1.25
 30
0.0
 11
3.949824595
 21
1.25
 31
0.0
  0
ARC
  5
99
330
1F
100
AcDbEntity
  8
0
  6
Continuous
 62
     7
370
    25
100
AcDbCircle
 10
-3.949824595
 20
1.35
 30
0.0
 40
0.1000000000000001
100
AcDbArc
 50
180.0
 51
270.0
  0
CIRCLE
  5
9A
330
1F
100
AcDbEntity
  8
0
  6
Continuous
 62
     7
370
    25
100
AcDbCircle
 10
-1.0
 20
-1.5
 30
0.0
 40
0.0937500000000001
  0
CIRCLE
  5
9B
330
1F
100
AcDbEntity
  8
0
  6
Continuous
 62
     7
370
    25
100
AcDbCircle
 10
1.0
 20
-1.5
 30
0.0
 40
0.09375
  0
CIRCLE
  5
9C
330
1F
100
AcDbEntity
  8
0
  6
Continuous
 62
     7
370
    25
100
AcDbCircle
 10
0.0
 20
-1.5
 30
0.0
 40
0.09375
  0
CIRCLE
  5
9D
330
1F
100
AcDbEntity
  8
0
  6
Continuous
 62
     7
370
    25
100
AcDbCircle
 10
4.299824595
 20
-4.8745777717
 30
0.0
 40
0.09375
  0
CIRCLE
  5
9E
330
1F
100
AcDbEntity
  8
0
  6
Continuous
 62
     7
370
    25
100
AcDbCircle
 10
-5.299824595
 20
-3.763224583
 30
0.0
 40
0.09375
  0
CIRCLE
  5
9F
330
1F
100
AcDbEntity
  8
0
  6
Continuous
 62
     7
370
    25
100
AcDbCircle
 10
-4.299824595
 20
-4.8745777717
 30
0.0
 40
0.0937500000000009
  0
CIRCLE
  5
A0
330
1F
100
AcDbEntity
  8
0
  6
Continuous
 62
     7
370
    25
100
AcDbCircle
 10
5.299824595
 20
-3.763224583
 30
0.0
 40
0.0937500000000009
  0
CIRCLE
  5
A1
330
1F
100
AcDbEntity
  8
0
  6
Continuous
 62
     7
370
    25
100
AcDbCircle
 10
-1.5
 20
-1.5
 30
0.0
 40
0.09375
  0
CIRCLE
  5
A2
330
1F
100
AcDbEntity
  8
0
  6
Continuous
 62
     7
370
    25
100
AcDbCircle
 10
-0.5
 20
-1.5
 30
0.0
 40
0.09375
  0
CIRCLE
  5
A3
330
1F
100
AcDbEntity
  8
0
  6
Continuous
 62
     7
370
    25
100
AcDbCircle
 10
0.5
 20
-1.5
 30
0.0
 40
0.09375
  0
CIRCLE
  5
A4
330
1F
100
AcDbEntity
  8
0
  6
Continuous
 62
     7
370
    25
100
AcDbCircle
 10
-2.0
 20
-1.5
 30
0.0
 40
0.09375
  0
ARC
  5
A5
330
1F
100
AcDbEntity
  8
0
  6
Continuous
 62
     7
370
    25
100
AcDbCircle
 10
0.0
 20
0.0
 30
0.0
 40
6.875000000000001
100
AcDbArc
 50
36.1721578787
 51
52.22804367
  0
ARC
  5
A6
330
1F
100
AcDbEntity
  8
0
  6
Continuous
 62
     7
370
    25
100
AcDbCircle
 10
4.149824595
 20
5.355332
 30
0.0
 40
0.1000000000000005
100
AcDbArc
 50
52.22804367
 51
180.0
  0
LINE
  5
A7
330
1F
100
AcDbEntity
  8
0
  6
Continuous
 62
     7
370
    25
100
AcDbLine
 10
4.049824595
 20
5.355332
 30
0.0
 11
4.049824595
 21
3.6555868952
 31
0.0
  0
ARC
  5
A8
330
1F
100
AcDbEntity
  8
0
  6
Continuous
 62
     7
370
    25
100
AcDbCircle
 10
3.949824595
 20
3.6555868952
 30
0.0
 40
0.1000000000000001
100
AcDbArc
 50
270.0
 51
0.0
  0
LINE
  5
A9
330
1F
100
AcDbEntity
  8
0
  6
Continuous
 62
     7
370
    25
100
AcDbLine
 10
3.949824595
 20
3.5555868952
 30
0.0
 11
-3.949824595
 21
3.5555868952
 31
0.0
  0
ARC
  5
AA
330
1F
100
AcDbEntity
  8
0
  6
Continuous
 62
     7
370
    25
100
AcDbCircle
 10
-3.949824595
 20
3.6555868952
 30
0.0
 40
0.1000000000000001
100
AcDbArc
 50
180.0
 51
270.0
  0
LINE
  5
AB
330
1F
100
AcDbEntity
  8
0
  6
Continuous
 62
     7
370
    25
100
AcDbLine
 10
-4.049824595
 20
5.355332
 30
0.0
 11
-4.049824595
 21
3.6555868952
 31
0.0
  0
ARC
  5
AC
330
1F
100
AcDbEntity
  8
0
  6
Continuous
 62
     7
370
    25
100
AcDbCircle
 10
-4.149824595
 20
5.355332
 30
0.0
 40
0.1000000000000005
100
AcDbArc
 50
0.0
 51
127.77195633
  0
ARC
  5
AD
330
1F
100
AcDbEntity
  8
0
  6
Continuous
 62
     7
370
    25
100
AcDbCircle
 10
0.0
 20
0.0
 30
0.0
 40
6.875000000000001
100
AcDbArc
 50
127.77195633
 51
143.8278421213
  0
LINE
  5
AE
330
1F
100
AcDbEntity
  8
0
  6
Continuous
 62
     7
370
    25
100
AcDbLine
 10
-5.549824595
 20
4.0577175807
 30
0.0
 11
-5.549824595
 21
-4.0577175807
 31
0.0
  0
ARC
  5
AF
330
1F
100
AcDbEntity
  8
0
  6
Continuous
 62
     7
370
    25
100
AcDbCircle
 10
0.0
 20
0.0
 30
0.0
 40
6.875000000000001
100
AcDbArc
 50
216.1721578787
 51
233.9092861439
  0
LINE
  5
B0
330
1F
100
AcDbEntity
  8
0
  6
Continuous
 62
     7
370
    25
100
AcDbLine
 10
-4.049824595
 20
-4.25
 30
0.0
 11
-4.049824595
 21
-5.5555868952
 31
0.0
  0
LINE
  5
B1
330
1F
100
AcDbEntity
  8
0
  6
Continuous
 62
     7
370
    25
100
AcDbLine
 10
-4.049824595
 20
-4.25
 30
0.0
 11
-1.449824595
 21
-4.25
 31
0.0
  0
ARC
  5
B2
330
1F
100
AcDbEntity
  8
0
  6
Continuous
 62
     7
370
    25
100
AcDbCircle
 10
-1.449824595
 20
-4.65
 30
0.0
 40
0.3999999999999999
100
AcDbArc
 50
0.0
 51
90.0
  0
LINE
  5
B3
330
1F
100
AcDbEntity
  8
0
  6
Continuous
 62
     7
370
    25
100
AcDbLine
 10
-1.049824595
 20
-4.65
 30
0.0
 11
-1.049824595
 21
-5.85
 31
0.0
  0
ARC
  5
B4
330
1F
100
AcDbEntity
  8
0
  6
Continuous
 62
     7
370
    25
100
AcDbCircle
 10
-0.649824595
 20
-5.85
 30
0.0
 40
0.4
100
AcDbArc
 50
180.0
 51
270.0
  0
LINE
  5
B5
330
1F
100
AcDbEntity
  8
0
  6
Continuous
 62
     7
370
    25
100
AcDbLine
 10
-0.649824595
 20
-6.25
 30
0.0
 11
0.649824595
 21
-6.25
 31
0.0
  0
ARC
  5
B6
330
1F
100
AcDbEntity
  8
0
  6
Continuous
 62
     7
370
    25
100
AcDbCircle
 10
0.649824595
 20
-5.85
 30
0.0
 40
0.4000000000000001
100
AcDbArc
 50
270.0
 51
0.0
  0
LINE
  5
B7
330
1F
100
AcDbEntity
  8
0
  6
Continuous
 62
     7
370
    25
100
AcDbLine
 10
1.049824595
 20
-5.85
 30
0.0
 11
1.049824595
 21
-4.65
 31
0.0
  0
ARC
  5
B8
330
1F
100
AcDbEntity
  8
0
  6
Continuous
 62
     7
370
    25
100
AcDbCircle
 10
1.449824595
 20
-4.65
 30
0.0
 40
0.3999999999999999
100
AcDbArc
 50
90.0
 51
180.0
  0
LINE
  5
B9
330
1F
100
AcDbEntity
  8
0
  6
Continuous
 62
     7
370
    25
100
AcDbLine
 10
1.449824595
 20
-4.25
 30
0.0
 11
4.049824595
 21
-4.25
 31
0.0
  0
LINE
  5
BA
330
1F
100
AcDbEntity
  8
0
  6
Continuous
 62
     7
370
    25
100
AcDbLine
 10
4.049824595
 20
-4.25
 30
0.0
 11
4.049824595
 21
-5.5555868952
 31
0.0
  0
ARC
  5
BB
330
1F
100
AcDbEntity
  8
0
  6
Continuous
 62
     7
370
    25
100
AcDbCircle
 10
0.0
 20
0.0
 30
0.0
 40
6.875000000000001
100
AcDbArc
 50
306.0907138561
 51
323.8278421213
  0
LINE
  5
BC
330
1F
100
AcDbEntity
  8
0
  6
Continuous
 62
     7
370
    25
100
AcDbLine
 10
5.549824595
 20
4.0577175807
 30
0.0
 11
5.549824595
 21
-4.0577175807
 31
0.0
  0
CIRCLE
  5
BD
330
1F
100
AcDbEntity
  8
0
  6
Continuous
 62
     7
370
    25
100
AcDbCircle
 10
0.0
 20
-3.0
 30
0.0
 40
0.2499999999999999
  0
CIRCLE
  5
BE
330
1F
100
AcDbEntity
  8
0
  6
Continuous
 62
     7
370
    25
100
AcDbCircle
 10
-1.5
 20
-3.0
 30
0.0
 40
0.09375
  0
CIRCLE
  5
BF
330
1F
100
AcDbEntity
  8
0
  6
Continuous
 62
     7
370
    25
100
AcDbCircle
 10
0.34125
 20
-3.34125
 30
0.0
 40
0.0937499999999999
  0
CIRCLE
  5
C0
330
1F
100
AcDbEntity
  8
0
  6
Continuous
 62
     7
370
    25
100
AcDbCircle
 10
0.34125
 20
-2.65875
 30
0.0
 40
0.0937500000000002
  0
CIRCLE
  5
C1
330
1F
100
AcDbEntity
  8
0
  6
Continuous
 62
     7
370
    25
100
AcDbCircle
 10
-0.34125
 20
-2.65875
 30
0.0
 40
0.09375
  0
CIRCLE
  5
C2
330
1F
100
AcDbEntity
  8
0
  6
Continuous
 62
     7
370
    25
100
AcDbCircle
 10
1.0
 20
-3.0
 30
0.0
 40
0.25
  0
CIRCLE
  5
C3
330
1F
100
AcDbEntity
  8
0
  6
Continuous
 62
     7
370
    25
100
AcDbCircle
 10
-0.34125
 20
-3.34125
 30
0.0
 40
0.09375
  0
CIRCLE
  5
C4
330
1F
100
AcDbEntity
  8
0
  6
Continuous
 62
     7
370
    25
100
AcDbCircle
 10
-1.0
 20
-3.0
 30
0.0
 40
0.2500000000000001
  0
LINE
  5
C5
330
1F
100
AcDbEntity
  8
0
  6
Continuous
 62
     7
370
    25
100
AcDbLine
 10
0.0129166667
 20
-0.1695465242
 30
0.0
 11
0.12375
 21
0.3658701425
 31
0.0
  0
LINE
  5
C6
330
1F
100
AcDbEntity
  8
0
  6
Continuous
 62
     7
370
    25
100
AcDbLine
 10
0.12375
 20
0.3658701425
 30
0.0
 11
0.455
 21
0.3658701425
 31
0.0
  0
LINE
  5
C7
330
1F
100
AcDbEntity
  8
0
  6
Continuous
 62
     7
370
    25
100
AcDbLine
 10
0.455
 20
0.3658701425
 30
0.0
 11
0.336875
 21
-0.2074631909
 31
0.0
  0
LINE
  5
C8
330
1F
100
AcDbEntity
  8
0
  6
Continuous
 62
     7
370
    25
100
AcDbLine
 10
0.336875
 20
-0.2074631909
 30
0.0
 11
0.544375
 21
-0.2074631909
 31
0.0
  0
LINE
  5
C9
330
1F
100
AcDbEntity
  8
0
  6
Continuous
 62
     7
370
    25
100
AcDbLine
 10
0.544375
 20
-0.2074631909
 30
0.0
 11
0.6625
 21
0.3658701425
 31
0.0
  0
LINE
  5
CA
330
1F
100
AcDbEntity
  8
0
  6
Continuous
 62
     7
370
    25
100
AcDbLine
 10
0.6625
 20
0.3658701425
 30
0.0
 11
0.9935416667
 21
0.3658701425
 31
0.0
  0
LINE
  5
CB
330
1F
100
AcDbEntity
  8
0
  6
Continuous
 62
     7
370
    25
100
AcDbLine
 10
0.9935416667
 20
0.3658701425
 30
0.0
 11
0.7833333333
 21
-0.6341298575
 31
0.0
  0
LINE
  5
CC
330
1F
100
AcDbEntity
  8
0
  6
Continuous
 62
     7
370
    25
100
AcDbLine
 10
0.7833333333
 20
-0.6341298575
 30
0.0
 11
0.4520833333
 21
-0.6341298575
 31
0.0
  0
LINE
  5
CD
330
1F
100
AcDbEntity
  8
0
  6
Continuous
 62
     7
370
    25
100
AcDbLine
 10
0.4520833333
 20
-0.6341298575
 30
0.0
 11
0.5183333333
 21
-0.3274631909
 31
0.0
  0
LINE
  5
CE
330
1F
100
AcDbEntity
  8
0
  6
Continuous
 62
     7
370
    25
100
AcDbLine
 10
0.5183333333
 20
-0.3274631909
 30
0.0
 11
0.1354166667
 21
-0.3274631909
 31
0.0
  0
SPLINE
  5
CF
330
1F
100
AcDbEntity
  8
0
  6
Continuous
 62
     7
370
    25
100
AcDbSpline
210
0.0
220
0.0
230
1.0
 70
     8
 71
     3
 72
    23
 73
    19
 74
     0
 42
0.00000001
 43
0.00000001
 40
0.0
 40
0.0
 40
0.0
 40
0.0
 40
0.0720119817964565
 40
0.1392850676327585
 40
0.2031577922532825
 40
0.2644962341321915
 40
0.3229807423503414
 40
0.3794553303190861
 40
0.4360933367764274
 40
0.4938889887024617
 40
0.551337115056361
 40
0.6082464428579826
 40
0.6668099130943852
 40
0.726020802204178
 40
0.7887252473151148
 40
0.855429210727316
 40
0.9251148039140568
 40
0.9999999999999999
 40
0.9999999999999999
 40
0.9999999999999999
 40
0.9999999999999999
 10
0.1354166666666667
 20
-0.3274631908629663
 30
0.0
 10
0.129714024931906
 20
-0.3273745025562699
 30
0.0
 10
0.1186840154821367
 20
-0.3272029622585546
 30
0.0
 10
0.1027301035112774
 20
-0.3249941637601749
 30
0.0
 10
0.0878203470005635
 20
-0.3217728092671249
 30
0.0
 10
0.074066567184544
 20
-0.3169571724995212
 30
0.0
 10
0.0614587546520454
 20
-0.3109177970316851
 30
0.0
 10
0.0500136408291935
 20
-0.3035356061496906
 30
0.0
 10
0.0397285011566084
 20
-0.2946912826630226
 30
0.0
 10
0.0306223136653969
 20
-0.284541670753243
 30
0.0
 10
0.0228644345623211
 20
-0.2732893748883585
 30
0.0
 10
0.016778705198815
 20
-0.2609924448927474
 30
0.0
 10
0.0121656544846969
 20
-0.2479148341576715
 30
0.0
 10
0.0093657443816284
 20
-0.2338862141734041
 30
0.0
 10
0.0075112327629391
 20
-0.2190417650581428
 30
0.0
 10
0.0079527663408787
 20
-0.2032527820536191
 30
0.0
 10
0.0095795700424568
 20
-0.1865989731155676
 30
0.0
 10
0.0117779456850843
 20
-0.1753653492284724
 30
0.0
 10
0.0129166666666667
 20
-0.1695465241962996
 30
0.0
  0
MTEXT
  5
D1
330
1F
100
AcDbEntity
  8
0
  6
Continuous
 62
     7
100
AcDbMText
 10
-5.549824595
 20
-6.2901404091
 30
0.0
 40
0.1903
 41
0.0
 71
     1
 72
     1
  1
SOLIDWORKS Educational Product.
  7
SLDTEXTSTYLE0
 73
     1
 44
1.0
  0
MTEXT
  5
D2
330
1F
100
AcDbEntity
  8
0
  6
Continuous
 62
     7
100
AcDbMText
 10
-5.549824595
 20
-6.5755904091
 30
0.0
 40
0.1903
 41
0.0
 71
     1
 72
     1
  1
For Instructional Use Only.
  7
SLDTEXTSTYLE0
 73
     1
 44
1.0
  0
ENDSEC
  0
SECTION
  2
OBJECTS
  0
DICTIONARY
  5
C
330
0
100
AcDbDictionary
281
     1
  3
ACAD_GROUP
350
D
  3
ACAD_LAYOUT
350
1A
  3
ACAD_MLINESTYLE
350
17
  3
ACAD_PLOTSETTINGS
350
19
  3
ACAD_PLOTSTYLENAME
350
E
  3
ACAD_SCALELIST
350
47
  3
DWGPROPS
350
D3
  0
DICTIONARY
  5
D
102
{ACAD_REACTORS
330
C
102
}
330
C
100
AcDbDictionary
281
     1
  0
DICTIONARY
  5
1A
102
{ACAD_REACTORS
330
C
102
}
330
C
100
AcDbDictionary
281
     1
  3
Layout1
350
1E
  3
Layout2
350
26
  3
Model
350
22
  0
DICTIONARY
  5
17
102
{ACAD_REACTORS
330
C
102
}
330
C
100
AcDbDictionary
281
     1
  3
Standard
350
18
  0
DICTIONARY
  5
19
102
{ACAD_REACTORS
330
C
102
}
330
C
100
AcDbDictionary
281
     1
  0
ACDBDICTIONARYWDFLT
  5
E
102
{ACAD_REACTORS
330
C
102
}
330
C
100
AcDbDictionary
281
     1
  3
Normal
350
F
100
AcDbDictionaryWithDefault
340
F
  0
DICTIONARY
  5
47
102
{ACAD_REACTORS
330
C
102
}
330
C
100
AcDbDictionary
281
     1
  3
A0
350
48
  3
A1
350
49
  3
A2
350
4A
  3
A3
350
4B
  3
A4
350
4C
  3
A5
350
4D
  3
A6
350
4E
  3
A7
350
4F
  3
A8
350
50
  3
A9
350
51
  3
B1
350
52
  3
B2
350
53
  3
B3
350
54
  3
B4
350
55
  3
B5
350
56
  3
B6
350
57
  3
B7
350
58
  0
XRECORD
  5
D3
102
{ACAD_REACTORS
330
C
102
}
330
C
100
AcDbXrecord
280
     1
  1
DWGPROPS COOKIE
  2

  3

  4

  6

  7

  8
ericg
  9

300
=
301
=
302
=
303
=
304
=
305
=
306
=
307
=
308
=
309
=
 40
0.0
 41
2460337.126325452
 42
2460337.126350324
  1

 90
        0
  0
LAYOUT
  5
1E
102
{ACAD_REACTORS
330
1A
102
}
330
1A
100
AcDbPlotSettings
  1

  2
none_device
  4

  6

 40
0.0
 41
0.0
 42
0.0
 43
0.0
 44
0.0
 45
0.0
 46
0.0
 47
0.0
 48
0.0
 49
0.0
140
0.0
141
0.0
142
1.0
143
1.0
 70
   688
 72
     0
 73
     0
 74
     5
  7

 75
    16
147
1.0
148
0.0
149
0.0
100
AcDbLayout
  1
Layout1
 70
     1
 71
     1
 10
0.0
 20
0.0
 11
12.0
 21
9.0
 12
0.0
 22
0.0
 32
0.0
 14
1.0000000000E+20
 24
1.0000000000E+20
 34
1.0000000000E+20
 15
-1.0000000000E+20
 25
-1.0000000000E+20
 35
-1.0000000000E+20
146
0.0
 13
0.0
 23
0.0
 33
0.0
 16
1.0
 26
0.0
 36
0.0
 17
0.0
 27
1.0
 37
0.0
 76
     0
330
1B
  0
LAYOUT
  5
26
102
{ACAD_REACTORS
330
1A
102
}
330
1A
100
AcDbPlotSettings
  1

  2
none_device
  4

  6

 40
0.0
 41
0.0
 42
0.0
 43
0.0
 44
0.0
 45
0.0
 46
0.0
 47
0.0
 48
0.0
 49
0.0
140
0.0
141
0.0
142
1.0
143
1.0
 70
   688
 72
     0
 73
     0
 74
     5
  7

 75
    16
147
1.0
148
0.0
149
0.0
100
AcDbLayout
  1
Layout2
 70
     1
 71
     2
 10
0.0
 20
0.0
 11
0.0
 21
0.0
 12
0.0
 22
0.0
 32
0.0
 14
0.0
 24
0.0
 34
0.0
 15
0.0
 25
0.0
 35
0.0
146
0.0
 13
0.0
 23
0.0
 33
0.0
 16
1.0
 26
0.0
 36
0.0
 17
0.0
 27
1.0
 37
0.0
 76
     0
330
23
  0
LAYOUT
  5
22
102
{ACAD_REACTORS
330
1A
102
}
330
1A
100
AcDbPlotSettings
  1

  2
none_device
  4
ANSI_A_(11.00_x_8.50_Inches)
  6

 40
6.35
 41
19.05
 42
6.35000508
 43
19.05000254
 44
279.4
 45
215.9
 46
133.34999746
 47
96.1553731601
 48
0.0
 49
0.0
140
0.0
141
0.0
142
0.718903146
143
1.0
 70
  1696
 72
     0
 73
     0
 74
     0
  7

 75
     0
147
0.5913241897
148
-39.4088153714
149
0.0
100
AcDbLayout
  1
Model
 70
     1
 71
     0
 10
0.0
 20
0.0
 11
12.0
 21
9.0
 12
0.0
 22
0.0
 32
0.0
 14
-5.549824595
 24
-6.25
 34
0.0
 15
5.549824595
 25
5.455332
 35
0.0
146
0.0
 13
0.0
 23
0.0
 33
0.0
 16
1.0
 26
0.0
 36
0.0
 17
0.0
 27
1.0
 37
0.0
 76
     0
330
1F
331
29
  0
MLINESTYLE
  5
18
102
{ACAD_REACTORS
330
17
102
}
330
17
100
AcDbMlineStyle
  2
Standard
 70
     0
  3

 62
   256
 51
90.0
 52
90.0
 71
     2
 49
0.5
 62
   256
  6
BYLAYER
 49
-0.5
 62
   256
  6
BYLAYER
  0
ACDBPLACEHOLDER
  5
F
102
{ACAD_REACTORS
330
E
102
}
330
E
  0
SCALE
  5
48
102
{ACAD_REACTORS
330
47
102
}
330
47
100
AcDbScale
 70
     0
300
1:1
140
1.0
141
1.0
290
     1
  0
SCALE
  5
49
102
{ACAD_REACTORS
330
47
102
}
330
47
100
AcDbScale
 70
     0
300
1/128" = 1'-0"
140
0.0078125
141
12.0
290
     0
  0
SCALE
  5
4A
102
{ACAD_REACTORS
330
47
102
}
330
47
100
AcDbScale
 70
     0
300
1/64" = 1'-0"
140
0.015625
141
12.0
290
     0
  0
SCALE
  5
4B
102
{ACAD_REACTORS
330
47
102
}
330
47
100
AcDbScale
 70
     0
300
1/32" = 1'-0"
140
0.03125
141
12.0
290
     0
  0
SCALE
  5
4C
102
{ACAD_REACTORS
330
47
102
}
330
47
100
AcDbScale
 70
     0
300
1/16" = 1'-0"
140
0.0625
141
12.0
290
     0
  0
SCALE
  5
4D
102
{ACAD_REACTORS
330
47
102
}
330
47
100
AcDbScale
 70
     0
300
3/32" = 1'-0"
140
0.09375
141
12.0
290
     0
  0
SCALE
  5
4E
102
{ACAD_REACTORS
330
47
102
}
330
47
100
AcDbScale
 70
     0
300
1/8" = 1'-0"
140
0.125
141
12.0
290
     0
  0
SCALE
  5
4F
102
{ACAD_REACTORS
330
47
102
}
330
47
100
AcDbScale
 70
     0
300
3/16" = 1'-0"
140
0.1875
141
12.0
290
     0
  0
SCALE
  5
50
102
{ACAD_REACTORS
330
47
102
}
330
47
100
AcDbScale
 70
     0
300
1/4" = 1'-0"
140
0.25
141
12.0
290
     0
  0
SCALE
  5
51
102
{ACAD_REACTORS
330
47
102
}
330
47
100
AcDbScale
 70
     0
300
3/8" = 1'-0"
140
0.375
141
12.0
290
     0
  0
SCALE
  5
52
102
{ACAD_REACTORS
330
47
102
}
330
47
100
AcDbScale
 70
     0
300
1/2" = 1'-0"
140
0.5
141
12.0
290
     0
  0
SCALE
  5
53
102
{ACAD_REACTORS
330
47
102
}
330
47
100
AcDbScale
 70
     0
300
3/4" = 1'-0"
140
0.75
141
12.0
290
     0
  0
SCALE
  5
54
102
{ACAD_REACTORS
330
47
102
}
330
47
100
AcDbScale
 70
     0
300
1" = 1'-0"
140
1.0
141
12.0
290
     0
  0
SCALE
  5
55
102
{ACAD_REACTORS
330
47
102
}
330
47
100
AcDbScale
 70
     0
300
1-1/2" = 1'-0"
140
1.5
141
12.0
290
     0
  0
SCALE
  5
56
102
{ACAD_REACTORS
330
47
102
}
330
47
100
AcDbScale
 70
     0
300
3" = 1'-0"
140
3.0
141
12.0
290
     0
  0
SCALE
  5
57
102
{ACAD_REACTORS
330
47
102
}
330
47
100
AcDbScale
 70
     0
300
6" = 1'-0"
140
6.0
141
12.0
290
     0
  0
SCALE
  5
58
102
{ACAD_REACTORS
330
47
102
}
330
47
100
AcDbScale
 70
     0
300
1'-0" = 1'-0"
140
12.0
141
12.0
290
     0
  0
ENDSEC
  0
EOF
