  0
SECTION
  2
HEADER
  9
$ACADVER
  1
AC1015
  9
$ACADMAINTVER
 70
     6
  9
$DWGCODEPAGE
  3
ANSI_1252
  9
$INSBASE
 10
0.0
 20
0.0
 30
0.0
  9
$EXTMIN
 10
-292.1
 20
-25.4
 30
0.0
  9
$EXTMAX
 10
292.1
 20
25.4
 30
0.0
  9
$LIMMIN
 10
0.0
 20
0.0
  9
$LIMMAX
 10
420.0
 20
297.0
  9
$ORTHOMODE
 70
     0
  9
$REGENMODE
 70
     1
  9
$FILLMODE
 70
     1
  9
$QTEXTMODE
 70
     0
  9
$MIRRTEXT
 70
     1
  9
$LTSCALE
 40
1.0
  9
$ATTMODE
 70
     1
  9
$TEXTSIZE
 40
3.5
  9
$TRACEWID
 40
1.0
  9
$TEXTSTYLE
  7
Standard
  9
$CLAYER
  8
0
  9
$CELTYPE
  6
ByLayer
  9
$CECOLOR
 62
   256
  9
$CELTSCALE
 40
1.0
  9
$DISPSILH
 70
     0
  9
$DIMSCALE
 40
1.0
  9
$DIMASZ
 40
3.302
  9
$DIMEXO
 40
0.0
  9
$DIMDLI
 40
3.75
  9
$DIMRND
 40
0.0
  9
$DIMDLE
 40
0.0
  9
$DIMEXE
 40
3.175
  9
$DIMTP
 40
0.0
  9
$DIMTM
 40
0.0
  9
$DIMTXT
 40
3.5
  9
$DIMCEN
 40
2.5
  9
$DIMTSZ
 40
0.0
  9
$DIMTOL
 70
     0
  9
$DIMLIM
 70
     0
  9
$DIMTIH
 70
     1
  9
$DIMTOH
 70
     1
  9
$DIMSE1
 70
     0
  9
$DIMSE2
 70
     0
  9
$DIMTAD
 70
     1
  9
$DIMZIN
 70
     1
  9
$DIMBLK
  1

  9
$DIMASO
 70
     1
  9
$DIMSHO
 70
     1
  9
$DIMPOST
  1

  9
$DIMAPOST
  1

  9
$DIMALT
 70
     0
  9
$DIMALTD
 70
     3
  9
$DIMALTF
 40
0.0393700787
  9
$DIMLFAC
 40
1.0
  9
$DIMTOFL
 70
     1
  9
$DIMTVP
 40
0.0
  9
$DIMTIX
 70
     0
  9
$DIMSOXD
 70
     0
  9
$DIMSAH
 70
     0
  9
$DIMBLK1
  1

  9
$DIMBLK2
  1

  9
$DIMSTYLE
  2
ISO-25
  9
$DIMCLRD
 70
     0
  9
$DIMCLRE
 70
     0
  9
$DIMCLRT
 70
     0
  9
$DIMTFAC
 40
1.0
  9
$DIMGAP
 40
1.524
  9
$DIMJUST
 70
     0
  9
$DIMSD1
 70
     0
  9
$DIMSD2
 70
     0
  9
$DIMTOLJ
 70
     0
  9
$DIMTZIN
 70
     1
  9
$DIMALTZ
 70
     0
  9
$DIMALTTZ
 70
     0
  9
$DIMUPT
 70
     0
  9
$DIMDEC
 70
     2
  9
$DIMTDEC
 70
     2
  9
$DIMALTU
 70
     2
  9
$DIMALTTD
 70
     3
  9
$DIMTXSTY
  7
Standard
  9
$DIMAUNIT
 70
     0
  9
$DIMADEC
 70
     2
  9
$DIMALTRND
 40
0.0
  9
$DIMAZIN
 70
     0
  9
$DIMDSEP
 70
    44
  9
$DIMATFIT
 70
     3
  9
$DIMFRAC
 70
     0
  9
$DIMLDRBLK
  1

  9
$DIMLUNIT
 70
     2
  9
$DIMLWD
 70
    -2
  9
$DIMLWE
 70
    -2
  9
$DIMTMOVE
 70
     0
  9
$LUNITS
 70
     2
  9
$LUPREC
 70
     6
  9
$SKETCHINC
 40
1.0
  9
$FILLETRAD
 40
0.0
  9
$AUNITS
 70
     0
  9
$AUPREC
 70
     2
  9
$MENU
  1
.
  9
$ELEVATION
 40
0.0
  9
$PELEVATION
 40
0.0
  9
$THICKNESS
 40
0.0
  9
$LIMCHECK
 70
     0
  9
$CHAMFERA
 40
0.0
  9
$CHAMFERB
 40
0.0
  9
$CHAMFERC
 40
0.0
  9
$CHAMFERD
 40
0.0
  9
$SKPOLY
 70
     0
  9
$TDCREATE
 40
2460334.034996783
  9
$TDUCREATE
 40
2460334.368330116
  9
$TDUPDATE
 40
2460334.035033484
  9
$TDUUPDATE
 40
2460334.368366817
  9
$TDINDWG
 40
0.0000000116
  9
$TDUSRTIMER
 40
0.0000000116
  9
$USRTIMER
 70
     1
  9
$ANGBASE
 50
0.0
  9
$ANGDIR
 70
     0
  9
$PDMODE
 70
     0
  9
$PDSIZE
 40
-1.0
  9
$PLINEWID
 40
0.0
  9
$SPLFRAME
 70
     0
  9
$SPLINETYPE
 70
     6
  9
$SPLINESEGS
 70
     8
  9
$HANDSEED
  5
C5
  9
$SURFTAB1
 70
     6
  9
$SURFTAB2
 70
     6
  9
$SURFTYPE
 70
     6
  9
$SURFU
 70
     6
  9
$SURFV
 70
     6
  9
$UCSBASE
  2

  9
$UCSNAME
  2

  9
$UCSORG
 10
0.0
 20
0.0
 30
0.0
  9
$UCSXDIR
 10
1.0
 20
0.0
 30
0.0
  9
$UCSYDIR
 10
0.0
 20
1.0
 30
0.0
  9
$UCSORTHOREF
  2

  9
$UCSORTHOVIEW
 70
     0
  9
$UCSORGTOP
 10
0.0
 20
0.0
 30
0.0
  9
$UCSORGBOTTOM
 10
0.0
 20
0.0
 30
0.0
  9
$UCSORGLEFT
 10
0.0
 20
0.0
 30
0.0
  9
$UCSORGRIGHT
 10
0.0
 20
0.0
 30
0.0
  9
$UCSORGFRONT
 10
0.0
 20
0.0
 30
0.0
  9
$UCSORGBACK
 10
0.0
 20
0.0
 30
0.0
  9
$PUCSBASE
  2

  9
$PUCSNAME
  2

  9
$PUCSORG
 10
0.0
 20
0.0
 30
0.0
  9
$PUCSXDIR
 10
1.0
 20
0.0
 30
0.0
  9
$PUCSYDIR
 10
0.0
 20
1.0
 30
0.0
  9
$PUCSORTHOREF
  2

  9
$PUCSORTHOVIEW
 70
     0
  9
$PUCSORGTOP
 10
0.0
 20
0.0
 30
0.0
  9
$PUCSORGBOTTOM
 10
0.0
 20
0.0
 30
0.0
  9
$PUCSORGLEFT
 10
0.0
 20
0.0
 30
0.0
  9
$PUCSORGRIGHT
 10
0.0
 20
0.0
 30
0.0
  9
$PUCSORGFRONT
 10
0.0
 20
0.0
 30
0.0
  9
$PUCSORGBACK
 10
0.0
 20
0.0
 30
0.0
  9
$USERI1
 70
     0
  9
$USERI2
 70
     0
  9
$USERI3
 70
     0
  9
$USERI4
 70
     0
  9
$USERI5
 70
     0
  9
$USERR1
 40
0.0
  9
$USERR2
 40
0.0
  9
$USERR3
 40
0.0
  9
$USERR4
 40
0.0
  9
$USERR5
 40
0.0
  9
$WORLDVIEW
 70
     1
  9
$SHADEDGE
 70
     3
  9
$SHADEDIF
 70
    70
  9
$TILEMODE
 70
     1
  9
$MAXACTVP
 70
    64
  9
$PINSBASE
 10
0.0
 20
0.0
 30
0.0
  9
$PLIMCHECK
 70
     0
  9
$PEXTMIN
 10
1.0000000000E+20
 20
1.0000000000E+20
 30
1.0000000000E+20
  9
$PEXTMAX
 10
-1.0000000000E+20
 20
-1.0000000000E+20
 30
-1.0000000000E+20
  9
$PLIMMIN
 10
0.0
 20
0.0
  9
$PLIMMAX
 10
420.0
 20
297.0
  9
$UNITMODE
 70
     0
  9
$VISRETAIN
 70
     1
  9
$PLINEGEN
 70
     0
  9
$PSLTSCALE
 70
     1
  9
$TREEDEPTH
 70
  3020
  9
$CMLSTYLE
  2
Standard
  9
$CMLJUST
 70
     0
  9
$CMLSCALE
 40
20.0
  9
$PROXYGRAPHICS
 70
     1
  9
$MEASUREMENT
 70
     1
  9
$CELWEIGHT
370
    -1
  9
$ENDCAPS
280
     0
  9
$JOINSTYLE
280
     0
  9
$LWDISPLAY
290
     1
  9
$INSUNITS
 70
     4
  9
$HYPERLINKBASE
  1

  9
$STYLESHEET
  1

  9
$XEDIT
290
     1
  9
$CEPSNTYPE
380
     0
  9
$PSTYLEMODE
290
     1
  9
$FINGERPRINTGUID
  2
{49c4b40e-3168-4c78-8adb-a9946360c310}
  9
$VERSIONGUID
  2
{FAEB1C32-E019-11D5-929B-00C0DF256EC4}
  9
$EXTNAMES
290
     1
  9
$PSVPSCALE
 40
0.0
  9
$OLESTARTUP
290
     0
  0
ENDSEC
  0
SECTION
  2
CLASSES
  0
CLASS
  1
ACDBDICTIONARYWDFLT
  2
AcDbDictionaryWithDefault
  3
ObjectDBX Classes
 90
        0
280
     0
281
     0
  0
CLASS
  1
VISUALSTYLE
  2
AcDbVisualStyle
  3
ObjectDBX Classes
 90
     4095
280
     0
281
     0
  0
CLASS
  1
MATERIAL
  2
AcDbMaterial
  3
ObjectDBX Classes
 90
     1153
280
     0
281
     0
  0
CLASS
  1
SCALE
  2
AcDbScale
  3
ObjectDBX Classes
 90
     1153
280
     0
281
     0
  0
CLASS
  1
TABLESTYLE
  2
AcDbTableStyle
  3
ObjectDBX Classes
 90
     4095
280
     0
281
     0
  0
CLASS
  1
MLEADERSTYLE
  2
AcDbMLeaderStyle
  3
ACDB_MLEADERSTYLE_CLASS
 90
     4095
280
     0
281
     0
  0
CLASS
  1
SUN
  2
AcDbSun
  3
SCENEOE
 90
     1153
280
     0
281
     0
  0
CLASS
  1
ACDBPLACEHOLDER
  2
AcDbPlaceHolder
  3
ObjectDBX Classes
 90
        0
280
     0
281
     0
  0
CLASS
  1
LAYOUT
  2
AcDbLayout
  3
ObjectDBX Classes
 90
        0
280
     0
281
     0
  0
ENDSEC
  0
SECTION
  2
TABLES
  0
TABLE
  2
VPORT
  5
8
330
0
100
AcDbSymbolTable
 70
     1
  0
VPORT
  5
29
330
8
100
AcDbSymbolTableRecord
100
AcDbViewportTableRecord
  2
*Active
 70
     0
 10
0.0
 20
0.0
 11
1.0
 21
1.0
 12
0.0
 22
0.0
 13
0.0
 23
0.0
 14
10.0
 24
10.0
 15
10.0
 25
10.0
 16
0.0
 26
0.0
 36
1.0
 17
0.0
 27
0.0
 37
0.0
 40
51.816
 41
11.5
 42
50.0
 43
0.0
 44
0.0
 50
0.0
 51
0.0
 71
     0
 72
   100
 73
     1
 74
     3
 75
     0
 76
     0
 77
     0
 78
     0
281
     0
 65
     1
110
0.0
120
0.0
130
0.0
111
1.0
121
0.0
131
0.0
112
0.0
122
1.0
132
0.0
 79
     0
146
0.0
  0
ENDTAB
  0
TABLE
  2
LTYPE
  5
5
330
0
100
AcDbSymbolTable
 70
     6
  0
LTYPE
  5
14
330
5
100
AcDbSymbolTableRecord
100
AcDbLinetypeTableRecord
  2
ByBlock
 70
     0
  3

 72
    65
 73
     0
 40
0.0
  0
LTYPE
  5
15
330
5
100
AcDbSymbolTableRecord
100
AcDbLinetypeTableRecord
  2
ByLayer
 70
     0
  3

 72
    65
 73
     0
 40
0.0
  0
LTYPE
  5
16
330
5
100
AcDbSymbolTableRecord
100
AcDbLinetypeTableRecord
  2
Continuous
 70
     0
  3
Solid line
 72
    65
 73
     0
 40
0.0
  0
LTYPE
  5
5E
330
5
100
AcDbSymbolTableRecord
100
AcDbLinetypeTableRecord
  2
HIDDEN
 70
     0
  3
Hidden __ __ __ __ __ __ __ __ __ __ __ __ __ __
 72
    65
 73
     2
 40
1.905
 49
1.27
 74
     0
 49
-0.635
 74
     0
  0
LTYPE
  5
5F
330
5
100
AcDbSymbolTableRecord
100
AcDbLinetypeTableRecord
  2
PHANTOM
 70
     0
  3
Phantom ______  __  __  ______  __  __  ______
 72
    65
 73
     6
 40
12.7
 49
6.35
 74
     0
 49
-1.27
 74
     0
 49
1.27
 74
     0
 49
-1.27
 74
     0
 49
1.27
 74
     0
 49
-1.27
 74
     0
  0
LTYPE
  5
60
330
5
100
AcDbSymbolTableRecord
100
AcDbLinetypeTableRecord
  2
CENTER
 70
     0
  3
Center ____ _ ____ _ ____ _ ____ _ ____ _ ____
 72
    65
 73
     4
 40
10.16
 49
6.35
 74
     0
 49
-1.27
 74
     0
 49
1.27
 74
     0
 49
-1.27
 74
     0
  0
LTYPE
  5
61
330
5
100
AcDbSymbolTableRecord
100
AcDbLinetypeTableRecord
  2
CENTERX2
 70
     0
  3
Center (2x) ________  __  ________  __  _____
 72
    65
 73
     4
 40
20.32
 49
12.7
 74
     0
 49
-2.54
 74
     0
 49
2.54
 74
     0
 49
-2.54
 74
     0
  0
LTYPE
  5
62
330
5
100
AcDbSymbolTableRecord
100
AcDbLinetypeTableRecord
  2
DOT2
 70
     0
  3
Dot (.5x) ........................................
 72
    65
 73
     2
 40
0.635
 49
0.0
 74
     0
 49
-0.635
 74
     0
  0
ENDTAB
  0
TABLE
  2
LAYER
  5
2
330
0
100
AcDbSymbolTable
 70
     1
  0
LAYER
  5
10
330
2
100
AcDbSymbolTableRecord
100
AcDbLayerTableRecord
  2
0
 70
     0
 62
     7
  6
Continuous
370
    -3
390
F
  0
ENDTAB
  0
TABLE
  2
STYLE
  5
3
330
0
100
AcDbSymbolTable
 70
     2
  0
STYLE
  5
11
330
3
100
AcDbSymbolTableRecord
100
AcDbTextStyleTableRecord
  2
Standard
 70
     0
 40
0.0
 41
1.0
 50
0.0
 71
     0
 42
3.5
  3
txt
  4

  0
STYLE
  5
C1
330
3
100
AcDbSymbolTableRecord
100
AcDbTextStyleTableRecord
  2
SLDTEXTSTYLE0
 70
     0
 40
0.0
 41
0.7
 50
0.0
 71
     0
 42
3.5
  3
TXT
  4

  0
ENDTAB
  0
TABLE
  2
VIEW
  5
6
330
0
100
AcDbSymbolTable
 70
     0
  0
ENDTAB
  0
TABLE
  2
UCS
  5
7
330
0
100
AcDbSymbolTable
 70
     0
  0
ENDTAB
  0
TABLE
  2
APPID
  5
9
330
0
100
AcDbSymbolTable
 70
     1
  0
APPID
  5
12
330
9
100
AcDbSymbolTableRecord
100
AcDbRegAppTableRecord
  2
ACAD
 70
     0
  0
ENDTAB
  0
TABLE
  2
DIMSTYLE
  5
A
330
0
100
AcDbSymbolTable
 70
     1
100
AcDbDimStyleTable
  0
DIMSTYLE
105
27
330
A
100
AcDbSymbolTableRecord
100
AcDbDimStyleTableRecord
  2
ISO-25
 70
     0
 41
2.5
 42
0.625
 43
3.75
 44
1.25
 73
     0
 74
     0
 77
     1
 78
     8
140
2.5
141
2.5
143
0.0393700787
147
0.625
171
     3
172
     1
178
     0
271
     2
272
     2
274
     3
278
    44
283
     0
284
     8
340
11
  0
ENDTAB
  0
TABLE
  2
BLOCK_RECORD
  5
1
330
0
100
AcDbSymbolTable
 70
     1
  0
BLOCK_RECORD
  5
1F
330
1
100
AcDbSymbolTableRecord
100
AcDbBlockTableRecord
  2
*Model_Space
340
22
  0
BLOCK_RECORD
  5
1B
330
1
100
AcDbSymbolTableRecord
100
AcDbBlockTableRecord
  2
*Paper_Space
340
1E
  0
BLOCK_RECORD
  5
23
330
1
100
AcDbSymbolTableRecord
100
AcDbBlockTableRecord
  2
*Paper_Space0
340
26
  0
ENDTAB
  0
ENDSEC
  0
SECTION
  2
BLOCKS
  0
BLOCK
  5
20
330
1F
100
AcDbEntity
  8
0
100
AcDbBlockBegin
  2
*Model_Space
 70
     0
 10
0.0
 20
0.0
 30
0.0
  3
*Model_Space
  1

  0
ENDBLK
  5
21
330
1F
100
AcDbEntity
  8
0
100
AcDbBlockEnd
  0
BLOCK
  5
1C
330
1B
100
AcDbEntity
 67
     1
  8
0
100
AcDbBlockBegin
  2
*Paper_Space
 70
     0
 10
0.0
 20
0.0
 30
0.0
  3
*Paper_Space
  1

  0
ENDBLK
  5
1D
330
1B
100
AcDbEntity
 67
     1
  8
0
100
AcDbBlockEnd
  0
BLOCK
  5
24
330
23
100
AcDbEntity
  8
0
100
AcDbBlockBegin
  2
*Paper_Space0
 70
     0
 10
0.0
 20
0.0
 30
0.0
  3
*Paper_Space0
  1

  0
ENDBLK
  5
25
330
23
100
AcDbEntity
  8
0
100
AcDbBlockEnd
  0
ENDSEC
  0
SECTION
  2
ENTITIES
  0
LINE
  5
63
330
1F
100
AcDbEntity
  8
0
  6
Continuous
 62
     7
370
    25
100
AcDbLine
 10
-273.05
 20
1.905
 30
0.0
 11
-273.05
 21
-1.905
 31
0.0
  0
ARC
  5
64
330
1F
100
AcDbEntity
  8
0
  6
Continuous
 62
     7
370
    25
100
AcDbCircle
 10
-265.43
 20
1.905
 30
0.0
 40
7.620000000000005
100
AcDbArc
 50
90.0
 51
180.0
  0
LINE
  5
65
330
1F
100
AcDbEntity
  8
0
  6
Continuous
 62
     7
370
    25
100
AcDbLine
 10
-217.17
 20
9.525
 30
0.0
 11
-265.43
 21
9.525
 31
0.0
  0
ARC
  5
66
330
1F
100
AcDbEntity
  8
0
  6
Continuous
 62
     7
370
    25
100
AcDbCircle
 10
-217.17
 20
1.905
 30
0.0
 40
7.620000000000005
100
AcDbArc
 50
0.0
 51
90.0
  0
LINE
  5
67
330
1F
100
AcDbEntity
  8
0
  6
Continuous
 62
     7
370
    25
100
AcDbLine
 10
-209.55
 20
-1.905
 30
0.0
 11
-209.55
 21
1.905
 31
0.0
  0
ARC
  5
68
330
1F
100
AcDbEntity
  8
0
  6
Continuous
 62
     7
370
    25
100
AcDbCircle
 10
-217.17
 20
-1.905
 30
0.0
 40
7.620000000000005
100
AcDbArc
 50
270.0
 51
0.0
  0
LINE
  5
69
330
1F
100
AcDbEntity
  8
0
  6
Continuous
 62
     7
370
    25
100
AcDbLine
 10
-265.43
 20
-9.525
 30
0.0
 11
-217.17
 21
-9.525
 31
0.0
  0
ARC
  5
6A
330
1F
100
AcDbEntity
  8
0
  6
Continuous
 62
     7
370
    25
100
AcDbCircle
 10
-265.43
 20
-1.905
 30
0.0
 40
7.620000000000005
100
AcDbArc
 50
180.0
 51
270.0
  0
LINE
  5
6B
330
1F
100
AcDbEntity
  8
0
  6
Continuous
 62
     7
370
    25
100
AcDbLine
 10
-190.5
 20
1.905
 30
0.0
 11
-190.5
 21
-1.905
 31
0.0
  0
ARC
  5
6C
330
1F
100
AcDbEntity
  8
0
  6
Continuous
 62
     7
370
    25
100
AcDbCircle
 10
-182.88
 20
1.905
 30
0.0
 40
7.62
100
AcDbArc
 50
90.0
 51
180.0
  0
LINE
  5
6D
330
1F
100
AcDbEntity
  8
0
  6
Continuous
 62
     7
370
    25
100
AcDbLine
 10
-96.52
 20
9.525
 30
0.0
 11
-182.88
 21
9.525
 31
0.0
  0
ARC
  5
6E
330
1F
100
AcDbEntity
  8
0
  6
Continuous
 62
     7
370
    25
100
AcDbCircle
 10
-96.52
 20
1.905
 30
0.0
 40
7.620000000000005
100
AcDbArc
 50
0.0
 51
90.0
  0
LINE
  5
6F
330
1F
100
AcDbEntity
  8
0
  6
Continuous
 62
     7
370
    25
100
AcDbLine
 10
-88.9
 20
-1.905
 30
0.0
 11
-88.9
 21
1.905
 31
0.0
  0
ARC
  5
70
330
1F
100
AcDbEntity
  8
0
  6
Continuous
 62
     7
370
    25
100
AcDbCircle
 10
-96.52
 20
-1.905
 30
0.0
 40
7.620000000000005
100
AcDbArc
 50
270.0
 51
0.0
  0
LINE
  5
71
330
1F
100
AcDbEntity
  8
0
  6
Continuous
 62
     7
370
    25
100
AcDbLine
 10
-182.88
 20
-9.525
 30
0.0
 11
-96.52
 21
-9.525
 31
0.0
  0
ARC
  5
72
330
1F
100
AcDbEntity
  8
0
  6
Continuous
 62
     7
370
    25
100
AcDbCircle
 10
-182.88
 20
-1.905
 30
0.0
 40
7.62
100
AcDbArc
 50
180.0
 51
270.0
  0
LINE
  5
73
330
1F
100
AcDbEntity
  8
0
  6
Continuous
 62
     7
370
    25
100
AcDbLine
 10
182.88
 20
9.525
 30
0.0
 11
96.52
 21
9.525
 31
0.0
  0
ARC
  5
74
330
1F
100
AcDbEntity
  8
0
  6
Continuous
 62
     7
370
    25
100
AcDbCircle
 10
182.88
 20
1.905
 30
0.0
 40
7.62
100
AcDbArc
 50
0.0
 51
90.0
  0
LINE
  5
75
330
1F
100
AcDbEntity
  8
0
  6
Continuous
 62
     7
370
    25
100
AcDbLine
 10
190.5
 20
-1.905
 30
0.0
 11
190.5
 21
1.905
 31
0.0
  0
ARC
  5
76
330
1F
100
AcDbEntity
  8
0
  6
Continuous
 62
     7
370
    25
100
AcDbCircle
 10
182.88
 20
-1.905
 30
0.0
 40
7.62
100
AcDbArc
 50
270.0
 51
0.0
  0
LINE
  5
77
330
1F
100
AcDbEntity
  8
0
  6
Continuous
 62
     7
370
    25
100
AcDbLine
 10
96.52
 20
-9.525
 30
0.0
 11
182.88
 21
-9.525
 31
0.0
  0
ARC
  5
78
330
1F
100
AcDbEntity
  8
0
  6
Continuous
 62
     7
370
    25
100
AcDbCircle
 10
96.52
 20
-1.905
 30
0.0
 40
7.620000000000005
100
AcDbArc
 50
180.0
 51
270.0
  0
LINE
  5
79
330
1F
100
AcDbEntity
  8
0
  6
Continuous
 62
     7
370
    25
100
AcDbLine
 10
88.9
 20
1.905
 30
0.0
 11
88.9
 21
-1.905
 31
0.0
  0
ARC
  5
7A
330
1F
100
AcDbEntity
  8
0
  6
Continuous
 62
     7
370
    25
100
AcDbCircle
 10
96.52
 20
1.905
 30
0.0
 40
7.620000000000005
100
AcDbArc
 50
90.0
 51
180.0
  0
LINE
  5
7B
330
1F
100
AcDbEntity
  8
0
  6
Continuous
 62
     7
370
    25
100
AcDbLine
 10
265.43
 20
9.525
 30
0.0
 11
217.17
 21
9.525
 31
0.0
  0
ARC
  5
7C
330
1F
100
AcDbEntity
  8
0
  6
Continuous
 62
     7
370
    25
100
AcDbCircle
 10
265.43
 20
1.905
 30
0.0
 40
7.620000000000005
100
AcDbArc
 50
0.0
 51
90.0
  0
LINE
  5
7D
330
1F
100
AcDbEntity
  8
0
  6
Continuous
 62
     7
370
    25
100
AcDbLine
 10
273.05
 20
-1.905
 30
0.0
 11
273.05
 21
1.905
 31
0.0
  0
ARC
  5
7E
330
1F
100
AcDbEntity
  8
0
  6
Continuous
 62
     7
370
    25
100
AcDbCircle
 10
265.43
 20
-1.905
 30
0.0
 40
7.620000000000005
100
AcDbArc
 50
270.0
 51
0.0
  0
LINE
  5
7F
330
1F
100
AcDbEntity
  8
0
  6
Continuous
 62
     7
370
    25
100
AcDbLine
 10
217.17
 20
-9.525
 30
0.0
 11
265.43
 21
-9.525
 31
0.0
  0
ARC
  5
80
330
1F
100
AcDbEntity
  8
0
  6
Continuous
 62
     7
370
    25
100
AcDbCircle
 10
217.17
 20
-1.905
 30
0.0
 40
7.620000000000005
100
AcDbArc
 50
180.0
 51
270.0
  0
LINE
  5
81
330
1F
100
AcDbEntity
  8
0
  6
Continuous
 62
     7
370
    25
100
AcDbLine
 10
209.55
 20
1.905
 30
0.0
 11
209.55
 21
-1.905
 31
0.0
  0
ARC
  5
82
330
1F
100
AcDbEntity
  8
0
  6
Continuous
 62
     7
370
    25
100
AcDbCircle
 10
217.17
 20
1.905
 30
0.0
 40
7.620000000000005
100
AcDbArc
 50
90.0
 51
180.0
  0
LINE
  5
83
330
1F
100
AcDbEntity
  8
0
  6
Continuous
 62
     7
370
    25
100
AcDbLine
 10
-23.3269895833
 20
-15.6680698002
 30
0.0
 11
-21.4508553533
 21
-15.6680698002
 31
0.0
  0
LINE
  5
84
330
1F
100
AcDbEntity
  8
0
  6
Continuous
 62
     7
370
    25
100
AcDbLine
 10
-21.4508553533
 20
-15.6680698002
 30
0.0
 11
-21.4508553533
 21
-19.4780698002
 31
0.0
  0
LINE
  5
85
330
1F
100
AcDbEntity
  8
0
  6
Continuous
 62
     7
370
    25
100
AcDbLine
 10
-21.4508553533
 20
-19.4780698002
 30
0.0
 11
-29.72990625
 21
-19.4780698002
 31
0.0
  0
SPLINE
  5
86
330
1F
100
AcDbEntity
  8
0
  6
Continuous
 62
     7
370
    25
100
AcDbSpline
210
0.0
220
0.0
230
1.0
 70
     8
 71
     3
 72
    23
 73
    19
 74
     0
 42
0.00000001
 43
0.00000001
 40
0.0
 40
0.0
 40
0.0
 40
0.0
 40
0.072423740321072
 40
0.1400814880688958
 40
0.2043194316182259
 40
0.2657238078172171
 40
0.3245427255907771
 40
0.3813402305580571
 40
0.438302088427264
 40
0.4951818292073514
 40
0.5522325138746307
 40
0.609467244481006
 40
0.6675330251076169
 40
0.7270824771583646
 40
0.7892684638191259
 40
0.8554712865108681
 40
0.9255553361255773
 40
1.0
 40
1.0
 40
1.0
 40
1.0
 10
-29.7299062499999
 20
-19.47806980016509
 30
0.0
 10
-29.91094439200015
 20
-19.47519302802644
 30
0.0
 10
-30.26110709025619
 20
-19.46962879563207
 30
0.0
 10
-30.76792470521226
 20
-19.40032481909027
 30
0.0
 10
-31.23962688390418
 20
-19.29529970261231
 30
0.0
 10
-31.67911309364632
 20
-19.15287947508821
 30
0.0
 10
-32.07792945765191
 20
-18.95887294251195
 30
0.0
 10
-32.44135968942914
 20
-18.72501314647245
 30
0.0
 10
-32.76614995989669
 20
-18.44658597046788
 30
0.0
 10
-33.04992537141598
 20
-18.12654319713245
 30
0.0
 10
-33.29901932860336
 20
-17.77715896501596
 30
0.0
 10
-33.48811471223055
 20
-17.38887760873872
 30
0.0
 10
-33.63793064047787
 20
-16.97719104021398
 30
0.0
 10
-33.72447839191766
 20
-16.53548772020897
 30
0.0
 10
-33.78455982770841
 20
-16.06882768559258
 30
0.0
 10
-33.76986561708176
 20
-15.57187343542665
 30
0.0
 10
-33.71920024137815
 20
-15.04742662825931
 30
0.0
 10
-33.64888502460685
 20
-14.6930513376931
 30
0.0
 10
-33.61266666666657
 20
-14.51051771683175
 30
0.0
  0
LINE
  5
87
330
1F
100
AcDbEntity
  8
0
  6
Continuous
 62
     7
370
    25
100
AcDbLine
 10
-33.6126666667
 20
-14.5105177168
 30
0.0
 11
-29.0419895833
 21
7.3043781165
 31
0.0
  0
SPLINE
  5
88
330
1F
100
AcDbEntity
  8
0
  6
Continuous
 62
     7
370
    25
100
AcDbSpline
210
0.0
220
0.0
230
1.0
 70
     8
 71
     3
 72
    15
 73
    11
 74
     0
 42
0.00000001
 43
0.00000001
 40
0.0
 40
0.0
 40
0.0
 40
0.0
 40
0.132814515472222
 40
0.2591660473005374
 40
0.3828652351135339
 40
0.5077263618779763
 40
0.6318033187241766
 40
0.7526010143237519
 40
0.8740291929606397
 40
1.0
 40
1.0
 40
1.0
 40
1.0
 10
-29.04198958333324
 20
7.30437811650158
 30
0.0
 10
-28.9455068113141
 20
7.665564486146565
 30
0.0
 10
-28.75723628555197
 20
8.370361273055746
 30
0.0
 10
-28.28410235942524
 20
9.344072936239261
 30
0.0
 10
-27.66829463518524
 20
10.20499344671182
 30
0.0
 10
-26.91160822194466
 20
10.9359745458284
 30
0.0
 10
-26.05592832397941
 20
11.5339070293855
 30
0.0
 10
-25.11505820161578
 20
11.96339798062371
 30
0.0
 10
-24.10597195157273
 20
12.22353174803734
 30
0.0
 10
-23.41011079105063
 20
12.25560110157537
 30
0.0
 10
-23.05579166666657
 20
12.27193019983491
 30
0.0
  0
LINE
  5
89
330
1F
100
AcDbEntity
  8
0
  6
Continuous
 62
     7
370
    25
100
AcDbLine
 10
-23.0557916667
 20
12.2719301998
 30
0.0
 11
-16.1880098771
 21
12.2719301998
 31
0.0
  0
LINE
  5
8A
330
1F
100
AcDbEntity
  8
0
  6
Continuous
 62
     7
370
    25
100
AcDbLine
 10
-16.1880098771
 20
12.2719301998
 30
0.0
 11
-16.1880098771
 21
8.4619301998
 31
0.0
  0
LINE
  5
8B
330
1F
100
AcDbEntity
  8
0
  6
Continuous
 62
     7
370
    25
100
AcDbLine
 10
-16.1880098771
 20
8.4619301998
 30
0.0
 11
-18.29990625
 21
8.4619301998
 31
0.0
  0
LINE
  5
8C
330
1F
100
AcDbEntity
  8
0
  6
Continuous
 62
     7
370
    25
100
AcDbLine
 10
-18.29990625
 20
8.4619301998
 30
0.0
 11
-23.3269895833
 21
-15.6680698002
 31
0.0
  0
LINE
  5
8D
330
1F
100
AcDbEntity
  8
0
  6
Continuous
 62
     7
370
    25
100
AcDbLine
 10
-11.98959375
 20
-19.4780698002
 30
0.0
 11
-18.1932520325
 21
-19.4780698002
 31
0.0
  0
LINE
  5
8E
330
1F
100
AcDbEntity
  8
0
  6
Continuous
 62
     7
370
    25
100
AcDbLine
 10
-18.1932520325
 20
-19.4780698002
 30
0.0
 11
-18.1932520325
 21
-15.6680698002
 31
0.0
  0
LINE
  5
8F
330
1F
100
AcDbEntity
  8
0
  6
Continuous
 62
     7
370
    25
100
AcDbLine
 10
-18.1932520325
 20
-15.6680698002
 30
0.0
 11
-16.7454791667
 21
-15.6680698002
 31
0.0
  0
LINE
  5
90
330
1F
100
AcDbEntity
  8
0
  6
Continuous
 62
     7
370
    25
100
AcDbLine
 10
-16.7454791667
 20
-15.6680698002
 30
0.0
 11
-11.7183958333
 21
8.4619301998
 31
0.0
  0
LINE
  5
91
330
1F
100
AcDbEntity
  8
0
  6
Continuous
 62
     7
370
    25
100
AcDbLine
 10
-11.7183958333
 20
8.4619301998
 30
0.0
 11
-13.6085717644
 21
8.4619301998
 31
0.0
  0
LINE
  5
92
330
1F
100
AcDbEntity
  8
0
  6
Continuous
 62
     7
370
    25
100
AcDbLine
 10
-13.6085717644
 20
8.4619301998
 30
0.0
 11
-13.6085717644
 21
12.2719301998
 31
0.0
  0
LINE
  5
93
330
1F
100
AcDbEntity
  8
0
  6
Continuous
 62
     7
370
    25
100
AcDbLine
 10
-13.6085717644
 20
12.2719301998
 30
0.0
 11
-5.3154791667
 21
12.2719301998
 31
0.0
  0
SPLINE
  5
94
330
1F
100
AcDbEntity
  8
0
  6
Continuous
 62
     7
370
    25
100
AcDbSpline
210
0.0
220
0.0
230
1.0
 70
     8
 71
     3
 72
    23
 73
    19
 74
     0
 42
0.00000001
 43
0.00000001
 40
0.0
 40
0.0
 40
0.0
 40
0.0
 40
0.0724020038837272
 40
0.1400394456049873
 40
0.2042581095088734
 40
0.2656440564970833
 40
0.3244453210299353
 40
0.3812257794403461
 40
0.438170541425674
 40
0.4950332109675715
 40
0.5520667730915073
 40
0.6096843350077881
 40
0.6677326884317042
 40
0.7272642679874985
 40
0.7893375925294922
 40
0.8555146637144114
 40
0.9255776790999224
 40
1.0
 40
1.0
 40
1.0
 40
1.0
 10
-5.315479166666572
 20
12.27193019983491
 30
0.0
 10
-5.134441047973333
 20
12.26905341606332
 30
0.0
 10
-4.784278394797526
 20
12.26348916116858
 30
0.0
 10
-4.277460464057812
 20
12.19418534224015
 30
0.0
 10
-3.805759393961372
 20
12.08915967244198
 30
0.0
 10
-3.366269314016216
 20
11.94674137660675
 30
0.0
 10
-2.967466525983424
 20
11.75272806801504
 30
0.0
 10
-2.603987692654273
 20
11.51889252989584
 30
0.0
 10
-2.279377956643023
 20
11.24037524585397
 30
0.0
 10
-1.994928410026372
 20
10.92066894563144
 30
0.0
 10
-1.747783228881181
 20
10.5692046583248
 30
0.0
 10
-1.548895738185672
 20
10.18467028456089
 30
0.0
 10
-1.402092859422537
 20
9.770721176355181
 30
0.0
 10
-1.311356922890744
 20
9.329895128617741
 30
0.0
 10
-1.26567918502405
 20
8.862185225659092
 30
0.0
 10
-1.26556878965758
 20
8.36578848405621
 30
0.0
 10
-1.320486935351002
 20
7.841268005012754
 30
0.0
 10
-1.390197339182328
 20
7.486905270117301
 30
0.0
 10
-1.426104166666567
 20
7.30437811650158
 30
0.0
  0
LINE
  5
95
330
1F
100
AcDbEntity
  8
0
  6
Continuous
 62
     7
370
    25
100
AcDbLine
 10
-1.4261041667
 20
7.3043781165
 30
0.0
 11
-6.0033958333
 21
-14.5105177168
 31
0.0
  0
SPLINE
  5
96
330
1F
100
AcDbEntity
  8
0
  6
Continuous
 62
     7
370
    25
100
AcDbSpline
210
0.0
220
0.0
230
1.0
 70
     8
 71
     3
 72
    15
 73
    11
 74
     0
 42
0.00000001
 43
0.00000001
 40
0.0
 40
0.0
 40
0.0
 40
0.0
 40
0.1327962190642631
 40
0.2591303448194222
 40
0.3828124919437835
 40
0.507656417951928
 40
0.6310719788824124
 40
0.7518530335003049
 40
0.8732644843007352
 40
1.0
 40
1.0
 40
1.0
 40
1.0
 10
-6.003395833333237
 20
-14.51051771683175
 30
0.0
 10
-6.099873751131975
 20
-14.87171111903801
 30
0.0
 10
-6.288134804668061
 20
-15.57652162885314
 30
0.0
 10
-6.76133665443924
 20
-16.55013488752433
 30
0.0
 10
-7.376893398053809
 20
-17.41141900666728
 30
0.0
 10
-8.133210299728512
 20
-18.13977565151061
 30
0.0
 10
-8.983678920164435
 20
-18.74199177478592
 30
0.0
 10
-9.923929025302629
 20
-19.16921743460527
 30
0.0
 10
-10.93488897050317
 20
-19.43032530727333
 30
0.0
 10
-11.63303253285277
 20
-19.46192894745588
 30
0.0
 10
-11.9895937499999
 20
-19.47806980016509
 30
0.0
  0
LINE
  5
97
330
1F
100
AcDbEntity
  8
0
  6
Continuous
 62
     7
370
    25
100
AcDbLine
 10
1.9552708333
 20
-4.7275489668
 30
0.0
 11
5.4742291667
 21
12.2719301998
 31
0.0
  0
LINE
  5
98
330
1F
100
AcDbEntity
  8
0
  6
Continuous
 62
     7
370
    25
100
AcDbLine
 10
5.4742291667
 20
12.2719301998
 30
0.0
 11
15.9914166667
 21
12.2719301998
 31
0.0
  0
LINE
  5
99
330
1F
100
AcDbEntity
  8
0
  6
Continuous
 62
     7
370
    25
100
AcDbLine
 10
15.9914166667
 20
12.2719301998
 30
0.0
 11
12.2409479167
 21
-5.9314031335
 31
0.0
  0
LINE
  5
9A
330
1F
100
AcDbEntity
  8
0
  6
Continuous
 62
     7
370
    25
100
AcDbLine
 10
12.2409479167
 20
-5.9314031335
 30
0.0
 11
18.8290729167
 21
-5.9314031335
 31
0.0
  0
LINE
  5
9B
330
1F
100
AcDbEntity
  8
0
  6
Continuous
 62
     7
370
    25
100
AcDbLine
 10
18.8290729167
 20
-5.9314031335
 30
0.0
 11
22.5795416667
 21
12.2719301998
 31
0.0
  0
LINE
  5
9C
330
1F
100
AcDbEntity
  8
0
  6
Continuous
 62
     7
370
    25
100
AcDbLine
 10
22.5795416667
 20
12.2719301998
 30
0.0
 11
33.0901145833
 21
12.2719301998
 31
0.0
  0
LINE
  5
9D
330
1F
100
AcDbEntity
  8
0
  6
Continuous
 62
     7
370
    25
100
AcDbLine
 10
33.0901145833
 20
12.2719301998
 30
0.0
 11
26.416
 21
-19.4780698002
 31
0.0
  0
LINE
  5
9E
330
1F
100
AcDbEntity
  8
0
  6
Continuous
 62
     7
370
    25
100
AcDbLine
 10
26.416
 20
-19.4780698002
 30
0.0
 11
15.8988125
 21
-19.4780698002
 31
0.0
  0
LINE
  5
9F
330
1F
100
AcDbEntity
  8
0
  6
Continuous
 62
     7
370
    25
100
AcDbLine
 10
15.8988125
 20
-19.4780698002
 30
0.0
 11
18.00225
 21
-9.7414031335
 31
0.0
  0
LINE
  5
A0
330
1F
100
AcDbEntity
  8
0
  6
Continuous
 62
     7
370
    25
100
AcDbLine
 10
18.00225
 20
-9.7414031335
 30
0.0
 11
5.8446458333
 21
-9.7414031335
 31
0.0
  0
SPLINE
  5
A1
330
1F
100
AcDbEntity
  8
0
  6
Continuous
 62
     7
370
    25
100
AcDbSpline
210
0.0
220
0.0
230
1.0
 70
     8
 71
     3
 72
    23
 73
    19
 74
     0
 42
0.00000001
 43
0.00000001
 40
0.0
 40
0.0
 40
0.0
 40
0.0
 40
0.0720119817964566
 40
0.1392850676327585
 40
0.2031577922532825
 40
0.2644962341321915
 40
0.3229807423503413
 40
0.379455330319086
 40
0.4360933367764272
 40
0.4938889887024616
 40
0.5513371150563608
 40
0.6082464428579822
 40
0.6668099130943849
 40
0.7260208022041779
 40
0.7887252473151148
 40
0.8554292107273158
 40
0.9251148039140569
 40
0.9999999999999999
 40
0.9999999999999999
 40
0.9999999999999999
 40
0.9999999999999999
 10
5.844645833333417
 20
-9.741403133498421
 30
0.0
 10
5.663586958254765
 20
-9.738587279760809
 30
0.0
 10
5.313384158224589
 20
-9.73314087530834
 30
0.0
 10
4.806847453149807
 20
-9.663011522984798
 30
0.0
 10
4.333462683934642
 20
-9.560733517830458
 30
0.0
 10
3.896780174776024
 20
-9.407837050459031
 30
0.0
 10
3.496482126869193
 20
-9.21608687935524
 30
0.0
 10
3.133099762993645
 20
-8.981702318851916
 30
0.0
 10
2.806546578389066
 20
-8.700895048150208
 30
0.0
 10
2.5174251255431
 20
-8.378644870014709
 30
0.0
 10
2.271112464020446
 20
-8.02138447630462
 30
0.0
 10
2.077890556729125
 20
-7.630956948943971
 30
0.0
 10
1.931426196555876
 20
-7.215742808105309
 30
0.0
 10
1.842529050783453
 20
-6.770334123604822
 30
0.0
 10
1.783648306890068
 20
-6.299022864195277
 30
0.0
 10
1.797666997989648
 20
-5.797722653801647
 30
0.0
 10
1.849318015514753
 20
-5.268964220018512
 30
0.0
 10
1.919116442168178
 20
-4.912296661603238
 30
0.0
 10
1.955270833333417
 20
-4.727548966831753
 30
0.0
  0
LINE
  5
A2
330
1F
100
AcDbEntity
  8
0
  6
Continuous
 62
     7
370
    25
100
AcDbLine
 10
59.7945104167
 20
-9.7414031335
 30
0.0
 11
47.6302916667
 21
-9.7414031335
 31
0.0
  0
LINE
  5
A3
330
1F
100
AcDbEntity
  8
0
  6
Continuous
 62
     7
370
    25
100
AcDbLine
 10
47.6302916667
 20
-9.7414031335
 30
0.0
 11
46.3536770833
 21
-15.6680698002
 31
0.0
  0
LINE
  5
A4
330
1F
100
AcDbEntity
  8
0
  6
Continuous
 62
     7
370
    25
100
AcDbLine
 10
46.3536770833
 20
-15.6680698002
 30
0.0
 11
63.452375
 21
-15.6680698002
 31
0.0
  0
LINE
  5
A5
330
1F
100
AcDbEntity
  8
0
  6
Continuous
 62
     7
370
    25
100
AcDbLine
 10
63.452375
 20
-15.6680698002
 30
0.0
 11
62.6255520833
 21
-19.4780698002
 31
0.0
  0
LINE
  5
A6
330
1F
100
AcDbEntity
  8
0
  6
Continuous
 62
     7
370
    25
100
AcDbLine
 10
62.6255520833
 20
-19.4780698002
 30
0.0
 11
35.01628125
 21
-19.4780698002
 31
0.0
  0
LINE
  5
A7
330
1F
100
AcDbEntity
  8
0
  6
Continuous
 62
     7
370
    25
100
AcDbLine
 10
35.01628125
 20
-19.4780698002
 30
0.0
 11
36.8882083333
 21
-10.7732781335
 31
0.0
  0
SPLINE
  5
A8
330
1F
100
AcDbEntity
  8
0
  6
Continuous
 62
     7
370
    25
100
AcDbSpline
210
0.0
220
0.0
230
1.0
 70
     8
 71
     3
 72
    15
 73
    11
 74
     0
 42
0.00000001
 43
0.00000001
 40
0.0
 40
0.0
 40
0.0
 40
0.0
 40
0.1311462259707863
 40
0.2559470591993067
 40
0.3789930469380577
 40
0.5034888202511192
 40
0.6279441990876751
 40
0.7493316879873125
 40
0.8720067886381339
 40
1.0
 40
1.0
 40
1.0
 40
1.0
 10
36.88820833333344
 20
-10.77327813349842
 30
0.0
 10
36.98459218963322
 20
-10.42073616588519
 30
0.0
 10
37.17269645562795
 20
-9.73270965816819
 30
0.0
 10
37.64841860844925
 20
-8.784536992571722
 30
0.0
 10
38.26227415921392
 20
-7.94407651490954
 30
0.0
 10
39.02153908105122
 20
-7.234222947877869
 30
0.0
 10
39.8745356596601
 20
-6.647537842762337
 30
0.0
 10
40.81833892117326
 20
-6.236628950692555
 30
0.0
 10
41.82570560877428
 20
-5.97009353068635
 30
0.0
 10
42.52430863456909
 20
-5.944481061619602
 30
0.0
 10
42.88102083333344
 20
-5.931403133498421
 30
0.0
  0
LINE
  5
A9
330
1F
100
AcDbEntity
  8
0
  6
Continuous
 62
     7
370
    25
100
AcDbLine
 10
42.8810208333
 20
-5.9314031335
 30
0.0
 11
55.038625
 21
-5.9314031335
 31
0.0
  0
LINE
  5
AA
330
1F
100
AcDbEntity
  8
0
  6
Continuous
 62
     7
370
    25
100
AcDbLine
 10
55.038625
 20
-5.9314031335
 30
0.0
 11
57.9622708333
 21
8.4619301998
 31
0.0
  0
LINE
  5
AB
330
1F
100
AcDbEntity
  8
0
  6
Continuous
 62
     7
370
    25
100
AcDbLine
 10
57.9622708333
 20
8.4619301998
 30
0.0
 11
51.3807604167
 21
8.4619301998
 31
0.0
  0
LINE
  5
AC
330
1F
100
AcDbEntity
  8
0
  6
Continuous
 62
     7
370
    25
100
AcDbLine
 10
51.3807604167
 20
8.4619301998
 30
0.0
 11
50.2827395833
 21
3.2496385332
 31
0.0
  0
LINE
  5
AD
330
1F
100
AcDbEntity
  8
0
  6
Continuous
 62
     7
370
    25
100
AcDbLine
 10
50.2827395833
 20
3.2496385332
 30
0.0
 11
39.7655520833
 21
3.2496385332
 31
0.0
  0
LINE
  5
AE
330
1F
100
AcDbEntity
  8
0
  6
Continuous
 62
     7
370
    25
100
AcDbLine
 10
39.7655520833
 20
3.2496385332
 30
0.0
 11
40.6386770833
 21
7.5028156165
 31
0.0
  0
SPLINE
  5
AF
330
1F
100
AcDbEntity
  8
0
  6
Continuous
 62
     7
370
    25
100
AcDbSpline
210
0.0
220
0.0
230
1.0
 70
     8
 71
     3
 72
    15
 73
    11
 74
     0
 42
0.00000001
 43
0.00000001
 40
0.0
 40
0.0
 40
0.0
 40
0.0
 40
0.1312710007293947
 40
0.2554880464631464
 40
0.3780841719982167
 40
0.5023294212000662
 40
0.626738636490022
 40
0.7486260175920905
 40
0.8719371464561957
 40
1.0
 40
1.0
 40
1.0
 40
1.0
 10
40.63867708333345
 20
7.502815616501579
 30
0.0
 10
40.73478867726832
 20
7.853295843697526
 30
0.0
 10
40.92184722973184
 20
8.535422955342232
 30
0.0
 10
41.39923293678819
 20
9.472270685621059
 30
0.0
 10
42.0133597123983
 20
10.29938555208018
 30
0.0
 10
42.77245408626459
 20
10.99654889756402
 30
0.0
 10
43.62737491599609
 20
11.56841830355972
 30
0.0
 10
44.56906516089843
 20
11.97425402310135
 30
0.0
 10
45.57499361069048
 20
12.23085931928285
 30
0.0
 10
46.27053194772294
 20
12.25806846143026
 30
0.0
 10
46.62487500000012
 20
12.27193019983491
 30
0.0
  0
LINE
  5
B0
330
1F
100
AcDbEntity
  8
0
  6
Continuous
 62
     7
370
    25
100
AcDbLine
 10
46.624875
 20
12.2719301998
 30
0.0
 11
64.3651875
 21
12.2719301998
 31
0.0
  0
SPLINE
  5
B1
330
1F
100
AcDbEntity
  8
0
  6
Continuous
 62
     7
370
    25
100
AcDbSpline
210
0.0
220
0.0
230
1.0
 70
     8
 71
     3
 72
    23
 73
    19
 74
     0
 42
0.00000001
 43
0.00000001
 40
0.0
 40
0.0
 40
0.0
 40
0.0
 40
0.0720323478378722
 40
0.1393244594865206
 40
0.2032152482475167
 40
0.2645710375346836
 40
0.3230720860269222
 40
0.3795626458349188
 40
0.4362166703486514
 40
0.4934458773703206
 40
0.5509102508943626
 40
0.6082336402882367
 40
0.6668136731303405
 40
0.7260413079453589
 40
0.7886712708440065
 40
0.8553883239941864
 40
0.9250936252856281
 40
1.0
 40
1.0
 40
1.0
 40
1.0
 10
64.36518750000012
 20
12.27193019983491
 30
0.0
 10
64.5462465755826
 20
12.26911453364503
 30
0.0
 10
64.89644976342586
 20
12.26366849194607
 30
0.0
 10
65.40298375189947
 20
12.19353659856181
 30
0.0
 10
65.87637807211215
 20
12.0912675272418
 30
0.0
 10
66.31302713931375
 20
11.93833977885465
 30
0.0
 10
66.71344209754513
 20
11.74669896360274
 30
0.0
 10
67.07640637268537
 20
11.51192333028365
 30
0.0
 10
67.40340543434262
 20
11.23353168107101
 30
0.0
 10
67.68585676553211
 20
10.90706710186383
 30
0.0
 10
67.93100717584255
 20
10.55039032018916
 30
0.0
 10
68.13363853515125
 20
10.16334705616037
 30
0.0
 10
68.27718246106645
 20
9.745963284233076
 30
0.0
 10
68.37019321557854
 20
9.301392195692603
 30
0.0
 10
68.41470741763926
 20
8.829055006438619
 30
0.0
 10
68.41545438901252
 20
8.32830228425514
 30
0.0
 10
68.35960484972496
 20
7.79947273817013
 30
0.0
 10
68.29040621118267
 20
7.442817398723149
 30
0.0
 10
68.25456250000012
 20
7.258076033168245
 30
0.0
  0
LINE
  5
B2
330
1F
100
AcDbEntity
  8
0
  6
Continuous
 62
     7
370
    25
100
AcDbLine
 10
68.2545625
 20
7.2580760332
 30
0.0
 11
65.7807083333
 21
-4.7275489668
 31
0.0
  0
SPLINE
  5
B3
330
1F
100
AcDbEntity
  8
0
  6
Continuous
 62
     7
370
    25
100
AcDbSpline
210
0.0
220
0.0
230
1.0
 70
     8
 71
     3
 72
    15
 73
    11
 74
     0
 42
0.00000001
 43
0.00000001
 40
0.0
 40
0.0
 40
0.0
 40
0.0
 40
0.1330155700021701
 40
0.2602559345798085
 40
0.3840809369861941
 40
0.5089741040608964
 40
0.6323469769920069
 40
0.7526470117523134
 40
0.873769218258436
 40
1.0
 40
1.0
 40
1.0
 40
1.0
 10
65.78070833333344
 20
-4.727548966831753
 30
0.0
 10
65.68388283231225
 20
-5.09076230474625
 30
0.0
 10
65.49443575285365
 20
-5.80141916025006
 30
0.0
 10
65.02481120663784
 20
-6.785432438047738
 30
0.0
 10
64.40734215075696
 20
-7.654696857143375
 30
0.0
 10
63.65097029840531
 20
-8.389013829166558
 30
0.0
 10
62.80255999606803
 20
-9.00004959256504
 30
0.0
 10
61.85888265328854
 20
-9.423602081942692
 30
0.0
 10
60.85038343184733
 20
-9.695900849310938
 30
0.0
 10
60.1512809373184
 20
-9.726028298279596
 30
0.0
 10
59.79451041666678
 20
-9.741403133498421
 30
0.0
  0
LINE
  5
B4
330
1F
100
AcDbEntity
  8
0
  6
Continuous
 62
     7
370
    25
100
AcDbLine
 10
292.1
 20
-25.4
 30
0.0
 11
292.1
 21
25.4
 31
0.0
  0
LINE
  5
B5
330
1F
100
AcDbEntity
  8
0
  6
Continuous
 62
     7
370
    25
100
AcDbLine
 10
292.1
 20
25.4
 30
0.0
 11
-292.1
 21
25.4
 31
0.0
  0
LINE
  5
B6
330
1F
100
AcDbEntity
  8
0
  6
Continuous
 62
     7
370
    25
100
AcDbLine
 10
-292.1
 20
25.4
 30
0.0
 11
-292.1
 21
-25.4
 31
0.0
  0
LINE
  5
B7
330
1F
100
AcDbEntity
  8
0
  6
Continuous
 62
     7
370
    25
100
AcDbLine
 10
-292.1
 20
-25.4
 30
0.0
 11
292.1
 21
-25.4
 31
0.0
  0
LINE
  5
B8
330
1F
100
AcDbEntity
  8
0
  6
Continuous
 62
     7
370
    25
100
AcDbLine
 10
-57.896125
 20
12.2719301998
 30
0.0
 11
-35.21471875
 21
12.2719301998
 31
0.0
  0
LINE
  5
B9
330
1F
100
AcDbEntity
  8
0
  6
Continuous
 62
     7
370
    25
100
AcDbLine
 10
-35.21471875
 20
12.2719301998
 30
0.0
 11
-41.8954479167
 21
-19.1076531335
 31
0.0
  0
LINE
  5
BA
330
1F
100
AcDbEntity
  8
0
  6
Continuous
 62
     7
370
    25
100
AcDbLine
 10
-41.8954479167
 20
-19.1076531335
 30
0.0
 11
-52.4060208333
 21
-19.1076531335
 31
0.0
  0
LINE
  5
BB
330
1F
100
AcDbEntity
  8
0
  6
Continuous
 62
     7
370
    25
100
AcDbLine
 10
-52.4060208333
 20
-19.1076531335
 30
0.0
 11
-46.5587291667
 21
8.4619301998
 31
0.0
  0
LINE
  5
BC
330
1F
100
AcDbEntity
  8
0
  6
Continuous
 62
     7
370
    25
100
AcDbLine
 10
-46.5587291667
 20
8.4619301998
 30
0.0
 11
-53.1402395833
 21
8.4619301998
 31
0.0
  0
LINE
  5
BD
330
1F
100
AcDbEntity
  8
0
  6
Continuous
 62
     7
370
    25
100
AcDbLine
 10
-53.1402395833
 20
8.4619301998
 30
0.0
 11
-54.2382604167
 21
3.2496385332
 31
0.0
  0
LINE
  5
BE
330
1F
100
AcDbEntity
  8
0
  6
Continuous
 62
     7
370
    25
100
AcDbLine
 10
-54.2382604167
 20
3.2496385332
 30
0.0
 11
-64.7554479167
 21
3.2496385332
 31
0.0
  0
LINE
  5
BF
330
1F
100
AcDbEntity
  8
0
  6
Continuous
 62
     7
370
    25
100
AcDbLine
 10
-64.7554479167
 20
3.2496385332
 30
0.0
 11
-63.8823229167
 21
7.5028156165
 31
0.0
  0
SPLINE
  5
C0
330
1F
100
AcDbEntity
  8
0
  6
Continuous
 62
     7
370
    25
100
AcDbSpline
210
0.0
220
0.0
230
1.0
 70
     8
 71
     3
 72
    15
 73
    11
 74
     0
 42
0.00000001
 43
0.00000001
 40
0.0
 40
0.0
 40
0.0
 40
0.0
 40
0.1312710007293947
 40
0.2554880464631467
 40
0.3780841719982166
 40
0.5023294212000662
 40
0.626738636490022
 40
0.7486260175920905
 40
0.8719371464561957
 40
1.0
 40
1.0
 40
1.0
 40
1.0
 10
-63.8823229166666
 20
7.502815616501579
 30
0.0
 10
-63.78621132273172
 20
7.853295843697526
 30
0.0
 10
-63.59915277026819
 20
8.535422955342234
 30
0.0
 10
-63.12176706321186
 20
9.472270685621053
 30
0.0
 10
-62.50764028760175
 20
10.29938555208018
 30
0.0
 10
-61.74854591373543
 20
10.99654889756402
 30
0.0
 10
-60.89362508400399
 20
11.56841830355972
 30
0.0
 10
-59.9519348391016
 20
11.97425402310135
 30
0.0
 10
-58.94600638930958
 20
12.23085931928285
 30
0.0
 10
-58.25046805227711
 20
12.25806846143026
 30
0.0
 10
-57.89612499999993
 20
12.27193019983491
 30
0.0
  0
MTEXT
  5
C2
330
1F
100
AcDbEntity
  8
0
  6
Continuous
 62
     7
100
AcDbMText
 10
-292.1
 20
-26.4195663917
 30
0.0
 40
4.83362
 41
0.0
 71
     1
 72
     1
  1
SOLIDWORKS Educational Product.
  7
SLDTEXTSTYLE0
 73
     1
 44
1.0
  0
MTEXT
  5
C3
330
1F
100
AcDbEntity
  8
0
  6
Continuous
 62
     7
100
AcDbMText
 10
-292.1
 20
-33.6699963917
 30
0.0
 40
4.83362
 41
0.0
 71
     1
 72
     1
  1
For Instructional Use Only.
  7
SLDTEXTSTYLE0
 73
     1
 44
1.0
  0
ENDSEC
  0
SECTION
  2
OBJECTS
  0
DICTIONARY
  5
C
330
0
100
AcDbDictionary
281
     1
  3
ACAD_GROUP
350
D
  3
ACAD_LAYOUT
350
1A
  3
ACAD_MLINESTYLE
350
17
  3
ACAD_PLOTSETTINGS
350
19
  3
ACAD_PLOTSTYLENAME
350
E
  3
ACAD_SCALELIST
350
47
  3
DWGPROPS
350
C4
  0
DICTIONARY
  5
D
102
{ACAD_REACTORS
330
C
102
}
330
C
100
AcDbDictionary
281
     1
  0
DICTIONARY
  5
1A
102
{ACAD_REACTORS
330
C
102
}
330
C
100
AcDbDictionary
281
     1
  3
Layout1
350
1E
  3
Layout2
350
26
  3
Model
350
22
  0
DICTIONARY
  5
17
102
{ACAD_REACTORS
330
C
102
}
330
C
100
AcDbDictionary
281
     1
  3
Standard
350
18
  0
DICTIONARY
  5
19
102
{ACAD_REACTORS
330
C
102
}
330
C
100
AcDbDictionary
281
     1
  0
ACDBDICTIONARYWDFLT
  5
E
102
{ACAD_REACTORS
330
C
102
}
330
C
100
AcDbDictionary
281
     1
  3
Normal
350
F
100
AcDbDictionaryWithDefault
340
F
  0
DICTIONARY
  5
47
102
{ACAD_REACTORS
330
C
102
}
330
C
100
AcDbDictionary
281
     1
  3
A0
350
48
  3
A1
350
49
  3
A2
350
4A
  3
A3
350
4B
  3
A4
350
4C
  3
A5
350
4D
  3
A6
350
4E
  3
A7
350
4F
  3
A8
350
50
  3
A9
350
51
  3
B0
350
52
  3
B1
350
53
  3
B2
350
54
  3
B3
350
55
  3
B4
350
56
  3
B5
350
57
  3
B6
350
58
  0
XRECORD
  5
C4
102
{ACAD_REACTORS
330
C
102
}
330
C
100
AcDbXrecord
280
     1
  1
DWGPROPS COOKIE
  2

  3

  4

  6

  7

  8
ericg
  9

300
=
301
=
302
=
303
=
304
=
305
=
306
=
307
=
308
=
309
=
 40
0.0
 41
2460334.368330116
 42
2460334.368366817
  1

 90
        0
  0
LAYOUT
  5
1E
102
{ACAD_REACTORS
330
1A
102
}
330
1A
100
AcDbPlotSettings
  1

  2
none_device
  4

  6

 40
0.0
 41
0.0
 42
0.0
 43
0.0
 44
0.0
 45
0.0
 46
0.0
 47
0.0
 48
0.0
 49
0.0
140
0.0
141
0.0
142
1.0
143
1.0
 70
   688
 72
     1
 73
     0
 74
     5
  7

 75
    16
147
1.0
148
0.0
149
0.0
100
AcDbLayout
  1
Layout1
 70
     1
 71
     1
 10
0.0
 20
0.0
 11
420.0
 21
297.0
 12
0.0
 22
0.0
 32
0.0
 14
1.0000000000E+20
 24
1.0000000000E+20
 34
1.0000000000E+20
 15
-1.0000000000E+20
 25
-1.0000000000E+20
 35
-1.0000000000E+20
146
0.0
 13
0.0
 23
0.0
 33
0.0
 16
1.0
 26
0.0
 36
0.0
 17
0.0
 27
1.0
 37
0.0
 76
     0
330
1B
  0
LAYOUT
  5
26
102
{ACAD_REACTORS
330
1A
102
}
330
1A
100
AcDbPlotSettings
  1

  2
none_device
  4

  6

 40
0.0
 41
0.0
 42
0.0
 43
0.0
 44
0.0
 45
0.0
 46
0.0
 47
0.0
 48
0.0
 49
0.0
140
0.0
141
0.0
142
1.0
143
1.0
 70
   688
 72
     1
 73
     0
 74
     5
  7

 75
    16
147
1.0
148
0.0
149
0.0
100
AcDbLayout
  1
Layout2
 70
     1
 71
     2
 10
0.0
 20
0.0
 11
0.0
 21
0.0
 12
0.0
 22
0.0
 32
0.0
 14
0.0
 24
0.0
 34
0.0
 15
0.0
 25
0.0
 35
0.0
146
0.0
 13
0.0
 23
0.0
 33
0.0
 16
1.0
 26
0.0
 36
0.0
 17
0.0
 27
1.0
 37
0.0
 76
     0
330
23
  0
LAYOUT
  5
22
102
{ACAD_REACTORS
330
1A
102
}
330
1A
100
AcDbPlotSettings
  1

  2
none_device
  4
ANSI_A_(11.00_x_8.50_Inches)
  6

 40
6.35
 41
19.05
 42
6.35000508
 43
19.05000254
 44
279.4
 45
215.9
 46
133.34999746
 47
88.89999873
 48
0.0
 49
0.0
140
0.0
141
0.0
142
0.0186408764
143
1.0
 70
  1696
 72
     0
 73
     0
 74
     0
  7

 75
     0
147
0.0179189148
148
-1300.4909072572
149
0.0
100
AcDbLayout
  1
Model
 70
     1
 71
     0
 10
0.0
 20
0.0
 11
420.0
 21
297.0
 12
0.0
 22
0.0
 32
0.0
 14
-292.1
 24
-25.4
 34
0.0
 15
292.1
 25
25.4
 35
0.0
146
0.0
 13
0.0
 23
0.0
 33
0.0
 16
1.0
 26
0.0
 36
0.0
 17
0.0
 27
1.0
 37
0.0
 76
     0
330
1F
331
29
  0
MLINESTYLE
  5
18
102
{ACAD_REACTORS
330
17
102
}
330
17
100
AcDbMlineStyle
  2
Standard
 70
     0
  3

 62
   256
 51
90.0
 52
90.0
 71
     2
 49
0.5
 62
   256
  6
BYLAYER
 49
-0.5
 62
   256
  6
BYLAYER
  0
ACDBPLACEHOLDER
  5
F
102
{ACAD_REACTORS
330
E
102
}
330
E
  0
SCALE
  5
48
102
{ACAD_REACTORS
330
47
102
}
330
47
100
AcDbScale
 70
     0
300
1:1
140
1.0
141
1.0
290
     1
  0
SCALE
  5
49
102
{ACAD_REACTORS
330
47
102
}
330
47
100
AcDbScale
 70
     0
300
1:2
140
1.0
141
2.0
290
     0
  0
SCALE
  5
4A
102
{ACAD_REACTORS
330
47
102
}
330
47
100
AcDbScale
 70
     0
300
1:4
140
1.0
141
4.0
290
     0
  0
SCALE
  5
4B
102
{ACAD_REACTORS
330
47
102
}
330
47
100
AcDbScale
 70
     0
300
1:5
140
1.0
141
5.0
290
     0
  0
SCALE
  5
4C
102
{ACAD_REACTORS
330
47
102
}
330
47
100
AcDbScale
 70
     0
300
1:8
140
1.0
141
8.0
290
     0
  0
SCALE
  5
4D
102
{ACAD_REACTORS
330
47
102
}
330
47
100
AcDbScale
 70
     0
300
1:10
140
1.0
141
10.0
290
     0
  0
SCALE
  5
4E
102
{ACAD_REACTORS
330
47
102
}
330
47
100
AcDbScale
 70
     0
300
1:16
140
1.0
141
16.0
290
     0
  0
SCALE
  5
4F
102
{ACAD_REACTORS
330
47
102
}
330
47
100
AcDbScale
 70
     0
300
1:20
140
1.0
141
20.0
290
     0
  0
SCALE
  5
50
102
{ACAD_REACTORS
330
47
102
}
330
47
100
AcDbScale
 70
     0
300
1:30
140
1.0
141
30.0
290
     0
  0
SCALE
  5
51
102
{ACAD_REACTORS
330
47
102
}
330
47
100
AcDbScale
 70
     0
300
1:40
140
1.0
141
40.0
290
     0
  0
SCALE
  5
52
102
{ACAD_REACTORS
330
47
102
}
330
47
100
AcDbScale
 70
     0
300
1:50
140
1.0
141
50.0
290
     0
  0
SCALE
  5
53
102
{ACAD_REACTORS
330
47
102
}
330
47
100
AcDbScale
 70
     0
300
1:100
140
1.0
141
100.0
290
     0
  0
SCALE
  5
54
102
{ACAD_REACTORS
330
47
102
}
330
47
100
AcDbScale
 70
     0
300
2:1
140
2.0
141
1.0
290
     0
  0
SCALE
  5
55
102
{ACAD_REACTORS
330
47
102
}
330
47
100
AcDbScale
 70
     0
300
4:1
140
4.0
141
1.0
290
     0
  0
SCALE
  5
56
102
{ACAD_REACTORS
330
47
102
}
330
47
100
AcDbScale
 70
     0
300
8:1
140
8.0
141
1.0
290
     0
  0
SCALE
  5
57
102
{ACAD_REACTORS
330
47
102
}
330
47
100
AcDbScale
 70
     0
300
10:1
140
10.0
141
1.0
290
     0
  0
SCALE
  5
58
102
{ACAD_REACTORS
330
47
102
}
330
47
100
AcDbScale
 70
     0
300
100:1
140
100.0
141
1.0
290
     0
  0
ENDSEC
  0
EOF
