  0
SECTION
  2
HEADER
  9
$ACADVER
  1
AC1015
  9
$ACADMAINTVER
 70
     6
  9
$DWGCODEPAGE
  3
ANSI_1252
  9
$INSBASE
 10
0.0
 20
0.0
 30
0.0
  9
$EXTMIN
 10
-139.7
 20
-114.3
 30
0.0
  9
$EXTMAX
 10
139.7
 20
114.3
 30
0.0
  9
$LIMMIN
 10
0.0
 20
0.0
  9
$LIMMAX
 10
420.0
 20
297.0
  9
$ORTHOMODE
 70
     0
  9
$REGENMODE
 70
     1
  9
$FILLMODE
 70
     1
  9
$QTEXTMODE
 70
     0
  9
$MIRRTEXT
 70
     1
  9
$LTSCALE
 40
1.0
  9
$ATTMODE
 70
     1
  9
$TEXTSIZE
 40
3.5
  9
$TRACEWID
 40
1.0
  9
$TEXTSTYLE
  7
Standard
  9
$CLAYER
  8
0
  9
$CELTYPE
  6
ByLayer
  9
$CECOLOR
 62
   256
  9
$CELTSCALE
 40
1.0
  9
$DISPSILH
 70
     0
  9
$DIMSCALE
 40
1.0
  9
$DIMASZ
 40
3.302
  9
$DIMEXO
 40
0.0
  9
$DIMDLI
 40
3.75
  9
$DIMRND
 40
0.0
  9
$DIMDLE
 40
0.0
  9
$DIMEXE
 40
1.0
  9
$DIMTP
 40
0.0
  9
$DIMTM
 40
0.0
  9
$DIMTXT
 40
3.5
  9
$DIMCEN
 40
2.5
  9
$DIMTSZ
 40
0.0
  9
$DIMTOL
 70
     0
  9
$DIMLIM
 70
     0
  9
$DIMTIH
 70
     1
  9
$DIMTOH
 70
     1
  9
$DIMSE1
 70
     0
  9
$DIMSE2
 70
     0
  9
$DIMTAD
 70
     1
  9
$DIMZIN
 70
     1
  9
$DIMBLK
  1

  9
$DIMASO
 70
     1
  9
$DIMSHO
 70
     1
  9
$DIMPOST
  1

  9
$DIMAPOST
  1

  9
$DIMALT
 70
     0
  9
$DIMALTD
 70
     3
  9
$DIMALTF
 40
0.0393700787
  9
$DIMLFAC
 40
1.0
  9
$DIMTOFL
 70
     1
  9
$DIMTVP
 40
0.0
  9
$DIMTIX
 70
     0
  9
$DIMSOXD
 70
     0
  9
$DIMSAH
 70
     0
  9
$DIMBLK1
  1

  9
$DIMBLK2
  1

  9
$DIMSTYLE
  2
ISO-25
  9
$DIMCLRD
 70
     0
  9
$DIMCLRE
 70
     0
  9
$DIMCLRT
 70
     0
  9
$DIMTFAC
 40
1.0
  9
$DIMGAP
 40
1.524
  9
$DIMJUST
 70
     0
  9
$DIMSD1
 70
     0
  9
$DIMSD2
 70
     0
  9
$DIMTOLJ
 70
     0
  9
$DIMTZIN
 70
     1
  9
$DIMALTZ
 70
     0
  9
$DIMALTTZ
 70
     0
  9
$DIMUPT
 70
     0
  9
$DIMDEC
 70
     2
  9
$DIMTDEC
 70
     2
  9
$DIMALTU
 70
     2
  9
$DIMALTTD
 70
     3
  9
$DIMTXSTY
  7
Standard
  9
$DIMAUNIT
 70
     0
  9
$DIMADEC
 70
     2
  9
$DIMALTRND
 40
0.0
  9
$DIMAZIN
 70
     0
  9
$DIMDSEP
 70
    44
  9
$DIMATFIT
 70
     3
  9
$DIMFRAC
 70
     0
  9
$DIMLDRBLK
  1

  9
$DIMLUNIT
 70
     2
  9
$DIMLWD
 70
    -2
  9
$DIMLWE
 70
    -2
  9
$DIMTMOVE
 70
     0
  9
$LUNITS
 70
     2
  9
$LUPREC
 70
     6
  9
$SKETCHINC
 40
1.0
  9
$FILLETRAD
 40
0.0
  9
$AUNITS
 70
     0
  9
$AUPREC
 70
     2
  9
$MENU
  1
.
  9
$ELEVATION
 40
0.0
  9
$PELEVATION
 40
0.0
  9
$THICKNESS
 40
0.0
  9
$LIMCHECK
 70
     0
  9
$CHAMFERA
 40
0.0
  9
$CHAMFERB
 40
0.0
  9
$CHAMFERC
 40
0.0
  9
$CHAMFERD
 40
0.0
  9
$SKPOLY
 70
     0
  9
$TDCREATE
 40
2460382.809484931
  9
$TDUCREATE
 40
2460383.101151597
  9
$TDUPDATE
 40
2460382.809605139
  9
$TDUUPDATE
 40
2460383.101271806
  9
$TDINDWG
 40
0.0000000116
  9
$TDUSRTIMER
 40
0.0000000116
  9
$USRTIMER
 70
     1
  9
$ANGBASE
 50
0.0
  9
$ANGDIR
 70
     0
  9
$PDMODE
 70
     0
  9
$PDSIZE
 40
-1.0
  9
$PLINEWID
 40
0.0
  9
$SPLFRAME
 70
     0
  9
$SPLINETYPE
 70
     6
  9
$SPLINESEGS
 70
     8
  9
$HANDSEED
  5
4B9
  9
$SURFTAB1
 70
     6
  9
$SURFTAB2
 70
     6
  9
$SURFTYPE
 70
     6
  9
$SURFU
 70
     6
  9
$SURFV
 70
     6
  9
$UCSBASE
  2

  9
$UCSNAME
  2

  9
$UCSORG
 10
0.0
 20
0.0
 30
0.0
  9
$UCSXDIR
 10
1.0
 20
0.0
 30
0.0
  9
$UCSYDIR
 10
0.0
 20
1.0
 30
0.0
  9
$UCSORTHOREF
  2

  9
$UCSORTHOVIEW
 70
     0
  9
$UCSORGTOP
 10
0.0
 20
0.0
 30
0.0
  9
$UCSORGBOTTOM
 10
0.0
 20
0.0
 30
0.0
  9
$UCSORGLEFT
 10
0.0
 20
0.0
 30
0.0
  9
$UCSORGRIGHT
 10
0.0
 20
0.0
 30
0.0
  9
$UCSORGFRONT
 10
0.0
 20
0.0
 30
0.0
  9
$UCSORGBACK
 10
0.0
 20
0.0
 30
0.0
  9
$PUCSBASE
  2

  9
$PUCSNAME
  2

  9
$PUCSORG
 10
0.0
 20
0.0
 30
0.0
  9
$PUCSXDIR
 10
1.0
 20
0.0
 30
0.0
  9
$PUCSYDIR
 10
0.0
 20
1.0
 30
0.0
  9
$PUCSORTHOREF
  2

  9
$PUCSORTHOVIEW
 70
     0
  9
$PUCSORGTOP
 10
0.0
 20
0.0
 30
0.0
  9
$PUCSORGBOTTOM
 10
0.0
 20
0.0
 30
0.0
  9
$PUCSORGLEFT
 10
0.0
 20
0.0
 30
0.0
  9
$PUCSORGRIGHT
 10
0.0
 20
0.0
 30
0.0
  9
$PUCSORGFRONT
 10
0.0
 20
0.0
 30
0.0
  9
$PUCSORGBACK
 10
0.0
 20
0.0
 30
0.0
  9
$USERI1
 70
     0
  9
$USERI2
 70
     0
  9
$USERI3
 70
     0
  9
$USERI4
 70
     0
  9
$USERI5
 70
     0
  9
$USERR1
 40
0.0
  9
$USERR2
 40
0.0
  9
$USERR3
 40
0.0
  9
$USERR4
 40
0.0
  9
$USERR5
 40
0.0
  9
$WORLDVIEW
 70
     1
  9
$SHADEDGE
 70
     3
  9
$SHADEDIF
 70
    70
  9
$TILEMODE
 70
     1
  9
$MAXACTVP
 70
    64
  9
$PINSBASE
 10
0.0
 20
0.0
 30
0.0
  9
$PLIMCHECK
 70
     0
  9
$PEXTMIN
 10
1.0000000000E+20
 20
1.0000000000E+20
 30
1.0000000000E+20
  9
$PEXTMAX
 10
-1.0000000000E+20
 20
-1.0000000000E+20
 30
-1.0000000000E+20
  9
$PLIMMIN
 10
0.0
 20
0.0
  9
$PLIMMAX
 10
420.0
 20
297.0
  9
$UNITMODE
 70
     0
  9
$VISRETAIN
 70
     1
  9
$PLINEGEN
 70
     0
  9
$PSLTSCALE
 70
     1
  9
$TREEDEPTH
 70
  3020
  9
$CMLSTYLE
  2
Standard
  9
$CMLJUST
 70
     0
  9
$CMLSCALE
 40
20.0
  9
$PROXYGRAPHICS
 70
     1
  9
$MEASUREMENT
 70
     1
  9
$CELWEIGHT
370
    -1
  9
$ENDCAPS
280
     0
  9
$JOINSTYLE
280
     0
  9
$LWDISPLAY
290
     1
  9
$INSUNITS
 70
     4
  9
$HYPERLINKBASE
  1

  9
$STYLESHEET
  1

  9
$XEDIT
290
     1
  9
$CEPSNTYPE
380
     0
  9
$PSTYLEMODE
290
     1
  9
$FINGERPRINTGUID
  2
{d1d8422f-f085-4562-ae08-a94504e4d16a}
  9
$VERSIONGUID
  2
{FAEB1C32-E019-11D5-929B-00C0DF256EC4}
  9
$EXTNAMES
290
     1
  9
$PSVPSCALE
 40
0.0
  9
$OLESTARTUP
290
     0
  0
ENDSEC
  0
SECTION
  2
CLASSES
  0
CLASS
  1
ACDBDICTIONARYWDFLT
  2
AcDbDictionaryWithDefault
  3
ObjectDBX Classes
 90
        0
280
     0
281
     0
  0
CLASS
  1
VISUALSTYLE
  2
AcDbVisualStyle
  3
ObjectDBX Classes
 90
     4095
280
     0
281
     0
  0
CLASS
  1
MATERIAL
  2
AcDbMaterial
  3
ObjectDBX Classes
 90
     1153
280
     0
281
     0
  0
CLASS
  1
SCALE
  2
AcDbScale
  3
ObjectDBX Classes
 90
     1153
280
     0
281
     0
  0
CLASS
  1
TABLESTYLE
  2
AcDbTableStyle
  3
ObjectDBX Classes
 90
     4095
280
     0
281
     0
  0
CLASS
  1
MLEADERSTYLE
  2
AcDbMLeaderStyle
  3
ACDB_MLEADERSTYLE_CLASS
 90
     4095
280
     0
281
     0
  0
CLASS
  1
SUN
  2
AcDbSun
  3
SCENEOE
 90
     1153
280
     0
281
     0
  0
CLASS
  1
ACDBPLACEHOLDER
  2
AcDbPlaceHolder
  3
ObjectDBX Classes
 90
        0
280
     0
281
     0
  0
CLASS
  1
LAYOUT
  2
AcDbLayout
  3
ObjectDBX Classes
 90
        0
280
     0
281
     0
  0
ENDSEC
  0
SECTION
  2
TABLES
  0
TABLE
  2
VPORT
  5
8
330
0
100
AcDbSymbolTable
 70
     1
  0
VPORT
  5
29
330
8
100
AcDbSymbolTableRecord
100
AcDbViewportTableRecord
  2
*Active
 70
     0
 10
0.0
 20
0.0
 11
1.0
 21
1.0
 12
0.0
 22
0.0
 13
0.0
 23
0.0
 14
10.0
 24
10.0
 15
10.0
 25
10.0
 16
0.0
 26
0.0
 36
1.0
 17
0.0
 27
0.0
 37
0.0
 40
233.172
 41
1.2222222222
 42
50.0
 43
0.0
 44
0.0
 50
0.0
 51
0.0
 71
     0
 72
   100
 73
     1
 74
     3
 75
     0
 76
     0
 77
     0
 78
     0
281
     0
 65
     1
110
0.0
120
0.0
130
0.0
111
1.0
121
0.0
131
0.0
112
0.0
122
1.0
132
0.0
 79
     0
146
0.0
  0
ENDTAB
  0
TABLE
  2
LTYPE
  5
5
330
0
100
AcDbSymbolTable
 70
     6
  0
LTYPE
  5
14
330
5
100
AcDbSymbolTableRecord
100
AcDbLinetypeTableRecord
  2
ByBlock
 70
     0
  3

 72
    65
 73
     0
 40
0.0
  0
LTYPE
  5
15
330
5
100
AcDbSymbolTableRecord
100
AcDbLinetypeTableRecord
  2
ByLayer
 70
     0
  3

 72
    65
 73
     0
 40
0.0
  0
LTYPE
  5
16
330
5
100
AcDbSymbolTableRecord
100
AcDbLinetypeTableRecord
  2
Continuous
 70
     0
  3
Solid line
 72
    65
 73
     0
 40
0.0
  0
LTYPE
  5
5E
330
5
100
AcDbSymbolTableRecord
100
AcDbLinetypeTableRecord
  2
HIDDEN
 70
     0
  3
Hidden __ __ __ __ __ __ __ __ __ __ __ __ __ __
 72
    65
 73
     2
 40
1.905
 49
1.27
 74
     0
 49
-0.635
 74
     0
  0
LTYPE
  5
5F
330
5
100
AcDbSymbolTableRecord
100
AcDbLinetypeTableRecord
  2
PHANTOM
 70
     0
  3
Phantom ______  __  __  ______  __  __  ______
 72
    65
 73
     6
 40
12.7
 49
6.35
 74
     0
 49
-1.27
 74
     0
 49
1.27
 74
     0
 49
-1.27
 74
     0
 49
1.27
 74
     0
 49
-1.27
 74
     0
  0
LTYPE
  5
60
330
5
100
AcDbSymbolTableRecord
100
AcDbLinetypeTableRecord
  2
CENTER
 70
     0
  3
Center ____ _ ____ _ ____ _ ____ _ ____ _ ____
 72
    65
 73
     4
 40
10.16
 49
6.35
 74
     0
 49
-1.27
 74
     0
 49
1.27
 74
     0
 49
-1.27
 74
     0
  0
LTYPE
  5
61
330
5
100
AcDbSymbolTableRecord
100
AcDbLinetypeTableRecord
  2
CENTERX2
 70
     0
  3
Center (2x) ________  __  ________  __  _____
 72
    65
 73
     4
 40
20.32
 49
12.7
 74
     0
 49
-2.54
 74
     0
 49
2.54
 74
     0
 49
-2.54
 74
     0
  0
LTYPE
  5
62
330
5
100
AcDbSymbolTableRecord
100
AcDbLinetypeTableRecord
  2
DOT2
 70
     0
  3
Dot (.5x) ........................................
 72
    65
 73
     2
 40
0.635
 49
0.0
 74
     0
 49
-0.635
 74
     0
  0
ENDTAB
  0
TABLE
  2
LAYER
  5
2
330
0
100
AcDbSymbolTable
 70
     1
  0
LAYER
  5
10
330
2
100
AcDbSymbolTableRecord
100
AcDbLayerTableRecord
  2
0
 70
     0
 62
     7
  6
Continuous
370
    -3
390
F
  0
ENDTAB
  0
TABLE
  2
STYLE
  5
3
330
0
100
AcDbSymbolTable
 70
     2
  0
STYLE
  5
11
330
3
100
AcDbSymbolTableRecord
100
AcDbTextStyleTableRecord
  2
Standard
 70
     0
 40
0.0
 41
1.0
 50
0.0
 71
     0
 42
3.5
  3
txt
  4

  0
STYLE
  5
4B5
330
3
100
AcDbSymbolTableRecord
100
AcDbTextStyleTableRecord
  2
SLDTEXTSTYLE0
 70
     0
 40
0.0
 41
0.7
 50
0.0
 71
     0
 42
3.5
  3
TXT
  4

  0
ENDTAB
  0
TABLE
  2
VIEW
  5
6
330
0
100
AcDbSymbolTable
 70
     0
  0
ENDTAB
  0
TABLE
  2
UCS
  5
7
330
0
100
AcDbSymbolTable
 70
     0
  0
ENDTAB
  0
TABLE
  2
APPID
  5
9
330
0
100
AcDbSymbolTable
 70
     1
  0
APPID
  5
12
330
9
100
AcDbSymbolTableRecord
100
AcDbRegAppTableRecord
  2
ACAD
 70
     0
  0
ENDTAB
  0
TABLE
  2
DIMSTYLE
  5
A
330
0
100
AcDbSymbolTable
 70
     1
100
AcDbDimStyleTable
  0
DIMSTYLE
105
27
330
A
100
AcDbSymbolTableRecord
100
AcDbDimStyleTableRecord
  2
ISO-25
 70
     0
 41
2.5
 42
0.625
 43
3.75
 44
1.25
 73
     0
 74
     0
 77
     1
 78
     8
140
2.5
141
2.5
143
0.0393700787
147
0.625
171
     3
172
     1
178
     0
271
     2
272
     2
274
     3
278
    44
283
     0
284
     8
340
11
  0
ENDTAB
  0
TABLE
  2
BLOCK_RECORD
  5
1
330
0
100
AcDbSymbolTable
 70
     1
  0
BLOCK_RECORD
  5
1F
330
1
100
AcDbSymbolTableRecord
100
AcDbBlockTableRecord
  2
*Model_Space
340
22
  0
BLOCK_RECORD
  5
1B
330
1
100
AcDbSymbolTableRecord
100
AcDbBlockTableRecord
  2
*Paper_Space
340
1E
  0
BLOCK_RECORD
  5
23
330
1
100
AcDbSymbolTableRecord
100
AcDbBlockTableRecord
  2
*Paper_Space0
340
26
  0
ENDTAB
  0
ENDSEC
  0
SECTION
  2
BLOCKS
  0
BLOCK
  5
20
330
1F
100
AcDbEntity
  8
0
100
AcDbBlockBegin
  2
*Model_Space
 70
     0
 10
0.0
 20
0.0
 30
0.0
  3
*Model_Space
  1

  0
ENDBLK
  5
21
330
1F
100
AcDbEntity
  8
0
100
AcDbBlockEnd
  0
BLOCK
  5
1C
330
1B
100
AcDbEntity
 67
     1
  8
0
100
AcDbBlockBegin
  2
*Paper_Space
 70
     0
 10
0.0
 20
0.0
 30
0.0
  3
*Paper_Space
  1

  0
ENDBLK
  5
1D
330
1B
100
AcDbEntity
 67
     1
  8
0
100
AcDbBlockEnd
  0
BLOCK
  5
24
330
23
100
AcDbEntity
  8
0
100
AcDbBlockBegin
  2
*Paper_Space0
 70
     0
 10
0.0
 20
0.0
 30
0.0
  3
*Paper_Space0
  1

  0
ENDBLK
  5
25
330
23
100
AcDbEntity
  8
0
100
AcDbBlockEnd
  0
ENDSEC
  0
SECTION
  2
ENTITIES
  0
CIRCLE
  5
70
330
1F
100
AcDbEntity
  8
0
  6
Continuous
 62
     7
370
    25
100
AcDbCircle
 10
38.1
 20
69.85
 30
0.0
 40
7.024687500000013
  0
CIRCLE
  5
71
330
1F
100
AcDbEntity
  8
0
  6
Continuous
 62
     7
370
    25
100
AcDbCircle
 10
114.3
 20
69.85
 30
0.0
 40
7.02468749999997
  0
CIRCLE
  5
72
330
1F
100
AcDbEntity
  8
0
  6
Continuous
 62
     7
370
    25
100
AcDbCircle
 10
88.9
 20
69.85
 30
0.0
 40
7.024687500000027
  0
CIRCLE
  5
73
330
1F
100
AcDbEntity
  8
0
  6
Continuous
 62
     7
370
    25
100
AcDbCircle
 10
63.5
 20
69.85
 30
0.0
 40
7.024687500000027
  0
CIRCLE
  5
20F
330
1F
100
AcDbEntity
  8
0
  6
Continuous
 62
     7
370
    25
100
AcDbCircle
 10
-8.7254271118
 20
-48.26
 30
0.0
 40
11.43000000000001
  0
CIRCLE
  5
210
330
1F
100
AcDbEntity
  8
0
  6
Continuous
 62
     7
370
    25
100
AcDbCircle
 10
10.9595728882
 20
-7.62
 30
0.0
 40
2.539999999999996
  0
CIRCLE
  5
211
330
1F
100
AcDbEntity
  8
0
  6
Continuous
 62
     7
370
    25
100
AcDbCircle
 10
10.9595728882
 20
-88.9
 30
0.0
 40
2.540000000000006
  0
CIRCLE
  5
212
330
1F
100
AcDbEntity
  8
0
  6
Continuous
 62
     7
370
    25
100
AcDbCircle
 10
-28.4104271118
 20
-7.62
 30
0.0
 40
2.540000000000002
  0
CIRCLE
  5
213
330
1F
100
AcDbEntity
  8
0
  6
Continuous
 62
     7
370
    25
100
AcDbCircle
 10
-28.4104271118
 20
-88.9
 30
0.0
 40
2.539999999999964
  0
CIRCLE
  5
21C
330
1F
100
AcDbEntity
  8
0
  6
Continuous
 62
     7
370
    25
100
AcDbCircle
 10
-101.6
 20
69.85
 30
0.0
 40
15.16062499999997
  0
CIRCLE
  5
21D
330
1F
100
AcDbEntity
  8
0
  6
Continuous
 62
     7
370
    25
100
AcDbCircle
 10
-101.6
 20
34.925
 30
0.0
 40
15.16062500000003
  0
CIRCLE
  5
21E
330
1F
100
AcDbEntity
  8
0
  6
Continuous
 62
     7
370
    25
100
AcDbCircle
 10
-101.6
 20
0.0
 30
0.0
 40
15.16062500000004
  0
CIRCLE
  5
21F
330
1F
100
AcDbEntity
  8
0
  6
Continuous
 62
     7
370
    25
100
AcDbCircle
 10
-101.6
 20
-34.925
 30
0.0
 40
15.160625
  0
CIRCLE
  5
220
330
1F
100
AcDbEntity
  8
0
  6
Continuous
 62
     7
370
    25
100
AcDbCircle
 10
-101.6
 20
-69.85
 30
0.0
 40
15.16062500000001
  0
CIRCLE
  5
229
330
1F
100
AcDbEntity
  8
0
  6
Continuous
 62
     7
370
    25
100
AcDbCircle
 10
101.6
 20
-69.85
 30
0.0
 40
15.160625
  0
CIRCLE
  5
22A
330
1F
100
AcDbEntity
  8
0
  6
Continuous
 62
     7
370
    25
100
AcDbCircle
 10
63.5
 20
34.925
 30
0.0
 40
15.16062499999887
  0
CIRCLE
  5
22B
330
1F
100
AcDbEntity
  8
0
  6
Continuous
 62
     7
370
    25
100
AcDbCircle
 10
63.5
 20
-69.85
 30
0.0
 40
15.16062500000001
  0
CIRCLE
  5
22C
330
1F
100
AcDbEntity
  8
0
  6
Continuous
 62
     7
370
    25
100
AcDbCircle
 10
101.6
 20
-17.4625
 30
0.0
 40
15.16062499999999
  0
CIRCLE
  5
22D
330
1F
100
AcDbEntity
  8
0
  6
Continuous
 62
     7
370
    25
100
AcDbCircle
 10
63.5
 20
-17.4625
 30
0.0
 40
15.16062499999998
  0
CIRCLE
  5
22E
330
1F
100
AcDbEntity
  8
0
  6
Continuous
 62
     7
370
    25
100
AcDbCircle
 10
101.6
 20
34.925
 30
0.0
 40
15.16062500000003
  0
CIRCLE
  5
28D
330
1F
100
AcDbEntity
  8
0
  6
Continuous
 62
     7
370
    25
100
AcDbCircle
 10
-20.2009375
 20
21.8678125
 30
0.0
 40
7.024687499999999
  0
CIRCLE
  5
28F
330
1F
100
AcDbEntity
  8
0
  6
Continuous
 62
     7
370
    25
100
AcDbCircle
 10
5.1990625
 20
21.8678125
 30
0.0
 40
7.024687499999999
  0
LINE
  5
297
330
1F
100
AcDbEntity
  8
0
  6
Continuous
 62
     7
370
    25
100
AcDbLine
 10
38.2250687785
 20
82.021334949
 30
0.0
 11
36.3495121892
 21
80.2126650016
 31
0.0
  0
LINE
  5
298
330
1F
100
AcDbEntity
  8
0
  6
Continuous
 62
     7
370
    25
100
AcDbLine
 10
38.2250687785
 20
87.2495767834
 30
0.0
 11
38.2250687785
 21
82.021334949
 31
0.0
  0
LINE
  5
299
330
1F
100
AcDbEntity
  8
0
  6
Continuous
 62
     7
370
    25
100
AcDbLine
 10
34.8796498131
 20
87.2495767834
 30
0.0
 11
38.2250687785
 21
87.2495767834
 31
0.0
  0
LINE
  5
29A
330
1F
100
AcDbEntity
  8
0
  6
Continuous
 62
     7
370
    25
100
AcDbLine
 10
36.3495121892
 20
86.4305303432
 30
0.0
 11
34.8796498131
 21
87.2495767834
 31
0.0
  0
LINE
  5
29B
330
1F
100
AcDbEntity
  8
0
  6
Continuous
 62
     7
370
    25
100
AcDbLine
 10
36.3495121892
 20
80.2126650016
 30
0.0
 11
36.3495121892
 21
86.4305303432
 31
0.0
  0
LINE
  5
29C
330
1F
100
AcDbEntity
  8
0
  6
Continuous
 62
     7
370
    25
100
AcDbLine
 10
25.4
 20
85.725
 30
0.0
 11
25.4
 21
63.5
 31
0.0
  0
LINE
  5
29D
330
1F
100
AcDbEntity
  8
0
  6
Continuous
 62
     7
370
    25
100
AcDbLine
 10
123.825
 20
88.9
 30
0.0
 11
28.575
 21
88.9
 31
0.0
  0
LINE
  5
29E
330
1F
100
AcDbEntity
  8
0
  6
Continuous
 62
     7
370
    25
100
AcDbLine
 10
127.0
 20
63.5
 30
0.0
 11
127.0
 21
85.725
 31
0.0
  0
LINE
  5
29F
330
1F
100
AcDbEntity
  8
0
  6
Continuous
 62
     7
370
    25
100
AcDbLine
 10
28.575
 20
60.325
 30
0.0
 11
123.825
 21
60.325
 31
0.0
  0
LINE
  5
2A0
330
1F
100
AcDbEntity
  8
0
  6
Continuous
 62
     7
370
    25
100
AcDbLine
 10
117.2296952644
 20
84.3913237197
 30
0.0
 11
118.1795001737
 21
85.6094817076
 31
0.0
  0
LINE
  5
2A1
330
1F
100
AcDbEntity
  8
0
  6
Continuous
 62
     7
370
    25
100
AcDbLine
 10
118.1795001737
 20
85.6094817076
 30
0.0
 11
116.9946062821
 21
87.3334744055
 31
0.0
  0
LINE
  5
2A2
330
1F
100
AcDbEntity
  8
0
  6
Continuous
 62
     7
370
    25
100
AcDbLine
 10
116.9946062821
 20
87.3334744055
 30
0.0
 11
111.4880989655
 21
87.3334744055
 31
0.0
  0
LINE
  5
2A3
330
1F
100
AcDbEntity
  8
0
  6
Continuous
 62
     7
370
    25
100
AcDbLine
 10
111.4880989655
 20
87.3334744055
 30
0.0
 11
110.3036121699
 21
85.6094817076
 31
0.0
  0
LINE
  5
2A4
330
1F
100
AcDbEntity
  8
0
  6
Continuous
 62
     7
370
    25
100
AcDbLine
 10
110.3036121699
 20
85.6094817076
 30
0.0
 11
111.2530099831
 21
84.3913237197
 31
0.0
  0
LINE
  5
2A5
330
1F
100
AcDbEntity
  8
0
  6
Continuous
 62
     7
370
    25
100
AcDbLine
 10
111.2530099831
 20
84.3913237197
 30
0.0
 11
110.3036121699
 21
82.9336716636
 31
0.0
  0
LINE
  5
2A6
330
1F
100
AcDbEntity
  8
0
  6
Continuous
 62
     7
370
    25
100
AcDbLine
 10
110.3036121699
 20
82.9336716636
 30
0.0
 11
111.4880989655
 21
80.9677436014
 31
0.0
  0
LINE
  5
2A7
330
1F
100
AcDbEntity
  8
0
  6
Continuous
 62
     7
370
    25
100
AcDbLine
 10
111.4880989655
 20
80.9677436014
 30
0.0
 11
116.9946062821
 21
80.9677436014
 31
0.0
  0
LINE
  5
2A8
330
1F
100
AcDbEntity
  8
0
  6
Continuous
 62
     7
370
    25
100
AcDbLine
 10
116.9946062821
 20
80.9677436014
 30
0.0
 11
118.1795001737
 21
82.9336716636
 31
0.0
  0
LINE
  5
2A9
330
1F
100
AcDbEntity
  8
0
  6
Continuous
 62
     7
370
    25
100
AcDbLine
 10
118.1795001737
 20
82.9336716636
 30
0.0
 11
117.2296952644
 21
84.3913237197
 31
0.0
  0
LINE
  5
2AA
330
1F
100
AcDbEntity
  8
0
  6
Continuous
 62
     7
370
    25
100
AcDbLine
 10
90.9127742392
 20
80.9677423212
 30
0.0
 11
90.9127742392
 21
87.3140682157
 31
0.0
  0
LINE
  5
2AB
330
1F
100
AcDbEntity
  8
0
  6
Continuous
 62
     7
370
    25
100
AcDbLine
 10
90.9127742392
 20
87.3140682157
 30
0.0
 11
89.0775124734
 21
87.3140682157
 31
0.0
  0
LINE
  5
2AC
330
1F
100
AcDbEntity
  8
0
  6
Continuous
 62
     7
370
    25
100
AcDbLine
 10
89.0775124734
 20
87.3140682157
 30
0.0
 11
89.0775124734
 21
83.7258779312
 31
0.0
  0
LINE
  5
2AD
330
1F
100
AcDbEntity
  8
0
  6
Continuous
 62
     7
370
    25
100
AcDbLine
 10
89.0775124734
 20
83.7258779312
 30
0.0
 11
85.9628158096
 21
83.7258779312
 31
0.0
  0
LINE
  5
2AE
330
1F
100
AcDbEntity
  8
0
  6
Continuous
 62
     7
370
    25
100
AcDbLine
 10
85.9628158096
 20
83.7258779312
 30
0.0
 11
85.9628158096
 21
87.3140682157
 31
0.0
  0
LINE
  5
2AF
330
1F
100
AcDbEntity
  8
0
  6
Continuous
 62
     7
370
    25
100
AcDbLine
 10
85.9628158096
 20
87.3140682157
 30
0.0
 11
84.1275540439
 21
87.3140682157
 31
0.0
  0
LINE
  5
2B0
330
1F
100
AcDbEntity
  8
0
  6
Continuous
 62
     7
370
    25
100
AcDbLine
 10
84.1275540439
 20
87.3140682157
 30
0.0
 11
84.1275540439
 21
82.8134900096
 31
0.0
  0
LINE
  5
2B1
330
1F
100
AcDbEntity
  8
0
  6
Continuous
 62
     7
370
    25
100
AcDbLine
 10
84.1275540439
 20
82.8134900096
 30
0.0
 11
89.0775124734
 21
82.8134900096
 31
0.0
  0
LINE
  5
2B2
330
1F
100
AcDbEntity
  8
0
  6
Continuous
 62
     7
370
    25
100
AcDbLine
 10
89.0775124734
 20
82.8134900096
 30
0.0
 11
89.0775124734
 21
80.9677423212
 31
0.0
  0
LINE
  5
2B3
330
1F
100
AcDbEntity
  8
0
  6
Continuous
 62
     7
370
    25
100
AcDbLine
 10
89.0775124734
 20
80.9677423212
 30
0.0
 11
90.9127742392
 21
80.9677423212
 31
0.0
  0
LINE
  5
2B4
330
1F
100
AcDbEntity
  8
0
  6
Continuous
 62
     7
370
    25
100
AcDbLine
 10
59.9209086194
 20
81.8906161654
 30
0.0
 11
64.8206124552
 21
81.8906161654
 31
0.0
  0
LINE
  5
2B5
330
1F
100
AcDbEntity
  8
0
  6
Continuous
 62
     7
370
    25
100
AcDbLine
 10
59.9209086194
 20
83.641980309
 30
0.0
 11
59.9209086194
 21
81.8906161654
 31
0.0
  0
LINE
  5
2B6
330
1F
100
AcDbEntity
  8
0
  6
Continuous
 62
     7
370
    25
100
AcDbLine
 10
64.575675078
 20
83.641980309
 30
0.0
 11
59.9209086194
 21
83.641980309
 31
0.0
  0
LINE
  5
2B7
330
1F
100
AcDbEntity
  8
0
  6
Continuous
 62
     7
370
    25
100
AcDbLine
 10
64.575675078
 20
86.2549209038
 30
0.0
 11
64.575675078
 21
83.641980309
 31
0.0
  0
LINE
  5
2B8
330
1F
100
AcDbEntity
  8
0
  6
Continuous
 62
     7
370
    25
100
AcDbLine
 10
63.7153583201
 20
87.2599948566
 30
0.0
 11
64.575675078
 21
86.2549209038
 31
0.0
  0
LINE
  5
2B9
330
1F
100
AcDbEntity
  8
0
  6
Continuous
 62
     7
370
    25
100
AcDbLine
 10
57.7837006734
 20
87.2599948566
 30
0.0
 11
63.7153583201
 21
87.2599948566
 31
0.0
  0
LINE
  5
2BA
330
1F
100
AcDbEntity
  8
0
  6
Continuous
 62
     7
370
    25
100
AcDbLine
 10
58.5806256702
 20
86.3267029392
 30
0.0
 11
57.7837006734
 21
87.2599948566
 31
0.0
  0
LINE
  5
2BB
330
1F
100
AcDbEntity
  8
0
  6
Continuous
 62
     7
370
    25
100
AcDbLine
 10
62.2754597463
 20
86.3267029392
 30
0.0
 11
58.5806256702
 21
86.3267029392
 31
0.0
  0
LINE
  5
2BC
330
1F
100
AcDbEntity
  8
0
  6
Continuous
 62
     7
370
    25
100
AcDbLine
 10
62.6829782106
 20
85.8687071305
 30
0.0
 11
62.2754597463
 21
86.3267029392
 31
0.0
  0
LINE
  5
2BD
330
1F
100
AcDbEntity
  8
0
  6
Continuous
 62
     7
370
    25
100
AcDbLine
 10
62.6829782106
 20
84.5753400758
 30
0.0
 11
62.6829782106
 21
85.8687071305
 31
0.0
  0
LINE
  5
2BE
330
1F
100
AcDbEntity
  8
0
  6
Continuous
 62
     7
370
    25
100
AcDbLine
 10
58.0010438544
 20
84.5753400758
 30
0.0
 11
62.6829782106
 21
84.5753400758
 31
0.0
  0
LINE
  5
2BF
330
1F
100
AcDbEntity
  8
0
  6
Continuous
 62
     7
370
    25
100
AcDbLine
 10
58.0010438544
 20
80.9573242479
 30
0.0
 11
58.0010438544
 21
84.5753400758
 31
0.0
  0
LINE
  5
2C0
330
1F
100
AcDbEntity
  8
0
  6
Continuous
 62
     7
370
    25
100
AcDbLine
 10
64.005149228
 20
80.9573242479
 30
0.0
 11
58.0010438544
 21
80.9573242479
 31
0.0
  0
LINE
  5
2C1
330
1F
100
AcDbEntity
  8
0
  6
Continuous
 62
     7
370
    25
100
AcDbLine
 10
64.8206124552
 20
81.8906161654
 30
0.0
 11
64.005149228
 21
80.9573242479
 31
0.0
  0
LINE
  5
2C2
330
1F
100
AcDbEntity
  8
0
  6
Continuous
 62
     7
370
    25
100
AcDbLine
 10
-30.5469454651
 20
-74.5753842333
 30
0.0
 11
-30.5469454651
 21
-77.0453568456
 31
0.0
  0
LINE
  5
2C3
330
1F
100
AcDbEntity
  8
0
  6
Continuous
 62
     7
370
    25
100
AcDbLine
 10
-28.1361931953
 20
-74.5753842333
 30
0.0
 11
-30.5469454651
 21
-74.5753842333
 31
0.0
  0
LINE
  5
2C4
330
1F
100
AcDbEntity
  8
0
  6
Continuous
 62
     7
370
    25
100
AcDbLine
 10
-27.6928937077
 20
-74.0603511352
 30
0.0
 11
-28.1361931953
 21
-74.5753842333
 31
0.0
  0
LINE
  5
2C5
330
1F
100
AcDbEntity
  8
0
  6
Continuous
 62
     7
370
    25
100
AcDbLine
 10
-31.6128565927
 20
-74.0603511352
 30
0.0
 11
-27.6928937077
 21
-74.0603511352
 31
0.0
  0
LINE
  5
2C6
330
1F
100
AcDbEntity
  8
0
  6
Continuous
 62
     7
370
    25
100
AcDbLine
 10
-31.6128565927
 20
-77.5603511352
 30
0.0
 11
-31.6128565927
 21
-74.0603511352
 31
0.0
  0
LINE
  5
2C7
330
1F
100
AcDbEntity
  8
0
  6
Continuous
 62
     7
370
    25
100
AcDbLine
 10
-28.1361931953
 20
-77.5603511352
 30
0.0
 11
-31.6128565927
 21
-77.5603511352
 31
0.0
  0
LINE
  5
2C8
330
1F
100
AcDbEntity
  8
0
  6
Continuous
 62
     7
370
    25
100
AcDbLine
 10
-27.6880003101
 20
-77.0453568456
 30
0.0
 11
-28.1361931953
 21
-77.5603511352
 31
0.0
  0
LINE
  5
2C9
330
1F
100
AcDbEntity
  8
0
  6
Continuous
 62
     7
370
    25
100
AcDbLine
 10
-30.5469454651
 20
-77.0453568456
 30
0.0
 11
-27.6880003101
 21
-77.0453568456
 31
0.0
  0
LINE
  5
2CA
330
1F
100
AcDbEntity
  8
0
  6
Continuous
 62
     7
370
    25
100
AcDbLine
 10
-20.2983038126
 20
-76.0906976597
 30
0.0
 11
-20.2983038126
 21
-77.056016479
 31
0.0
  0
LINE
  5
2CB
330
1F
100
AcDbEntity
  8
0
  6
Continuous
 62
     7
370
    25
100
AcDbLine
 10
-17.6566925447
 20
-76.0906976597
 30
0.0
 11
-20.2983038126
 21
-76.0906976597
 31
0.0
  0
LINE
  5
2CC
330
1F
100
AcDbEntity
  8
0
  6
Continuous
 62
     7
370
    25
100
AcDbLine
 10
-17.6566925447
 20
-75.5762473946
 30
0.0
 11
-17.6566925447
 21
-76.0906976597
 31
0.0
  0
LINE
  5
2CD
330
1F
100
AcDbEntity
  8
0
  6
Continuous
 62
     7
370
    25
100
AcDbLine
 10
-20.2983038126
 20
-75.5762473946
 30
0.0
 11
-17.6566925447
 21
-75.5762473946
 31
0.0
  0
LINE
  5
2CE
330
1F
100
AcDbEntity
  8
0
  6
Continuous
 62
     7
370
    25
100
AcDbLine
 10
-20.2983038126
 20
-74.6109292809
 30
0.0
 11
-20.2983038126
 21
-75.5762473946
 31
0.0
  0
LINE
  5
2CF
330
1F
100
AcDbEntity
  8
0
  6
Continuous
 62
     7
370
    25
100
AcDbLine
 10
-17.866423496
 20
-74.6109292809
 30
0.0
 11
-20.2983038126
 21
-74.6109292809
 31
0.0
  0
LINE
  5
2D0
330
1F
100
AcDbEntity
  8
0
  6
Continuous
 62
     7
370
    25
100
AcDbLine
 10
-17.4221022867
 20
-74.096516413
 30
0.0
 11
-17.866423496
 21
-74.6109292809
 31
0.0
  0
LINE
  5
2D1
330
1F
100
AcDbEntity
  8
0
  6
Continuous
 62
     7
370
    25
100
AcDbLine
 10
-21.3469585693
 20
-74.096516413
 30
0.0
 11
-17.4221022867
 21
-74.096516413
 31
0.0
  0
LINE
  5
2D2
330
1F
100
AcDbEntity
  8
0
  6
Continuous
 62
     7
370
    25
100
AcDbLine
 10
-21.3469585693
 20
-77.5704293469
 30
0.0
 11
-21.3469585693
 21
-74.096516413
 31
0.0
  0
LINE
  5
2D3
330
1F
100
AcDbEntity
  8
0
  6
Continuous
 62
     7
370
    25
100
AcDbLine
 10
-17.4319808111
 20
-77.5704293469
 30
0.0
 11
-21.3469585693
 21
-77.5704293469
 31
0.0
  0
LINE
  5
2D4
330
1F
100
AcDbEntity
  8
0
  6
Continuous
 62
     7
370
    25
100
AcDbLine
 10
-17.8814042782
 20
-77.056016479
 30
0.0
 11
-17.4319808111
 21
-77.5704293469
 31
0.0
  0
LINE
  5
2D5
330
1F
100
AcDbEntity
  8
0
  6
Continuous
 62
     7
370
    25
100
AcDbLine
 10
-20.2983038126
 20
-77.056016479
 30
0.0
 11
-17.8814042782
 21
-77.056016479
 31
0.0
  0
LINE
  5
2D6
330
1F
100
AcDbEntity
  8
0
  6
Continuous
 62
     7
370
    25
100
AcDbLine
 10
-11.7507419433
 20
-75.5553733669
 30
0.0
 11
-11.7507419433
 21
-77.5603511352
 31
0.0
  0
LINE
  5
2D7
330
1F
100
AcDbEntity
  8
0
  6
Continuous
 62
     7
370
    25
100
AcDbLine
 10
-10.6446703805
 20
-76.2653654943
 30
0.0
 11
-11.7507419433
 21
-75.5553733669
 31
0.0
  0
LINE
  5
2D8
330
1F
100
AcDbEntity
  8
0
  6
Continuous
 62
     7
370
    25
100
AcDbLine
 10
-9.528634209
 20
-75.5553733669
 30
0.0
 11
-10.6446703805
 21
-76.2653654943
 31
0.0
  0
LINE
  5
2D9
330
1F
100
AcDbEntity
  8
0
  6
Continuous
 62
     7
370
    25
100
AcDbLine
 10
-9.528634209
 20
-77.5603511352
 30
0.0
 11
-9.528634209
 21
-75.5553733669
 31
0.0
  0
LINE
  5
2DA
330
1F
100
AcDbEntity
  8
0
  6
Continuous
 62
     7
370
    25
100
AcDbLine
 10
-8.4972457017
 20
-77.5603511352
 30
0.0
 11
-9.528634209
 21
-77.5603511352
 31
0.0
  0
LINE
  5
2DB
330
1F
100
AcDbEntity
  8
0
  6
Continuous
 62
     7
370
    25
100
AcDbLine
 10
-8.4972457017
 20
-74.0603511352
 30
0.0
 11
-8.4972457017
 21
-77.5603511352
 31
0.0
  0
LINE
  5
2DC
330
1F
100
AcDbEntity
  8
0
  6
Continuous
 62
     7
370
    25
100
AcDbLine
 10
-10.6446703805
 20
-75.4603744203
 30
0.0
 11
-8.4972457017
 21
-74.0603511352
 31
0.0
  0
LINE
  5
2DD
330
1F
100
AcDbEntity
  8
0
  6
Continuous
 62
     7
370
    25
100
AcDbLine
 10
-12.7920435498
 20
-74.0603511352
 30
0.0
 11
-10.6446703805
 21
-75.4603744203
 31
0.0
  0
LINE
  5
2DE
330
1F
100
AcDbEntity
  8
0
  6
Continuous
 62
     7
370
    25
100
AcDbLine
 10
-12.7920435498
 20
-77.5603511352
 30
0.0
 11
-12.7920435498
 21
-74.0603511352
 31
0.0
  0
LINE
  5
2DF
330
1F
100
AcDbEntity
  8
0
  6
Continuous
 62
     7
370
    25
100
AcDbLine
 10
-11.7507419433
 20
-77.5603511352
 30
0.0
 11
-12.7920435498
 21
-77.5603511352
 31
0.0
  0
LINE
  5
2E0
330
1F
100
AcDbEntity
  8
0
  6
Continuous
 62
     7
370
    25
100
AcDbLine
 10
-4.7014692749
 20
-77.5646871018
 30
0.0
 11
-2.8556253616
 21
-74.0560158742
 31
0.0
  0
LINE
  5
2E1
330
1F
100
AcDbEntity
  8
0
  6
Continuous
 62
     7
370
    25
100
AcDbLine
 10
-2.8556253616
 20
-74.0560158742
 30
0.0
 11
-6.7804809386
 21
-74.0560158742
 31
0.0
  0
LINE
  5
2E2
330
1F
100
AcDbEntity
  8
0
  6
Continuous
 62
     7
370
    25
100
AcDbLine
 10
-6.7804809386
 20
-74.0560158742
 30
0.0
 11
-6.3388770291
 21
-74.5589068546
 31
0.0
  0
LINE
  5
2E3
330
1F
100
AcDbEntity
  8
0
  6
Continuous
 62
     7
370
    25
100
AcDbLine
 10
-6.3388770291
 20
-74.5589068546
 30
0.0
 11
-4.4384916659
 21
-74.5589068546
 31
0.0
  0
LINE
  5
2E4
330
1F
100
AcDbEntity
  8
0
  6
Continuous
 62
     7
370
    25
100
AcDbLine
 10
-4.4384916659
 20
-74.5589068546
 30
0.0
 11
-5.907196803
 21
-77.5646871018
 31
0.0
  0
LINE
  5
2E5
330
1F
100
AcDbEntity
  8
0
  6
Continuous
 62
     7
370
    25
100
AcDbLine
 10
-5.907196803
 20
-77.5646871018
 30
0.0
 11
-4.7014692749
 21
-77.5646871018
 31
0.0
  0
LINE
  5
2E6
330
1F
100
AcDbEntity
  8
0
  6
Continuous
 62
     7
370
    25
100
AcDbLine
 10
0.7961306469
 20
-74.0560158742
 30
0.0
 11
-2.1961131994
 21
-74.0560158742
 31
0.0
  0
LINE
  5
2E7
330
1F
100
AcDbEntity
  8
0
  6
Continuous
 62
     7
370
    25
100
AcDbLine
 10
-2.1961131994
 20
-74.0560158742
 30
0.0
 11
-2.6648738781
 21
-74.6095328809
 31
0.0
  0
LINE
  5
2E8
330
1F
100
AcDbEntity
  8
0
  6
Continuous
 62
     7
370
    25
100
AcDbLine
 10
-2.6648738781
 20
-74.6095328809
 30
0.0
 11
-2.6648738781
 21
-77.01133803
 31
0.0
  0
LINE
  5
2E9
330
1F
100
AcDbEntity
  8
0
  6
Continuous
 62
     7
370
    25
100
AcDbLine
 10
-2.6648738781
 20
-77.01133803
 30
0.0
 11
-2.1961131994
 21
-77.5646863962
 31
0.0
  0
LINE
  5
2EA
330
1F
100
AcDbEntity
  8
0
  6
Continuous
 62
     7
370
    25
100
AcDbLine
 10
-2.1961131994
 20
-77.5646863962
 30
0.0
 11
0.7961306469
 21
-77.5646863962
 31
0.0
  0
LINE
  5
2EB
330
1F
100
AcDbEntity
  8
0
  6
Continuous
 62
     7
370
    25
100
AcDbLine
 10
0.7961306469
 20
-77.5646863962
 30
0.0
 11
1.2599816989
 21
-77.01133803
 31
0.0
  0
LINE
  5
2EC
330
1F
100
AcDbEntity
  8
0
  6
Continuous
 62
     7
370
    25
100
AcDbLine
 10
1.2599816989
 20
-77.01133803
 30
0.0
 11
1.2599816989
 21
-74.6095328809
 31
0.0
  0
LINE
  5
2ED
330
1F
100
AcDbEntity
  8
0
  6
Continuous
 62
     7
370
    25
100
AcDbLine
 10
1.2599816989
 20
-74.6095328809
 30
0.0
 11
0.7961306469
 21
-74.0560158742
 31
0.0
  0
LINE
  5
2EE
330
1F
100
AcDbEntity
  8
0
  6
Continuous
 62
     7
370
    25
100
AcDbLine
 10
-22.8701578806
 20
-84.5955177748
 30
0.0
 11
-22.8701578806
 21
-81.1080783186
 31
0.0
  0
LINE
  5
2EF
330
1F
100
AcDbEntity
  8
0
  6
Continuous
 62
     7
370
    25
100
AcDbLine
 10
-21.8013777473
 20
-84.5955177748
 30
0.0
 11
-22.8701578806
 21
-84.5955177748
 31
0.0
  0
LINE
  5
2F0
330
1F
100
AcDbEntity
  8
0
  6
Continuous
 62
     7
370
    25
100
AcDbLine
 10
-21.8013777473
 20
-83.1072164677
 30
0.0
 11
-21.8013777473
 21
-84.5955177748
 31
0.0
  0
LINE
  5
2F1
330
1F
100
AcDbEntity
  8
0
  6
Continuous
 62
     7
370
    25
100
AcDbLine
 10
-19.9534868627
 20
-83.1072164677
 30
0.0
 11
-21.8013777473
 21
-83.1072164677
 31
0.0
  0
LINE
  5
2F2
330
1F
100
AcDbEntity
  8
0
  6
Continuous
 62
     7
370
    25
100
AcDbLine
 10
-19.9534868627
 20
-84.5955177748
 30
0.0
 11
-19.9534868627
 21
-83.1072164677
 31
0.0
  0
LINE
  5
2F3
330
1F
100
AcDbEntity
  8
0
  6
Continuous
 62
     7
370
    25
100
AcDbLine
 10
-18.9046839282
 20
-84.5955177748
 30
0.0
 11
-19.9534868627
 21
-84.5955177748
 31
0.0
  0
LINE
  5
2F4
330
1F
100
AcDbEntity
  8
0
  6
Continuous
 62
     7
370
    25
100
AcDbLine
 10
-18.9046839282
 20
-81.1080783186
 30
0.0
 11
-18.9046839282
 21
-84.5955177748
 31
0.0
  0
LINE
  5
2F5
330
1F
100
AcDbEntity
  8
0
  6
Continuous
 62
     7
370
    25
100
AcDbLine
 10
-22.8701578806
 20
-81.1080783186
 30
0.0
 11
-18.9046839282
 21
-81.1080783186
 31
0.0
  0
LINE
  5
2F6
330
1F
100
AcDbEntity
  8
0
  6
Continuous
 62
     7
370
    25
100
AcDbLine
 10
6.9293014214
 20
-77.056016479
 30
0.0
 11
9.6299255828
 21
-77.056016479
 31
0.0
  0
LINE
  5
2F7
330
1F
100
AcDbEntity
  8
0
  6
Continuous
 62
     7
370
    25
100
AcDbLine
 10
6.9293014214
 20
-76.0906976597
 30
0.0
 11
6.9293014214
 21
-77.056016479
 31
0.0
  0
LINE
  5
2F8
330
1F
100
AcDbEntity
  8
0
  6
Continuous
 62
     7
370
    25
100
AcDbLine
 10
9.4949207293
 20
-76.0906976597
 30
0.0
 11
6.9293014214
 21
-76.0906976597
 31
0.0
  0
LINE
  5
2F9
330
1F
100
AcDbEntity
  8
0
  6
Continuous
 62
     7
370
    25
100
AcDbLine
 10
9.4949207293
 20
-74.6504941823
 30
0.0
 11
9.4949207293
 21
-76.0906976597
 31
0.0
  0
LINE
  5
2FA
330
1F
100
AcDbEntity
  8
0
  6
Continuous
 62
     7
370
    25
100
AcDbLine
 10
9.0207303902
 20
-74.096516413
 30
0.0
 11
9.4949207293
 21
-74.6504941823
 31
0.0
  0
LINE
  5
2FB
330
1F
100
AcDbEntity
  8
0
  6
Continuous
 62
     7
370
    25
100
AcDbLine
 10
5.7513127897
 20
-74.096516413
 30
0.0
 11
9.0207303902
 21
-74.096516413
 31
0.0
  0
LINE
  5
2FC
330
1F
100
AcDbEntity
  8
0
  6
Continuous
 62
     7
370
    25
100
AcDbLine
 10
6.190562788
 20
-74.6109292809
 30
0.0
 11
5.7513127897
 21
-74.096516413
 31
0.0
  0
LINE
  5
2FD
330
1F
100
AcDbEntity
  8
0
  6
Continuous
 62
     7
370
    25
100
AcDbLine
 10
8.2270855071
 20
-74.6109292809
 30
0.0
 11
6.190562788
 21
-74.6109292809
 31
0.0
  0
LINE
  5
2FE
330
1F
100
AcDbEntity
  8
0
  6
Continuous
 62
     7
370
    25
100
AcDbLine
 10
8.4517019834
 20
-74.8633679156
 30
0.0
 11
8.2270855071
 21
-74.6109292809
 31
0.0
  0
LINE
  5
2FF
330
1F
100
AcDbEntity
  8
0
  6
Continuous
 62
     7
370
    25
100
AcDbLine
 10
8.4517019834
 20
-75.5762473946
 30
0.0
 11
8.4517019834
 21
-74.8633679156
 31
0.0
  0
LINE
  5
300
330
1F
100
AcDbEntity
  8
0
  6
Continuous
 62
     7
370
    25
100
AcDbLine
 10
5.8711082438
 20
-75.5762473946
 30
0.0
 11
8.4517019834
 21
-75.5762473946
 31
0.0
  0
LINE
  5
301
330
1F
100
AcDbEntity
  8
0
  6
Continuous
 62
     7
370
    25
100
AcDbLine
 10
5.8711082438
 20
-77.5704293469
 30
0.0
 11
5.8711082438
 21
-75.5762473946
 31
0.0
  0
LINE
  5
302
330
1F
100
AcDbEntity
  8
0
  6
Continuous
 62
     7
370
    25
100
AcDbLine
 10
9.1804576623
 20
-77.5704293469
 30
0.0
 11
5.8711082438
 21
-77.5704293469
 31
0.0
  0
LINE
  5
303
330
1F
100
AcDbEntity
  8
0
  6
Continuous
 62
     7
370
    25
100
AcDbLine
 10
9.6299255828
 20
-77.056016479
 30
0.0
 11
9.1804576623
 21
-77.5704293469
 31
0.0
  0
LINE
  5
304
330
1F
100
AcDbEntity
  8
0
  6
Continuous
 62
     7
370
    25
100
AcDbLine
 10
-36.2472505906
 20
-81.0675777798
 30
0.0
 11
-40.2096791351
 21
-81.0675777798
 31
0.0
  0
LINE
  5
305
330
1F
100
AcDbEntity
  8
0
  6
Continuous
 62
     7
370
    25
100
AcDbLine
 10
-40.2096791351
 20
-81.0675777798
 30
0.0
 11
-40.2096791351
 21
-83.6173935655
 31
0.0
  0
LINE
  5
306
330
1F
100
AcDbEntity
  8
0
  6
Continuous
 62
     7
370
    25
100
AcDbLine
 10
-40.2096791351
 20
-83.6173935655
 30
0.0
 11
-39.3563298617
 21
-84.5762483018
 31
0.0
  0
LINE
  5
307
330
1F
100
AcDbEntity
  8
0
  6
Continuous
 62
     7
370
    25
100
AcDbLine
 10
-39.3563298617
 20
-84.5762483018
 30
0.0
 11
-36.2472505906
 21
-84.5762483018
 31
0.0
  0
LINE
  5
308
330
1F
100
AcDbEntity
  8
0
  6
Continuous
 62
     7
370
    25
100
AcDbLine
 10
-36.2472505906
 20
-84.5762483018
 30
0.0
 11
-36.2472505906
 21
-81.0675777798
 31
0.0
  0
LINE
  5
309
330
1F
100
AcDbEntity
  8
0
  6
Continuous
 62
     7
370
    25
100
AcDbLine
 10
-31.9925948319
 20
-81.0661707957
 30
0.0
 11
-31.9925948319
 21
-83.3291008265
 31
0.0
  0
LINE
  5
30A
330
1F
100
AcDbEntity
  8
0
  6
Continuous
 62
     7
370
    25
100
AcDbLine
 10
-35.8631770903
 20
-81.0661707957
 30
0.0
 11
-31.9925948319
 21
-81.0661707957
 31
0.0
  0
LINE
  5
30B
330
1F
100
AcDbEntity
  8
0
  6
Continuous
 62
     7
370
    25
100
AcDbLine
 10
-35.8631770903
 20
-84.5676871492
 30
0.0
 11
-35.8631770903
 21
-81.0661707957
 31
0.0
  0
LINE
  5
30C
330
1F
100
AcDbEntity
  8
0
  6
Continuous
 62
     7
370
    25
100
AcDbLine
 10
-34.8143741558
 20
-84.5676871492
 30
0.0
 11
-35.8631770903
 21
-84.5676871492
 31
0.0
  0
LINE
  5
30D
330
1F
100
AcDbEntity
  8
0
  6
Continuous
 62
     7
370
    25
100
AcDbLine
 10
-34.8143741558
 20
-83.3291008265
 30
0.0
 11
-34.8143741558
 21
-84.5676871492
 31
0.0
  0
LINE
  5
30E
330
1F
100
AcDbEntity
  8
0
  6
Continuous
 62
     7
370
    25
100
AcDbLine
 10
-31.9925948319
 20
-83.3291008265
 30
0.0
 11
-34.8143741558
 21
-83.3291008265
 31
0.0
  0
LINE
  5
30F
330
1F
100
AcDbEntity
  8
0
  6
Continuous
 62
     7
370
    25
100
AcDbLine
 10
-32.9877446781
 20
-68.3759520468
 30
0.0
 11
-32.6830923971
 21
-68.3759520468
 31
0.0
  0
LINE
  5
310
330
1F
100
AcDbEntity
  8
0
  6
Continuous
 62
     7
370
    25
100
AcDbLine
 10
-32.9877446781
 20
-67.0424740301
 30
0.0
 11
-32.9877446781
 21
-68.3759520468
 31
0.0
  0
LINE
  5
311
330
1F
100
AcDbEntity
  8
0
  6
Continuous
 62
     7
370
    25
100
AcDbLine
 10
-36.513720258
 20
-67.0424740301
 30
0.0
 11
-32.9877446781
 21
-67.0424740301
 31
0.0
  0
LINE
  5
312
330
1F
100
AcDbEntity
  8
0
  6
Continuous
 62
     7
370
    25
100
AcDbLine
 10
-36.513720258
 20
-70.5545321803
 30
0.0
 11
-36.513720258
 21
-67.0424740301
 31
0.0
  0
LINE
  5
313
330
1F
100
AcDbEntity
  8
0
  6
Continuous
 62
     7
370
    25
100
AcDbLine
 10
-32.6830923971
 20
-70.5545321803
 30
0.0
 11
-36.513720258
 21
-70.5545321803
 31
0.0
  0
LINE
  5
314
330
1F
100
AcDbEntity
  8
0
  6
Continuous
 62
     7
370
    25
100
AcDbLine
 10
-32.6830923971
 20
-68.3759520468
 30
0.0
 11
-32.6830923971
 21
-70.5545321803
 31
0.0
  0
LINE
  5
315
330
1F
100
AcDbEntity
  8
0
  6
Continuous
 62
     7
370
    25
100
AcDbLine
 10
-8.7062174179
 20
-68.9403707108
 30
0.0
 11
-9.8149519487
 21
-68.9403707108
 31
0.0
  0
LINE
  5
316
330
1F
100
AcDbEntity
  8
0
  6
Continuous
 62
     7
370
    25
100
AcDbLine
 10
-8.7062174179
 20
-67.0849545074
 30
0.0
 11
-8.7062174179
 21
-68.9403707108
 31
0.0
  0
LINE
  5
317
330
1F
100
AcDbEntity
  8
0
  6
Continuous
 62
     7
370
    25
100
AcDbLine
 10
-12.6947654865
 20
-67.0849545074
 30
0.0
 11
-8.7062174179
 21
-67.0849545074
 31
0.0
  0
LINE
  5
318
330
1F
100
AcDbEntity
  8
0
  6
Continuous
 62
     7
370
    25
100
AcDbLine
 10
-12.6947654865
 20
-70.5735067088
 30
0.0
 11
-12.6947654865
 21
-67.0849545074
 31
0.0
  0
LINE
  5
319
330
1F
100
AcDbEntity
  8
0
  6
Continuous
 62
     7
370
    25
100
AcDbLine
 10
-11.6359739526
 20
-70.5735067088
 30
0.0
 11
-12.6947654865
 21
-70.5735067088
 31
0.0
  0
LINE
  5
31A
330
1F
100
AcDbEntity
  8
0
  6
Continuous
 62
     7
370
    25
100
AcDbLine
 10
-11.6359739526
 20
-67.5993673753
 30
0.0
 11
-11.6359739526
 21
-70.5735067088
 31
0.0
  0
LINE
  5
31B
330
1F
100
AcDbEntity
  8
0
  6
Continuous
 62
     7
370
    25
100
AcDbLine
 10
-9.7350431537
 20
-67.5993673753
 30
0.0
 11
-11.6359739526
 21
-67.5993673753
 31
0.0
  0
LINE
  5
31C
330
1F
100
AcDbEntity
  8
0
  6
Continuous
 62
     7
370
    25
100
AcDbLine
 10
-9.7350431537
 20
-68.4259578429
 30
0.0
 11
-9.7350431537
 21
-67.5993673753
 31
0.0
  0
LINE
  5
31D
330
1F
100
AcDbEntity
  8
0
  6
Continuous
 62
     7
370
    25
100
AcDbLine
 10
-11.5030252433
 20
-68.4259578429
 30
0.0
 11
-9.7350431537
 21
-68.4259578429
 31
0.0
  0
LINE
  5
31E
330
1F
100
AcDbEntity
  8
0
  6
Continuous
 62
     7
370
    25
100
AcDbLine
 10
-9.6201742608
 20
-70.5735067088
 30
0.0
 11
-11.5030252433
 21
-68.4259578429
 31
0.0
  0
LINE
  5
31F
330
1F
100
AcDbEntity
  8
0
  6
Continuous
 62
     7
370
    25
100
AcDbLine
 10
-8.3865822378
 20
-70.5735067088
 30
0.0
 11
-9.6201742608
 21
-70.5735067088
 31
0.0
  0
LINE
  5
320
330
1F
100
AcDbEntity
  8
0
  6
Continuous
 62
     7
370
    25
100
AcDbLine
 10
-9.8149519487
 20
-68.9403707108
 30
0.0
 11
-8.3865822378
 21
-70.5735067088
 31
0.0
  0
LINE
  5
321
330
1F
100
AcDbEntity
  8
0
  6
Continuous
 62
     7
370
    25
100
AcDbLine
 10
-0.2940964685
 20
-68.3759520468
 30
0.0
 11
0.0105558125
 21
-68.3759520468
 31
0.0
  0
LINE
  5
322
330
1F
100
AcDbEntity
  8
0
  6
Continuous
 62
     7
370
    25
100
AcDbLine
 10
-0.2940964685
 20
-67.0424740301
 30
0.0
 11
-0.2940964685
 21
-68.3759520468
 31
0.0
  0
LINE
  5
323
330
1F
100
AcDbEntity
  8
0
  6
Continuous
 62
     7
370
    25
100
AcDbLine
 10
-3.8200720483
 20
-67.0424740301
 30
0.0
 11
-0.2940964685
 21
-67.0424740301
 31
0.0
  0
LINE
  5
324
330
1F
100
AcDbEntity
  8
0
  6
Continuous
 62
     7
370
    25
100
AcDbLine
 10
-3.8200720483
 20
-70.5545321803
 30
0.0
 11
-3.8200720483
 21
-67.0424740301
 31
0.0
  0
LINE
  5
325
330
1F
100
AcDbEntity
  8
0
  6
Continuous
 62
     7
370
    25
100
AcDbLine
 10
0.0105558125
 20
-70.5545321803
 30
0.0
 11
-3.8200720483
 21
-70.5545321803
 31
0.0
  0
LINE
  5
326
330
1F
100
AcDbEntity
  8
0
  6
Continuous
 62
     7
370
    25
100
AcDbLine
 10
0.0105558125
 20
-68.3759520468
 30
0.0
 11
0.0105558125
 21
-70.5545321803
 31
0.0
  0
LINE
  5
327
330
1F
100
AcDbEntity
  8
0
  6
Continuous
 62
     7
370
    25
100
AcDbLine
 10
-36.5772843288
 20
-75.3912769646
 30
0.0
 11
-37.0269618151
 21
-75.9056898325
 31
0.0
  0
LINE
  5
328
330
1F
100
AcDbEntity
  8
0
  6
Continuous
 62
     7
370
    25
100
AcDbLine
 10
-39.190410166
 20
-75.3912769646
 30
0.0
 11
-36.5772843288
 21
-75.3912769646
 31
0.0
  0
LINE
  5
329
330
1F
100
AcDbEntity
  8
0
  6
Continuous
 62
     7
370
    25
100
AcDbLine
 10
-39.190410166
 20
-74.6109292809
 30
0.0
 11
-39.190410166
 21
-75.3912769646
 31
0.0
  0
LINE
  5
32A
330
1F
100
AcDbEntity
  8
0
  6
Continuous
 62
     7
370
    25
100
AcDbLine
 10
-36.8720729031
 20
-74.6109292809
 30
0.0
 11
-39.190410166
 21
-74.6109292809
 31
0.0
  0
LINE
  5
32B
330
1F
100
AcDbEntity
  8
0
  6
Continuous
 62
     7
370
    25
100
AcDbLine
 10
-36.4322224317
 20
-74.096516413
 30
0.0
 11
-36.8720729031
 21
-74.6109292809
 31
0.0
  0
LINE
  5
32C
330
1F
100
AcDbEntity
  8
0
  6
Continuous
 62
     7
370
    25
100
AcDbLine
 10
-40.2096791351
 20
-74.096516413
 30
0.0
 11
-36.4322224317
 21
-74.096516413
 31
0.0
  0
LINE
  5
32D
330
1F
100
AcDbEntity
  8
0
  6
Continuous
 62
     7
370
    25
100
AcDbLine
 10
-40.2096791351
 20
-77.5687916287
 30
0.0
 11
-40.2096791351
 21
-74.096516413
 31
0.0
  0
LINE
  5
32E
330
1F
100
AcDbEntity
  8
0
  6
Continuous
 62
     7
370
    25
100
AcDbLine
 10
-39.190410166
 20
-77.5687916287
 30
0.0
 11
-40.2096791351
 21
-77.5687916287
 31
0.0
  0
LINE
  5
32F
330
1F
100
AcDbEntity
  8
0
  6
Continuous
 62
     7
370
    25
100
AcDbLine
 10
-39.190410166
 20
-75.9056898325
 30
0.0
 11
-39.190410166
 21
-77.5687916287
 31
0.0
  0
LINE
  5
330
330
1F
100
AcDbEntity
  8
0
  6
Continuous
 62
     7
370
    25
100
AcDbLine
 10
-37.0269618151
 20
-75.9056898325
 30
0.0
 11
-39.190410166
 21
-75.9056898325
 31
0.0
  0
LINE
  5
331
330
1F
100
AcDbEntity
  8
0
  6
Continuous
 62
     7
370
    25
100
AcDbLine
 10
16.2045090468
 20
-67.5638223277
 30
0.0
 11
16.2045090468
 21
-70.03379494
 31
0.0
  0
LINE
  5
332
330
1F
100
AcDbEntity
  8
0
  6
Continuous
 62
     7
370
    25
100
AcDbLine
 10
18.6152613166
 20
-67.5638223277
 30
0.0
 11
16.2045090468
 21
-67.5638223277
 31
0.0
  0
LINE
  5
333
330
1F
100
AcDbEntity
  8
0
  6
Continuous
 62
     7
370
    25
100
AcDbLine
 10
19.0585608042
 20
-67.0487892296
 30
0.0
 11
18.6152613166
 21
-67.5638223277
 31
0.0
  0
LINE
  5
334
330
1F
100
AcDbEntity
  8
0
  6
Continuous
 62
     7
370
    25
100
AcDbLine
 10
15.1385979192
 20
-67.0487892296
 30
0.0
 11
19.0585608042
 21
-67.0487892296
 31
0.0
  0
LINE
  5
335
330
1F
100
AcDbEntity
  8
0
  6
Continuous
 62
     7
370
    25
100
AcDbLine
 10
15.1385979192
 20
-70.5487892296
 30
0.0
 11
15.1385979192
 21
-67.0487892296
 31
0.0
  0
LINE
  5
336
330
1F
100
AcDbEntity
  8
0
  6
Continuous
 62
     7
370
    25
100
AcDbLine
 10
18.6152613166
 20
-70.5487892296
 30
0.0
 11
15.1385979192
 21
-70.5487892296
 31
0.0
  0
LINE
  5
337
330
1F
100
AcDbEntity
  8
0
  6
Continuous
 62
     7
370
    25
100
AcDbLine
 10
19.0634542018
 20
-70.03379494
 30
0.0
 11
18.6152613166
 21
-70.5487892296
 31
0.0
  0
LINE
  5
338
330
1F
100
AcDbEntity
  8
0
  6
Continuous
 62
     7
370
    25
100
AcDbLine
 10
16.2045090468
 20
-70.03379494
 30
0.0
 11
19.0634542018
 21
-70.03379494
 31
0.0
  0
LINE
  5
339
330
1F
100
AcDbEntity
  8
0
  6
Continuous
 62
     7
370
    25
100
AcDbLine
 10
8.7570944481
 20
-67.0487892296
 30
0.0
 11
13.2831055101
 21
-67.0487892296
 31
0.0
  0
LINE
  5
33A
330
1F
100
AcDbEntity
  8
0
  6
Continuous
 62
     7
370
    25
100
AcDbLine
 10
9.2007079317
 20
-67.5638223277
 30
0.0
 11
8.7570944481
 21
-67.0487892296
 31
0.0
  0
LINE
  5
33B
330
1F
100
AcDbEntity
  8
0
  6
Continuous
 62
     7
370
    25
100
AcDbLine
 10
10.5066262766
 20
-67.5638223277
 30
0.0
 11
9.2007079317
 21
-67.5638223277
 31
0.0
  0
LINE
  5
33C
330
1F
100
AcDbEntity
  8
0
  6
Continuous
 62
     7
370
    25
100
AcDbLine
 10
10.5066262766
 20
-70.5487892296
 30
0.0
 11
10.5066262766
 21
-67.5638223277
 31
0.0
  0
LINE
  5
33D
330
1F
100
AcDbEntity
  8
0
  6
Continuous
 62
     7
370
    25
100
AcDbLine
 10
11.5483702999
 20
-70.5487892296
 30
0.0
 11
10.5066262766
 21
-70.5487892296
 31
0.0
  0
LINE
  5
33E
330
1F
100
AcDbEntity
  8
0
  6
Continuous
 62
     7
370
    25
100
AcDbLine
 10
11.5483702999
 20
-67.5638223277
 30
0.0
 11
11.5483702999
 21
-70.5487892296
 31
0.0
  0
LINE
  5
33F
330
1F
100
AcDbEntity
  8
0
  6
Continuous
 62
     7
370
    25
100
AcDbLine
 10
12.8393353813
 20
-67.5638223277
 30
0.0
 11
11.5483702999
 21
-67.5638223277
 31
0.0
  0
LINE
  5
340
330
1F
100
AcDbEntity
  8
0
  6
Continuous
 62
     7
370
    25
100
AcDbLine
 10
13.2831055101
 20
-67.0487892296
 30
0.0
 11
12.8393353813
 21
-67.5638223277
 31
0.0
  0
LINE
  5
341
330
1F
100
AcDbEntity
  8
0
  6
Continuous
 62
     7
370
    25
100
AcDbLine
 10
8.562006998
 20
-67.0444539686
 30
0.0
 11
4.5995784535
 21
-67.0444539686
 31
0.0
  0
LINE
  5
342
330
1F
100
AcDbEntity
  8
0
  6
Continuous
 62
     7
370
    25
100
AcDbLine
 10
4.5995784535
 20
-67.0444539686
 30
0.0
 11
4.5995784535
 21
-69.5942697543
 31
0.0
  0
LINE
  5
343
330
1F
100
AcDbEntity
  8
0
  6
Continuous
 62
     7
370
    25
100
AcDbLine
 10
4.5995784535
 20
-69.5942697543
 30
0.0
 11
5.4529277269
 21
-70.5531244906
 31
0.0
  0
LINE
  5
344
330
1F
100
AcDbEntity
  8
0
  6
Continuous
 62
     7
370
    25
100
AcDbLine
 10
5.4529277269
 20
-70.5531244906
 30
0.0
 11
8.562006998
 21
-70.5531244906
 31
0.0
  0
LINE
  5
345
330
1F
100
AcDbEntity
  8
0
  6
Continuous
 62
     7
370
    25
100
AcDbLine
 10
8.562006998
 20
-70.5531244906
 30
0.0
 11
8.562006998
 21
-67.0444539686
 31
0.0
  0
LINE
  5
346
330
1F
100
AcDbEntity
  8
0
  6
Continuous
 62
     7
370
    25
100
AcDbLine
 10
3.9139968655
 20
-68.3759520468
 30
0.0
 11
4.2186491464
 21
-68.3759520468
 31
0.0
  0
LINE
  5
347
330
1F
100
AcDbEntity
  8
0
  6
Continuous
 62
     7
370
    25
100
AcDbLine
 10
3.9139968655
 20
-67.0424740301
 30
0.0
 11
3.9139968655
 21
-68.3759520468
 31
0.0
  0
LINE
  5
348
330
1F
100
AcDbEntity
  8
0
  6
Continuous
 62
     7
370
    25
100
AcDbLine
 10
0.3880212856
 20
-67.0424740301
 30
0.0
 11
3.9139968655
 21
-67.0424740301
 31
0.0
  0
LINE
  5
349
330
1F
100
AcDbEntity
  8
0
  6
Continuous
 62
     7
370
    25
100
AcDbLine
 10
0.3880212856
 20
-70.5545321803
 30
0.0
 11
0.3880212856
 21
-67.0424740301
 31
0.0
  0
LINE
  5
34A
330
1F
100
AcDbEntity
  8
0
  6
Continuous
 62
     7
370
    25
100
AcDbLine
 10
4.2186491464
 20
-70.5545321803
 30
0.0
 11
0.3880212856
 21
-70.5545321803
 31
0.0
  0
LINE
  5
34B
330
1F
100
AcDbEntity
  8
0
  6
Continuous
 62
     7
370
    25
100
AcDbLine
 10
4.2186491464
 20
-68.3759520468
 30
0.0
 11
4.2186491464
 21
-70.5545321803
 31
0.0
  0
LINE
  5
34C
330
1F
100
AcDbEntity
  8
0
  6
Continuous
 62
     7
370
    25
100
AcDbLine
 10
-2.5700612122
 20
-81.5869461389
 30
0.0
 11
-2.5700612122
 21
-84.0569187512
 31
0.0
  0
LINE
  5
34D
330
1F
100
AcDbEntity
  8
0
  6
Continuous
 62
     7
370
    25
100
AcDbLine
 10
-0.1593089424
 20
-81.5869461389
 30
0.0
 11
-2.5700612122
 21
-81.5869461389
 31
0.0
  0
LINE
  5
34E
330
1F
100
AcDbEntity
  8
0
  6
Continuous
 62
     7
370
    25
100
AcDbLine
 10
0.2839905452
 20
-81.0719130408
 30
0.0
 11
-0.1593089424
 21
-81.5869461389
 31
0.0
  0
LINE
  5
34F
330
1F
100
AcDbEntity
  8
0
  6
Continuous
 62
     7
370
    25
100
AcDbLine
 10
-3.6359723398
 20
-81.0719130408
 30
0.0
 11
0.2839905452
 21
-81.0719130408
 31
0.0
  0
LINE
  5
350
330
1F
100
AcDbEntity
  8
0
  6
Continuous
 62
     7
370
    25
100
AcDbLine
 10
-3.6359723398
 20
-84.5719130408
 30
0.0
 11
-3.6359723398
 21
-81.0719130408
 31
0.0
  0
LINE
  5
351
330
1F
100
AcDbEntity
  8
0
  6
Continuous
 62
     7
370
    25
100
AcDbLine
 10
-0.1593089424
 20
-84.5719130408
 30
0.0
 11
-3.6359723398
 21
-84.5719130408
 31
0.0
  0
LINE
  5
352
330
1F
100
AcDbEntity
  8
0
  6
Continuous
 62
     7
370
    25
100
AcDbLine
 10
0.2888839428
 20
-84.0569187512
 30
0.0
 11
-0.1593089424
 21
-84.5719130408
 31
0.0
  0
LINE
  5
353
330
1F
100
AcDbEntity
  8
0
  6
Continuous
 62
     7
370
    25
100
AcDbLine
 10
-2.5700612122
 20
-84.0569187512
 30
0.0
 11
0.2888839428
 21
-84.0569187512
 31
0.0
  0
LINE
  5
354
330
1F
100
AcDbEntity
  8
0
  6
Continuous
 62
     7
370
    25
100
AcDbLine
 10
4.5851275835
 20
-81.0675777798
 30
0.0
 11
0.622699039
 21
-81.0675777798
 31
0.0
  0
LINE
  5
355
330
1F
100
AcDbEntity
  8
0
  6
Continuous
 62
     7
370
    25
100
AcDbLine
 10
0.622699039
 20
-81.0675777798
 30
0.0
 11
0.622699039
 21
-83.6173935655
 31
0.0
  0
LINE
  5
356
330
1F
100
AcDbEntity
  8
0
  6
Continuous
 62
     7
370
    25
100
AcDbLine
 10
0.622699039
 20
-83.6173935655
 30
0.0
 11
1.4760483124
 21
-84.5762483018
 31
0.0
  0
LINE
  5
357
330
1F
100
AcDbEntity
  8
0
  6
Continuous
 62
     7
370
    25
100
AcDbLine
 10
1.4760483124
 20
-84.5762483018
 30
0.0
 11
4.5851275835
 21
-84.5762483018
 31
0.0
  0
LINE
  5
358
330
1F
100
AcDbEntity
  8
0
  6
Continuous
 62
     7
370
    25
100
AcDbLine
 10
4.5851275835
 20
-84.5762483018
 30
0.0
 11
4.5851275835
 21
-81.0675777798
 31
0.0
  0
LINE
  5
359
330
1F
100
AcDbEntity
  8
0
  6
Continuous
 62
     7
370
    25
100
AcDbLine
 10
7.8682297628
 20
-81.0719130408
 30
0.0
 11
8.8900410406
 21
-81.0719130408
 31
0.0
  0
LINE
  5
35A
330
1F
100
AcDbEntity
  8
0
  6
Continuous
 62
     7
370
    25
100
AcDbLine
 10
7.8682297628
 20
-82.9619308927
 30
0.0
 11
7.8682297628
 21
-81.0719130408
 31
0.0
  0
LINE
  5
35B
330
1F
100
AcDbEntity
  8
0
  6
Continuous
 62
     7
370
    25
100
AcDbLine
 10
5.0114282475
 20
-81.0719130408
 30
0.0
 11
7.8682297628
 21
-82.9619308927
 31
0.0
  0
LINE
  5
35C
330
1F
100
AcDbEntity
  8
0
  6
Continuous
 62
     7
370
    25
100
AcDbLine
 10
5.0114282475
 20
-84.5719130408
 30
0.0
 11
5.0114282475
 21
-81.0719130408
 31
0.0
  0
LINE
  5
35D
330
1F
100
AcDbEntity
  8
0
  6
Continuous
 62
     7
370
    25
100
AcDbLine
 10
6.0480107418
 20
-84.5719130408
 30
0.0
 11
5.0114282475
 21
-84.5719130408
 31
0.0
  0
LINE
  5
35E
330
1F
100
AcDbEntity
  8
0
  6
Continuous
 62
     7
370
    25
100
AcDbLine
 10
6.0480107418
 20
-82.6669341637
 30
0.0
 11
6.0480107418
 21
-84.5719130408
 31
0.0
  0
LINE
  5
35F
330
1F
100
AcDbEntity
  8
0
  6
Continuous
 62
     7
370
    25
100
AcDbLine
 10
8.8900410406
 20
-84.5719130408
 30
0.0
 11
6.0480107418
 21
-82.6669341637
 31
0.0
  0
LINE
  5
360
330
1F
100
AcDbEntity
  8
0
  6
Continuous
 62
     7
370
    25
100
AcDbLine
 10
8.8900410406
 20
-81.0719130408
 30
0.0
 11
8.8900410406
 21
-84.5719130408
 31
0.0
  0
LINE
  5
361
330
1F
100
AcDbEntity
  8
0
  6
Continuous
 62
     7
370
    25
100
AcDbLine
 10
22.799970772
 20
-83.1022595653
 30
0.0
 11
22.799970772
 21
-84.0675783846
 31
0.0
  0
LINE
  5
362
330
1F
100
AcDbEntity
  8
0
  6
Continuous
 62
     7
370
    25
100
AcDbLine
 10
25.44158204
 20
-83.1022595653
 30
0.0
 11
22.799970772
 21
-83.1022595653
 31
0.0
  0
LINE
  5
363
330
1F
100
AcDbEntity
  8
0
  6
Continuous
 62
     7
370
    25
100
AcDbLine
 10
25.44158204
 20
-82.5878093001
 30
0.0
 11
25.44158204
 21
-83.1022595653
 31
0.0
  0
LINE
  5
364
330
1F
100
AcDbEntity
  8
0
  6
Continuous
 62
     7
370
    25
100
AcDbLine
 10
22.799970772
 20
-82.5878093001
 30
0.0
 11
25.44158204
 21
-82.5878093001
 31
0.0
  0
LINE
  5
365
330
1F
100
AcDbEntity
  8
0
  6
Continuous
 62
     7
370
    25
100
AcDbLine
 10
22.799970772
 20
-81.6224911865
 30
0.0
 11
22.799970772
 21
-82.5878093001
 31
0.0
  0
LINE
  5
366
330
1F
100
AcDbEntity
  8
0
  6
Continuous
 62
     7
370
    25
100
AcDbLine
 10
25.2318510887
 20
-81.6224911865
 30
0.0
 11
22.799970772
 21
-81.6224911865
 31
0.0
  0
LINE
  5
367
330
1F
100
AcDbEntity
  8
0
  6
Continuous
 62
     7
370
    25
100
AcDbLine
 10
25.676172298
 20
-81.1080783186
 30
0.0
 11
25.2318510887
 21
-81.6224911865
 31
0.0
  0
LINE
  5
368
330
1F
100
AcDbEntity
  8
0
  6
Continuous
 62
     7
370
    25
100
AcDbLine
 10
21.7513160154
 20
-81.1080783186
 30
0.0
 11
25.676172298
 21
-81.1080783186
 31
0.0
  0
LINE
  5
369
330
1F
100
AcDbEntity
  8
0
  6
Continuous
 62
     7
370
    25
100
AcDbLine
 10
21.7513160154
 20
-84.5819912525
 30
0.0
 11
21.7513160154
 21
-81.1080783186
 31
0.0
  0
LINE
  5
36A
330
1F
100
AcDbEntity
  8
0
  6
Continuous
 62
     7
370
    25
100
AcDbLine
 10
25.6662937736
 20
-84.5819912525
 30
0.0
 11
21.7513160154
 21
-84.5819912525
 31
0.0
  0
LINE
  5
36B
330
1F
100
AcDbEntity
  8
0
  6
Continuous
 62
     7
370
    25
100
AcDbLine
 10
25.2168703064
 20
-84.0675783846
 30
0.0
 11
25.6662937736
 21
-84.5819912525
 31
0.0
  0
LINE
  5
36C
330
1F
100
AcDbEntity
  8
0
  6
Continuous
 62
     7
370
    25
100
AcDbLine
 10
22.799970772
 20
-84.0675783846
 30
0.0
 11
25.2168703064
 21
-84.0675783846
 31
0.0
  0
LINE
  5
36D
330
1F
100
AcDbEntity
  8
0
  6
Continuous
 62
     7
370
    25
100
AcDbLine
 10
139.7
 20
114.3
 30
0.0
 11
-139.7
 21
114.3
 31
0.0
  0
LINE
  5
36E
330
1F
100
AcDbEntity
  8
0
  6
Continuous
 62
     7
370
    25
100
AcDbLine
 10
139.7
 20
-114.3
 30
0.0
 11
139.7
 21
114.3
 31
0.0
  0
LINE
  5
36F
330
1F
100
AcDbEntity
  8
0
  6
Continuous
 62
     7
370
    25
100
AcDbLine
 10
-139.7
 20
-114.3
 30
0.0
 11
139.7
 21
-114.3
 31
0.0
  0
LINE
  5
370
330
1F
100
AcDbEntity
  8
0
  6
Continuous
 62
     7
370
    25
100
AcDbLine
 10
-139.7
 20
114.3
 30
0.0
 11
-139.7
 21
-114.3
 31
0.0
  0
LINE
  5
371
330
1F
100
AcDbEntity
  8
0
  6
Continuous
 62
     7
370
    25
100
AcDbLine
 10
38.1
 20
-95.25
 30
0.0
 11
127.0
 21
-95.25
 31
0.0
  0
LINE
  5
372
330
1F
100
AcDbEntity
  8
0
  6
Continuous
 62
     7
370
    25
100
AcDbLine
 10
130.175
 20
-92.075
 30
0.0
 11
130.175
 21
88.9
 31
0.0
  0
LINE
  5
373
330
1F
100
AcDbEntity
  8
0
  6
Continuous
 62
     7
370
    25
100
AcDbLine
 10
127.0
 20
92.075
 30
0.0
 11
24.9544631342
 21
92.075
 31
0.0
  0
LINE
  5
374
330
1F
100
AcDbEntity
  8
0
  6
Continuous
 62
     7
370
    25
100
AcDbLine
 10
21.7794631342
 20
88.9
 30
0.0
 11
21.7794631342
 21
60.325
 31
0.0
  0
LINE
  5
375
330
1F
100
AcDbEntity
  8
0
  6
Continuous
 62
     7
370
    25
100
AcDbLine
 10
24.9544631342
 20
57.15
 30
0.0
 11
31.75
 21
57.15
 31
0.0
  0
LINE
  5
376
330
1F
100
AcDbEntity
  8
0
  6
Continuous
 62
     7
370
    25
100
AcDbLine
 10
34.925
 20
53.975
 30
0.0
 11
34.925
 21
-92.075
 31
0.0
  0
LINE
  5
377
330
1F
100
AcDbEntity
  8
0
  6
Continuous
 62
     7
370
    25
100
AcDbLine
 10
-122.951875
 20
88.9
 30
0.0
 11
-122.951875
 21
-88.9
 31
0.0
  0
LINE
  5
378
330
1F
100
AcDbEntity
  8
0
  6
Continuous
 62
     7
370
    25
100
AcDbLine
 10
-119.776875
 20
-92.075
 30
0.0
 11
-53.101875
 21
-92.075
 31
0.0
  0
LINE
  5
379
330
1F
100
AcDbEntity
  8
0
  6
Continuous
 62
     7
370
    25
100
AcDbLine
 10
-49.926875
 20
-88.9
 30
0.0
 11
-49.926875
 21
88.9
 31
0.0
  0
LINE
  5
37A
330
1F
100
AcDbEntity
  8
0
  6
Continuous
 62
     7
370
    25
100
AcDbLine
 10
-53.101875
 20
92.075
 30
0.0
 11
-119.776875
 21
92.075
 31
0.0
  0
LINE
  5
37B
330
1F
100
AcDbEntity
  8
0
  6
Continuous
 62
     7
370
    25
100
AcDbLine
 10
-39.1639533609
 20
-67.0487892296
 30
0.0
 11
-39.1639533609
 21
-70.03379494
 31
0.0
  0
LINE
  5
37C
330
1F
100
AcDbEntity
  8
0
  6
Continuous
 62
     7
370
    25
100
AcDbLine
 10
-40.2096791351
 20
-67.0487892296
 30
0.0
 11
-39.1639533609
 21
-67.0487892296
 31
0.0
  0
LINE
  5
37D
330
1F
100
AcDbEntity
  8
0
  6
Continuous
 62
     7
370
    25
100
AcDbLine
 10
-40.2096791351
 20
-70.5487892296
 30
0.0
 11
-40.2096791351
 21
-67.0487892296
 31
0.0
  0
LINE
  5
37E
330
1F
100
AcDbEntity
  8
0
  6
Continuous
 62
     7
370
    25
100
AcDbLine
 10
-37.2526268263
 20
-70.5487892296
 30
0.0
 11
-40.2096791351
 21
-70.5487892296
 31
0.0
  0
LINE
  5
37F
330
1F
100
AcDbEntity
  8
0
  6
Continuous
 62
     7
370
    25
100
AcDbLine
 10
-36.8021639972
 20
-70.03379494
 30
0.0
 11
-37.2526268263
 21
-70.5487892296
 31
0.0
  0
LINE
  5
380
330
1F
100
AcDbEntity
  8
0
  6
Continuous
 62
     7
370
    25
100
AcDbLine
 10
-39.1639533609
 20
-70.03379494
 30
0.0
 11
-36.8021639972
 21
-70.03379494
 31
0.0
  0
LINE
  5
381
330
1F
100
AcDbEntity
  8
0
  6
Continuous
 62
     7
370
    25
100
AcDbLine
 10
19.1019543394
 20
-81.0719130408
 30
0.0
 11
19.1019543394
 21
-84.0569187512
 31
0.0
  0
LINE
  5
382
330
1F
100
AcDbEntity
  8
0
  6
Continuous
 62
     7
370
    25
100
AcDbLine
 10
18.0562285652
 20
-81.0719130408
 30
0.0
 11
19.1019543394
 21
-81.0719130408
 31
0.0
  0
LINE
  5
383
330
1F
100
AcDbEntity
  8
0
  6
Continuous
 62
     7
370
    25
100
AcDbLine
 10
18.0562285652
 20
-84.5719130408
 30
0.0
 11
18.0562285652
 21
-81.0719130408
 31
0.0
  0
LINE
  5
384
330
1F
100
AcDbEntity
  8
0
  6
Continuous
 62
     7
370
    25
100
AcDbLine
 10
21.013280874
 20
-84.5719130408
 30
0.0
 11
18.0562285652
 21
-84.5719130408
 31
0.0
  0
LINE
  5
385
330
1F
100
AcDbEntity
  8
0
  6
Continuous
 62
     7
370
    25
100
AcDbLine
 10
21.4637437031
 20
-84.0569187512
 30
0.0
 11
21.013280874
 21
-84.5719130408
 31
0.0
  0
LINE
  5
386
330
1F
100
AcDbEntity
  8
0
  6
Continuous
 62
     7
370
    25
100
AcDbLine
 10
19.1019543394
 20
-84.0569187512
 30
0.0
 11
21.4637437031
 21
-84.0569187512
 31
0.0
  0
LINE
  5
387
330
1F
100
AcDbEntity
  8
0
  6
Continuous
 62
     7
370
    25
100
AcDbLine
 10
17.6718354242
 20
-81.0675777798
 30
0.0
 11
13.7094068797
 21
-81.0675777798
 31
0.0
  0
LINE
  5
388
330
1F
100
AcDbEntity
  8
0
  6
Continuous
 62
     7
370
    25
100
AcDbLine
 10
13.7094068797
 20
-81.0675777798
 30
0.0
 11
13.7094068797
 21
-83.6173935655
 31
0.0
  0
LINE
  5
389
330
1F
100
AcDbEntity
  8
0
  6
Continuous
 62
     7
370
    25
100
AcDbLine
 10
13.7094068797
 20
-83.6173935655
 30
0.0
 11
14.562756153
 21
-84.5762483018
 31
0.0
  0
LINE
  5
38A
330
1F
100
AcDbEntity
  8
0
  6
Continuous
 62
     7
370
    25
100
AcDbLine
 10
14.562756153
 20
-84.5762483018
 30
0.0
 11
17.6718354242
 21
-84.5762483018
 31
0.0
  0
LINE
  5
38B
330
1F
100
AcDbEntity
  8
0
  6
Continuous
 62
     7
370
    25
100
AcDbLine
 10
17.6718354242
 20
-84.5762483018
 30
0.0
 11
17.6718354242
 21
-81.0675777798
 31
0.0
  0
LINE
  5
38C
330
1F
100
AcDbEntity
  8
0
  6
Continuous
 62
     7
370
    25
100
AcDbLine
 10
10.3926810258
 20
-82.5878093001
 30
0.0
 11
13.2559854326
 21
-82.5878093001
 31
0.0
  0
LINE
  5
38D
330
1F
100
AcDbEntity
  8
0
  6
Continuous
 62
     7
370
    25
100
AcDbLine
 10
10.3926810258
 20
-81.8749298212
 30
0.0
 11
10.3926810258
 21
-82.5878093001
 31
0.0
  0
LINE
  5
38E
330
1F
100
AcDbEntity
  8
0
  6
Continuous
 62
     7
370
    25
100
AcDbLine
 10
10.6163766826
 20
-81.6224911865
 30
0.0
 11
10.3926810258
 21
-81.8749298212
 31
0.0
  0
LINE
  5
38F
330
1F
100
AcDbEntity
  8
0
  6
Continuous
 62
     7
370
    25
100
AcDbLine
 10
12.9378404985
 20
-81.6224911865
 30
0.0
 11
10.6163766826
 21
-81.6224911865
 31
0.0
  0
LINE
  5
390
330
1F
100
AcDbEntity
  8
0
  6
Continuous
 62
     7
370
    25
100
AcDbLine
 10
13.3755910779
 20
-81.1080783186
 30
0.0
 11
12.9378404985
 21
-81.6224911865
 31
0.0
  0
LINE
  5
391
330
1F
100
AcDbEntity
  8
0
  6
Continuous
 62
     7
370
    25
100
AcDbLine
 10
9.825985362
 20
-81.1080783186
 30
0.0
 11
13.3755910779
 21
-81.1080783186
 31
0.0
  0
LINE
  5
392
330
1F
100
AcDbEntity
  8
0
  6
Continuous
 62
     7
370
    25
100
AcDbLine
 10
9.3537389755
 20
-81.6620560879
 30
0.0
 11
9.825985362
 21
-81.1080783186
 31
0.0
  0
LINE
  5
393
330
1F
100
AcDbEntity
  8
0
  6
Continuous
 62
     7
370
    25
100
AcDbLine
 10
9.3537389755
 20
-83.1022595653
 30
0.0
 11
9.3537389755
 21
-81.6620560879
 31
0.0
  0
LINE
  5
394
330
1F
100
AcDbEntity
  8
0
  6
Continuous
 62
     7
370
    25
100
AcDbLine
 10
12.2021303384
 20
-83.1022595653
 30
0.0
 11
9.3537389755
 21
-83.1022595653
 31
0.0
  0
LINE
  5
395
330
1F
100
AcDbEntity
  8
0
  6
Continuous
 62
     7
370
    25
100
AcDbLine
 10
12.2021303384
 20
-83.8557969338
 30
0.0
 11
12.2021303384
 21
-83.1022595653
 31
0.0
  0
LINE
  5
396
330
1F
100
AcDbEntity
  8
0
  6
Continuous
 62
     7
370
    25
100
AcDbLine
 10
12.0182027984
 20
-84.0675783846
 30
0.0
 11
12.2021303384
 21
-83.8557969338
 31
0.0
  0
LINE
  5
397
330
1F
100
AcDbEntity
  8
0
  6
Continuous
 62
     7
370
    25
100
AcDbLine
 10
9.2195215814
 20
-84.0675783846
 30
0.0
 11
12.0182027984
 21
-84.0675783846
 31
0.0
  0
LINE
  5
398
330
1F
100
AcDbEntity
  8
0
  6
Continuous
 62
     7
370
    25
100
AcDbLine
 10
9.666912895
 20
-84.5819912525
 30
0.0
 11
9.2195215814
 21
-84.0675783846
 31
0.0
  0
LINE
  5
399
330
1F
100
AcDbEntity
  8
0
  6
Continuous
 62
     7
370
    25
100
AcDbLine
 10
12.8036231044
 20
-84.5819912525
 30
0.0
 11
9.666912895
 21
-84.5819912525
 31
0.0
  0
LINE
  5
39A
330
1F
100
AcDbEntity
  8
0
  6
Continuous
 62
     7
370
    25
100
AcDbLine
 10
13.2559854326
 20
-84.0528029345
 30
0.0
 11
12.8036231044
 21
-84.5819912525
 31
0.0
  0
LINE
  5
39B
330
1F
100
AcDbEntity
  8
0
  6
Continuous
 62
     7
370
    25
100
AcDbLine
 10
13.2559854326
 20
-82.5878093001
 30
0.0
 11
13.2559854326
 21
-84.0528029345
 31
0.0
  0
LINE
  5
39C
330
1F
100
AcDbEntity
  8
0
  6
Continuous
 62
     7
370
    25
100
AcDbLine
 10
-5.6541936812
 20
-82.963494522
 30
0.0
 11
-6.762928212
 21
-82.963494522
 31
0.0
  0
LINE
  5
39D
330
1F
100
AcDbEntity
  8
0
  6
Continuous
 62
     7
370
    25
100
AcDbLine
 10
-5.6541936812
 20
-81.1080783186
 30
0.0
 11
-5.6541936812
 21
-82.963494522
 31
0.0
  0
LINE
  5
39E
330
1F
100
AcDbEntity
  8
0
  6
Continuous
 62
     7
370
    25
100
AcDbLine
 10
-9.6427417498
 20
-81.1080783186
 30
0.0
 11
-5.6541936812
 21
-81.1080783186
 31
0.0
  0
LINE
  5
39F
330
1F
100
AcDbEntity
  8
0
  6
Continuous
 62
     7
370
    25
100
AcDbLine
 10
-9.6427417498
 20
-84.59663052
 30
0.0
 11
-9.6427417498
 21
-81.1080783186
 31
0.0
  0
LINE
  5
3A0
330
1F
100
AcDbEntity
  8
0
  6
Continuous
 62
     7
370
    25
100
AcDbLine
 10
-8.5839502159
 20
-84.59663052
 30
0.0
 11
-9.6427417498
 21
-84.59663052
 31
0.0
  0
LINE
  5
3A1
330
1F
100
AcDbEntity
  8
0
  6
Continuous
 62
     7
370
    25
100
AcDbLine
 10
-8.5839502159
 20
-81.6224911865
 30
0.0
 11
-8.5839502159
 21
-84.59663052
 31
0.0
  0
LINE
  5
3A2
330
1F
100
AcDbEntity
  8
0
  6
Continuous
 62
     7
370
    25
100
AcDbLine
 10
-6.683019417
 20
-81.6224911865
 30
0.0
 11
-8.5839502159
 21
-81.6224911865
 31
0.0
  0
LINE
  5
3A3
330
1F
100
AcDbEntity
  8
0
  6
Continuous
 62
     7
370
    25
100
AcDbLine
 10
-6.683019417
 20
-82.4490816541
 30
0.0
 11
-6.683019417
 21
-81.6224911865
 31
0.0
  0
LINE
  5
3A4
330
1F
100
AcDbEntity
  8
0
  6
Continuous
 62
     7
370
    25
100
AcDbLine
 10
-8.4510015066
 20
-82.4490816541
 30
0.0
 11
-6.683019417
 21
-82.4490816541
 31
0.0
  0
LINE
  5
3A5
330
1F
100
AcDbEntity
  8
0
  6
Continuous
 62
     7
370
    25
100
AcDbLine
 10
-6.5681505241
 20
-84.59663052
 30
0.0
 11
-8.4510015066
 21
-82.4490816541
 31
0.0
  0
LINE
  5
3A6
330
1F
100
AcDbEntity
  8
0
  6
Continuous
 62
     7
370
    25
100
AcDbLine
 10
-5.3345585012
 20
-84.59663052
 30
0.0
 11
-6.5681505241
 21
-84.59663052
 31
0.0
  0
LINE
  5
3A7
330
1F
100
AcDbEntity
  8
0
  6
Continuous
 62
     7
370
    25
100
AcDbLine
 10
-6.762928212
 20
-82.963494522
 30
0.0
 11
-5.3345585012
 21
-84.59663052
 31
0.0
  0
LINE
  5
3A8
330
1F
100
AcDbEntity
  8
0
  6
Continuous
 62
     7
370
    25
100
AcDbLine
 10
14.6198123931
 20
-70.5487892296
 30
0.0
 11
13.570678528
 21
-70.5487892296
 31
0.0
  0
LINE
  5
3A9
330
1F
100
AcDbEntity
  8
0
  6
Continuous
 62
     7
370
    25
100
AcDbLine
 10
14.6198123931
 20
-67.0487892296
 30
0.0
 11
14.6198123931
 21
-70.5487892296
 31
0.0
  0
LINE
  5
3AA
330
1F
100
AcDbEntity
  8
0
  6
Continuous
 62
     7
370
    25
100
AcDbLine
 10
13.570678528
 20
-67.0487892296
 30
0.0
 11
14.6198123931
 21
-67.0487892296
 31
0.0
  0
LINE
  5
3AB
330
1F
100
AcDbEntity
  8
0
  6
Continuous
 62
     7
370
    25
100
AcDbLine
 10
13.570678528
 20
-70.5487892296
 30
0.0
 11
13.570678528
 21
-67.0487892296
 31
0.0
  0
LINE
  5
3AC
330
1F
100
AcDbEntity
  8
0
  6
Continuous
 62
     7
370
    25
100
AcDbLine
 10
20.5198506976
 20
-68.564685489
 30
0.0
 11
23.3831551043
 21
-68.564685489
 31
0.0
  0
LINE
  5
3AD
330
1F
100
AcDbEntity
  8
0
  6
Continuous
 62
     7
370
    25
100
AcDbLine
 10
20.5198506976
 20
-67.85180601
 30
0.0
 11
20.5198506976
 21
-68.564685489
 31
0.0
  0
LINE
  5
3AE
330
1F
100
AcDbEntity
  8
0
  6
Continuous
 62
     7
370
    25
100
AcDbLine
 10
20.7435463543
 20
-67.5993673753
 30
0.0
 11
20.5198506976
 21
-67.85180601
 31
0.0
  0
LINE
  5
3AF
330
1F
100
AcDbEntity
  8
0
  6
Continuous
 62
     7
370
    25
100
AcDbLine
 10
23.0650101702
 20
-67.5993673753
 30
0.0
 11
20.7435463543
 21
-67.5993673753
 31
0.0
  0
LINE
  5
3B0
330
1F
100
AcDbEntity
  8
0
  6
Continuous
 62
     7
370
    25
100
AcDbLine
 10
23.5027607496
 20
-67.0849545074
 30
0.0
 11
23.0650101702
 21
-67.5993673753
 31
0.0
  0
LINE
  5
3B1
330
1F
100
AcDbEntity
  8
0
  6
Continuous
 62
     7
370
    25
100
AcDbLine
 10
19.9531550337
 20
-67.0849545074
 30
0.0
 11
23.5027607496
 21
-67.0849545074
 31
0.0
  0
LINE
  5
3B2
330
1F
100
AcDbEntity
  8
0
  6
Continuous
 62
     7
370
    25
100
AcDbLine
 10
19.4809086472
 20
-67.6389322767
 30
0.0
 11
19.9531550337
 21
-67.0849545074
 31
0.0
  0
LINE
  5
3B3
330
1F
100
AcDbEntity
  8
0
  6
Continuous
 62
     7
370
    25
100
AcDbLine
 10
19.4809086472
 20
-69.0791357541
 30
0.0
 11
19.4809086472
 21
-67.6389322767
 31
0.0
  0
LINE
  5
3B4
330
1F
100
AcDbEntity
  8
0
  6
Continuous
 62
     7
370
    25
100
AcDbLine
 10
22.3293000102
 20
-69.0791357541
 30
0.0
 11
19.4809086472
 21
-69.0791357541
 31
0.0
  0
LINE
  5
3B5
330
1F
100
AcDbEntity
  8
0
  6
Continuous
 62
     7
370
    25
100
AcDbLine
 10
22.3293000102
 20
-69.8326731227
 30
0.0
 11
22.3293000102
 21
-69.0791357541
 31
0.0
  0
LINE
  5
3B6
330
1F
100
AcDbEntity
  8
0
  6
Continuous
 62
     7
370
    25
100
AcDbLine
 10
22.1453724701
 20
-70.0444545734
 30
0.0
 11
22.3293000102
 21
-69.8326731227
 31
0.0
  0
LINE
  5
3B7
330
1F
100
AcDbEntity
  8
0
  6
Continuous
 62
     7
370
    25
100
AcDbLine
 10
19.3466912531
 20
-70.0444545734
 30
0.0
 11
22.1453724701
 21
-70.0444545734
 31
0.0
  0
LINE
  5
3B8
330
1F
100
AcDbEntity
  8
0
  6
Continuous
 62
     7
370
    25
100
AcDbLine
 10
19.7940825667
 20
-70.5588674413
 30
0.0
 11
19.3466912531
 21
-70.0444545734
 31
0.0
  0
LINE
  5
3B9
330
1F
100
AcDbEntity
  8
0
  6
Continuous
 62
     7
370
    25
100
AcDbLine
 10
22.9307927762
 20
-70.5588674413
 30
0.0
 11
19.7940825667
 21
-70.5588674413
 31
0.0
  0
LINE
  5
3BA
330
1F
100
AcDbEntity
  8
0
  6
Continuous
 62
     7
370
    25
100
AcDbLine
 10
23.3831551043
 20
-70.0296791234
 30
0.0
 11
22.9307927762
 21
-70.5588674413
 31
0.0
  0
LINE
  5
3BB
330
1F
100
AcDbEntity
  8
0
  6
Continuous
 62
     7
370
    25
100
AcDbLine
 10
23.3831551043
 20
-68.564685489
 30
0.0
 11
23.3831551043
 21
-70.0296791234
 31
0.0
  0
LINE
  5
3BC
330
1F
100
AcDbEntity
  8
0
  6
Continuous
 62
     7
370
    25
100
AcDbLine
 10
-32.1513088497
 20
-75.9519326164
 30
0.0
 11
-33.2600433805
 21
-75.9519326164
 31
0.0
  0
LINE
  5
3BD
330
1F
100
AcDbEntity
  8
0
  6
Continuous
 62
     7
370
    25
100
AcDbLine
 10
-32.1513088497
 20
-74.096516413
 30
0.0
 11
-32.1513088497
 21
-75.9519326164
 31
0.0
  0
LINE
  5
3BE
330
1F
100
AcDbEntity
  8
0
  6
Continuous
 62
     7
370
    25
100
AcDbLine
 10
-36.1398569183
 20
-74.096516413
 30
0.0
 11
-32.1513088497
 21
-74.096516413
 31
0.0
  0
LINE
  5
3BF
330
1F
100
AcDbEntity
  8
0
  6
Continuous
 62
     7
370
    25
100
AcDbLine
 10
-36.1398569183
 20
-77.5850686144
 30
0.0
 11
-36.1398569183
 21
-74.096516413
 31
0.0
  0
LINE
  5
3C0
330
1F
100
AcDbEntity
  8
0
  6
Continuous
 62
     7
370
    25
100
AcDbLine
 10
-35.0810653844
 20
-77.5850686144
 30
0.0
 11
-36.1398569183
 21
-77.5850686144
 31
0.0
  0
LINE
  5
3C1
330
1F
100
AcDbEntity
  8
0
  6
Continuous
 62
     7
370
    25
100
AcDbLine
 10
-35.0810653844
 20
-74.6109292809
 30
0.0
 11
-35.0810653844
 21
-77.5850686144
 31
0.0
  0
LINE
  5
3C2
330
1F
100
AcDbEntity
  8
0
  6
Continuous
 62
     7
370
    25
100
AcDbLine
 10
-33.1801345854
 20
-74.6109292809
 30
0.0
 11
-35.0810653844
 21
-74.6109292809
 31
0.0
  0
LINE
  5
3C3
330
1F
100
AcDbEntity
  8
0
  6
Continuous
 62
     7
370
    25
100
AcDbLine
 10
-33.1801345854
 20
-75.4375197485
 30
0.0
 11
-33.1801345854
 21
-74.6109292809
 31
0.0
  0
LINE
  5
3C4
330
1F
100
AcDbEntity
  8
0
  6
Continuous
 62
     7
370
    25
100
AcDbLine
 10
-34.9481166751
 20
-75.4375197485
 30
0.0
 11
-33.1801345854
 21
-75.4375197485
 31
0.0
  0
LINE
  5
3C5
330
1F
100
AcDbEntity
  8
0
  6
Continuous
 62
     7
370
    25
100
AcDbLine
 10
-33.0652656926
 20
-77.5850686144
 30
0.0
 11
-34.9481166751
 21
-75.4375197485
 31
0.0
  0
LINE
  5
3C6
330
1F
100
AcDbEntity
  8
0
  6
Continuous
 62
     7
370
    25
100
AcDbLine
 10
-31.8316736696
 20
-77.5850686144
 30
0.0
 11
-33.0652656926
 21
-77.5850686144
 31
0.0
  0
LINE
  5
3C7
330
1F
100
AcDbEntity
  8
0
  6
Continuous
 62
     7
370
    25
100
AcDbLine
 10
-33.2600433805
 20
-75.9519326164
 30
0.0
 11
-31.8316736696
 21
-77.5850686144
 31
0.0
  0
LINE
  5
3C8
330
1F
100
AcDbEntity
  8
0
  6
Continuous
 62
     7
370
    25
100
AcDbLine
 10
-8.1649526039
 20
-70.5723939636
 30
0.0
 11
-8.1649526039
 21
-67.0849545074
 31
0.0
  0
LINE
  5
3C9
330
1F
100
AcDbEntity
  8
0
  6
Continuous
 62
     7
370
    25
100
AcDbLine
 10
-7.0961724706
 20
-70.5723939636
 30
0.0
 11
-8.1649526039
 21
-70.5723939636
 31
0.0
  0
LINE
  5
3CA
330
1F
100
AcDbEntity
  8
0
  6
Continuous
 62
     7
370
    25
100
AcDbLine
 10
-7.0961724706
 20
-69.0840926565
 30
0.0
 11
-7.0961724706
 21
-70.5723939636
 31
0.0
  0
LINE
  5
3CB
330
1F
100
AcDbEntity
  8
0
  6
Continuous
 62
     7
370
    25
100
AcDbLine
 10
-5.248281586
 20
-69.0840926565
 30
0.0
 11
-7.0961724706
 21
-69.0840926565
 31
0.0
  0
LINE
  5
3CC
330
1F
100
AcDbEntity
  8
0
  6
Continuous
 62
     7
370
    25
100
AcDbLine
 10
-5.248281586
 20
-70.5723939636
 30
0.0
 11
-5.248281586
 21
-69.0840926565
 31
0.0
  0
LINE
  5
3CD
330
1F
100
AcDbEntity
  8
0
  6
Continuous
 62
     7
370
    25
100
AcDbLine
 10
-4.1994786514
 20
-70.5723939636
 30
0.0
 11
-5.248281586
 21
-70.5723939636
 31
0.0
  0
LINE
  5
3CE
330
1F
100
AcDbEntity
  8
0
  6
Continuous
 62
     7
370
    25
100
AcDbLine
 10
-4.1994786514
 20
-67.0849545074
 30
0.0
 11
-4.1994786514
 21
-70.5723939636
 31
0.0
  0
LINE
  5
3CF
330
1F
100
AcDbEntity
  8
0
  6
Continuous
 62
     7
370
    25
100
AcDbLine
 10
-8.1649526039
 20
-67.0849545074
 30
0.0
 11
-4.1994786514
 21
-67.0849545074
 31
0.0
  0
LINE
  5
3D0
330
1F
100
AcDbEntity
  8
0
  6
Continuous
 62
     7
370
    25
100
AcDbLine
 10
-16.039154031
 20
-70.5531251962
 30
0.0
 11
-16.039154031
 21
-68.9050062991
 31
0.0
  0
LINE
  5
3D1
330
1F
100
AcDbEntity
  8
0
  6
Continuous
 62
     7
370
    25
100
AcDbLine
 10
-16.039154031
 20
-68.9050062991
 30
0.0
 11
-14.4010237333
 21
-67.0571154144
 31
0.0
  0
LINE
  5
3D2
330
1F
100
AcDbEntity
  8
0
  6
Continuous
 62
     7
370
    25
100
AcDbLine
 10
-14.4010237333
 20
-67.0571154144
 30
0.0
 11
-15.6096442578
 21
-67.0571154144
 31
0.0
  0
LINE
  5
3D3
330
1F
100
AcDbEntity
  8
0
  6
Continuous
 62
     7
370
    25
100
AcDbLine
 10
-15.6096442578
 20
-67.0571154144
 30
0.0
 11
-16.5637375454
 21
-68.1358841471
 31
0.0
  0
LINE
  5
3D4
330
1F
100
AcDbEntity
  8
0
  6
Continuous
 62
     7
370
    25
100
AcDbLine
 10
-16.5637375454
 20
-68.1358841471
 30
0.0
 11
-17.5177969637
 21
-67.0571154144
 31
0.0
  0
LINE
  5
3D5
330
1F
100
AcDbEntity
  8
0
  6
Continuous
 62
     7
370
    25
100
AcDbLine
 10
-17.5177969637
 20
-67.0571154144
 30
0.0
 11
-18.7264174882
 21
-67.0571154144
 31
0.0
  0
LINE
  5
3D6
330
1F
100
AcDbEntity
  8
0
  6
Continuous
 62
     7
370
    25
100
AcDbLine
 10
-18.7264174882
 20
-67.0571154144
 30
0.0
 11
-17.0882871905
 21
-68.9050062991
 31
0.0
  0
LINE
  5
3D7
330
1F
100
AcDbEntity
  8
0
  6
Continuous
 62
     7
370
    25
100
AcDbLine
 10
-17.0882871905
 20
-68.9050062991
 30
0.0
 11
-17.0882871905
 21
-70.5531251962
 31
0.0
  0
LINE
  5
3D8
330
1F
100
AcDbEntity
  8
0
  6
Continuous
 62
     7
370
    25
100
AcDbLine
 10
-17.0882871905
 20
-70.5531251962
 30
0.0
 11
-16.039154031
 21
-70.5531251962
 31
0.0
  0
LINE
  5
3D9
330
1F
100
AcDbEntity
  8
0
  6
Continuous
 62
     7
370
    25
100
AcDbLine
 10
-21.175510428
 20
-67.0487892296
 30
0.0
 11
-21.175510428
 21
-70.03379494
 31
0.0
  0
LINE
  5
3DA
330
1F
100
AcDbEntity
  8
0
  6
Continuous
 62
     7
370
    25
100
AcDbLine
 10
-22.2212362022
 20
-67.0487892296
 30
0.0
 11
-21.175510428
 21
-67.0487892296
 31
0.0
  0
LINE
  5
3DB
330
1F
100
AcDbEntity
  8
0
  6
Continuous
 62
     7
370
    25
100
AcDbLine
 10
-22.2212362022
 20
-70.5487892296
 30
0.0
 11
-22.2212362022
 21
-67.0487892296
 31
0.0
  0
LINE
  5
3DC
330
1F
100
AcDbEntity
  8
0
  6
Continuous
 62
     7
370
    25
100
AcDbLine
 10
-19.2641838934
 20
-70.5487892296
 30
0.0
 11
-22.2212362022
 21
-70.5487892296
 31
0.0
  0
LINE
  5
3DD
330
1F
100
AcDbEntity
  8
0
  6
Continuous
 62
     7
370
    25
100
AcDbLine
 10
-18.8137210644
 20
-70.03379494
 30
0.0
 11
-19.2641838934
 21
-70.5487892296
 31
0.0
  0
LINE
  5
3DE
330
1F
100
AcDbEntity
  8
0
  6
Continuous
 62
     7
370
    25
100
AcDbLine
 10
-21.175510428
 20
-70.03379494
 30
0.0
 11
-18.8137210644
 21
-70.03379494
 31
0.0
  0
LINE
  5
3DF
330
1F
100
AcDbEntity
  8
0
  6
Continuous
 62
     7
370
    25
100
AcDbLine
 10
-22.6056293433
 20
-67.0444539686
 30
0.0
 11
-26.5680578878
 21
-67.0444539686
 31
0.0
  0
LINE
  5
3E0
330
1F
100
AcDbEntity
  8
0
  6
Continuous
 62
     7
370
    25
100
AcDbLine
 10
-26.5680578878
 20
-67.0444539686
 30
0.0
 11
-26.5680578878
 21
-69.5942697543
 31
0.0
  0
LINE
  5
3E1
330
1F
100
AcDbEntity
  8
0
  6
Continuous
 62
     7
370
    25
100
AcDbLine
 10
-26.5680578878
 20
-69.5942697543
 30
0.0
 11
-25.7147086144
 21
-70.5531244906
 31
0.0
  0
LINE
  5
3E2
330
1F
100
AcDbEntity
  8
0
  6
Continuous
 62
     7
370
    25
100
AcDbLine
 10
-25.7147086144
 20
-70.5531244906
 30
0.0
 11
-22.6056293433
 21
-70.5531244906
 31
0.0
  0
LINE
  5
3E3
330
1F
100
AcDbEntity
  8
0
  6
Continuous
 62
     7
370
    25
100
AcDbLine
 10
-22.6056293433
 20
-70.5531244906
 30
0.0
 11
-22.6056293433
 21
-67.0444539686
 31
0.0
  0
LINE
  5
3E4
330
1F
100
AcDbEntity
  8
0
  6
Continuous
 62
     7
370
    25
100
AcDbLine
 10
-26.952131388
 20
-67.0430469845
 30
0.0
 11
-26.952131388
 21
-69.3059770153
 31
0.0
  0
LINE
  5
3E5
330
1F
100
AcDbEntity
  8
0
  6
Continuous
 62
     7
370
    25
100
AcDbLine
 10
-30.8227136464
 20
-67.0430469845
 30
0.0
 11
-26.952131388
 21
-67.0430469845
 31
0.0
  0
LINE
  5
3E6
330
1F
100
AcDbEntity
  8
0
  6
Continuous
 62
     7
370
    25
100
AcDbLine
 10
-30.8227136464
 20
-70.544563338
 30
0.0
 11
-30.8227136464
 21
-67.0430469845
 31
0.0
  0
LINE
  5
3E7
330
1F
100
AcDbEntity
  8
0
  6
Continuous
 62
     7
370
    25
100
AcDbLine
 10
-29.7739107119
 20
-70.544563338
 30
0.0
 11
-30.8227136464
 21
-70.544563338
 31
0.0
  0
LINE
  5
3E8
330
1F
100
AcDbEntity
  8
0
  6
Continuous
 62
     7
370
    25
100
AcDbLine
 10
-29.7739107119
 20
-69.3059770153
 30
0.0
 11
-29.7739107119
 21
-70.544563338
 31
0.0
  0
LINE
  5
3E9
330
1F
100
AcDbEntity
  8
0
  6
Continuous
 62
     7
370
    25
100
AcDbLine
 10
-26.952131388
 20
-69.3059770153
 30
0.0
 11
-29.7739107119
 21
-69.3059770153
 31
0.0
  0
LINE
  5
3EA
330
1F
100
AcDbEntity
  8
0
  6
Continuous
 62
     7
370
    25
100
AcDbLine
 10
-30.564201836
 20
-83.1022595653
 30
0.0
 11
-30.564201836
 21
-84.0675783846
 31
0.0
  0
LINE
  5
3EB
330
1F
100
AcDbEntity
  8
0
  6
Continuous
 62
     7
370
    25
100
AcDbLine
 10
-27.9225905681
 20
-83.1022595653
 30
0.0
 11
-30.564201836
 21
-83.1022595653
 31
0.0
  0
LINE
  5
3EC
330
1F
100
AcDbEntity
  8
0
  6
Continuous
 62
     7
370
    25
100
AcDbLine
 10
-27.9225905681
 20
-82.5878093001
 30
0.0
 11
-27.9225905681
 21
-83.1022595653
 31
0.0
  0
LINE
  5
3ED
330
1F
100
AcDbEntity
  8
0
  6
Continuous
 62
     7
370
    25
100
AcDbLine
 10
-30.564201836
 20
-82.5878093001
 30
0.0
 11
-27.9225905681
 21
-82.5878093001
 31
0.0
  0
LINE
  5
3EE
330
1F
100
AcDbEntity
  8
0
  6
Continuous
 62
     7
370
    25
100
AcDbLine
 10
-30.564201836
 20
-81.6224911865
 30
0.0
 11
-30.564201836
 21
-82.5878093001
 31
0.0
  0
LINE
  5
3EF
330
1F
100
AcDbEntity
  8
0
  6
Continuous
 62
     7
370
    25
100
AcDbLine
 10
-28.1323215194
 20
-81.6224911865
 30
0.0
 11
-30.564201836
 21
-81.6224911865
 31
0.0
  0
LINE
  5
3F0
330
1F
100
AcDbEntity
  8
0
  6
Continuous
 62
     7
370
    25
100
AcDbLine
 10
-27.6880003101
 20
-81.1080783186
 30
0.0
 11
-28.1323215194
 21
-81.6224911865
 31
0.0
  0
LINE
  5
3F1
330
1F
100
AcDbEntity
  8
0
  6
Continuous
 62
     7
370
    25
100
AcDbLine
 10
-31.6128565927
 20
-81.1080783186
 30
0.0
 11
-27.6880003101
 21
-81.1080783186
 31
0.0
  0
LINE
  5
3F2
330
1F
100
AcDbEntity
  8
0
  6
Continuous
 62
     7
370
    25
100
AcDbLine
 10
-31.6128565927
 20
-84.5819912525
 30
0.0
 11
-31.6128565927
 21
-81.1080783186
 31
0.0
  0
LINE
  5
3F3
330
1F
100
AcDbEntity
  8
0
  6
Continuous
 62
     7
370
    25
100
AcDbLine
 10
-27.6978788345
 20
-84.5819912525
 30
0.0
 11
-31.6128565927
 21
-84.5819912525
 31
0.0
  0
LINE
  5
3F4
330
1F
100
AcDbEntity
  8
0
  6
Continuous
 62
     7
370
    25
100
AcDbLine
 10
-28.1473023016
 20
-84.0675783846
 30
0.0
 11
-27.6978788345
 21
-84.5819912525
 31
0.0
  0
LINE
  5
3F5
330
1F
100
AcDbEntity
  8
0
  6
Continuous
 62
     7
370
    25
100
AcDbLine
 10
-30.564201836
 20
-84.0675783846
 30
0.0
 11
-28.1473023016
 21
-84.0675783846
 31
0.0
  0
LINE
  5
3F6
330
1F
100
AcDbEntity
  8
0
  6
Continuous
 62
     7
370
    25
100
AcDbLine
 10
-23.4114226946
 20
-82.963494522
 30
0.0
 11
-24.5201572254
 21
-82.963494522
 31
0.0
  0
LINE
  5
3F7
330
1F
100
AcDbEntity
  8
0
  6
Continuous
 62
     7
370
    25
100
AcDbLine
 10
-23.4114226946
 20
-81.1080783186
 30
0.0
 11
-23.4114226946
 21
-82.963494522
 31
0.0
  0
LINE
  5
3F8
330
1F
100
AcDbEntity
  8
0
  6
Continuous
 62
     7
370
    25
100
AcDbLine
 10
-27.3999707632
 20
-81.1080783186
 30
0.0
 11
-23.4114226946
 21
-81.1080783186
 31
0.0
  0
LINE
  5
3F9
330
1F
100
AcDbEntity
  8
0
  6
Continuous
 62
     7
370
    25
100
AcDbLine
 10
-27.3999707632
 20
-84.59663052
 30
0.0
 11
-27.3999707632
 21
-81.1080783186
 31
0.0
  0
LINE
  5
3FA
330
1F
100
AcDbEntity
  8
0
  6
Continuous
 62
     7
370
    25
100
AcDbLine
 10
-26.3411792293
 20
-84.59663052
 30
0.0
 11
-27.3999707632
 21
-84.59663052
 31
0.0
  0
LINE
  5
3FB
330
1F
100
AcDbEntity
  8
0
  6
Continuous
 62
     7
370
    25
100
AcDbLine
 10
-26.3411792293
 20
-81.6224911865
 30
0.0
 11
-26.3411792293
 21
-84.59663052
 31
0.0
  0
LINE
  5
3FC
330
1F
100
AcDbEntity
  8
0
  6
Continuous
 62
     7
370
    25
100
AcDbLine
 10
-24.4402484304
 20
-81.6224911865
 30
0.0
 11
-26.3411792293
 21
-81.6224911865
 31
0.0
  0
LINE
  5
3FD
330
1F
100
AcDbEntity
  8
0
  6
Continuous
 62
     7
370
    25
100
AcDbLine
 10
-24.4402484304
 20
-82.4490816541
 30
0.0
 11
-24.4402484304
 21
-81.6224911865
 31
0.0
  0
LINE
  5
3FE
330
1F
100
AcDbEntity
  8
0
  6
Continuous
 62
     7
370
    25
100
AcDbLine
 10
-26.20823052
 20
-82.4490816541
 30
0.0
 11
-24.4402484304
 21
-82.4490816541
 31
0.0
  0
LINE
  5
3FF
330
1F
100
AcDbEntity
  8
0
  6
Continuous
 62
     7
370
    25
100
AcDbLine
 10
-24.3253795376
 20
-84.59663052
 30
0.0
 11
-26.20823052
 21
-82.4490816541
 31
0.0
  0
LINE
  5
400
330
1F
100
AcDbEntity
  8
0
  6
Continuous
 62
     7
370
    25
100
AcDbLine
 10
-23.0917875146
 20
-84.59663052
 30
0.0
 11
-24.3253795376
 21
-84.59663052
 31
0.0
  0
LINE
  5
401
330
1F
100
AcDbEntity
  8
0
  6
Continuous
 62
     7
370
    25
100
AcDbLine
 10
-24.5201572254
 20
-82.963494522
 30
0.0
 11
-23.0917875146
 21
-84.59663052
 31
0.0
  0
LINE
  5
402
330
1F
100
AcDbEntity
  8
0
  6
Continuous
 62
     7
370
    25
100
AcDbLine
 10
-18.711119182
 20
-81.0719130408
 30
0.0
 11
-14.1851081201
 21
-81.0719130408
 31
0.0
  0
LINE
  5
403
330
1F
100
AcDbEntity
  8
0
  6
Continuous
 62
     7
370
    25
100
AcDbLine
 10
-18.2675056984
 20
-81.5869461389
 30
0.0
 11
-18.711119182
 21
-81.0719130408
 31
0.0
  0
LINE
  5
404
330
1F
100
AcDbEntity
  8
0
  6
Continuous
 62
     7
370
    25
100
AcDbLine
 10
-16.9615873535
 20
-81.5869461389
 30
0.0
 11
-18.2675056984
 21
-81.5869461389
 31
0.0
  0
LINE
  5
405
330
1F
100
AcDbEntity
  8
0
  6
Continuous
 62
     7
370
    25
100
AcDbLine
 10
-16.9615873535
 20
-84.5719130408
 30
0.0
 11
-16.9615873535
 21
-81.5869461389
 31
0.0
  0
LINE
  5
406
330
1F
100
AcDbEntity
  8
0
  6
Continuous
 62
     7
370
    25
100
AcDbLine
 10
-15.9198433303
 20
-84.5719130408
 30
0.0
 11
-16.9615873535
 21
-84.5719130408
 31
0.0
  0
LINE
  5
407
330
1F
100
AcDbEntity
  8
0
  6
Continuous
 62
     7
370
    25
100
AcDbLine
 10
-15.9198433303
 20
-81.5869461389
 30
0.0
 11
-15.9198433303
 21
-84.5719130408
 31
0.0
  0
LINE
  5
408
330
1F
100
AcDbEntity
  8
0
  6
Continuous
 62
     7
370
    25
100
AcDbLine
 10
-14.6288782488
 20
-81.5869461389
 30
0.0
 11
-15.9198433303
 21
-81.5869461389
 31
0.0
  0
LINE
  5
409
330
1F
100
AcDbEntity
  8
0
  6
Continuous
 62
     7
370
    25
100
AcDbLine
 10
-14.1851081201
 20
-81.0719130408
 30
0.0
 11
-14.6288782488
 21
-81.5869461389
 31
0.0
  0
LINE
  5
40A
330
1F
100
AcDbEntity
  8
0
  6
Continuous
 62
     7
370
    25
100
AcDbLine
 10
-10.0275921254
 20
-81.0675777798
 30
0.0
 11
-13.9900206699
 21
-81.0675777798
 31
0.0
  0
LINE
  5
40B
330
1F
100
AcDbEntity
  8
0
  6
Continuous
 62
     7
370
    25
100
AcDbLine
 10
-13.9900206699
 20
-81.0675777798
 30
0.0
 11
-13.9900206699
 21
-83.6173935655
 31
0.0
  0
LINE
  5
40C
330
1F
100
AcDbEntity
  8
0
  6
Continuous
 62
     7
370
    25
100
AcDbLine
 10
-13.9900206699
 20
-83.6173935655
 30
0.0
 11
-13.1366713966
 21
-84.5762483018
 31
0.0
  0
LINE
  5
40D
330
1F
100
AcDbEntity
  8
0
  6
Continuous
 62
     7
370
    25
100
AcDbLine
 10
-13.1366713966
 20
-84.5762483018
 30
0.0
 11
-10.0275921254
 21
-84.5762483018
 31
0.0
  0
LINE
  5
40E
330
1F
100
AcDbEntity
  8
0
  6
Continuous
 62
     7
370
    25
100
AcDbLine
 10
-10.0275921254
 20
-84.5762483018
 30
0.0
 11
-10.0275921254
 21
-81.0675777798
 31
0.0
  0
LINE
  5
40F
330
1F
100
AcDbEntity
  8
0
  6
Continuous
 62
     7
370
    25
100
AcDbLine
 10
5.4218329545
 20
-77.5646871018
 30
0.0
 11
5.4218329545
 21
-74.0667121993
 31
0.0
  0
LINE
  5
410
330
1F
100
AcDbEntity
  8
0
  6
Continuous
 62
     7
370
    25
100
AcDbLine
 10
5.4218329545
 20
-74.0667121993
 30
0.0
 11
4.4102713513
 21
-74.0667121993
 31
0.0
  0
LINE
  5
411
330
1F
100
AcDbEntity
  8
0
  6
Continuous
 62
     7
370
    25
100
AcDbLine
 10
4.4102713513
 20
-74.0667121993
 30
0.0
 11
4.4102713513
 21
-76.0444548758
 31
0.0
  0
LINE
  5
412
330
1F
100
AcDbEntity
  8
0
  6
Continuous
 62
     7
370
    25
100
AcDbLine
 10
4.4102713513
 20
-76.0444548758
 30
0.0
 11
2.6935094107
 21
-76.0444548758
 31
0.0
  0
LINE
  5
413
330
1F
100
AcDbEntity
  8
0
  6
Continuous
 62
     7
370
    25
100
AcDbLine
 10
2.6935094107
 20
-76.0444548758
 30
0.0
 11
2.6935094107
 21
-74.0667121993
 31
0.0
  0
LINE
  5
414
330
1F
100
AcDbEntity
  8
0
  6
Continuous
 62
     7
370
    25
100
AcDbLine
 10
2.6935094107
 20
-74.0667121993
 30
0.0
 11
1.6819478075
 21
-74.0667121993
 31
0.0
  0
LINE
  5
415
330
1F
100
AcDbEntity
  8
0
  6
Continuous
 62
     7
370
    25
100
AcDbLine
 10
1.6819478075
 20
-74.0667121993
 30
0.0
 11
1.6819478075
 21
-76.5473458562
 31
0.0
  0
LINE
  5
416
330
1F
100
AcDbEntity
  8
0
  6
Continuous
 62
     7
370
    25
100
AcDbLine
 10
1.6819478075
 20
-76.5473458562
 30
0.0
 11
4.4102713513
 21
-76.5473458562
 31
0.0
  0
LINE
  5
417
330
1F
100
AcDbEntity
  8
0
  6
Continuous
 62
     7
370
    25
100
AcDbLine
 10
4.4102713513
 20
-76.5473458562
 30
0.0
 11
4.4102713513
 21
-77.5646871018
 31
0.0
  0
LINE
  5
418
330
1F
100
AcDbEntity
  8
0
  6
Continuous
 62
     7
370
    25
100
AcDbLine
 10
4.4102713513
 20
-77.5646871018
 30
0.0
 11
5.4218329545
 21
-77.5646871018
 31
0.0
  0
LINE
  5
419
330
1F
100
AcDbEntity
  8
0
  6
Continuous
 62
     7
370
    25
100
AcDbLine
 10
-17.1360526784
 20
-77.5839558692
 30
0.0
 11
-17.1360526784
 21
-74.096516413
 31
0.0
  0
LINE
  5
41A
330
1F
100
AcDbEntity
  8
0
  6
Continuous
 62
     7
370
    25
100
AcDbLine
 10
-16.0672725451
 20
-77.5839558692
 30
0.0
 11
-17.1360526784
 21
-77.5839558692
 31
0.0
  0
LINE
  5
41B
330
1F
100
AcDbEntity
  8
0
  6
Continuous
 62
     7
370
    25
100
AcDbLine
 10
-16.0672725451
 20
-76.0956545621
 30
0.0
 11
-16.0672725451
 21
-77.5839558692
 31
0.0
  0
LINE
  5
41C
330
1F
100
AcDbEntity
  8
0
  6
Continuous
 62
     7
370
    25
100
AcDbLine
 10
-14.2193816604
 20
-76.0956545621
 30
0.0
 11
-16.0672725451
 21
-76.0956545621
 31
0.0
  0
LINE
  5
41D
330
1F
100
AcDbEntity
  8
0
  6
Continuous
 62
     7
370
    25
100
AcDbLine
 10
-14.2193816604
 20
-77.5839558692
 30
0.0
 11
-14.2193816604
 21
-76.0956545621
 31
0.0
  0
LINE
  5
41E
330
1F
100
AcDbEntity
  8
0
  6
Continuous
 62
     7
370
    25
100
AcDbLine
 10
-13.1705787259
 20
-77.5839558692
 30
0.0
 11
-14.2193816604
 21
-77.5839558692
 31
0.0
  0
LINE
  5
41F
330
1F
100
AcDbEntity
  8
0
  6
Continuous
 62
     7
370
    25
100
AcDbLine
 10
-13.1705787259
 20
-74.096516413
 30
0.0
 11
-13.1705787259
 21
-77.5839558692
 31
0.0
  0
LINE
  5
420
330
1F
100
AcDbEntity
  8
0
  6
Continuous
 62
     7
370
    25
100
AcDbLine
 10
-17.1360526784
 20
-74.096516413
 30
0.0
 11
-13.1705787259
 21
-74.096516413
 31
0.0
  0
LINE
  5
421
330
1F
100
AcDbEntity
  8
0
  6
Continuous
 62
     7
370
    25
100
AcDbLine
 10
-26.0637218204
 20
-74.0603511352
 30
0.0
 11
-21.5377107584
 21
-74.0603511352
 31
0.0
  0
LINE
  5
422
330
1F
100
AcDbEntity
  8
0
  6
Continuous
 62
     7
370
    25
100
AcDbLine
 10
-25.6201083368
 20
-74.5753842333
 30
0.0
 11
-26.0637218204
 21
-74.0603511352
 31
0.0
  0
LINE
  5
423
330
1F
100
AcDbEntity
  8
0
  6
Continuous
 62
     7
370
    25
100
AcDbLine
 10
-24.3141899919
 20
-74.5753842333
 30
0.0
 11
-25.6201083368
 21
-74.5753842333
 31
0.0
  0
LINE
  5
424
330
1F
100
AcDbEntity
  8
0
  6
Continuous
 62
     7
370
    25
100
AcDbLine
 10
-24.3141899919
 20
-77.5603511352
 30
0.0
 11
-24.3141899919
 21
-74.5753842333
 31
0.0
  0
LINE
  5
425
330
1F
100
AcDbEntity
  8
0
  6
Continuous
 62
     7
370
    25
100
AcDbLine
 10
-23.2724459686
 20
-77.5603511352
 30
0.0
 11
-24.3141899919
 21
-77.5603511352
 31
0.0
  0
LINE
  5
426
330
1F
100
AcDbEntity
  8
0
  6
Continuous
 62
     7
370
    25
100
AcDbLine
 10
-23.2724459686
 20
-74.5753842333
 30
0.0
 11
-23.2724459686
 21
-77.5603511352
 31
0.0
  0
LINE
  5
427
330
1F
100
AcDbEntity
  8
0
  6
Continuous
 62
     7
370
    25
100
AcDbLine
 10
-21.9814808872
 20
-74.5753842333
 30
0.0
 11
-23.2724459686
 21
-74.5753842333
 31
0.0
  0
LINE
  5
428
330
1F
100
AcDbEntity
  8
0
  6
Continuous
 62
     7
370
    25
100
AcDbLine
 10
-21.5377107584
 20
-74.0603511352
 30
0.0
 11
-21.9814808872
 21
-74.5753842333
 31
0.0
  0
LINE
  5
429
330
1F
100
AcDbEntity
  8
0
  6
Continuous
 62
     7
370
    25
100
AcDbLine
 10
21.8678125
 20
12.3428125
 30
0.0
 11
21.8678125
 21
40.9178125
 31
0.0
  0
LINE
  5
42A
330
1F
100
AcDbEntity
  8
0
  6
Continuous
 62
     7
370
    25
100
AcDbLine
 10
18.6928125
 20
44.0928125
 30
0.0
 11
-33.6946875
 21
44.0928125
 31
0.0
  0
LINE
  5
42B
330
1F
100
AcDbEntity
  8
0
  6
Continuous
 62
     7
370
    25
100
AcDbLine
 10
-36.8696875
 20
40.9178125
 30
0.0
 11
-36.8696875
 21
12.3428125
 31
0.0
  0
LINE
  5
42C
330
1F
100
AcDbEntity
  8
0
  6
Continuous
 62
     7
370
    25
100
AcDbLine
 10
-33.6946875
 20
9.1678125
 30
0.0
 11
18.6928125
 21
9.1678125
 31
0.0
  0
LINE
  5
42D
330
1F
100
AcDbEntity
  8
0
  6
Continuous
 62
     7
370
    25
100
AcDbLine
 10
-116.601875
 20
-88.9
 30
0.0
 11
-56.276875
 21
-88.9
 31
0.0
  0
LINE
  5
42E
330
1F
100
AcDbEntity
  8
0
  6
Continuous
 62
     7
370
    25
100
AcDbLine
 10
-119.776875
 20
85.725
 30
0.0
 11
-119.776875
 21
-85.725
 31
0.0
  0
LINE
  5
42F
330
1F
100
AcDbEntity
  8
0
  6
Continuous
 62
     7
370
    25
100
AcDbLine
 10
-56.276875
 20
88.9
 30
0.0
 11
-116.601875
 21
88.9
 31
0.0
  0
LINE
  5
430
330
1F
100
AcDbEntity
  8
0
  6
Continuous
 62
     7
370
    25
100
AcDbLine
 10
-53.101875
 20
-85.725
 30
0.0
 11
-53.101875
 21
85.725
 31
0.0
  0
LINE
  5
431
330
1F
100
AcDbEntity
  8
0
  6
Continuous
 62
     7
370
    25
100
AcDbLine
 10
127.0
 20
-88.9
 30
0.0
 11
127.0
 21
53.975
 31
0.0
  0
LINE
  5
432
330
1F
100
AcDbEntity
  8
0
  6
Continuous
 62
     7
370
    25
100
AcDbLine
 10
41.275
 20
-92.075
 30
0.0
 11
123.825
 21
-92.075
 31
0.0
  0
LINE
  5
433
330
1F
100
AcDbEntity
  8
0
  6
Continuous
 62
     7
370
    25
100
AcDbLine
 10
38.1
 20
53.975
 30
0.0
 11
38.1
 21
-88.9
 31
0.0
  0
LINE
  5
434
330
1F
100
AcDbEntity
  8
0
  6
Continuous
 62
     7
370
    25
100
AcDbLine
 10
123.825
 20
57.15
 30
0.0
 11
41.275
 21
57.15
 31
0.0
  0
LINE
  5
435
330
1F
100
AcDbEntity
  8
0
  6
Continuous
 62
     7
370
    25
100
AcDbLine
 10
1.4318299204
 20
-67.556886898
 30
0.0
 11
1.4318299204
 21
-68.3759520468
 31
0.0
  0
LINE
  5
436
330
1F
100
AcDbEntity
  8
0
  6
Continuous
 62
     7
370
    25
100
AcDbLine
 10
1.4318299204
 20
-68.3759520468
 30
0.0
 11
3.1748405116
 21
-68.3759520468
 31
0.0
  0
LINE
  5
437
330
1F
100
AcDbEntity
  8
0
  6
Continuous
 62
     7
370
    25
100
AcDbLine
 10
3.1748405116
 20
-68.3759520468
 30
0.0
 11
3.1748405116
 21
-67.556886898
 31
0.0
  0
LINE
  5
438
330
1F
100
AcDbEntity
  8
0
  6
Continuous
 62
     7
370
    25
100
AcDbLine
 10
3.1748405116
 20
-67.556886898
 30
0.0
 11
1.4318299204
 21
-67.556886898
 31
0.0
  0
LINE
  5
439
330
1F
100
AcDbEntity
  8
0
  6
Continuous
 62
     7
370
    25
100
AcDbLine
 10
-19.9784583611
 20
-82.5878093001
 30
0.0
 11
-19.9784583611
 21
-81.6224911865
 31
0.0
  0
LINE
  5
43A
330
1F
100
AcDbEntity
  8
0
  6
Continuous
 62
     7
370
    25
100
AcDbLine
 10
-21.7863948483
 20
-82.5878093001
 30
0.0
 11
-19.9784583611
 21
-82.5878093001
 31
0.0
  0
LINE
  5
43B
330
1F
100
AcDbEntity
  8
0
  6
Continuous
 62
     7
370
    25
100
AcDbLine
 10
-21.7863948483
 20
-81.6224911865
 30
0.0
 11
-21.7863948483
 21
-82.5878093001
 31
0.0
  0
LINE
  5
43C
330
1F
100
AcDbEntity
  8
0
  6
Continuous
 62
     7
370
    25
100
AcDbLine
 10
-19.9784583611
 20
-81.6224911865
 30
0.0
 11
-21.7863948483
 21
-81.6224911865
 31
0.0
  0
LINE
  5
43D
330
1F
100
AcDbEntity
  8
0
  6
Continuous
 62
     7
370
    25
100
AcDbLine
 10
-2.7762634135
 20
-67.556886898
 30
0.0
 11
-2.7762634135
 21
-68.3759520468
 31
0.0
  0
LINE
  5
43E
330
1F
100
AcDbEntity
  8
0
  6
Continuous
 62
     7
370
    25
100
AcDbLine
 10
-2.7762634135
 20
-68.3759520468
 30
0.0
 11
-1.0332528223
 21
-68.3759520468
 31
0.0
  0
LINE
  5
43F
330
1F
100
AcDbEntity
  8
0
  6
Continuous
 62
     7
370
    25
100
AcDbLine
 10
-1.0332528223
 20
-68.3759520468
 30
0.0
 11
-1.0332528223
 21
-67.556886898
 31
0.0
  0
LINE
  5
440
330
1F
100
AcDbEntity
  8
0
  6
Continuous
 62
     7
370
    25
100
AcDbLine
 10
-1.0332528223
 20
-67.556886898
 30
0.0
 11
-2.7762634135
 21
-67.556886898
 31
0.0
  0
LINE
  5
441
330
1F
100
AcDbEntity
  8
0
  6
Continuous
 62
     7
370
    25
100
AcDbLine
 10
-35.4699116231
 20
-68.3759520468
 30
0.0
 11
-33.7269010319
 21
-68.3759520468
 31
0.0
  0
LINE
  5
442
330
1F
100
AcDbEntity
  8
0
  6
Continuous
 62
     7
370
    25
100
AcDbLine
 10
-33.7269010319
 20
-68.3759520468
 30
0.0
 11
-33.7269010319
 21
-67.556886898
 31
0.0
  0
LINE
  5
443
330
1F
100
AcDbEntity
  8
0
  6
Continuous
 62
     7
370
    25
100
AcDbLine
 10
-33.7269010319
 20
-67.556886898
 30
0.0
 11
-35.4699116231
 21
-67.556886898
 31
0.0
  0
LINE
  5
444
330
1F
100
AcDbEntity
  8
0
  6
Continuous
 62
     7
370
    25
100
AcDbLine
 10
-35.4699116231
 20
-67.556886898
 30
0.0
 11
-35.4699116231
 21
-68.3759520468
 31
0.0
  0
LINE
  5
445
330
1F
100
AcDbEntity
  8
0
  6
Continuous
 62
     7
370
    25
100
AcDbLine
 10
0.2484208013
 20
-76.7590475732
 30
0.0
 11
-0.0044680119
 21
-77.0617961214
 31
0.0
  0
LINE
  5
446
330
1F
100
AcDbEntity
  8
0
  6
Continuous
 62
     7
370
    25
100
AcDbLine
 10
-0.0044680119
 20
-77.0617961214
 30
0.0
 11
-1.395364246
 21
-77.0617961214
 31
0.0
  0
LINE
  5
447
330
1F
100
AcDbEntity
  8
0
  6
Continuous
 62
     7
370
    25
100
AcDbLine
 10
-1.395364246
 20
-77.0617961214
 30
0.0
 11
-1.6533122749
 21
-76.7590475732
 31
0.0
  0
LINE
  5
448
330
1F
100
AcDbEntity
  8
0
  6
Continuous
 62
     7
370
    25
100
AcDbLine
 10
-1.6533122749
 20
-76.7590475732
 30
0.0
 11
-1.6533122749
 21
-74.8517317195
 31
0.0
  0
LINE
  5
449
330
1F
100
AcDbEntity
  8
0
  6
Continuous
 62
     7
370
    25
100
AcDbLine
 10
-1.6533122749
 20
-74.8517317195
 30
0.0
 11
-1.395364246
 21
-74.5589068546
 31
0.0
  0
LINE
  5
44A
330
1F
100
AcDbEntity
  8
0
  6
Continuous
 62
     7
370
    25
100
AcDbLine
 10
-1.395364246
 20
-74.5589068546
 30
0.0
 11
-0.0044680119
 21
-74.5589068546
 31
0.0
  0
LINE
  5
44B
330
1F
100
AcDbEntity
  8
0
  6
Continuous
 62
     7
370
    25
100
AcDbLine
 10
-0.0044680119
 20
-74.5589068546
 30
0.0
 11
0.2484208013
 21
-74.8517317195
 31
0.0
  0
LINE
  5
44C
330
1F
100
AcDbEntity
  8
0
  6
Continuous
 62
     7
370
    25
100
AcDbLine
 10
0.2484208013
 20
-74.8517317195
 30
0.0
 11
0.2484208013
 21
-76.7590475732
 31
0.0
  0
LINE
  5
44D
330
1F
100
AcDbEntity
  8
0
  6
Continuous
 62
     7
370
    25
100
AcDbLine
 10
112.5640831538
 20
82.9521548464
 30
0.0
 11
113.1698893774
 21
83.9041590982
 31
0.0
  0
LINE
  5
44E
330
1F
100
AcDbEntity
  8
0
  6
Continuous
 62
     7
370
    25
100
AcDbLine
 10
113.1698893774
 20
83.9041590982
 30
0.0
 11
115.3128158701
 21
83.9041590982
 31
0.0
  0
LINE
  5
44F
330
1F
100
AcDbEntity
  8
0
  6
Continuous
 62
     7
370
    25
100
AcDbLine
 10
115.3128158701
 20
83.9041590982
 30
0.0
 11
115.9186220938
 21
82.9336716636
 31
0.0
  0
LINE
  5
450
330
1F
100
AcDbEntity
  8
0
  6
Continuous
 62
     7
370
    25
100
AcDbLine
 10
115.2856902183
 20
81.8801302428
 30
0.0
 11
113.1970150292
 21
81.8801302428
 31
0.0
  0
LINE
  5
451
330
1F
100
AcDbEntity
  8
0
  6
Continuous
 62
     7
370
    25
100
AcDbLine
 10
115.9186220938
 20
82.9336716636
 30
0.0
 11
115.2856902183
 21
81.8801302428
 31
0.0
  0
LINE
  5
452
330
1F
100
AcDbEntity
  8
0
  6
Continuous
 62
     7
370
    25
100
AcDbLine
 10
113.1970150292
 20
81.8801302428
 30
0.0
 11
112.5640831538
 21
82.9521548464
 31
0.0
  0
LINE
  5
453
330
1F
100
AcDbEntity
  8
0
  6
Continuous
 62
     7
370
    25
100
AcDbLine
 10
14.7585407448
 20
-83.3894113347
 30
0.0
 11
14.7585407448
 21
-81.5704687602
 31
0.0
  0
LINE
  5
454
330
1F
100
AcDbEntity
  8
0
  6
Continuous
 62
     7
370
    25
100
AcDbLine
 10
15.3484960999
 20
-84.073358027
 30
0.0
 11
14.7585407448
 21
-83.3894113347
 31
0.0
  0
LINE
  5
455
330
1F
100
AcDbEntity
  8
0
  6
Continuous
 62
     7
370
    25
100
AcDbLine
 10
16.6227015591
 20
-84.073358027
 30
0.0
 11
15.3484960999
 21
-84.073358027
 31
0.0
  0
LINE
  5
456
330
1F
100
AcDbEntity
  8
0
  6
Continuous
 62
     7
370
    25
100
AcDbLine
 10
16.6227015591
 20
-81.5704687602
 30
0.0
 11
16.6227015591
 21
-84.073358027
 31
0.0
  0
LINE
  5
457
330
1F
100
AcDbEntity
  8
0
  6
Continuous
 62
     7
370
    25
100
AcDbLine
 10
14.7585407448
 20
-81.5704687602
 30
0.0
 11
16.6227015591
 21
-81.5704687602
 31
0.0
  0
LINE
  5
458
330
1F
100
AcDbEntity
  8
0
  6
Continuous
 62
     7
370
    25
100
AcDbLine
 10
1.4318299204
 20
-68.8984998796
 30
0.0
 11
1.4318299204
 21
-70.0401193124
 31
0.0
  0
LINE
  5
459
330
1F
100
AcDbEntity
  8
0
  6
Continuous
 62
     7
370
    25
100
AcDbLine
 10
1.4318299204
 20
-70.0401193124
 30
0.0
 11
3.1748405116
 21
-70.0401193124
 31
0.0
  0
LINE
  5
45A
330
1F
100
AcDbEntity
  8
0
  6
Continuous
 62
     7
370
    25
100
AcDbLine
 10
3.1748405116
 20
-70.0401193124
 30
0.0
 11
3.1748405116
 21
-68.8984998796
 31
0.0
  0
LINE
  5
45B
330
1F
100
AcDbEntity
  8
0
  6
Continuous
 62
     7
370
    25
100
AcDbLine
 10
3.1748405116
 20
-68.8984998796
 30
0.0
 11
1.4318299204
 21
-68.8984998796
 31
0.0
  0
LINE
  5
45C
330
1F
100
AcDbEntity
  8
0
  6
Continuous
 62
     7
370
    25
100
AcDbLine
 10
1.6718329041
 20
-83.3894113347
 30
0.0
 11
1.6718329041
 21
-81.5704687602
 31
0.0
  0
LINE
  5
45D
330
1F
100
AcDbEntity
  8
0
  6
Continuous
 62
     7
370
    25
100
AcDbLine
 10
2.2617882592
 20
-84.073358027
 30
0.0
 11
1.6718329041
 21
-83.3894113347
 31
0.0
  0
LINE
  5
45E
330
1F
100
AcDbEntity
  8
0
  6
Continuous
 62
     7
370
    25
100
AcDbLine
 10
3.5359937184
 20
-84.073358027
 30
0.0
 11
2.2617882592
 21
-84.073358027
 31
0.0
  0
LINE
  5
45F
330
1F
100
AcDbEntity
  8
0
  6
Continuous
 62
     7
370
    25
100
AcDbLine
 10
3.5359937184
 20
-81.5704687602
 30
0.0
 11
3.5359937184
 21
-84.073358027
 31
0.0
  0
LINE
  5
460
330
1F
100
AcDbEntity
  8
0
  6
Continuous
 62
     7
370
    25
100
AcDbLine
 10
1.6718329041
 20
-81.5704687602
 30
0.0
 11
3.5359937184
 21
-81.5704687602
 31
0.0
  0
LINE
  5
461
330
1F
100
AcDbEntity
  8
0
  6
Continuous
 62
     7
370
    25
100
AcDbLine
 10
-2.7762634135
 20
-68.8984998796
 30
0.0
 11
-2.7762634135
 21
-70.0401193124
 31
0.0
  0
LINE
  5
462
330
1F
100
AcDbEntity
  8
0
  6
Continuous
 62
     7
370
    25
100
AcDbLine
 10
-2.7762634135
 20
-70.0401193124
 30
0.0
 11
-1.0332528223
 21
-70.0401193124
 31
0.0
  0
LINE
  5
463
330
1F
100
AcDbEntity
  8
0
  6
Continuous
 62
     7
370
    25
100
AcDbLine
 10
-1.0332528223
 20
-70.0401193124
 30
0.0
 11
-1.0332528223
 21
-68.8984998796
 31
0.0
  0
LINE
  5
464
330
1F
100
AcDbEntity
  8
0
  6
Continuous
 62
     7
370
    25
100
AcDbLine
 10
-1.0332528223
 20
-68.8984998796
 30
0.0
 11
-2.7762634135
 21
-68.8984998796
 31
0.0
  0
LINE
  5
465
330
1F
100
AcDbEntity
  8
0
  6
Continuous
 62
     7
370
    25
100
AcDbLine
 10
-39.16054527
 20
-83.3894113347
 30
0.0
 11
-39.16054527
 21
-81.5704687602
 31
0.0
  0
LINE
  5
466
330
1F
100
AcDbEntity
  8
0
  6
Continuous
 62
     7
370
    25
100
AcDbLine
 10
-38.5705899149
 20
-84.073358027
 30
0.0
 11
-39.16054527
 21
-83.3894113347
 31
0.0
  0
LINE
  5
467
330
1F
100
AcDbEntity
  8
0
  6
Continuous
 62
     7
370
    25
100
AcDbLine
 10
-37.2963844557
 20
-84.073358027
 30
0.0
 11
-38.5705899149
 21
-84.073358027
 31
0.0
  0
LINE
  5
468
330
1F
100
AcDbEntity
  8
0
  6
Continuous
 62
     7
370
    25
100
AcDbLine
 10
-37.2963844557
 20
-81.5704687602
 30
0.0
 11
-37.2963844557
 21
-84.073358027
 31
0.0
  0
LINE
  5
469
330
1F
100
AcDbEntity
  8
0
  6
Continuous
 62
     7
370
    25
100
AcDbLine
 10
-39.16054527
 20
-81.5704687602
 30
0.0
 11
-37.2963844557
 21
-81.5704687602
 31
0.0
  0
LINE
  5
46A
330
1F
100
AcDbEntity
  8
0
  6
Continuous
 62
     7
370
    25
100
AcDbLine
 10
5.6487123186
 20
-69.3662875235
 30
0.0
 11
5.6487123186
 21
-67.547344949
 31
0.0
  0
LINE
  5
46B
330
1F
100
AcDbEntity
  8
0
  6
Continuous
 62
     7
370
    25
100
AcDbLine
 10
6.2386676737
 20
-70.0502342158
 30
0.0
 11
5.6487123186
 21
-69.3662875235
 31
0.0
  0
LINE
  5
46C
330
1F
100
AcDbEntity
  8
0
  6
Continuous
 62
     7
370
    25
100
AcDbLine
 10
7.5128731329
 20
-70.0502342158
 30
0.0
 11
6.2386676737
 21
-70.0502342158
 31
0.0
  0
LINE
  5
46D
330
1F
100
AcDbEntity
  8
0
  6
Continuous
 62
     7
370
    25
100
AcDbLine
 10
7.5128731329
 20
-67.547344949
 30
0.0
 11
7.5128731329
 21
-70.0502342158
 31
0.0
  0
LINE
  5
46E
330
1F
100
AcDbEntity
  8
0
  6
Continuous
 62
     7
370
    25
100
AcDbLine
 10
5.6487123186
 20
-67.547344949
 30
0.0
 11
7.5128731329
 21
-67.547344949
 31
0.0
  0
LINE
  5
46F
330
1F
100
AcDbEntity
  8
0
  6
Continuous
 62
     7
370
    25
100
AcDbLine
 10
-7.0811895715
 20
-67.5993673753
 30
0.0
 11
-7.0811895715
 21
-68.564685489
 31
0.0
  0
LINE
  5
470
330
1F
100
AcDbEntity
  8
0
  6
Continuous
 62
     7
370
    25
100
AcDbLine
 10
-7.0811895715
 20
-68.564685489
 30
0.0
 11
-5.2732530844
 21
-68.564685489
 31
0.0
  0
LINE
  5
471
330
1F
100
AcDbEntity
  8
0
  6
Continuous
 62
     7
370
    25
100
AcDbLine
 10
-5.2732530844
 20
-68.564685489
 30
0.0
 11
-5.2732530844
 21
-67.5993673753
 31
0.0
  0
LINE
  5
472
330
1F
100
AcDbEntity
  8
0
  6
Continuous
 62
     7
370
    25
100
AcDbLine
 10
-5.2732530844
 20
-67.5993673753
 30
0.0
 11
-7.0811895715
 21
-67.5993673753
 31
0.0
  0
LINE
  5
473
330
1F
100
AcDbEntity
  8
0
  6
Continuous
 62
     7
370
    25
100
AcDbLine
 10
-24.9289686676
 20
-70.0502342158
 30
0.0
 11
-25.5189240227
 21
-69.3662875235
 31
0.0
  0
LINE
  5
474
330
1F
100
AcDbEntity
  8
0
  6
Continuous
 62
     7
370
    25
100
AcDbLine
 10
-23.6547632084
 20
-67.547344949
 30
0.0
 11
-23.6547632084
 21
-70.0502342158
 31
0.0
  0
LINE
  5
475
330
1F
100
AcDbEntity
  8
0
  6
Continuous
 62
     7
370
    25
100
AcDbLine
 10
-25.5189240227
 20
-67.547344949
 30
0.0
 11
-23.6547632084
 21
-67.547344949
 31
0.0
  0
LINE
  5
476
330
1F
100
AcDbEntity
  8
0
  6
Continuous
 62
     7
370
    25
100
AcDbLine
 10
-23.6547632084
 20
-70.0502342158
 30
0.0
 11
-24.9289686676
 21
-70.0502342158
 31
0.0
  0
LINE
  5
477
330
1F
100
AcDbEntity
  8
0
  6
Continuous
 62
     7
370
    25
100
AcDbLine
 10
-25.5189240227
 20
-69.3662875235
 30
0.0
 11
-25.5189240227
 21
-67.547344949
 31
0.0
  0
LINE
  5
478
330
1F
100
AcDbEntity
  8
0
  6
Continuous
 62
     7
370
    25
100
AcDbLine
 10
-29.7838993113
 20
-67.5574598524
 30
0.0
 11
-29.7838993113
 21
-68.7915641474
 31
0.0
  0
LINE
  5
479
330
1F
100
AcDbEntity
  8
0
  6
Continuous
 62
     7
370
    25
100
AcDbLine
 10
-29.7838993113
 20
-68.7915641474
 30
0.0
 11
-28.0009343226
 21
-68.7915641474
 31
0.0
  0
LINE
  5
47A
330
1F
100
AcDbEntity
  8
0
  6
Continuous
 62
     7
370
    25
100
AcDbLine
 10
-28.0009343226
 20
-68.7915641474
 30
0.0
 11
-28.0009343226
 21
-67.5574598524
 31
0.0
  0
LINE
  5
47B
330
1F
100
AcDbEntity
  8
0
  6
Continuous
 62
     7
370
    25
100
AcDbLine
 10
-28.0009343226
 20
-67.5574598524
 30
0.0
 11
-29.7838993113
 21
-67.5574598524
 31
0.0
  0
LINE
  5
47C
330
1F
100
AcDbEntity
  8
0
  6
Continuous
 62
     7
370
    25
100
AcDbLine
 10
-35.4699116231
 20
-68.8984998796
 30
0.0
 11
-35.4699116231
 21
-70.0401193124
 31
0.0
  0
LINE
  5
47D
330
1F
100
AcDbEntity
  8
0
  6
Continuous
 62
     7
370
    25
100
AcDbLine
 10
-35.4699116231
 20
-70.0401193124
 30
0.0
 11
-33.7269010319
 21
-70.0401193124
 31
0.0
  0
LINE
  5
47E
330
1F
100
AcDbEntity
  8
0
  6
Continuous
 62
     7
370
    25
100
AcDbLine
 10
-33.7269010319
 20
-70.0401193124
 30
0.0
 11
-33.7269010319
 21
-68.8984998796
 31
0.0
  0
LINE
  5
47F
330
1F
100
AcDbEntity
  8
0
  6
Continuous
 62
     7
370
    25
100
AcDbLine
 10
-33.7269010319
 20
-68.8984998796
 30
0.0
 11
-35.4699116231
 21
-68.8984998796
 31
0.0
  0
LINE
  5
480
330
1F
100
AcDbEntity
  8
0
  6
Continuous
 62
     7
370
    25
100
AcDbLine
 10
-34.8243627552
 20
-81.5805836636
 30
0.0
 11
-34.8243627552
 21
-82.8146879586
 31
0.0
  0
LINE
  5
481
330
1F
100
AcDbEntity
  8
0
  6
Continuous
 62
     7
370
    25
100
AcDbLine
 10
-34.8243627552
 20
-82.8146879586
 30
0.0
 11
-33.0413977665
 21
-82.8146879586
 31
0.0
  0
LINE
  5
482
330
1F
100
AcDbEntity
  8
0
  6
Continuous
 62
     7
370
    25
100
AcDbLine
 10
-33.0413977665
 20
-82.8146879586
 30
0.0
 11
-33.0413977665
 21
-81.5805836636
 31
0.0
  0
LINE
  5
483
330
1F
100
AcDbEntity
  8
0
  6
Continuous
 62
     7
370
    25
100
AcDbLine
 10
-33.0413977665
 20
-81.5805836636
 30
0.0
 11
-34.8243627552
 21
-81.5805836636
 31
0.0
  0
LINE
  5
484
330
1F
100
AcDbEntity
  8
0
  6
Continuous
 62
     7
370
    25
100
AcDbLine
 10
-12.9408868048
 20
-83.3894113347
 30
0.0
 11
-12.9408868048
 21
-81.5704687602
 31
0.0
  0
LINE
  5
485
330
1F
100
AcDbEntity
  8
0
  6
Continuous
 62
     7
370
    25
100
AcDbLine
 10
-12.3509314497
 20
-84.073358027
 30
0.0
 11
-12.9408868048
 21
-83.3894113347
 31
0.0
  0
LINE
  5
486
330
1F
100
AcDbEntity
  8
0
  6
Continuous
 62
     7
370
    25
100
AcDbLine
 10
-11.0767259905
 20
-84.073358027
 30
0.0
 11
-12.3509314497
 21
-84.073358027
 31
0.0
  0
LINE
  5
487
330
1F
100
AcDbEntity
  8
0
  6
Continuous
 62
     7
370
    25
100
AcDbLine
 10
-11.0767259905
 20
-81.5704687602
 30
0.0
 11
-11.0767259905
 21
-84.073358027
 31
0.0
  0
LINE
  5
488
330
1F
100
AcDbEntity
  8
0
  6
Continuous
 62
     7
370
    25
100
AcDbLine
 10
-12.9408868048
 20
-81.5704687602
 30
0.0
 11
-11.0767259905
 21
-81.5704687602
 31
0.0
  0
LINE
  5
489
330
1F
100
AcDbEntity
  8
0
  6
Continuous
 62
     7
370
    25
100
AcDbLine
 10
-16.052289646
 20
-74.6109292809
 30
0.0
 11
-16.052289646
 21
-75.5762473946
 31
0.0
  0
LINE
  5
48A
330
1F
100
AcDbEntity
  8
0
  6
Continuous
 62
     7
370
    25
100
AcDbLine
 10
-14.2443531589
 20
-75.5762473946
 30
0.0
 11
-14.2443531589
 21
-74.6109292809
 31
0.0
  0
LINE
  5
48B
330
1F
100
AcDbEntity
  8
0
  6
Continuous
 62
     7
370
    25
100
AcDbLine
 10
-14.2443531589
 20
-74.6109292809
 30
0.0
 11
-16.052289646
 21
-74.6109292809
 31
0.0
  0
LINE
  5
48C
330
1F
100
AcDbEntity
  8
0
  6
Continuous
 62
     7
370
    25
100
AcDbLine
 10
-16.052289646
 20
-75.5762473946
 30
0.0
 11
-14.2443531589
 21
-75.5762473946
 31
0.0
  0
LINE
  5
48D
330
1F
100
AcDbEntity
  8
0
  6
Continuous
 62
     7
370
    25
100
AcDbLine
 10
-33.6946875
 20
37.7428125
 30
0.0
 11
-33.6946875
 21
15.5178125
 31
0.0
  0
LINE
  5
48E
330
1F
100
AcDbEntity
  8
0
  6
Continuous
 62
     7
370
    25
100
AcDbLine
 10
15.5178125
 20
40.9178125
 30
0.0
 11
-30.5196875
 21
40.9178125
 31
0.0
  0
LINE
  5
48F
330
1F
100
AcDbEntity
  8
0
  6
Continuous
 62
     7
370
    25
100
AcDbLine
 10
18.6928125
 20
15.5178125
 30
0.0
 11
18.6928125
 21
37.7428125
 31
0.0
  0
LINE
  5
490
330
1F
100
AcDbEntity
  8
0
  6
Continuous
 62
     7
370
    25
100
AcDbLine
 10
-30.5196875
 20
12.3428125
 30
0.0
 11
15.5178125
 21
12.3428125
 31
0.0
  0
LINE
  5
491
330
1F
100
AcDbEntity
  8
0
  6
Continuous
 62
     7
370
    25
100
AcDbLine
 10
112.5640831538
 20
85.6094817076
 30
0.0
 11
113.1879731453
 21
86.421086484
 31
0.0
  0
LINE
  5
492
330
1F
100
AcDbEntity
  8
0
  6
Continuous
 62
     7
370
    25
100
AcDbLine
 10
113.1879731453
 20
86.421086484
 30
0.0
 11
115.2947321023
 21
86.421086484
 31
0.0
  0
LINE
  5
493
330
1F
100
AcDbEntity
  8
0
  6
Continuous
 62
     7
370
    25
100
AcDbLine
 10
115.2947321023
 20
86.421086484
 30
0.0
 11
115.9186220938
 21
85.6094817076
 31
0.0
  0
LINE
  5
494
330
1F
100
AcDbEntity
  8
0
  6
Continuous
 62
     7
370
    25
100
AcDbLine
 10
115.2947321023
 20
84.8165470198
 30
0.0
 11
113.1879731453
 21
84.8165470198
 31
0.0
  0
LINE
  5
495
330
1F
100
AcDbEntity
  8
0
  6
Continuous
 62
     7
370
    25
100
AcDbLine
 10
115.9186220938
 20
85.6094817076
 30
0.0
 11
115.2947321023
 21
84.8165470198
 31
0.0
  0
LINE
  5
496
330
1F
100
AcDbEntity
  8
0
  6
Continuous
 62
     7
370
    25
100
AcDbLine
 10
113.1879731453
 20
84.8165470198
 30
0.0
 11
112.5640831538
 21
85.6094817076
 31
0.0
  0
ARC
  5
497
330
1F
100
AcDbEntity
  8
0
  6
Continuous
 62
     7
370
    25
100
AcDbCircle
 10
28.575
 20
63.5
 30
0.0
 40
3.175000000000008
100
AcDbArc
 50
180.0
 51
270.0
  0
ARC
  5
498
330
1F
100
AcDbEntity
  8
0
  6
Continuous
 62
     7
370
    25
100
AcDbCircle
 10
28.575
 20
85.725
 30
0.0
 40
3.175000000000011
100
AcDbArc
 50
90.0
 51
180.0
  0
ARC
  5
499
330
1F
100
AcDbEntity
  8
0
  6
Continuous
 62
     7
370
    25
100
AcDbCircle
 10
123.825
 20
85.725
 30
0.0
 40
3.174999999999997
100
AcDbArc
 50
0.0
 51
90.0
  0
ARC
  5
49A
330
1F
100
AcDbEntity
  8
0
  6
Continuous
 62
     7
370
    25
100
AcDbCircle
 10
123.825
 20
63.5
 30
0.0
 40
3.175000000000026
100
AcDbArc
 50
270.0
 51
0.0
  0
ARC
  5
49B
330
1F
100
AcDbEntity
  8
0
  6
Continuous
 62
     7
370
    25
100
AcDbCircle
 10
38.1
 20
-92.075
 30
0.0
 40
3.175000000000004
100
AcDbArc
 50
180.0
 51
270.0
  0
ARC
  5
49C
330
1F
100
AcDbEntity
  8
0
  6
Continuous
 62
     7
370
    25
100
AcDbCircle
 10
127.0
 20
-92.075
 30
0.0
 40
3.175000000000026
100
AcDbArc
 50
270.0
 51
0.0
  0
ARC
  5
49D
330
1F
100
AcDbEntity
  8
0
  6
Continuous
 62
     7
370
    25
100
AcDbCircle
 10
127.0
 20
88.9
 30
0.0
 40
3.174999999999997
100
AcDbArc
 50
0.0
 51
90.0
  0
ARC
  5
49E
330
1F
100
AcDbEntity
  8
0
  6
Continuous
 62
     7
370
    25
100
AcDbCircle
 10
24.9544631342
 20
88.9
 30
0.0
 40
3.174999999999997
100
AcDbArc
 50
90.0
 51
180.0
  0
ARC
  5
49F
330
1F
100
AcDbEntity
  8
0
  6
Continuous
 62
     7
370
    25
100
AcDbCircle
 10
24.9544631342
 20
60.325
 30
0.0
 40
3.175000000000011
100
AcDbArc
 50
180.0
 51
270.0
  0
ARC
  5
4A0
330
1F
100
AcDbEntity
  8
0
  6
Continuous
 62
     7
370
    25
100
AcDbCircle
 10
31.75
 20
53.975
 30
0.0
 40
3.174999999999983
100
AcDbArc
 50
0.0
 51
90.0
  0
ARC
  5
4A1
330
1F
100
AcDbEntity
  8
0
  6
Continuous
 62
     7
370
    25
100
AcDbCircle
 10
-119.776875
 20
88.9
 30
0.0
 40
3.174999999999969
100
AcDbArc
 50
90.0
 51
180.0
  0
ARC
  5
4A2
330
1F
100
AcDbEntity
  8
0
  6
Continuous
 62
     7
370
    25
100
AcDbCircle
 10
-119.776875
 20
-88.9
 30
0.0
 40
3.174999999999983
100
AcDbArc
 50
180.0
 51
270.0
  0
ARC
  5
4A3
330
1F
100
AcDbEntity
  8
0
  6
Continuous
 62
     7
370
    25
100
AcDbCircle
 10
-53.101875
 20
-88.9
 30
0.0
 40
3.174999999999997
100
AcDbArc
 50
270.0
 51
0.0
  0
ARC
  5
4A4
330
1F
100
AcDbEntity
  8
0
  6
Continuous
 62
     7
370
    25
100
AcDbCircle
 10
-53.101875
 20
88.9
 30
0.0
 40
3.174999999999997
100
AcDbArc
 50
0.0
 51
90.0
  0
ARC
  5
4A5
330
1F
100
AcDbEntity
  8
0
  6
Continuous
 62
     7
370
    25
100
AcDbCircle
 10
18.6928125
 20
12.3428125
 30
0.0
 40
3.174999999999994
100
AcDbArc
 50
270.0
 51
0.0
  0
ARC
  5
4A6
330
1F
100
AcDbEntity
  8
0
  6
Continuous
 62
     7
370
    25
100
AcDbCircle
 10
18.6928125
 20
40.9178125
 30
0.0
 40
3.174999999999997
100
AcDbArc
 50
0.0
 51
90.0
  0
ARC
  5
4A7
330
1F
100
AcDbEntity
  8
0
  6
Continuous
 62
     7
370
    25
100
AcDbCircle
 10
-33.6946875
 20
40.9178125
 30
0.0
 40
3.17499999999999
100
AcDbArc
 50
90.0
 51
180.0
  0
ARC
  5
4A8
330
1F
100
AcDbEntity
  8
0
  6
Continuous
 62
     7
370
    25
100
AcDbCircle
 10
-33.6946875
 20
12.3428125
 30
0.0
 40
3.175000000000004
100
AcDbArc
 50
180.0
 51
270.0
  0
ARC
  5
4A9
330
1F
100
AcDbEntity
  8
0
  6
Continuous
 62
     7
370
    25
100
AcDbCircle
 10
-56.276875
 20
-85.725
 30
0.0
 40
3.175000000000011
100
AcDbArc
 50
270.0
 51
0.0
  0
ARC
  5
4AA
330
1F
100
AcDbEntity
  8
0
  6
Continuous
 62
     7
370
    25
100
AcDbCircle
 10
-116.601875
 20
-85.725
 30
0.0
 40
3.174999999999997
100
AcDbArc
 50
180.0
 51
270.0
  0
ARC
  5
4AB
330
1F
100
AcDbEntity
  8
0
  6
Continuous
 62
     7
370
    25
100
AcDbCircle
 10
-116.601875
 20
85.725
 30
0.0
 40
3.174999999999997
100
AcDbArc
 50
90.0
 51
180.0
  0
ARC
  5
4AC
330
1F
100
AcDbEntity
  8
0
  6
Continuous
 62
     7
370
    25
100
AcDbCircle
 10
-56.276875
 20
85.725
 30
0.0
 40
3.175000000000011
100
AcDbArc
 50
0.0
 51
90.0
  0
ARC
  5
4AD
330
1F
100
AcDbEntity
  8
0
  6
Continuous
 62
     7
370
    25
100
AcDbCircle
 10
123.825
 20
53.975
 30
0.0
 40
3.174999999999997
100
AcDbArc
 50
0.0
 51
90.0
  0
ARC
  5
4AE
330
1F
100
AcDbEntity
  8
0
  6
Continuous
 62
     7
370
    25
100
AcDbCircle
 10
123.825
 20
-88.9
 30
0.0
 40
3.175000000000011
100
AcDbArc
 50
270.0
 51
0.0
  0
ARC
  5
4AF
330
1F
100
AcDbEntity
  8
0
  6
Continuous
 62
     7
370
    25
100
AcDbCircle
 10
41.275
 20
-88.9
 30
0.0
 40
3.174999999999983
100
AcDbArc
 50
180.0
 51
270.0
  0
ARC
  5
4B0
330
1F
100
AcDbEntity
  8
0
  6
Continuous
 62
     7
370
    25
100
AcDbCircle
 10
41.275
 20
53.975
 30
0.0
 40
3.174999999999997
100
AcDbArc
 50
90.0
 51
180.0
  0
ARC
  5
4B1
330
1F
100
AcDbEntity
  8
0
  6
Continuous
 62
     7
370
    25
100
AcDbCircle
 10
-30.5196875
 20
37.7428125
 30
0.0
 40
3.175000000000029
100
AcDbArc
 50
90.0
 51
180.0
  0
ARC
  5
4B2
330
1F
100
AcDbEntity
  8
0
  6
Continuous
 62
     7
370
    25
100
AcDbCircle
 10
15.5178125
 20
37.7428125
 30
0.0
 40
3.174999999999999
100
AcDbArc
 50
0.0
 51
90.0
  0
ARC
  5
4B3
330
1F
100
AcDbEntity
  8
0
  6
Continuous
 62
     7
370
    25
100
AcDbCircle
 10
-30.5196875
 20
15.5178125
 30
0.0
 40
3.175000000000001
100
AcDbArc
 50
180.0
 51
270.0
  0
ARC
  5
4B4
330
1F
100
AcDbEntity
  8
0
  6
Continuous
 62
     7
370
    25
100
AcDbCircle
 10
15.5178125
 20
15.5178125
 30
0.0
 40
3.175000000000022
100
AcDbArc
 50
270.0
 51
0.0
  0
MTEXT
  5
4B6
330
1F
100
AcDbEntity
  8
0
  6
Continuous
 62
     7
100
AcDbMText
 10
-139.7
 20
-115.3195663917
 30
0.0
 40
4.83362
 41
0.0
 71
     1
 72
     1
  1
SOLIDWORKS Educational Product.
  7
SLDTEXTSTYLE0
 73
     1
 44
1.0
  0
MTEXT
  5
4B7
330
1F
100
AcDbEntity
  8
0
  6
Continuous
 62
     7
100
AcDbMText
 10
-139.7
 20
-122.5699963917
 30
0.0
 40
4.83362
 41
0.0
 71
     1
 72
     1
  1
For Instructional Use Only.
  7
SLDTEXTSTYLE0
 73
     1
 44
1.0
  0
ENDSEC
  0
SECTION
  2
OBJECTS
  0
DICTIONARY
  5
C
330
0
100
AcDbDictionary
281
     1
  3
ACAD_GROUP
350
D
  3
ACAD_LAYOUT
350
1A
  3
ACAD_MLINESTYLE
350
17
  3
ACAD_PLOTSETTINGS
350
19
  3
ACAD_PLOTSTYLENAME
350
E
  3
ACAD_SCALELIST
350
47
  3
DWGPROPS
350
4B8
  0
DICTIONARY
  5
D
102
{ACAD_REACTORS
330
C
102
}
330
C
100
AcDbDictionary
281
     1
  0
DICTIONARY
  5
1A
102
{ACAD_REACTORS
330
C
102
}
330
C
100
AcDbDictionary
281
     1
  3
Layout1
350
1E
  3
Layout2
350
26
  3
Model
350
22
  0
DICTIONARY
  5
17
102
{ACAD_REACTORS
330
C
102
}
330
C
100
AcDbDictionary
281
     1
  3
Standard
350
18
  0
DICTIONARY
  5
19
102
{ACAD_REACTORS
330
C
102
}
330
C
100
AcDbDictionary
281
     1
  0
ACDBDICTIONARYWDFLT
  5
E
102
{ACAD_REACTORS
330
C
102
}
330
C
100
AcDbDictionary
281
     1
  3
Normal
350
F
100
AcDbDictionaryWithDefault
340
F
  0
DICTIONARY
  5
47
102
{ACAD_REACTORS
330
C
102
}
330
C
100
AcDbDictionary
281
     1
  3
A0
350
48
  3
A1
350
49
  3
A2
350
4A
  3
A3
350
4B
  3
A4
350
4C
  3
A5
350
4D
  3
A6
350
4E
  3
A7
350
4F
  3
A8
350
50
  3
A9
350
51
  3
B0
350
52
  3
B1
350
53
  3
B2
350
54
  3
B3
350
55
  3
B4
350
56
  3
B5
350
57
  3
B6
350
58
  0
XRECORD
  5
4B8
102
{ACAD_REACTORS
330
C
102
}
330
C
100
AcDbXrecord
280
     1
  1
DWGPROPS COOKIE
  2

  3

  4

  6

  7

  8
ericg
  9

300
=
301
=
302
=
303
=
304
=
305
=
306
=
307
=
308
=
309
=
 40
0.0
 41
2460383.101151597
 42
2460383.101271806
  1

 90
        0
  0
LAYOUT
  5
1E
102
{ACAD_REACTORS
330
1A
102
}
330
1A
100
AcDbPlotSettings
  1

  2
none_device
  4

  6

 40
0.0
 41
0.0
 42
0.0
 43
0.0
 44
0.0
 45
0.0
 46
0.0
 47
0.0
 48
0.0
 49
0.0
140
0.0
141
0.0
142
1.0
143
1.0
 70
   688
 72
     1
 73
     0
 74
     5
  7

 75
    16
147
1.0
148
0.0
149
0.0
100
AcDbLayout
  1
Layout1
 70
     1
 71
     1
 10
0.0
 20
0.0
 11
420.0
 21
297.0
 12
0.0
 22
0.0
 32
0.0
 14
1.0000000000E+20
 24
1.0000000000E+20
 34
1.0000000000E+20
 15
-1.0000000000E+20
 25
-1.0000000000E+20
 35
-1.0000000000E+20
146
0.0
 13
0.0
 23
0.0
 33
0.0
 16
1.0
 26
0.0
 36
0.0
 17
0.0
 27
1.0
 37
0.0
 76
     0
330
1B
  0
LAYOUT
  5
26
102
{ACAD_REACTORS
330
1A
102
}
330
1A
100
AcDbPlotSettings
  1

  2
none_device
  4

  6

 40
0.0
 41
0.0
 42
0.0
 43
0.0
 44
0.0
 45
0.0
 46
0.0
 47
0.0
 48
0.0
 49
0.0
140
0.0
141
0.0
142
1.0
143
1.0
 70
   688
 72
     1
 73
     0
 74
     5
  7

 75
    16
147
1.0
148
0.0
149
0.0
100
AcDbLayout
  1
Layout2
 70
     1
 71
     2
 10
0.0
 20
0.0
 11
0.0
 21
0.0
 12
0.0
 22
0.0
 32
0.0
 14
0.0
 24
0.0
 34
0.0
 15
0.0
 25
0.0
 35
0.0
146
0.0
 13
0.0
 23
0.0
 33
0.0
 16
1.0
 26
0.0
 36
0.0
 17
0.0
 27
1.0
 37
0.0
 76
     0
330
23
  0
LAYOUT
  5
22
102
{ACAD_REACTORS
330
1A
102
}
330
1A
100
AcDbPlotSettings
  1

  2
none_device
  4
ANSI_A_(11.00_x_8.50_Inches)
  6

 40
6.35
 41
19.05
 42
6.35000508
 43
19.05000254
 44
279.4
 45
215.9
 46
133.34999746
 47
88.89999873
 48
0.0
 49
0.0
140
0.0
141
0.0
142
0.0368110236
143
1.0
 70
  1696
 72
     0
 73
     0
 74
     0
  7

 75
     0
147
0.0179189148
148
-1300.4909072572
149
0.0
100
AcDbLayout
  1
Model
 70
     1
 71
     0
 10
0.0
 20
0.0
 11
420.0
 21
297.0
 12
0.0
 22
0.0
 32
0.0
 14
-139.7
 24
-114.3
 34
0.0
 15
139.7
 25
114.3
 35
0.0
146
0.0
 13
0.0
 23
0.0
 33
0.0
 16
1.0
 26
0.0
 36
0.0
 17
0.0
 27
1.0
 37
0.0
 76
     0
330
1F
331
29
  0
MLINESTYLE
  5
18
102
{ACAD_REACTORS
330
17
102
}
330
17
100
AcDbMlineStyle
  2
Standard
 70
     0
  3

 62
   256
 51
90.0
 52
90.0
 71
     2
 49
0.5
 62
   256
  6
BYLAYER
 49
-0.5
 62
   256
  6
BYLAYER
  0
ACDBPLACEHOLDER
  5
F
102
{ACAD_REACTORS
330
E
102
}
330
E
  0
SCALE
  5
48
102
{ACAD_REACTORS
330
47
102
}
330
47
100
AcDbScale
 70
     0
300
1:1
140
1.0
141
1.0
290
     1
  0
SCALE
  5
49
102
{ACAD_REACTORS
330
47
102
}
330
47
100
AcDbScale
 70
     0
300
1:2
140
1.0
141
2.0
290
     0
  0
SCALE
  5
4A
102
{ACAD_REACTORS
330
47
102
}
330
47
100
AcDbScale
 70
     0
300
1:4
140
1.0
141
4.0
290
     0
  0
SCALE
  5
4B
102
{ACAD_REACTORS
330
47
102
}
330
47
100
AcDbScale
 70
     0
300
1:5
140
1.0
141
5.0
290
     0
  0
SCALE
  5
4C
102
{ACAD_REACTORS
330
47
102
}
330
47
100
AcDbScale
 70
     0
300
1:8
140
1.0
141
8.0
290
     0
  0
SCALE
  5
4D
102
{ACAD_REACTORS
330
47
102
}
330
47
100
AcDbScale
 70
     0
300
1:10
140
1.0
141
10.0
290
     0
  0
SCALE
  5
4E
102
{ACAD_REACTORS
330
47
102
}
330
47
100
AcDbScale
 70
     0
300
1:16
140
1.0
141
16.0
290
     0
  0
SCALE
  5
4F
102
{ACAD_REACTORS
330
47
102
}
330
47
100
AcDbScale
 70
     0
300
1:20
140
1.0
141
20.0
290
     0
  0
SCALE
  5
50
102
{ACAD_REACTORS
330
47
102
}
330
47
100
AcDbScale
 70
     0
300
1:30
140
1.0
141
30.0
290
     0
  0
SCALE
  5
51
102
{ACAD_REACTORS
330
47
102
}
330
47
100
AcDbScale
 70
     0
300
1:40
140
1.0
141
40.0
290
     0
  0
SCALE
  5
52
102
{ACAD_REACTORS
330
47
102
}
330
47
100
AcDbScale
 70
     0
300
1:50
140
1.0
141
50.0
290
     0
  0
SCALE
  5
53
102
{ACAD_REACTORS
330
47
102
}
330
47
100
AcDbScale
 70
     0
300
1:100
140
1.0
141
100.0
290
     0
  0
SCALE
  5
54
102
{ACAD_REACTORS
330
47
102
}
330
47
100
AcDbScale
 70
     0
300
2:1
140
2.0
141
1.0
290
     0
  0
SCALE
  5
55
102
{ACAD_REACTORS
330
47
102
}
330
47
100
AcDbScale
 70
     0
300
4:1
140
4.0
141
1.0
290
     0
  0
SCALE
  5
56
102
{ACAD_REACTORS
330
47
102
}
330
47
100
AcDbScale
 70
     0
300
8:1
140
8.0
141
1.0
290
     0
  0
SCALE
  5
57
102
{ACAD_REACTORS
330
47
102
}
330
47
100
AcDbScale
 70
     0
300
10:1
140
10.0
141
1.0
290
     0
  0
SCALE
  5
58
102
{ACAD_REACTORS
330
47
102
}
330
47
100
AcDbScale
 70
     0
300
100:1
140
100.0
141
1.0
290
     0
  0
ENDSEC
  0
EOF
