  0
SECTION
  2
HEADER
  9
$ACADVER
  1
AC1015
  9
$ACADMAINTVER
 70
     6
  9
$DWGCODEPAGE
  3
ANSI_1252
  9
$INSBASE
 10
0.0
 20
0.0
 30
0.0
  9
$EXTMIN
 10
-1.4435891277
 20
-4.48075377
 30
0.0
  9
$EXTMAX
 10
4.0
 20
4.6122166051
 30
0.0
  9
$LIMMIN
 10
0.0
 20
0.0
  9
$LIMMAX
 10
12.0
 20
9.0
  9
$ORTHOMODE
 70
     0
  9
$REGENMODE
 70
     1
  9
$FILLMODE
 70
     1
  9
$QTEXTMODE
 70
     0
  9
$MIRRTEXT
 70
     1
  9
$LTSCALE
 40
1.0
  9
$ATTMODE
 70
     1
  9
$TEXTSIZE
 40
0.1377952756
  9
$TRACEWID
 40
0.05
  9
$TEXTSTYLE
  7
Standard
  9
$CLAYER
  8
0
  9
$CELTYPE
  6
ByLayer
  9
$CECOLOR
 62
   256
  9
$CELTSCALE
 40
1.0
  9
$DISPSILH
 70
     0
  9
$DIMSCALE
 40
1.0
  9
$DIMASZ
 40
0.13
  9
$DIMEXO
 40
0.0
  9
$DIMDLI
 40
0.38
  9
$DIMRND
 40
0.0
  9
$DIMDLE
 40
0.0
  9
$DIMEXE
 40
0.125
  9
$DIMTP
 40
0.0
  9
$DIMTM
 40
0.0
  9
$DIMTXT
 40
0.1377952756
  9
$DIMCEN
 40
0.09
  9
$DIMTSZ
 40
0.0
  9
$DIMTOL
 70
     0
  9
$DIMLIM
 70
     0
  9
$DIMTIH
 70
     1
  9
$DIMTOH
 70
     1
  9
$DIMSE1
 70
     0
  9
$DIMSE2
 70
     0
  9
$DIMTAD
 70
     1
  9
$DIMZIN
 70
     1
  9
$DIMBLK
  1

  9
$DIMASO
 70
     1
  9
$DIMSHO
 70
     1
  9
$DIMPOST
  1

  9
$DIMAPOST
  1

  9
$DIMALT
 70
     0
  9
$DIMALTD
 70
     2
  9
$DIMALTF
 40
25.4
  9
$DIMLFAC
 40
1.0
  9
$DIMTOFL
 70
     0
  9
$DIMTVP
 40
0.0
  9
$DIMTIX
 70
     0
  9
$DIMSOXD
 70
     0
  9
$DIMSAH
 70
     0
  9
$DIMBLK1
  1

  9
$DIMBLK2
  1

  9
$DIMSTYLE
  2
Standard
  9
$DIMCLRD
 70
     0
  9
$DIMCLRE
 70
     0
  9
$DIMCLRT
 70
     0
  9
$DIMTFAC
 40
1.0
  9
$DIMGAP
 40
0.06
  9
$DIMJUST
 70
     0
  9
$DIMSD1
 70
     0
  9
$DIMSD2
 70
     0
  9
$DIMTOLJ
 70
     1
  9
$DIMTZIN
 70
     1
  9
$DIMALTZ
 70
     0
  9
$DIMALTTZ
 70
     0
  9
$DIMUPT
 70
     0
  9
$DIMDEC
 70
     2
  9
$DIMTDEC
 70
     2
  9
$DIMALTU
 70
     2
  9
$DIMALTTD
 70
     2
  9
$DIMTXSTY
  7
Standard
  9
$DIMAUNIT
 70
     0
  9
$DIMADEC
 70
     2
  9
$DIMALTRND
 40
0.0
  9
$DIMAZIN
 70
     0
  9
$DIMDSEP
 70
    46
  9
$DIMATFIT
 70
     3
  9
$DIMFRAC
 70
     0
  9
$DIMLDRBLK
  1

  9
$DIMLUNIT
 70
     2
  9
$DIMLWD
 70
    -2
  9
$DIMLWE
 70
    -2
  9
$DIMTMOVE
 70
     0
  9
$LUNITS
 70
     2
  9
$LUPREC
 70
     6
  9
$SKETCHINC
 40
0.1
  9
$FILLETRAD
 40
0.0
  9
$AUNITS
 70
     0
  9
$AUPREC
 70
     2
  9
$MENU
  1
.
  9
$ELEVATION
 40
0.0
  9
$PELEVATION
 40
0.0
  9
$THICKNESS
 40
0.0
  9
$LIMCHECK
 70
     0
  9
$CHAMFERA
 40
0.0
  9
$CHAMFERB
 40
0.0
  9
$CHAMFERC
 40
0.0
  9
$CHAMFERD
 40
0.0
  9
$SKPOLY
 70
     0
  9
$TDCREATE
 40
2460365.998262361
  9
$TDUCREATE
 40
2460366.331595695
  9
$TDUPDATE
 40
2460365.998524202
  9
$TDUUPDATE
 40
2460366.331857535
  9
$TDINDWG
 40
0.0000000116
  9
$TDUSRTIMER
 40
0.0000000116
  9
$USRTIMER
 70
     1
  9
$ANGBASE
 50
0.0
  9
$ANGDIR
 70
     0
  9
$PDMODE
 70
     0
  9
$PDSIZE
 40
-1.0
  9
$PLINEWID
 40
0.0
  9
$SPLFRAME
 70
     0
  9
$SPLINETYPE
 70
     6
  9
$SPLINESEGS
 70
     8
  9
$HANDSEED
  5
108
  9
$SURFTAB1
 70
     6
  9
$SURFTAB2
 70
     6
  9
$SURFTYPE
 70
     6
  9
$SURFU
 70
     6
  9
$SURFV
 70
     6
  9
$UCSBASE
  2

  9
$UCSNAME
  2

  9
$UCSORG
 10
0.0
 20
0.0
 30
0.0
  9
$UCSXDIR
 10
1.0
 20
0.0
 30
0.0
  9
$UCSYDIR
 10
0.0
 20
1.0
 30
0.0
  9
$UCSORTHOREF
  2

  9
$UCSORTHOVIEW
 70
     0
  9
$UCSORGTOP
 10
0.0
 20
0.0
 30
0.0
  9
$UCSORGBOTTOM
 10
0.0
 20
0.0
 30
0.0
  9
$UCSORGLEFT
 10
0.0
 20
0.0
 30
0.0
  9
$UCSORGRIGHT
 10
0.0
 20
0.0
 30
0.0
  9
$UCSORGFRONT
 10
0.0
 20
0.0
 30
0.0
  9
$UCSORGBACK
 10
0.0
 20
0.0
 30
0.0
  9
$PUCSBASE
  2

  9
$PUCSNAME
  2

  9
$PUCSORG
 10
0.0
 20
0.0
 30
0.0
  9
$PUCSXDIR
 10
1.0
 20
0.0
 30
0.0
  9
$PUCSYDIR
 10
0.0
 20
1.0
 30
0.0
  9
$PUCSORTHOREF
  2

  9
$PUCSORTHOVIEW
 70
     0
  9
$PUCSORGTOP
 10
0.0
 20
0.0
 30
0.0
  9
$PUCSORGBOTTOM
 10
0.0
 20
0.0
 30
0.0
  9
$PUCSORGLEFT
 10
0.0
 20
0.0
 30
0.0
  9
$PUCSORGRIGHT
 10
0.0
 20
0.0
 30
0.0
  9
$PUCSORGFRONT
 10
0.0
 20
0.0
 30
0.0
  9
$PUCSORGBACK
 10
0.0
 20
0.0
 30
0.0
  9
$USERI1
 70
     0
  9
$USERI2
 70
     0
  9
$USERI3
 70
     0
  9
$USERI4
 70
     0
  9
$USERI5
 70
     0
  9
$USERR1
 40
0.0
  9
$USERR2
 40
0.0
  9
$USERR3
 40
0.0
  9
$USERR4
 40
0.0
  9
$USERR5
 40
0.0
  9
$WORLDVIEW
 70
     1
  9
$SHADEDGE
 70
     3
  9
$SHADEDIF
 70
    70
  9
$TILEMODE
 70
     1
  9
$MAXACTVP
 70
    64
  9
$PINSBASE
 10
0.0
 20
0.0
 30
0.0
  9
$PLIMCHECK
 70
     0
  9
$PEXTMIN
 10
1.0000000000E+20
 20
1.0000000000E+20
 30
1.0000000000E+20
  9
$PEXTMAX
 10
-1.0000000000E+20
 20
-1.0000000000E+20
 30
-1.0000000000E+20
  9
$PLIMMIN
 10
0.0
 20
0.0
  9
$PLIMMAX
 10
12.0
 20
9.0
  9
$UNITMODE
 70
     0
  9
$VISRETAIN
 70
     1
  9
$PLINEGEN
 70
     0
  9
$PSLTSCALE
 70
     1
  9
$TREEDEPTH
 70
  3020
  9
$CMLSTYLE
  2
Standard
  9
$CMLJUST
 70
     0
  9
$CMLSCALE
 40
1.0
  9
$PROXYGRAPHICS
 70
     1
  9
$MEASUREMENT
 70
     0
  9
$CELWEIGHT
370
    -1
  9
$ENDCAPS
280
     0
  9
$JOINSTYLE
280
     0
  9
$LWDISPLAY
290
     1
  9
$INSUNITS
 70
     1
  9
$HYPERLINKBASE
  1

  9
$STYLESHEET
  1

  9
$XEDIT
290
     1
  9
$CEPSNTYPE
380
     0
  9
$PSTYLEMODE
290
     1
  9
$FINGERPRINTGUID
  2
{d4939880-15f3-4baa-a6bf-de3a4c99fe60}
  9
$VERSIONGUID
  2
{FAEB1C32-E019-11D5-929B-00C0DF256EC4}
  9
$EXTNAMES
290
     1
  9
$PSVPSCALE
 40
0.0
  9
$OLESTARTUP
290
     0
  0
ENDSEC
  0
SECTION
  2
CLASSES
  0
CLASS
  1
ACDBDICTIONARYWDFLT
  2
AcDbDictionaryWithDefault
  3
ObjectDBX Classes
 90
        0
280
     0
281
     0
  0
CLASS
  1
VISUALSTYLE
  2
AcDbVisualStyle
  3
ObjectDBX Classes
 90
     4095
280
     0
281
     0
  0
CLASS
  1
MATERIAL
  2
AcDbMaterial
  3
ObjectDBX Classes
 90
     1153
280
     0
281
     0
  0
CLASS
  1
SCALE
  2
AcDbScale
  3
ObjectDBX Classes
 90
     1153
280
     0
281
     0
  0
CLASS
  1
TABLESTYLE
  2
AcDbTableStyle
  3
ObjectDBX Classes
 90
     4095
280
     0
281
     0
  0
CLASS
  1
MLEADERSTYLE
  2
AcDbMLeaderStyle
  3
ACDB_MLEADERSTYLE_CLASS
 90
     4095
280
     0
281
     0
  0
CLASS
  1
SUN
  2
AcDbSun
  3
SCENEOE
 90
     1153
280
     0
281
     0
  0
CLASS
  1
ACDBPLACEHOLDER
  2
AcDbPlaceHolder
  3
ObjectDBX Classes
 90
        0
280
     0
281
     0
  0
CLASS
  1
LAYOUT
  2
AcDbLayout
  3
ObjectDBX Classes
 90
        0
280
     0
281
     0
  0
ENDSEC
  0
SECTION
  2
TABLES
  0
TABLE
  2
VPORT
  5
8
330
0
100
AcDbSymbolTable
 70
     1
  0
VPORT
  5
29
330
8
100
AcDbSymbolTableRecord
100
AcDbViewportTableRecord
  2
*Active
 70
     0
 10
0.0
 20
0.0
 11
1.0
 21
1.0
 12
1.2782054361
 22
0.0657314175
 13
0.0
 23
0.0
 14
0.5
 24
0.5
 15
0.5
 25
0.5
 16
0.0
 26
0.0
 36
1.0
 17
0.0
 27
0.0
 37
0.0
 40
9.2748297826
 41
0.5986590633
 42
50.0
 43
0.0
 44
0.0
 50
0.0
 51
0.0
 71
     0
 72
   100
 73
     1
 74
     3
 75
     0
 76
     0
 77
     0
 78
     0
281
     0
 65
     1
110
0.0
120
0.0
130
0.0
111
1.0
121
0.0
131
0.0
112
0.0
122
1.0
132
0.0
 79
     0
146
0.0
  0
ENDTAB
  0
TABLE
  2
LTYPE
  5
5
330
0
100
AcDbSymbolTable
 70
     6
  0
LTYPE
  5
14
330
5
100
AcDbSymbolTableRecord
100
AcDbLinetypeTableRecord
  2
ByBlock
 70
     0
  3

 72
    65
 73
     0
 40
0.0
  0
LTYPE
  5
15
330
5
100
AcDbSymbolTableRecord
100
AcDbLinetypeTableRecord
  2
ByLayer
 70
     0
  3

 72
    65
 73
     0
 40
0.0
  0
LTYPE
  5
16
330
5
100
AcDbSymbolTableRecord
100
AcDbLinetypeTableRecord
  2
Continuous
 70
     0
  3
Solid line
 72
    65
 73
     0
 40
0.0
  0
LTYPE
  5
5E
330
5
100
AcDbSymbolTableRecord
100
AcDbLinetypeTableRecord
  2
HIDDEN
 70
     0
  3
Hidden __ __ __ __ __ __ __ __ __ __ __ __ __ __
 72
    65
 73
     2
 40
0.075
 49
0.05
 74
     0
 49
-0.025
 74
     0
  0
LTYPE
  5
5F
330
5
100
AcDbSymbolTableRecord
100
AcDbLinetypeTableRecord
  2
PHANTOM
 70
     0
  3
Phantom ______  __  __  ______  __  __  ______
 72
    65
 73
     6
 40
0.5
 49
0.25
 74
     0
 49
-0.05
 74
     0
 49
0.05
 74
     0
 49
-0.05
 74
     0
 49
0.05
 74
     0
 49
-0.05
 74
     0
  0
LTYPE
  5
60
330
5
100
AcDbSymbolTableRecord
100
AcDbLinetypeTableRecord
  2
CENTER
 70
     0
  3
Center ____ _ ____ _ ____ _ ____ _ ____ _ ____
 72
    65
 73
     4
 40
0.4
 49
0.25
 74
     0
 49
-0.05
 74
     0
 49
0.05
 74
     0
 49
-0.05
 74
     0
  0
LTYPE
  5
61
330
5
100
AcDbSymbolTableRecord
100
AcDbLinetypeTableRecord
  2
CENTERX2
 70
     0
  3
Center (2x) ________  __  ________  __  _____
 72
    65
 73
     4
 40
0.8
 49
0.5
 74
     0
 49
-0.1
 74
     0
 49
0.1
 74
     0
 49
-0.1
 74
     0
  0
LTYPE
  5
62
330
5
100
AcDbSymbolTableRecord
100
AcDbLinetypeTableRecord
  2
DOT2
 70
     0
  3
Dot (.5x) ........................................
 72
    65
 73
     2
 40
0.025
 49
0.0
 74
     0
 49
-0.025
 74
     0
  0
ENDTAB
  0
TABLE
  2
LAYER
  5
2
330
0
100
AcDbSymbolTable
 70
     1
  0
LAYER
  5
10
330
2
100
AcDbSymbolTableRecord
100
AcDbLayerTableRecord
  2
0
 70
     0
 62
     7
  6
Continuous
370
    -3
390
F
  0
ENDTAB
  0
TABLE
  2
STYLE
  5
3
330
0
100
AcDbSymbolTable
 70
     2
  0
STYLE
  5
11
330
3
100
AcDbSymbolTableRecord
100
AcDbTextStyleTableRecord
  2
Standard
 70
     0
 40
0.0
 41
1.0
 50
0.0
 71
     0
 42
0.1377952756
  3
txt
  4

  0
STYLE
  5
104
330
3
100
AcDbSymbolTableRecord
100
AcDbTextStyleTableRecord
  2
SLDTEXTSTYLE0
 70
     0
 40
0.0
 41
0.7
 50
0.0
 71
     0
 42
0.1377952756
  3
TXT
  4

  0
ENDTAB
  0
TABLE
  2
VIEW
  5
6
330
0
100
AcDbSymbolTable
 70
     0
  0
ENDTAB
  0
TABLE
  2
UCS
  5
7
330
0
100
AcDbSymbolTable
 70
     0
  0
ENDTAB
  0
TABLE
  2
APPID
  5
9
330
0
100
AcDbSymbolTable
 70
     1
  0
APPID
  5
12
330
9
100
AcDbSymbolTableRecord
100
AcDbRegAppTableRecord
  2
ACAD
 70
     0
  0
ENDTAB
  0
TABLE
  2
DIMSTYLE
  5
A
330
0
100
AcDbSymbolTable
 70
     1
100
AcDbDimStyleTable
  0
DIMSTYLE
105
27
330
A
100
AcDbSymbolTableRecord
100
AcDbDimStyleTableRecord
  2
Standard
 70
     0
178
     0
340
11
  0
ENDTAB
  0
TABLE
  2
BLOCK_RECORD
  5
1
330
0
100
AcDbSymbolTable
 70
     1
  0
BLOCK_RECORD
  5
1F
330
1
100
AcDbSymbolTableRecord
100
AcDbBlockTableRecord
  2
*Model_Space
340
22
  0
BLOCK_RECORD
  5
1B
330
1
100
AcDbSymbolTableRecord
100
AcDbBlockTableRecord
  2
*Paper_Space
340
1E
  0
BLOCK_RECORD
  5
23
330
1
100
AcDbSymbolTableRecord
100
AcDbBlockTableRecord
  2
*Paper_Space0
340
26
  0
ENDTAB
  0
ENDSEC
  0
SECTION
  2
BLOCKS
  0
BLOCK
  5
20
330
1F
100
AcDbEntity
  8
0
100
AcDbBlockBegin
  2
*Model_Space
 70
     0
 10
0.0
 20
0.0
 30
0.0
  3
*Model_Space
  1

  0
ENDBLK
  5
21
330
1F
100
AcDbEntity
  8
0
100
AcDbBlockEnd
  0
BLOCK
  5
1C
330
1B
100
AcDbEntity
 67
     1
  8
0
100
AcDbBlockBegin
  2
*Paper_Space
 70
     0
 10
0.0
 20
0.0
 30
0.0
  3
*Paper_Space
  1

  0
ENDBLK
  5
1D
330
1B
100
AcDbEntity
 67
     1
  8
0
100
AcDbBlockEnd
  0
BLOCK
  5
24
330
23
100
AcDbEntity
  8
0
100
AcDbBlockBegin
  2
*Paper_Space0
 70
     0
 10
0.0
 20
0.0
 30
0.0
  3
*Paper_Space0
  1

  0
ENDBLK
  5
25
330
23
100
AcDbEntity
  8
0
100
AcDbBlockEnd
  0
ENDSEC
  0
SECTION
  2
ENTITIES
  0
CIRCLE
  5
63
330
1F
100
AcDbEntity
  8
0
  6
Continuous
 62
     7
370
    25
100
AcDbCircle
 10
-1.0
 20
3.75
 30
0.0
 40
0.125
  0
CIRCLE
  5
64
330
1F
100
AcDbEntity
  8
0
  6
Continuous
 62
     7
370
    25
100
AcDbCircle
 10
-1.0
 20
2.75
 30
0.0
 40
0.125
  0
CIRCLE
  5
65
330
1F
100
AcDbEntity
  8
0
  6
Continuous
 62
     7
370
    25
100
AcDbCircle
 10
-1.0
 20
2.25
 30
0.0
 40
0.1249999999999999
  0
CIRCLE
  5
66
330
1F
100
AcDbEntity
  8
0
  6
Continuous
 62
     7
370
    25
100
AcDbCircle
 10
1.0921862207
 20
-1.1834462232
 30
0.0
 40
0.0937500000000004
  0
CIRCLE
  5
67
330
1F
100
AcDbEntity
  8
0
  6
Continuous
 62
     7
370
    25
100
AcDbCircle
 10
2.0632595407
 20
-1.0935753221
 30
0.0
 40
0.0937500000000004
  0
CIRCLE
  5
68
330
1F
100
AcDbEntity
  8
0
  6
Continuous
 62
     7
370
    25
100
AcDbCircle
 10
2.9731446804
 20
-1.5045055389
 30
0.0
 40
0.0937499999999996
  0
CIRCLE
  5
69
330
1F
100
AcDbEntity
  8
0
  6
Continuous
 62
     7
370
    25
100
AcDbCircle
 10
3.5371022519
 20
-2.2659345168
 30
0.0
 40
0.0937500000000009
  0
SPLINE
  5
7E
330
1F
100
AcDbEntity
  8
0
  6
Continuous
 62
     7
370
    25
100
AcDbSpline
210
0.0
220
0.0
230
1.0
 70
     8
 71
     3
 72
    23
 73
    19
 74
     0
 42
0.00000001
 43
0.00000001
 40
0.0
 40
0.0
 40
0.0
 40
0.0
 40
0.072365211535803
 40
0.1404049159890188
 40
0.2039256680738203
 40
0.2652324694449796
 40
0.324350731134452
 40
0.3817332435425528
 40
0.4392799744331202
 40
0.4968969413924147
 40
0.5549625682544775
 40
0.6126087749857417
 40
0.6707671955576001
 40
0.7303454400904251
 40
0.7922703298509158
 40
0.8579560837507546
 40
0.9264155312627044
 40
1.0
 40
1.0
 40
1.0
 40
1.0
 10
1.548706300549093
 20
1.527245315352469
 30
0.0
 10
1.545034557166901
 20
1.527386620872549
 30
0.0
 10
1.53791054260011
 20
1.527660785616278
 30
0.0
 10
1.52764681620759
 20
1.52915842380034
 30
0.0
 10
1.518142061297814
 20
1.531554324513942
 30
0.0
 10
1.509352089909994
 20
1.534769766485039
 30
0.0
 10
1.501332802144669
 20
1.53894492322294
 30
0.0
 10
1.493928563031626
 20
1.543812893654504
 30
0.0
 10
1.487465979239523
 20
1.549765170565061
 30
0.0
 10
1.481656675320193
 20
1.556389016526848
 30
0.0
 10
1.476807896496675
 20
1.563762332719395
 30
0.0
 10
1.472899528229508
 20
1.571696562630822
 30
0.0
 10
1.469997749883271
 20
1.580140643784294
 30
0.0
 10
1.468182495626893
 20
1.589091104714343
 30
0.0
 10
1.467092739979462
 20
1.598551873234451
 30
0.0
 10
1.467364984770879
 20
1.608517107497784
 30
0.0
 10
1.468268054992302
 20
1.619037352559863
 30
0.0
 10
1.469791891745767
 20
1.626091159368313
 30
0.0
 10
1.470581300549093
 20
1.629745315352469
 30
0.0
  0
SPLINE
  5
86
330
1F
100
AcDbEntity
  8
0
  6
Continuous
 62
     7
370
    25
100
AcDbSpline
210
0.0
220
0.0
230
1.0
 70
     8
 71
     3
 72
    15
 73
    11
 74
     0
 42
0.00000001
 43
0.00000001
 40
0.0
 40
0.0
 40
0.0
 40
0.0
 40
0.1315116455698902
 40
0.257183629607471
 40
0.3808175240534833
 40
0.5048707673769004
 40
0.6291455789361623
 40
0.7506540926504732
 40
0.8731474286358648
 40
1.0
 40
1.0
 40
1.0
 40
1.0
 10
1.562456300549093
 20
2.029495315352469
 30
0.0
 10
1.564463533433907
 20
2.036545591795429
 30
0.0
 10
1.568388869753342
 20
2.050333083218559
 30
0.0
 10
1.578325433147441
 20
2.069186560135913
 30
0.0
 10
1.590735359567527
 20
2.085948986939943
 30
0.0
 10
1.606021387758652
 20
2.100027723808207
 30
0.0
 10
1.623123931817452
 20
2.11164470285348
 30
0.0
 10
1.642085169291823
 20
2.119630064890275
 30
0.0
 10
1.662232294762528
 20
2.124677988605977
 30
0.0
 10
1.676133952529693
 20
2.124971164602664
 30
0.0
 10
1.683206300549093
 20
2.125120315352469
 30
0.0
  0
SPLINE
  5
88
330
1F
100
AcDbEntity
  8
0
  6
Continuous
 62
     7
370
    25
100
AcDbSpline
210
0.0
220
0.0
230
1.0
 70
     8
 71
     3
 72
    23
 73
    19
 74
     0
 42
0.00000001
 43
0.00000001
 40
0.0
 40
0.0
 40
0.0
 40
0.0
 40
0.0780946494463706
 40
0.1512951027223532
 40
0.2191446633076723
 40
0.2841729174466989
 40
0.3451420556624274
 40
0.4043605176514697
 40
0.4618721586967325
 40
0.5199048610735411
 40
0.5771569033917539
 40
0.63388618452047
 40
0.6899551605419688
 40
0.7467063195277007
 40
0.8060504219592314
 40
0.8675012165007452
 40
0.9317082101489702
 40
1.0
 40
1.0
 40
1.0
 40
1.0
 10
2.012206300549093
 20
2.119245315352469
 30
0.0
 10
2.016338370847402
 20
2.11912109500541
 30
0.0
 10
2.024343554360877
 20
2.118880439207584
 30
0.0
 10
2.035823418322872
 20
2.117160038073178
 30
0.0
 10
2.04649715917086
 20
2.114876517680397
 30
0.0
 10
2.056190552622022
 20
2.111469941805194
 30
0.0
 10
2.065108918153082
 20
2.107369066750353
 30
0.0
 10
2.073022347476168
 20
2.10222812988605
 30
0.0
 10
2.079978632554808
 20
2.096105057180526
 30
0.0
 10
2.086092499308867
 20
2.089278244886677
 30
0.0
 10
2.09121406291861
 20
2.081734013242403
 30
0.0
 10
2.095400057182292
 20
2.073739154902625
 30
0.0
 10
2.098325689231886
 20
2.065246102575198
 30
0.0
 10
2.100631524949206
 20
2.056406073683593
 30
0.0
 10
2.101310278326516
 20
2.047008769884136
 30
0.0
 10
2.101408844393812
 20
2.037217096011275
 30
0.0
 10
2.100214454188243
 20
2.026999221083973
 30
0.0
 10
2.098724331394381
 20
2.020150331912873
 30
0.0
 10
2.097956300549093
 20
2.016620315352469
 30
0.0
  0
SPLINE
  5
90
330
1F
100
AcDbEntity
  8
0
  6
Continuous
 62
     7
370
    25
100
AcDbSpline
210
0.0
220
0.0
230
1.0
 70
     8
 71
     3
 72
    19
 73
    15
 74
     0
 42
0.00000001
 43
0.00000001
 40
0.0
 40
0.0
 40
0.0
 40
0.0
 40
0.1204833969378501
 40
0.2385389990530102
 40
0.3590158885924473
 40
0.4838562627913892
 40
0.5470565894845846
 40
0.6099210836789859
 40
0.6729889494946932
 40
0.7354363445094957
 40
0.7990981138742559
 40
0.8644732799941762
 40
0.9313033383089925
 40
1.0
 40
1.0
 40
1.0
 40
1.0
 10
2.006081300549093
 20
1.616745315352469
 30
0.0
 10
2.004100760172742
 20
1.610074441169322
 30
0.0
 10
2.000179588202444
 20
1.596867113928396
 30
0.0
 10
1.990246357160119
 20
1.578538626837797
 30
0.0
 10
1.977194673592411
 20
1.562059142418266
 30
0.0
 10
1.964053091821409
 20
1.549961708236732
 30
0.0
 10
1.95231758501926
 20
1.541487446143396
 30
0.0
 10
1.942900819712778
 20
1.535960376380572
 30
0.0
 10
1.93304344248678
 20
1.531379730244486
 30
0.0
 10
1.922817958855363
 20
1.527559766209237
 30
0.0
 10
1.912143914227215
 20
1.524690342925856
 30
0.0
 10
1.901018992203414
 20
1.522717466320275
 30
0.0
 10
1.889481773413172
 20
1.521552687478398
 30
0.0
 10
1.881667334143161
 20
1.521514614188346
 30
0.0
 10
1.877706300549093
 20
1.521495315352469
 30
0.0
  0
SPLINE
  5
94
330
1F
100
AcDbEntity
  8
0
  6
Continuous
 62
     7
370
    25
100
AcDbSpline
210
0.0
220
0.0
230
1.0
 70
     8
 71
     3
 72
    15
 73
    11
 74
     0
 42
0.00000001
 43
0.00000001
 40
0.0
 40
0.0
 40
0.0
 40
0.0
 40
0.1312076727260114
 40
0.2563956840917107
 40
0.3796665101373202
 40
0.5035383519459649
 40
0.6278275729842654
 40
0.7498665066189706
 40
0.8722849103983698
 40
1.0
 40
1.0
 40
1.0
 40
1.0
 10
1.051967525171826
 20
3.04735139751795
 30
0.0
 10
1.054026185820535
 20
3.05431625693908
 30
0.0
 10
1.058049058068568
 20
3.067926435816441
 30
0.0
 10
1.067958661666807
 20
3.08655583330879
 30
0.0
 10
1.08038513524692
 20
3.103063246812711
 30
0.0
 10
1.095665862788961
 20
3.116901765843532
 30
0.0
 10
1.112804834276114
 20
3.128240719854478
 30
0.0
 10
1.13169054860011
 20
3.136105681446123
 30
0.0
 10
1.151798827598455
 20
3.141012624101588
 30
0.0
 10
1.165646879798902
 20
3.141319639318784
 30
0.0
 10
1.172717525171826
 20
3.14147639751795
 30
0.0
  0
SPLINE
  5
9D
330
1F
100
AcDbEntity
  8
0
  6
Continuous
 62
     7
370
    25
100
AcDbSpline
210
0.0
220
0.0
230
1.0
 70
     8
 71
     3
 72
    23
 73
    19
 74
     0
 42
0.00000001
 43
0.00000001
 40
0.0
 40
0.0
 40
0.0
 40
0.0
 40
0.0723560123655148
 40
0.1403870675131565
 40
0.2053007546357395
 40
0.2665997625976962
 40
0.3253388296088285
 40
0.3831761215209579
 40
0.4401683426319656
 40
0.4977779852391412
 40
0.5558362307147892
 40
0.6127397018818234
 40
0.6708907292711977
 40
0.7304614001314639
 40
0.7922967367468348
 40
0.857974140578697
 40
0.9264248854267285
 40
1.0
 40
1.0
 40
1.0
 40
1.0
 10
2.07607007592636
 20
0.6947642331869862
 30
0.0
 10
2.072396526659117
 20
0.6948985840223855
 30
0.0
 10
2.065269008265921
 20
0.6951592551011669
 30
0.0
 10
2.054959460056115
 20
0.6967623102009295
 30
0.0
 10
2.045300906153302
 20
0.6988513936732481
 30
0.0
 10
2.036513803763619
 20
0.7022197355143432
 30
0.0
 10
2.028363473706592
 20
0.7061574265361744
 30
0.0
 10
2.021131352658046
 20
0.7112421242674789
 30
0.0
 10
2.014531921934262
 20
0.717017982131124
 30
0.0
 10
2.008774004595398
 20
0.723665873596708
 30
0.0
 10
2.003957959627853
 20
0.7310058034572192
 30
0.0
 10
1.999979024279455
 20
0.7388665592459881
 30
0.0
 10
1.997127976976337
 20
0.7472881830540661
 30
0.0
 10
1.995252320311412
 20
0.756225915606258
 30
0.0
 10
1.994380351718602
 20
0.7657049841709941
 30
0.0
 10
1.994589842809845
 20
0.7756595853684445
 30
0.0
 10
1.995510679666065
 20
0.7861816686636267
 30
0.0
 10
1.997031980718356
 20
0.7932352131145782
 30
0.0
 10
1.997820075926361
 20
0.7968892331869862
 30
0.0
  0
SPLINE
  5
A8
330
1F
100
AcDbEntity
  8
0
  6
Continuous
 62
     7
370
    25
100
AcDbSpline
210
0.0
220
0.0
230
1.0
 70
     8
 71
     3
 72
    19
 73
    15
 74
     0
 42
0.00000001
 43
0.00000001
 40
0.0
 40
0.0
 40
0.0
 40
0.0
 40
0.1199441417282728
 40
0.2381435724345744
 40
0.3581990535428285
 40
0.4831915223041354
 40
0.5464688467321702
 40
0.6094099295125527
 40
0.6718998758076297
 40
0.7351026344592081
 40
0.7988419637400864
 40
0.8635844814574882
 40
0.9304959596537936
 40
1.0
 40
1.0
 40
1.0
 40
1.0
 10
3.069308851303628
 20
-0.2329668489784966
 30
0.0
 10
3.06732108908467
 20
-0.2395926754574731
 30
0.0
 10
3.063374478694598
 20
-0.2527479489481094
 30
0.0
 10
3.053514747815593
 20
-0.2710381669087006
 30
0.0
 10
3.040375480562031
 20
-0.2874084781695175
 30
0.0
 10
3.027282209271307
 20
-0.2994996806011245
 30
0.0
 10
3.015546999884591
 20
-0.3079796356334825
 30
0.0
 10
3.006151926808473
 20
-0.3134625736608374
 30
0.0
 10
2.996338817316381
 20
-0.3181440308053315
 30
0.0
 10
2.986075364688401
 20
-0.3218728186973752
 30
0.0
 10
2.975412189517948
 20
-0.3247602014612059
 30
0.0
 10
2.964331716172035
 20
-0.32675653170956
 30
0.0
 10
2.952792515047033
 20
-0.3279112765499109
 30
0.0
 10
2.944936506746956
 20
-0.3279480916135361
 30
0.0
 10
2.940933851303628
 20
-0.3279668489784965
 30
0.0
  0
SPLINE
  5
AA
330
1F
100
AcDbEntity
  8
0
  6
Continuous
 62
     7
370
    25
100
AcDbSpline
210
0.0
220
0.0
230
1.0
 70
     8
 71
     3
 72
    23
 73
    19
 74
     0
 42
0.00000001
 43
0.00000001
 40
0.0
 40
0.0
 40
0.0
 40
0.0
 40
0.0781480602039574
 40
0.1513985769822798
 40
0.2200637062024378
 40
0.2841354041809078
 40
0.3461966616043079
 40
0.4054556244847768
 40
0.4624913120922649
 40
0.520563704391759
 40
0.5778549027209853
 40
0.6335620097739213
 40
0.689940077156365
 40
0.7473179982573933
 40
0.8059177753058366
 40
0.867410597483227
 40
0.931661503796373
 40
1.0
 40
1.0
 40
1.0
 40
1.0
 10
3.033183851303628
 20
0.0865331510215034
 30
0.0
 10
3.03731585111562
 20
0.0864091412080615
 30
0.0
 10
3.045320898073842
 20
0.0861688932833152
 30
0.0
 10
3.056841982213558
 20
0.0844396050940602
 30
0.0
 10
3.06749976967919
 20
0.0821648556416433
 30
0.0
 10
3.077284773802689
 20
0.078884067800449
 30
0.0
 10
3.086159195528809
 20
0.0746676994999442
 30
0.0
 10
3.094081726908944
 20
0.0695112630184932
 30
0.0
 10
3.101124701198156
 20
0.0635240793966645
 30
0.0
 10
3.107179404836997
 20
0.0566801191217949
 30
0.0
 10
3.112321414036964
 20
0.0492103256318223
 30
0.0
 10
3.116332713578138
 20
0.0411847270334168
 30
0.0
 10
3.119532182841067
 20
0.0327977637020718
 30
0.0
 10
3.121525089264933
 20
0.0238722567208922
 30
0.0
 10
3.122313567845711
 20
0.0145107038634299
 30
0.0
 10
3.122379175259512
 20
0.0047533311265701
 30
0.0
 10
3.121193979575146
 20
-0.0054625054971471
 30
0.0
 10
3.119702553750059
 20
-0.0123116835330132
 30
0.0
 10
3.118933851303627
 20
-0.0158418489784965
 30
0.0
  0
SPLINE
  5
AC
330
1F
100
AcDbEntity
  8
0
  6
Continuous
 62
     7
370
    25
100
AcDbSpline
210
0.0
220
0.0
230
1.0
 70
     8
 71
     3
 72
    15
 73
    11
 74
     0
 42
0.00000001
 43
0.00000001
 40
0.0
 40
0.0
 40
0.0
 40
0.0
 40
0.1312076727260125
 40
0.2563956840917122
 40
0.3796665101373195
 40
0.5035383519459641
 40
0.6278275729842636
 40
0.7498665066189701
 40
0.8722849103983705
 40
1.0
 40
1.0
 40
1.0
 40
1.0
 10
2.583433851303627
 20
-0.0017168489784965
 30
0.0
 10
2.585492511952336
 20
0.0052480104426336
 30
0.0
 10
2.589515384200368
 20
0.0188581893199947
 30
0.0
 10
2.599424987798608
 20
0.0374875868123433
 30
0.0
 10
2.611851461378722
 20
0.0539950003162637
 30
0.0
 10
2.627132188920763
 20
0.0678335193470851
 30
0.0
 10
2.644271160407915
 20
0.079172473358031
 30
0.0
 10
2.663156874731911
 20
0.0870374349496756
 30
0.0
 10
2.683265153730257
 20
0.0919443776051399
 30
0.0
 10
2.697113205930702
 20
0.0922513928223376
 30
0.0
 10
2.704183851303628
 20
0.0924081510215035
 30
0.0
  0
SPLINE
  5
B3
330
1F
100
AcDbEntity
  8
0
  6
Continuous
 62
     7
370
    25
100
AcDbSpline
210
0.0
220
0.0
230
1.0
 70
     8
 71
     3
 72
    15
 73
    11
 74
     0
 42
0.00000001
 43
0.00000001
 40
0.0
 40
0.0
 40
0.0
 40
0.0
 40
0.1315040845232817
 40
0.2574945330922666
 40
0.3805227381564791
 40
0.5056278398871691
 40
0.6298955064697396
 40
0.7513970342511213
 40
0.8731547218166337
 40
1.0
 40
1.0
 40
1.0
 40
1.0
 10
2.508183851303628
 20
-0.3300918489784965
 30
0.0
 10
2.510211769994366
 20
-0.3230526759568102
 30
0.0
 10
2.514182581838834
 20
-0.3092694647573598
 30
0.0
 10
2.523825488427618
 20
-0.2902748715373238
 30
0.0
 10
2.536436207817619
 20
-0.27359427766988
 30
0.0
 10
2.551691241189026
 20
-0.2594628497370162
 30
0.0
 10
2.568853290686848
 20
-0.2478167025583634
 30
0.0
 10
2.587776413280921
 20
-0.2398554610336139
 30
0.0
 10
2.60787283778116
 20
-0.2347708297184716
 30
0.0
 10
2.621735614173805
 20
-0.2344867802231537
 30
0.0
 10
2.628808851303628
 20
-0.2343418489784966
 30
0.0
  0
CIRCLE
  5
B8
330
1F
100
AcDbEntity
  8
0
  6
Continuous
 62
     7
370
    25
100
AcDbCircle
 10
0.3064108723
 20
4.2372166051
 30
0.0
 40
0.0950000000000011
  0
CIRCLE
  5
B9
330
1F
100
AcDbEntity
  8
0
  6
Continuous
 62
     7
370
    25
100
AcDbCircle
 10
1.5564108723
 20
4.2372166051
 30
0.0
 40
0.0950000000000004
  0
LINE
  5
BD
330
1F
100
AcDbEntity
  8
0
  6
Continuous
 62
     7
370
    25
100
AcDbLine
 10
2.1
 20
4.0122166051
 30
0.0
 11
2.1
 21
4.0
 31
0.0
  0
LINE
  5
BE
330
1F
100
AcDbEntity
  8
0
  6
Continuous
 62
     7
370
    25
100
AcDbLine
 10
2.1
 20
4.0
 30
0.0
 11
4.0
 21
-1.5180006676
 31
0.0
  0
LINE
  5
BF
330
1F
100
AcDbEntity
  8
0
  6
Continuous
 62
     7
370
    25
100
AcDbLine
 10
4.0
 20
-3.0
 30
0.0
 11
4.0
 21
-1.5180006676
 31
0.0
  0
LINE
  5
C0
330
1F
100
AcDbEntity
  8
0
  6
Continuous
 62
     7
370
    25
100
AcDbLine
 10
3.8728705432
 20
-3.0
 30
0.0
 11
4.0
 21
-3.0
 31
0.0
  0
LINE
  5
C1
330
1F
100
AcDbEntity
  8
0
  6
Continuous
 62
     7
370
    25
100
AcDbLine
 10
3.8728705432
 20
-3.0
 30
0.0
 11
3.3004110709
 21
-2.5133271002
 31
0.0
  0
LINE
  5
C2
330
1F
100
AcDbEntity
  8
0
  6
Continuous
 62
     7
370
    25
100
AcDbLine
 10
1.0381188788
 20
-1.895132863
 30
0.0
 11
1.0381188788
 21
-4.08075377
 31
0.0
  0
LINE
  5
C3
330
1F
100
AcDbEntity
  8
0
  6
Continuous
 62
     7
370
    25
100
AcDbLine
 10
0.6381188788
 20
-4.48075377
 30
0.0
 11
0.5381188788
 21
-4.48075377
 31
0.0
  0
LINE
  5
C4
330
1F
100
AcDbEntity
  8
0
  6
Continuous
 62
     7
370
    25
100
AcDbLine
 10
0.5381188788
 20
-4.48075377
 30
0.0
 11
0.5381188788
 21
-0.0386058724
 31
0.0
  0
LINE
  5
C5
330
1F
100
AcDbEntity
  8
0
  6
Continuous
 62
     7
370
    25
100
AcDbLine
 10
0.5926003032
 20
0.2869622821
 30
0.0
 11
0.7336374544
 21
0.6965639107
 31
0.0
  0
LINE
  5
C6
330
1F
100
AcDbEntity
  8
0
  6
Continuous
 62
     7
370
    25
100
AcDbLine
 10
0.7881188788
 20
1.0221320652
 30
0.0
 11
0.7881188788
 21
2.802996818
 31
0.0
  0
LINE
  5
C7
330
1F
100
AcDbEntity
  8
0
  6
Continuous
 62
     7
370
    25
100
AcDbLine
 10
-0.0508911982
 20
3.302996818
 30
0.0
 11
0.2881188788
 21
3.302996818
 31
0.0
  0
LINE
  5
C8
330
1F
100
AcDbEntity
  8
0
  6
Continuous
 62
     7
370
    25
100
AcDbLine
 10
-0.5508911982
 20
2.002996818
 30
0.0
 11
-0.5508911982
 21
2.802996818
 31
0.0
  0
LINE
  5
C9
330
1F
100
AcDbEntity
  8
0
  6
Continuous
 62
     7
370
    25
100
AcDbLine
 10
1.5487063005
 20
1.5272453154
 30
0.0
 11
1.6988208845
 21
1.5246217322
 31
0.0
  0
LINE
  5
CA
330
1F
100
AcDbEntity
  8
0
  6
Continuous
 62
     7
370
    25
100
AcDbLine
 10
1.6988208845
 20
1.5246217322
 30
0.0
 11
1.6988208845
 21
1.6126267718
 31
0.0
  0
LINE
  5
CB
330
1F
100
AcDbEntity
  8
0
  6
Continuous
 62
     7
370
    25
100
AcDbLine
 10
1.6988208845
 20
1.6126267718
 30
0.0
 11
1.6849563005
 21
1.6128703154
 31
0.0
  0
LINE
  5
CC
330
1F
100
AcDbEntity
  8
0
  6
Continuous
 62
     7
370
    25
100
AcDbLine
 10
1.6849563005
 20
1.6128703154
 30
0.0
 11
1.7839563005
 21
2.0352453154
 31
0.0
  0
LINE
  5
CD
330
1F
100
AcDbEntity
  8
0
  6
Continuous
 62
     7
370
    25
100
AcDbLine
 10
1.7839563005
 20
2.0352453154
 30
0.0
 11
1.7949855361
 21
2.0350523037
 31
0.0
  0
LINE
  5
CE
330
1F
100
AcDbEntity
  8
0
  6
Continuous
 62
     7
370
    25
100
AcDbLine
 10
1.7949855361
 20
2.0350523037
 30
0.0
 11
1.7949855361
 21
2.1231242576
 31
0.0
  0
LINE
  5
CF
330
1F
100
AcDbEntity
  8
0
  6
Continuous
 62
     7
370
    25
100
AcDbLine
 10
1.7949855361
 20
2.1231242576
 30
0.0
 11
1.6832063005
 21
2.1251203154
 31
0.0
  0
LINE
  5
D0
330
1F
100
AcDbEntity
  8
0
  6
Continuous
 62
     7
370
    25
100
AcDbLine
 10
1.5624563005
 20
2.0294953154
 30
0.0
 11
1.4705813005
 21
1.6297453154
 31
0.0
  0
LINE
  5
D1
330
1F
100
AcDbEntity
  8
0
  6
Continuous
 62
     7
370
    25
100
AcDbLine
 10
2.0122063005
 20
2.1192453154
 30
0.0
 11
1.8735701537
 21
2.1217209608
 31
0.0
  0
LINE
  5
D2
330
1F
100
AcDbEntity
  8
0
  6
Continuous
 62
     7
370
    25
100
AcDbLine
 10
1.8735701537
 20
2.1217209608
 30
0.0
 11
1.8735701537
 21
2.0336770729
 31
0.0
  0
LINE
  5
D3
330
1F
100
AcDbEntity
  8
0
  6
Continuous
 62
     7
370
    25
100
AcDbLine
 10
1.8735701537
 20
2.0336770729
 30
0.0
 11
1.8839563005
 21
2.0334953154
 31
0.0
  0
LINE
  5
D4
330
1F
100
AcDbEntity
  8
0
  6
Continuous
 62
     7
370
    25
100
AcDbLine
 10
1.8839563005
 20
2.0334953154
 30
0.0
 11
1.7845813005
 21
1.6111203154
 31
0.0
  0
LINE
  5
D5
330
1F
100
AcDbEntity
  8
0
  6
Continuous
 62
     7
370
    25
100
AcDbLine
 10
1.7845813005
 20
1.6111203154
 30
0.0
 11
1.7778582291
 21
1.611238412
 31
0.0
  0
LINE
  5
D6
330
1F
100
AcDbEntity
  8
0
  6
Continuous
 62
     7
370
    25
100
AcDbLine
 10
1.7778582291
 20
1.611238412
 30
0.0
 11
1.7778582291
 21
1.5232403804
 31
0.0
  0
LINE
  5
D7
330
1F
100
AcDbEntity
  8
0
  6
Continuous
 62
     7
370
    25
100
AcDbLine
 10
1.7778582291
 20
1.5232403804
 30
0.0
 11
1.8777063005
 21
1.5214953154
 31
0.0
  0
LINE
  5
D8
330
1F
100
AcDbEntity
  8
0
  6
Continuous
 62
     7
370
    25
100
AcDbLine
 10
2.0060813005
 20
1.6167453154
 30
0.0
 11
2.0979563005
 21
2.0166203154
 31
0.0
  0
LINE
  5
D9
330
1F
100
AcDbEntity
  8
0
  6
Continuous
 62
     7
370
    25
100
AcDbLine
 10
1.4729675252
 20
2.5366013975
 30
0.0
 11
1.6092175252
 21
3.1337263975
 31
0.0
  0
LINE
  5
DA
330
1F
100
AcDbEntity
  8
0
  6
Continuous
 62
     7
370
    25
100
AcDbLine
 10
1.6092175252
 20
3.1337263975
 30
0.0
 11
1.1727175252
 21
3.1414763975
 31
0.0
  0
LINE
  5
DB
330
1F
100
AcDbEntity
  8
0
  6
Continuous
 62
     7
370
    25
100
AcDbLine
 10
1.0519675252
 20
3.0473513975
 30
0.0
 11
1.0342175252
 21
2.9591013975
 31
0.0
  0
LINE
  5
DC
330
1F
100
AcDbEntity
  8
0
  6
Continuous
 62
     7
370
    25
100
AcDbLine
 10
1.0342175252
 20
2.9591013975
 30
0.0
 11
1.2513425252
 21
2.9552263975
 31
0.0
  0
LINE
  5
DD
330
1F
100
AcDbEntity
  8
0
  6
Continuous
 62
     7
370
    25
100
AcDbLine
 10
1.2513425252
 20
2.9552263975
 30
0.0
 11
1.2734675252
 21
3.0516013975
 31
0.0
  0
LINE
  5
DE
330
1F
100
AcDbEntity
  8
0
  6
Continuous
 62
     7
370
    25
100
AcDbLine
 10
1.2734675252
 20
3.0516013975
 30
0.0
 11
1.3734675252
 21
3.0498513975
 31
0.0
  0
LINE
  5
DF
330
1F
100
AcDbEntity
  8
0
  6
Continuous
 62
     7
370
    25
100
AcDbLine
 10
1.3734675252
 20
3.0498513975
 30
0.0
 11
1.2558425252
 21
2.5404763975
 31
0.0
  0
LINE
  5
E0
330
1F
100
AcDbEntity
  8
0
  6
Continuous
 62
     7
370
    25
100
AcDbLine
 10
1.2558425252
 20
2.5404763975
 30
0.0
 11
1.4729675252
 21
2.5366013975
 31
0.0
  0
LINE
  5
E1
330
1F
100
AcDbEntity
  8
0
  6
Continuous
 62
     7
370
    25
100
AcDbLine
 10
2.2876950759
 20
1.1071392332
 30
0.0
 11
2.0700700759
 21
1.1108892332
 31
0.0
  0
LINE
  5
E2
330
1F
100
AcDbEntity
  8
0
  6
Continuous
 62
     7
370
    25
100
AcDbLine
 10
2.0700700759
 20
1.1108892332
 30
0.0
 11
1.9978200759
 21
0.7968892332
 31
0.0
  0
LINE
  5
E3
330
1F
100
AcDbEntity
  8
0
  6
Continuous
 62
     7
370
    25
100
AcDbLine
 10
2.0760700759
 20
0.6947642332
 30
0.0
 11
2.2935700759
 21
0.6908892332
 31
0.0
  0
LINE
  5
E4
330
1F
100
AcDbEntity
  8
0
  6
Continuous
 62
     7
370
    25
100
AcDbLine
 10
2.2935700759
 20
0.6908892332
 30
0.0
 11
2.2513200759
 21
0.5075142332
 31
0.0
  0
LINE
  5
E5
330
1F
100
AcDbEntity
  8
0
  6
Continuous
 62
     7
370
    25
100
AcDbLine
 10
2.2513200759
 20
0.5075142332
 30
0.0
 11
2.4684450759
 21
0.5036392332
 31
0.0
  0
LINE
  5
E6
330
1F
100
AcDbEntity
  8
0
  6
Continuous
 62
     7
370
    25
100
AcDbLine
 10
2.4684450759
 20
0.5036392332
 30
0.0
 11
2.6048200759
 21
1.1015142332
 31
0.0
  0
LINE
  5
E7
330
1F
100
AcDbEntity
  8
0
  6
Continuous
 62
     7
370
    25
100
AcDbLine
 10
2.6048200759
 20
1.1015142332
 30
0.0
 11
2.3873200759
 21
1.1052642332
 31
0.0
  0
LINE
  5
E8
330
1F
100
AcDbEntity
  8
0
  6
Continuous
 62
     7
370
    25
100
AcDbLine
 10
2.3873200759
 20
1.1052642332
 30
0.0
 11
2.3119450759
 21
0.7785142332
 31
0.0
  0
LINE
  5
E9
330
1F
100
AcDbEntity
  8
0
  6
Continuous
 62
     7
370
    25
100
AcDbLine
 10
2.3119450759
 20
0.7785142332
 30
0.0
 11
2.2123200759
 21
0.7802642332
 31
0.0
  0
LINE
  5
EA
330
1F
100
AcDbEntity
  8
0
  6
Continuous
 62
     7
370
    25
100
AcDbLine
 10
2.2123200759
 20
0.7802642332
 30
0.0
 11
2.2876950759
 21
1.1071392332
 31
0.0
  0
LINE
  5
EB
330
1F
100
AcDbEntity
  8
0
  6
Continuous
 62
     7
370
    25
100
AcDbLine
 10
2.7059338513
 20
-0.419841849
 30
0.0
 11
2.7295588513
 21
-0.324216849
 31
0.0
  0
LINE
  5
EC
330
1F
100
AcDbEntity
  8
0
  6
Continuous
 62
     7
370
    25
100
AcDbLine
 10
2.7295588513
 20
-0.324216849
 30
0.0
 11
2.9409338513
 21
-0.327966849
 31
0.0
  0
LINE
  5
ED
330
1F
100
AcDbEntity
  8
0
  6
Continuous
 62
     7
370
    25
100
AcDbLine
 10
3.0693088513
 20
-0.232966849
 30
0.0
 11
3.1189338513
 21
-0.015841849
 31
0.0
  0
LINE
  5
EE
330
1F
100
AcDbEntity
  8
0
  6
Continuous
 62
     7
370
    25
100
AcDbLine
 10
3.0331838513
 20
0.086533151
 30
0.0
 11
2.7041838513
 21
0.092408151
 31
0.0
  0
LINE
  5
EF
330
1F
100
AcDbEntity
  8
0
  6
Continuous
 62
     7
370
    25
100
AcDbLine
 10
2.5834338513
 20
-0.001716849
 30
0.0
 11
2.5656838513
 21
-0.089966849
 31
0.0
  0
LINE
  5
F0
330
1F
100
AcDbEntity
  8
0
  6
Continuous
 62
     7
370
    25
100
AcDbLine
 10
2.5656838513
 20
-0.089966849
 30
0.0
 11
2.7828088513
 21
-0.093841849
 31
0.0
  0
LINE
  5
F1
330
1F
100
AcDbEntity
  8
0
  6
Continuous
 62
     7
370
    25
100
AcDbLine
 10
2.7828088513
 20
-0.093841849
 30
0.0
 11
2.8049338513
 21
0.002533151
 31
0.0
  0
LINE
  5
F2
330
1F
100
AcDbEntity
  8
0
  6
Continuous
 62
     7
370
    25
100
AcDbLine
 10
2.8049338513
 20
0.002533151
 30
0.0
 11
2.9049338513
 21
0.000783151
 31
0.0
  0
LINE
  5
F3
330
1F
100
AcDbEntity
  8
0
  6
Continuous
 62
     7
370
    25
100
AcDbLine
 10
2.9049338513
 20
0.000783151
 30
0.0
 11
2.8479338513
 21
-0.238216849
 31
0.0
  0
LINE
  5
F4
330
1F
100
AcDbEntity
  8
0
  6
Continuous
 62
     7
370
    25
100
AcDbLine
 10
2.8479338513
 20
-0.238216849
 30
0.0
 11
2.6288088513
 21
-0.234341849
 31
0.0
  0
LINE
  5
F5
330
1F
100
AcDbEntity
  8
0
  6
Continuous
 62
     7
370
    25
100
AcDbLine
 10
2.5081838513
 20
-0.330091849
 30
0.0
 11
2.4700588513
 21
-0.503591849
 31
0.0
  0
LINE
  5
F6
330
1F
100
AcDbEntity
  8
0
  6
Continuous
 62
     7
370
    25
100
AcDbLine
 10
2.4700588513
 20
-0.503591849
 30
0.0
 11
3.0044338513
 21
-0.513091849
 31
0.0
  0
LINE
  5
F7
330
1F
100
AcDbEntity
  8
0
  6
Continuous
 62
     7
370
    25
100
AcDbLine
 10
3.0044338513
 20
-0.513091849
 30
0.0
 11
3.0230588513
 21
-0.425466849
 31
0.0
  0
LINE
  5
F8
330
1F
100
AcDbEntity
  8
0
  6
Continuous
 62
     7
370
    25
100
AcDbLine
 10
3.0230588513
 20
-0.425466849
 30
0.0
 11
2.7059338513
 21
-0.419841849
 31
0.0
  0
LINE
  5
F9
330
1F
100
AcDbEntity
  8
0
  6
Continuous
 62
     7
370
    25
100
AcDbLine
 10
-0.5508911982
 20
2.002996818
 30
0.0
 11
-1.4435891277
 21
2.002996818
 31
0.0
  0
LINE
  5
FA
330
1F
100
AcDbEntity
  8
0
  6
Continuous
 62
     7
370
    25
100
AcDbLine
 10
-1.4435891277
 20
4.6122166051
 30
0.0
 11
-1.4435891277
 21
2.002996818
 31
0.0
  0
LINE
  5
FB
330
1F
100
AcDbEntity
  8
0
  6
Continuous
 62
     7
370
    25
100
AcDbLine
 10
-1.4435891277
 20
4.6122166051
 30
0.0
 11
1.5
 21
4.6122166051
 31
0.0
  0
ARC
  5
FC
330
1F
100
AcDbEntity
  8
0
  6
Continuous
 62
     7
370
    25
100
AcDbCircle
 10
1.5
 20
4.0122166051
 30
0.0
 40
0.6000000000000014
100
AcDbArc
 50
0.0
 51
90.0
  0
ARC
  5
FD
330
1F
100
AcDbEntity
  8
0
  6
Continuous
 62
     7
370
    25
100
AcDbCircle
 10
1.75
 20
-3.0
 30
0.0
 40
1.625
100
AcDbArc
 50
17.4270348926
 51
100.8558528255
  0
ARC
  5
FE
330
1F
100
AcDbEntity
  8
0
  6
Continuous
 62
     7
370
    25
100
AcDbCircle
 10
1.5381188788
 20
-1.895132863
 30
0.0
 40
0.5000000000000016
100
AcDbArc
 50
100.8558528255
 51
180.0
  0
ARC
  5
FF
330
1F
100
AcDbEntity
  8
0
  6
Continuous
 62
     7
370
    25
100
AcDbCircle
 10
0.6381188788
 20
-4.08075377
 30
0.0
 40
0.3999999999999987
100
AcDbArc
 50
270.0
 51
0.0
  0
ARC
  5
100
330
1F
100
AcDbEntity
  8
0
  6
Continuous
 62
     7
370
    25
100
AcDbCircle
 10
1.5381188788
 20
-0.0386058724
 30
0.0
 40
1.000000000000009
100
AcDbArc
 50
161.0
 51
180.0
  0
ARC
  5
101
330
1F
100
AcDbEntity
  8
0
  6
Continuous
 62
     7
370
    25
100
AcDbCircle
 10
-0.2118811212
 20
1.0221320652
 30
0.0
 40
1.000000000000001
100
AcDbArc
 50
341.0
 51
0.0
  0
ARC
  5
102
330
1F
100
AcDbEntity
  8
0
  6
Continuous
 62
     7
370
    25
100
AcDbCircle
 10
0.2881188788
 20
2.802996818
 30
0.0
 40
0.5000000000000009
100
AcDbArc
 50
0.0
 51
90.0
  0
ARC
  5
103
330
1F
100
AcDbEntity
  8
0
  6
Continuous
 62
     7
370
    25
100
AcDbCircle
 10
-0.0508911982
 20
2.802996818
 30
0.0
 40
0.5000000000000009
100
AcDbArc
 50
90.0
 51
180.0
  0
MTEXT
  5
105
330
1F
100
AcDbEntity
  8
0
  6
Continuous
 62
     7
100
AcDbMText
 10
-1.4435891277
 20
-4.5208941791
 30
0.0
 40
0.1903
 41
0.0
 71
     1
 72
     1
  1
SOLIDWORKS Educational Product.
  7
SLDTEXTSTYLE0
 73
     1
 44
1.0
  0
MTEXT
  5
106
330
1F
100
AcDbEntity
  8
0
  6
Continuous
 62
     7
100
AcDbMText
 10
-1.4435891277
 20
-4.8063441791
 30
0.0
 40
0.1903
 41
0.0
 71
     1
 72
     1
  1
For Instructional Use Only.
  7
SLDTEXTSTYLE0
 73
     1
 44
1.0
  0
ENDSEC
  0
SECTION
  2
OBJECTS
  0
DICTIONARY
  5
C
330
0
100
AcDbDictionary
281
     1
  3
ACAD_GROUP
350
D
  3
ACAD_LAYOUT
350
1A
  3
ACAD_MLINESTYLE
350
17
  3
ACAD_PLOTSETTINGS
350
19
  3
ACAD_PLOTSTYLENAME
350
E
  3
ACAD_SCALELIST
350
47
  3
DWGPROPS
350
107
  0
DICTIONARY
  5
D
102
{ACAD_REACTORS
330
C
102
}
330
C
100
AcDbDictionary
281
     1
  0
DICTIONARY
  5
1A
102
{ACAD_REACTORS
330
C
102
}
330
C
100
AcDbDictionary
281
     1
  3
Layout1
350
1E
  3
Layout2
350
26
  3
Model
350
22
  0
DICTIONARY
  5
17
102
{ACAD_REACTORS
330
C
102
}
330
C
100
AcDbDictionary
281
     1
  3
Standard
350
18
  0
DICTIONARY
  5
19
102
{ACAD_REACTORS
330
C
102
}
330
C
100
AcDbDictionary
281
     1
  0
ACDBDICTIONARYWDFLT
  5
E
102
{ACAD_REACTORS
330
C
102
}
330
C
100
AcDbDictionary
281
     1
  3
Normal
350
F
100
AcDbDictionaryWithDefault
340
F
  0
DICTIONARY
  5
47
102
{ACAD_REACTORS
330
C
102
}
330
C
100
AcDbDictionary
281
     1
  3
A0
350
48
  3
A1
350
49
  3
A2
350
4A
  3
A3
350
4B
  3
A4
350
4C
  3
A5
350
4D
  3
A6
350
4E
  3
A7
350
4F
  3
A8
350
50
  3
A9
350
51
  3
B1
350
52
  3
B2
350
53
  3
B3
350
54
  3
B4
350
55
  3
B5
350
56
  3
B6
350
57
  3
B7
350
58
  0
XRECORD
  5
107
102
{ACAD_REACTORS
330
C
102
}
330
C
100
AcDbXrecord
280
     1
  1
DWGPROPS COOKIE
  2

  3

  4

  6

  7

  8
ericg
  9

300
=
301
=
302
=
303
=
304
=
305
=
306
=
307
=
308
=
309
=
 40
0.0
 41
2460366.331595695
 42
2460366.331857535
  1

 90
        0
  0
LAYOUT
  5
1E
102
{ACAD_REACTORS
330
1A
102
}
330
1A
100
AcDbPlotSettings
  1

  2
none_device
  4

  6

 40
0.0
 41
0.0
 42
0.0
 43
0.0
 44
0.0
 45
0.0
 46
0.0
 47
0.0
 48
0.0
 49
0.0
140
0.0
141
0.0
142
1.0
143
1.0
 70
   688
 72
     0
 73
     0
 74
     5
  7

 75
    16
147
1.0
148
0.0
149
0.0
100
AcDbLayout
  1
Layout1
 70
     1
 71
     1
 10
0.0
 20
0.0
 11
12.0
 21
9.0
 12
0.0
 22
0.0
 32
0.0
 14
1.0000000000E+20
 24
1.0000000000E+20
 34
1.0000000000E+20
 15
-1.0000000000E+20
 25
-1.0000000000E+20
 35
-1.0000000000E+20
146
0.0
 13
0.0
 23
0.0
 33
0.0
 16
1.0
 26
0.0
 36
0.0
 17
0.0
 27
1.0
 37
0.0
 76
     0
330
1B
  0
LAYOUT
  5
26
102
{ACAD_REACTORS
330
1A
102
}
330
1A
100
AcDbPlotSettings
  1

  2
none_device
  4

  6

 40
0.0
 41
0.0
 42
0.0
 43
0.0
 44
0.0
 45
0.0
 46
0.0
 47
0.0
 48
0.0
 49
0.0
140
0.0
141
0.0
142
1.0
143
1.0
 70
   688
 72
     0
 73
     0
 74
     5
  7

 75
    16
147
1.0
148
0.0
149
0.0
100
AcDbLayout
  1
Layout2
 70
     1
 71
     2
 10
0.0
 20
0.0
 11
0.0
 21
0.0
 12
0.0
 22
0.0
 32
0.0
 14
0.0
 24
0.0
 34
0.0
 15
0.0
 25
0.0
 35
0.0
146
0.0
 13
0.0
 23
0.0
 33
0.0
 16
1.0
 26
0.0
 36
0.0
 17
0.0
 27
1.0
 37
0.0
 76
     0
330
23
  0
LAYOUT
  5
22
102
{ACAD_REACTORS
330
1A
102
}
330
1A
100
AcDbPlotSettings
  1

  2
none_device
  4
ANSI_A_(11.00_x_8.50_Inches)
  6

 40
6.35
 41
19.05
 42
6.35000508
 43
19.05000254
 44
279.4
 45
215.9
 46
103.3042701724
 47
87.3549041857
 48
0.0
 49
0.0
140
0.0
141
0.0
142
0.9254401645
143
1.0
 70
  1696
 72
     0
 73
     0
 74
     0
  7

 75
     0
147
0.5913241897
148
-39.4088153714
149
0.0
100
AcDbLayout
  1
Model
 70
     1
 71
     0
 10
0.0
 20
0.0
 11
12.0
 21
9.0
 12
0.0
 22
0.0
 32
0.0
 14
-1.4435891277
 24
-4.48075377
 34
0.0
 15
4.0
 25
4.6122166051
 35
0.0
146
0.0
 13
0.0
 23
0.0
 33
0.0
 16
1.0
 26
0.0
 36
0.0
 17
0.0
 27
1.0
 37
0.0
 76
     0
330
1F
331
29
  0
MLINESTYLE
  5
18
102
{ACAD_REACTORS
330
17
102
}
330
17
100
AcDbMlineStyle
  2
Standard
 70
     0
  3

 62
   256
 51
90.0
 52
90.0
 71
     2
 49
0.5
 62
   256
  6
BYLAYER
 49
-0.5
 62
   256
  6
BYLAYER
  0
ACDBPLACEHOLDER
  5
F
102
{ACAD_REACTORS
330
E
102
}
330
E
  0
SCALE
  5
48
102
{ACAD_REACTORS
330
47
102
}
330
47
100
AcDbScale
 70
     0
300
1:1
140
1.0
141
1.0
290
     1
  0
SCALE
  5
49
102
{ACAD_REACTORS
330
47
102
}
330
47
100
AcDbScale
 70
     0
300
1/128" = 1'-0"
140
0.0078125
141
12.0
290
     0
  0
SCALE
  5
4A
102
{ACAD_REACTORS
330
47
102
}
330
47
100
AcDbScale
 70
     0
300
1/64" = 1'-0"
140
0.015625
141
12.0
290
     0
  0
SCALE
  5
4B
102
{ACAD_REACTORS
330
47
102
}
330
47
100
AcDbScale
 70
     0
300
1/32" = 1'-0"
140
0.03125
141
12.0
290
     0
  0
SCALE
  5
4C
102
{ACAD_REACTORS
330
47
102
}
330
47
100
AcDbScale
 70
     0
300
1/16" = 1'-0"
140
0.0625
141
12.0
290
     0
  0
SCALE
  5
4D
102
{ACAD_REACTORS
330
47
102
}
330
47
100
AcDbScale
 70
     0
300
3/32" = 1'-0"
140
0.09375
141
12.0
290
     0
  0
SCALE
  5
4E
102
{ACAD_REACTORS
330
47
102
}
330
47
100
AcDbScale
 70
     0
300
1/8" = 1'-0"
140
0.125
141
12.0
290
     0
  0
SCALE
  5
4F
102
{ACAD_REACTORS
330
47
102
}
330
47
100
AcDbScale
 70
     0
300
3/16" = 1'-0"
140
0.1875
141
12.0
290
     0
  0
SCALE
  5
50
102
{ACAD_REACTORS
330
47
102
}
330
47
100
AcDbScale
 70
     0
300
1/4" = 1'-0"
140
0.25
141
12.0
290
     0
  0
SCALE
  5
51
102
{ACAD_REACTORS
330
47
102
}
330
47
100
AcDbScale
 70
     0
300
3/8" = 1'-0"
140
0.375
141
12.0
290
     0
  0
SCALE
  5
52
102
{ACAD_REACTORS
330
47
102
}
330
47
100
AcDbScale
 70
     0
300
1/2" = 1'-0"
140
0.5
141
12.0
290
     0
  0
SCALE
  5
53
102
{ACAD_REACTORS
330
47
102
}
330
47
100
AcDbScale
 70
     0
300
3/4" = 1'-0"
140
0.75
141
12.0
290
     0
  0
SCALE
  5
54
102
{ACAD_REACTORS
330
47
102
}
330
47
100
AcDbScale
 70
     0
300
1" = 1'-0"
140
1.0
141
12.0
290
     0
  0
SCALE
  5
55
102
{ACAD_REACTORS
330
47
102
}
330
47
100
AcDbScale
 70
     0
300
1-1/2" = 1'-0"
140
1.5
141
12.0
290
     0
  0
SCALE
  5
56
102
{ACAD_REACTORS
330
47
102
}
330
47
100
AcDbScale
 70
     0
300
3" = 1'-0"
140
3.0
141
12.0
290
     0
  0
SCALE
  5
57
102
{ACAD_REACTORS
330
47
102
}
330
47
100
AcDbScale
 70
     0
300
6" = 1'-0"
140
6.0
141
12.0
290
     0
  0
SCALE
  5
58
102
{ACAD_REACTORS
330
47
102
}
330
47
100
AcDbScale
 70
     0
300
1'-0" = 1'-0"
140
12.0
141
12.0
290
     0
  0
ENDSEC
  0
EOF
