  0
SECTION
  2
HEADER
  9
$ACADVER
  1
AC1015
  9
$ACADMAINTVER
 70
     6
  9
$DWGCODEPAGE
  3
ANSI_1252
  9
$INSBASE
 10
0.0
 20
0.0
 30
0.0
  9
$EXTMIN
 10
-4.0
 20
-4.48075377
 30
0.0
  9
$EXTMAX
 10
1.4435891277
 20
4.6122166051
 30
0.0
  9
$LIMMIN
 10
0.0
 20
0.0
  9
$LIMMAX
 10
12.0
 20
9.0
  9
$ORTHOMODE
 70
     0
  9
$REGENMODE
 70
     1
  9
$FILLMODE
 70
     1
  9
$QTEXTMODE
 70
     0
  9
$MIRRTEXT
 70
     1
  9
$LTSCALE
 40
1.0
  9
$ATTMODE
 70
     1
  9
$TEXTSIZE
 40
0.1377952756
  9
$TRACEWID
 40
0.05
  9
$TEXTSTYLE
  7
Standard
  9
$CLAYER
  8
0
  9
$CELTYPE
  6
ByLayer
  9
$CECOLOR
 62
   256
  9
$CELTSCALE
 40
1.0
  9
$DISPSILH
 70
     0
  9
$DIMSCALE
 40
1.0
  9
$DIMASZ
 40
0.13
  9
$DIMEXO
 40
0.0
  9
$DIMDLI
 40
0.38
  9
$DIMRND
 40
0.0
  9
$DIMDLE
 40
0.0
  9
$DIMEXE
 40
0.125
  9
$DIMTP
 40
0.0
  9
$DIMTM
 40
0.0
  9
$DIMTXT
 40
0.1377952756
  9
$DIMCEN
 40
0.09
  9
$DIMTSZ
 40
0.0
  9
$DIMTOL
 70
     0
  9
$DIMLIM
 70
     0
  9
$DIMTIH
 70
     1
  9
$DIMTOH
 70
     1
  9
$DIMSE1
 70
     0
  9
$DIMSE2
 70
     0
  9
$DIMTAD
 70
     1
  9
$DIMZIN
 70
     1
  9
$DIMBLK
  1

  9
$DIMASO
 70
     1
  9
$DIMSHO
 70
     1
  9
$DIMPOST
  1

  9
$DIMAPOST
  1

  9
$DIMALT
 70
     0
  9
$DIMALTD
 70
     2
  9
$DIMALTF
 40
25.4
  9
$DIMLFAC
 40
1.0
  9
$DIMTOFL
 70
     0
  9
$DIMTVP
 40
0.0
  9
$DIMTIX
 70
     0
  9
$DIMSOXD
 70
     0
  9
$DIMSAH
 70
     0
  9
$DIMBLK1
  1

  9
$DIMBLK2
  1

  9
$DIMSTYLE
  2
Standard
  9
$DIMCLRD
 70
     0
  9
$DIMCLRE
 70
     0
  9
$DIMCLRT
 70
     0
  9
$DIMTFAC
 40
1.0
  9
$DIMGAP
 40
0.06
  9
$DIMJUST
 70
     0
  9
$DIMSD1
 70
     0
  9
$DIMSD2
 70
     0
  9
$DIMTOLJ
 70
     1
  9
$DIMTZIN
 70
     1
  9
$DIMALTZ
 70
     0
  9
$DIMALTTZ
 70
     0
  9
$DIMUPT
 70
     0
  9
$DIMDEC
 70
     2
  9
$DIMTDEC
 70
     2
  9
$DIMALTU
 70
     2
  9
$DIMALTTD
 70
     2
  9
$DIMTXSTY
  7
Standard
  9
$DIMAUNIT
 70
     0
  9
$DIMADEC
 70
     2
  9
$DIMALTRND
 40
0.0
  9
$DIMAZIN
 70
     0
  9
$DIMDSEP
 70
    46
  9
$DIMATFIT
 70
     3
  9
$DIMFRAC
 70
     0
  9
$DIMLDRBLK
  1

  9
$DIMLUNIT
 70
     2
  9
$DIMLWD
 70
    -2
  9
$DIMLWE
 70
    -2
  9
$DIMTMOVE
 70
     0
  9
$LUNITS
 70
     2
  9
$LUPREC
 70
     6
  9
$SKETCHINC
 40
0.1
  9
$FILLETRAD
 40
0.0
  9
$AUNITS
 70
     0
  9
$AUPREC
 70
     2
  9
$MENU
  1
.
  9
$ELEVATION
 40
0.0
  9
$PELEVATION
 40
0.0
  9
$THICKNESS
 40
0.0
  9
$LIMCHECK
 70
     0
  9
$CHAMFERA
 40
0.0
  9
$CHAMFERB
 40
0.0
  9
$CHAMFERC
 40
0.0
  9
$CHAMFERD
 40
0.0
  9
$SKPOLY
 70
     0
  9
$TDCREATE
 40
2460365.996806956
  9
$TDUCREATE
 40
2460366.33014029
  9
$TDUPDATE
 40
2460365.997101285
  9
$TDUUPDATE
 40
2460366.330434618
  9
$TDINDWG
 40
0.0000000116
  9
$TDUSRTIMER
 40
0.0000000116
  9
$USRTIMER
 70
     1
  9
$ANGBASE
 50
0.0
  9
$ANGDIR
 70
     0
  9
$PDMODE
 70
     0
  9
$PDSIZE
 40
-1.0
  9
$PLINEWID
 40
0.0
  9
$SPLFRAME
 70
     0
  9
$SPLINETYPE
 70
     6
  9
$SPLINESEGS
 70
     8
  9
$HANDSEED
  5
C1
  9
$SURFTAB1
 70
     6
  9
$SURFTAB2
 70
     6
  9
$SURFTYPE
 70
     6
  9
$SURFU
 70
     6
  9
$SURFV
 70
     6
  9
$UCSBASE
  2

  9
$UCSNAME
  2

  9
$UCSORG
 10
0.0
 20
0.0
 30
0.0
  9
$UCSXDIR
 10
1.0
 20
0.0
 30
0.0
  9
$UCSYDIR
 10
0.0
 20
1.0
 30
0.0
  9
$UCSORTHOREF
  2

  9
$UCSORTHOVIEW
 70
     0
  9
$UCSORGTOP
 10
0.0
 20
0.0
 30
0.0
  9
$UCSORGBOTTOM
 10
0.0
 20
0.0
 30
0.0
  9
$UCSORGLEFT
 10
0.0
 20
0.0
 30
0.0
  9
$UCSORGRIGHT
 10
0.0
 20
0.0
 30
0.0
  9
$UCSORGFRONT
 10
0.0
 20
0.0
 30
0.0
  9
$UCSORGBACK
 10
0.0
 20
0.0
 30
0.0
  9
$PUCSBASE
  2

  9
$PUCSNAME
  2

  9
$PUCSORG
 10
0.0
 20
0.0
 30
0.0
  9
$PUCSXDIR
 10
1.0
 20
0.0
 30
0.0
  9
$PUCSYDIR
 10
0.0
 20
1.0
 30
0.0
  9
$PUCSORTHOREF
  2

  9
$PUCSORTHOVIEW
 70
     0
  9
$PUCSORGTOP
 10
0.0
 20
0.0
 30
0.0
  9
$PUCSORGBOTTOM
 10
0.0
 20
0.0
 30
0.0
  9
$PUCSORGLEFT
 10
0.0
 20
0.0
 30
0.0
  9
$PUCSORGRIGHT
 10
0.0
 20
0.0
 30
0.0
  9
$PUCSORGFRONT
 10
0.0
 20
0.0
 30
0.0
  9
$PUCSORGBACK
 10
0.0
 20
0.0
 30
0.0
  9
$USERI1
 70
     0
  9
$USERI2
 70
     0
  9
$USERI3
 70
     0
  9
$USERI4
 70
     0
  9
$USERI5
 70
     0
  9
$USERR1
 40
0.0
  9
$USERR2
 40
0.0
  9
$USERR3
 40
0.0
  9
$USERR4
 40
0.0
  9
$USERR5
 40
0.0
  9
$WORLDVIEW
 70
     1
  9
$SHADEDGE
 70
     3
  9
$SHADEDIF
 70
    70
  9
$TILEMODE
 70
     1
  9
$MAXACTVP
 70
    64
  9
$PINSBASE
 10
0.0
 20
0.0
 30
0.0
  9
$PLIMCHECK
 70
     0
  9
$PEXTMIN
 10
1.0000000000E+20
 20
1.0000000000E+20
 30
1.0000000000E+20
  9
$PEXTMAX
 10
-1.0000000000E+20
 20
-1.0000000000E+20
 30
-1.0000000000E+20
  9
$PLIMMIN
 10
0.0
 20
0.0
  9
$PLIMMAX
 10
12.0
 20
9.0
  9
$UNITMODE
 70
     0
  9
$VISRETAIN
 70
     1
  9
$PLINEGEN
 70
     0
  9
$PSLTSCALE
 70
     1
  9
$TREEDEPTH
 70
  3020
  9
$CMLSTYLE
  2
Standard
  9
$CMLJUST
 70
     0
  9
$CMLSCALE
 40
1.0
  9
$PROXYGRAPHICS
 70
     1
  9
$MEASUREMENT
 70
     0
  9
$CELWEIGHT
370
    -1
  9
$ENDCAPS
280
     0
  9
$JOINSTYLE
280
     0
  9
$LWDISPLAY
290
     1
  9
$INSUNITS
 70
     1
  9
$HYPERLINKBASE
  1

  9
$STYLESHEET
  1

  9
$XEDIT
290
     1
  9
$CEPSNTYPE
380
     0
  9
$PSTYLEMODE
290
     1
  9
$FINGERPRINTGUID
  2
{59c9912a-5b4d-4586-ab8b-812a8f8254ca}
  9
$VERSIONGUID
  2
{FAEB1C32-E019-11D5-929B-00C0DF256EC4}
  9
$EXTNAMES
290
     1
  9
$PSVPSCALE
 40
0.0
  9
$OLESTARTUP
290
     0
  0
ENDSEC
  0
SECTION
  2
CLASSES
  0
CLASS
  1
ACDBDICTIONARYWDFLT
  2
AcDbDictionaryWithDefault
  3
ObjectDBX Classes
 90
        0
280
     0
281
     0
  0
CLASS
  1
VISUALSTYLE
  2
AcDbVisualStyle
  3
ObjectDBX Classes
 90
     4095
280
     0
281
     0
  0
CLASS
  1
MATERIAL
  2
AcDbMaterial
  3
ObjectDBX Classes
 90
     1153
280
     0
281
     0
  0
CLASS
  1
SCALE
  2
AcDbScale
  3
ObjectDBX Classes
 90
     1153
280
     0
281
     0
  0
CLASS
  1
TABLESTYLE
  2
AcDbTableStyle
  3
ObjectDBX Classes
 90
     4095
280
     0
281
     0
  0
CLASS
  1
MLEADERSTYLE
  2
AcDbMLeaderStyle
  3
ACDB_MLEADERSTYLE_CLASS
 90
     4095
280
     0
281
     0
  0
CLASS
  1
SUN
  2
AcDbSun
  3
SCENEOE
 90
     1153
280
     0
281
     0
  0
CLASS
  1
ACDBPLACEHOLDER
  2
AcDbPlaceHolder
  3
ObjectDBX Classes
 90
        0
280
     0
281
     0
  0
CLASS
  1
LAYOUT
  2
AcDbLayout
  3
ObjectDBX Classes
 90
        0
280
     0
281
     0
  0
ENDSEC
  0
SECTION
  2
TABLES
  0
TABLE
  2
VPORT
  5
8
330
0
100
AcDbSymbolTable
 70
     1
  0
VPORT
  5
29
330
8
100
AcDbSymbolTableRecord
100
AcDbViewportTableRecord
  2
*Active
 70
     0
 10
0.0
 20
0.0
 11
1.0
 21
1.0
 12
-1.2782054361
 22
0.0657314175
 13
0.0
 23
0.0
 14
0.5
 24
0.5
 15
0.5
 25
0.5
 16
0.0
 26
0.0
 36
1.0
 17
0.0
 27
0.0
 37
0.0
 40
9.2748297826
 41
0.5986590633
 42
50.0
 43
0.0
 44
0.0
 50
0.0
 51
0.0
 71
     0
 72
   100
 73
     1
 74
     3
 75
     0
 76
     0
 77
     0
 78
     0
281
     0
 65
     1
110
0.0
120
0.0
130
0.0
111
1.0
121
0.0
131
0.0
112
0.0
122
1.0
132
0.0
 79
     0
146
0.0
  0
ENDTAB
  0
TABLE
  2
LTYPE
  5
5
330
0
100
AcDbSymbolTable
 70
     6
  0
LTYPE
  5
14
330
5
100
AcDbSymbolTableRecord
100
AcDbLinetypeTableRecord
  2
ByBlock
 70
     0
  3

 72
    65
 73
     0
 40
0.0
  0
LTYPE
  5
15
330
5
100
AcDbSymbolTableRecord
100
AcDbLinetypeTableRecord
  2
ByLayer
 70
     0
  3

 72
    65
 73
     0
 40
0.0
  0
LTYPE
  5
16
330
5
100
AcDbSymbolTableRecord
100
AcDbLinetypeTableRecord
  2
Continuous
 70
     0
  3
Solid line
 72
    65
 73
     0
 40
0.0
  0
LTYPE
  5
5E
330
5
100
AcDbSymbolTableRecord
100
AcDbLinetypeTableRecord
  2
HIDDEN
 70
     0
  3
Hidden __ __ __ __ __ __ __ __ __ __ __ __ __ __
 72
    65
 73
     2
 40
0.075
 49
0.05
 74
     0
 49
-0.025
 74
     0
  0
LTYPE
  5
5F
330
5
100
AcDbSymbolTableRecord
100
AcDbLinetypeTableRecord
  2
PHANTOM
 70
     0
  3
Phantom ______  __  __  ______  __  __  ______
 72
    65
 73
     6
 40
0.5
 49
0.25
 74
     0
 49
-0.05
 74
     0
 49
0.05
 74
     0
 49
-0.05
 74
     0
 49
0.05
 74
     0
 49
-0.05
 74
     0
  0
LTYPE
  5
60
330
5
100
AcDbSymbolTableRecord
100
AcDbLinetypeTableRecord
  2
CENTER
 70
     0
  3
Center ____ _ ____ _ ____ _ ____ _ ____ _ ____
 72
    65
 73
     4
 40
0.4
 49
0.25
 74
     0
 49
-0.05
 74
     0
 49
0.05
 74
     0
 49
-0.05
 74
     0
  0
LTYPE
  5
61
330
5
100
AcDbSymbolTableRecord
100
AcDbLinetypeTableRecord
  2
CENTERX2
 70
     0
  3
Center (2x) ________  __  ________  __  _____
 72
    65
 73
     4
 40
0.8
 49
0.5
 74
     0
 49
-0.1
 74
     0
 49
0.1
 74
     0
 49
-0.1
 74
     0
  0
LTYPE
  5
62
330
5
100
AcDbSymbolTableRecord
100
AcDbLinetypeTableRecord
  2
DOT2
 70
     0
  3
Dot (.5x) ........................................
 72
    65
 73
     2
 40
0.025
 49
0.0
 74
     0
 49
-0.025
 74
     0
  0
ENDTAB
  0
TABLE
  2
LAYER
  5
2
330
0
100
AcDbSymbolTable
 70
     1
  0
LAYER
  5
10
330
2
100
AcDbSymbolTableRecord
100
AcDbLayerTableRecord
  2
0
 70
     0
 62
     7
  6
Continuous
370
    -3
390
F
  0
ENDTAB
  0
TABLE
  2
STYLE
  5
3
330
0
100
AcDbSymbolTable
 70
     2
  0
STYLE
  5
11
330
3
100
AcDbSymbolTableRecord
100
AcDbTextStyleTableRecord
  2
Standard
 70
     0
 40
0.0
 41
1.0
 50
0.0
 71
     0
 42
0.1377952756
  3
txt
  4

  0
STYLE
  5
BD
330
3
100
AcDbSymbolTableRecord
100
AcDbTextStyleTableRecord
  2
SLDTEXTSTYLE0
 70
     0
 40
0.0
 41
0.7
 50
0.0
 71
     0
 42
0.1377952756
  3
TXT
  4

  0
ENDTAB
  0
TABLE
  2
VIEW
  5
6
330
0
100
AcDbSymbolTable
 70
     0
  0
ENDTAB
  0
TABLE
  2
UCS
  5
7
330
0
100
AcDbSymbolTable
 70
     0
  0
ENDTAB
  0
TABLE
  2
APPID
  5
9
330
0
100
AcDbSymbolTable
 70
     1
  0
APPID
  5
12
330
9
100
AcDbSymbolTableRecord
100
AcDbRegAppTableRecord
  2
ACAD
 70
     0
  0
ENDTAB
  0
TABLE
  2
DIMSTYLE
  5
A
330
0
100
AcDbSymbolTable
 70
     1
100
AcDbDimStyleTable
  0
DIMSTYLE
105
27
330
A
100
AcDbSymbolTableRecord
100
AcDbDimStyleTableRecord
  2
Standard
 70
     0
178
     0
340
11
  0
ENDTAB
  0
TABLE
  2
BLOCK_RECORD
  5
1
330
0
100
AcDbSymbolTable
 70
     1
  0
BLOCK_RECORD
  5
1F
330
1
100
AcDbSymbolTableRecord
100
AcDbBlockTableRecord
  2
*Model_Space
340
22
  0
BLOCK_RECORD
  5
1B
330
1
100
AcDbSymbolTableRecord
100
AcDbBlockTableRecord
  2
*Paper_Space
340
1E
  0
BLOCK_RECORD
  5
23
330
1
100
AcDbSymbolTableRecord
100
AcDbBlockTableRecord
  2
*Paper_Space0
340
26
  0
ENDTAB
  0
ENDSEC
  0
SECTION
  2
BLOCKS
  0
BLOCK
  5
20
330
1F
100
AcDbEntity
  8
0
100
AcDbBlockBegin
  2
*Model_Space
 70
     0
 10
0.0
 20
0.0
 30
0.0
  3
*Model_Space
  1

  0
ENDBLK
  5
21
330
1F
100
AcDbEntity
  8
0
100
AcDbBlockEnd
  0
BLOCK
  5
1C
330
1B
100
AcDbEntity
 67
     1
  8
0
100
AcDbBlockBegin
  2
*Paper_Space
 70
     0
 10
0.0
 20
0.0
 30
0.0
  3
*Paper_Space
  1

  0
ENDBLK
  5
1D
330
1B
100
AcDbEntity
 67
     1
  8
0
100
AcDbBlockEnd
  0
BLOCK
  5
24
330
23
100
AcDbEntity
  8
0
100
AcDbBlockBegin
  2
*Paper_Space0
 70
     0
 10
0.0
 20
0.0
 30
0.0
  3
*Paper_Space0
  1

  0
ENDBLK
  5
25
330
23
100
AcDbEntity
  8
0
100
AcDbBlockEnd
  0
ENDSEC
  0
SECTION
  2
ENTITIES
  0
CIRCLE
  5
63
330
1F
100
AcDbEntity
  8
0
  6
Continuous
 62
     7
370
    25
100
AcDbCircle
 10
-1.5564108723
 20
4.2372166051
 30
0.0
 40
0.0949999999999998
  0
CIRCLE
  5
64
330
1F
100
AcDbEntity
  8
0
  6
Continuous
 62
     7
370
    25
100
AcDbCircle
 10
-0.3064108723
 20
4.2372166051
 30
0.0
 40
0.0949999999999999
  0
LINE
  5
65
330
1F
100
AcDbEntity
  8
0
  6
Continuous
 62
     7
370
    25
100
AcDbLine
 10
-1.0381188788
 20
-4.08075377
 30
0.0
 11
-1.0381188788
 21
-1.895132863
 31
0.0
  0
ARC
  5
66
330
1F
100
AcDbEntity
  8
0
  6
Continuous
 62
     7
370
    25
100
AcDbCircle
 10
-0.6381188788
 20
-4.08075377
 30
0.0
 40
0.4
100
AcDbArc
 50
180.0
 51
270.0
  0
LINE
  5
67
330
1F
100
AcDbEntity
  8
0
  6
Continuous
 62
     7
370
    25
100
AcDbLine
 10
-0.5381188788
 20
-4.48075377
 30
0.0
 11
-0.6381188788
 21
-4.48075377
 31
0.0
  0
LINE
  5
68
330
1F
100
AcDbEntity
  8
0
  6
Continuous
 62
     7
370
    25
100
AcDbLine
 10
-0.5381188788
 20
-0.0386058724
 30
0.0
 11
-0.5381188788
 21
-4.48075377
 31
0.0
  0
ARC
  5
69
330
1F
100
AcDbEntity
  8
0
  6
Continuous
 62
     7
370
    25
100
AcDbCircle
 10
-1.5381188788
 20
-0.0386058724
 30
0.0
 40
1.0
100
AcDbArc
 50
0.0
 51
19.0
  0
LINE
  5
6A
330
1F
100
AcDbEntity
  8
0
  6
Continuous
 62
     7
370
    25
100
AcDbLine
 10
-0.5926003032
 20
0.2869622821
 30
0.0
 11
-0.7336374544
 21
0.6965639107
 31
0.0
  0
ARC
  5
6B
330
1F
100
AcDbEntity
  8
0
  6
Continuous
 62
     7
370
    25
100
AcDbCircle
 10
0.2118811212
 20
1.0221320652
 30
0.0
 40
1.0
100
AcDbArc
 50
180.0
 51
199.0
  0
LINE
  5
6C
330
1F
100
AcDbEntity
  8
0
  6
Continuous
 62
     7
370
    25
100
AcDbLine
 10
-0.7881188788
 20
2.802996818
 30
0.0
 11
-0.7881188788
 21
1.0221320652
 31
0.0
  0
ARC
  5
6D
330
1F
100
AcDbEntity
  8
0
  6
Continuous
 62
     7
370
    25
100
AcDbCircle
 10
-0.2881188788
 20
2.802996818
 30
0.0
 40
0.5
100
AcDbArc
 50
90.0
 51
180.0
  0
LINE
  5
6E
330
1F
100
AcDbEntity
  8
0
  6
Continuous
 62
     7
370
    25
100
AcDbLine
 10
-0.2881188788
 20
3.302996818
 30
0.0
 11
0.0508911982
 21
3.302996818
 31
0.0
  0
ARC
  5
6F
330
1F
100
AcDbEntity
  8
0
  6
Continuous
 62
     7
370
    25
100
AcDbCircle
 10
0.0508911982
 20
2.802996818
 30
0.0
 40
0.5
100
AcDbArc
 50
0.0
 51
90.0
  0
LINE
  5
70
330
1F
100
AcDbEntity
  8
0
  6
Continuous
 62
     7
370
    25
100
AcDbLine
 10
0.5508911982
 20
2.802996818
 30
0.0
 11
0.5508911982
 21
2.002996818
 31
0.0
  0
LINE
  5
71
330
1F
100
AcDbEntity
  8
0
  6
Continuous
 62
     7
370
    25
100
AcDbLine
 10
1.4435891277
 20
2.002996818
 30
0.0
 11
0.5508911982
 21
2.002996818
 31
0.0
  0
LINE
  5
72
330
1F
100
AcDbEntity
  8
0
  6
Continuous
 62
     7
370
    25
100
AcDbLine
 10
1.4435891277
 20
2.002996818
 30
0.0
 11
1.4435891277
 21
4.6122166051
 31
0.0
  0
LINE
  5
73
330
1F
100
AcDbEntity
  8
0
  6
Continuous
 62
     7
370
    25
100
AcDbLine
 10
-1.5
 20
4.6122166051
 30
0.0
 11
1.4435891277
 21
4.6122166051
 31
0.0
  0
ARC
  5
74
330
1F
100
AcDbEntity
  8
0
  6
Continuous
 62
     7
370
    25
100
AcDbCircle
 10
-1.5
 20
4.0122166051
 30
0.0
 40
0.6000000000000005
100
AcDbArc
 50
90.0
 51
180.0
  0
LINE
  5
75
330
1F
100
AcDbEntity
  8
0
  6
Continuous
 62
     7
370
    25
100
AcDbLine
 10
-2.1
 20
4.0
 30
0.0
 11
-2.1
 21
4.0122166051
 31
0.0
  0
LINE
  5
76
330
1F
100
AcDbEntity
  8
0
  6
Continuous
 62
     7
370
    25
100
AcDbLine
 10
-2.1
 20
4.0
 30
0.0
 11
-4.0
 21
-1.5180006676
 31
0.0
  0
LINE
  5
77
330
1F
100
AcDbEntity
  8
0
  6
Continuous
 62
     7
370
    25
100
AcDbLine
 10
-4.0
 20
-1.5180006676
 30
0.0
 11
-4.0
 21
-3.0
 31
0.0
  0
LINE
  5
78
330
1F
100
AcDbEntity
  8
0
  6
Continuous
 62
     7
370
    25
100
AcDbLine
 10
-4.0
 20
-3.0
 30
0.0
 11
-3.8728705432
 21
-3.0
 31
0.0
  0
LINE
  5
79
330
1F
100
AcDbEntity
  8
0
  6
Continuous
 62
     7
370
    25
100
AcDbLine
 10
-3.8728705432
 20
-3.0
 30
0.0
 11
-3.3004110709
 21
-2.5133271002
 31
0.0
  0
ARC
  5
7A
330
1F
100
AcDbEntity
  8
0
  6
Continuous
 62
     7
370
    25
100
AcDbCircle
 10
-1.75
 20
-3.0
 30
0.0
 40
1.625
100
AcDbArc
 50
79.1441471745
 51
162.5729651074
  0
ARC
  5
7B
330
1F
100
AcDbEntity
  8
0
  6
Continuous
 62
     7
370
    25
100
AcDbCircle
 10
-1.5381188788
 20
-1.895132863
 30
0.0
 40
0.5
100
AcDbArc
 50
0.0
 51
79.1441471745
  0
LINE
  5
7C
330
1F
100
AcDbEntity
  8
0
  6
Continuous
 62
     7
370
    25
100
AcDbLine
 10
-2.1773597063
 20
0.6848486689
 30
0.0
 11
-2.1727540541
 21
0.6848486689
 31
0.0
  0
LINE
  5
7D
330
1F
100
AcDbEntity
  8
0
  6
Continuous
 62
     7
370
    25
100
AcDbLine
 10
-2.1727540541
 20
0.5968486689
 30
0.0
 11
-2.1727540541
 21
0.6848486689
 31
0.0
  0
LINE
  5
7E
330
1F
100
AcDbEntity
  8
0
  6
Continuous
 62
     7
370
    25
100
AcDbLine
 10
-2.1727540541
 20
0.5968486689
 30
0.0
 11
-2.3121097063
 21
0.5968486689
 31
0.0
  0
SPLINE
  5
7F
330
1F
100
AcDbEntity
  8
0
  6
Continuous
 62
     7
370
    25
100
AcDbSpline
210
0.0
220
0.0
230
1.0
 70
     8
 71
     3
 72
    23
 73
    19
 74
     0
 42
0.00000001
 43
0.00000001
 40
0.0
 40
0.0
 40
0.0
 40
0.0
 40
0.0723576214885075
 40
0.1402112272129621
 40
0.2043644294612549
 40
0.2651478507777134
 40
0.3246580916650635
 40
0.3816135893756067
 40
0.4392579118771657
 40
0.4968319649631256
 40
0.5547040738101311
 40
0.6127449827296457
 40
0.670716102955881
 40
0.7304978232568706
 40
0.7925446114523704
 40
0.8582564182809743
 40
0.9266744489822312
 40
1.0
 40
1.0
 40
1.0
 40
1.0
 10
-2.312109706324604
 20
0.5968486688507844
 30
0.0
 10
-2.315778638271881
 20
0.5969639149148158
 30
0.0
 10
-2.322888123635085
 20
0.5971872333674809
 30
0.0
 10
-2.333213338338513
 20
0.5983569938449206
 30
0.0
 10
-2.342729421508696
 20
0.6006793058896464
 30
0.0
 10
-2.351631845388737
 20
0.6036221288205337
 30
0.0
 10
-2.359704465501836
 20
0.6076402625303449
 30
0.0
 10
-2.367141054886456
 20
0.6124489255728216
 30
0.0
 10
-2.373722913414326
 20
0.618230637625768
 30
0.0
 10
-2.379644242888173
 20
0.6247373680331145
 30
0.0
 10
-2.384676800101441
 20
0.6319992039520778
 30
0.0
 10
-2.388594319324204
 20
0.6399187632012016
 30
0.0
 10
-2.391881752057881
 20
0.6482384486087919
 30
0.0
 10
-2.39374353423012
 20
0.6571944433909391
 30
0.0
 10
-2.394979847168198
 20
0.6666450149562102
 30
0.0
 10
-2.394834453341054
 20
0.6766176512160158
 30
0.0
 10
-2.394024994272365
 20
0.6871223267347751
 30
0.0
 10
-2.392680320967675
 20
0.6941916357096126
 30
0.0
 10
-2.391984706324604
 20
0.6978486688507842
 30
0.0
  0
LINE
  5
80
330
1F
100
AcDbEntity
  8
0
  6
Continuous
 62
     7
370
    25
100
AcDbLine
 10
-2.3919847063
 20
0.6978486689
 30
0.0
 11
-2.3072347063
 21
1.0990986689
 31
0.0
  0
SPLINE
  5
81
330
1F
100
AcDbEntity
  8
0
  6
Continuous
 62
     7
370
    25
100
AcDbSpline
210
0.0
220
0.0
230
1.0
 70
     8
 71
     3
 72
    15
 73
    11
 74
     0
 42
0.00000001
 43
0.00000001
 40
0.0
 40
0.0
 40
0.0
 40
0.0
 40
0.1315338208872449
 40
0.2575140979895689
 40
0.3808400601966002
 40
0.5053414339056947
 40
0.6291987313139952
 40
0.7509098550597867
 40
0.8730146248436143
 40
1.0
 40
1.0
 40
1.0
 40
1.0
 10
-2.307234706324603
 20
1.099098668850784
 30
0.0
 10
-2.30534318849359
 20
1.106179953832344
 30
0.0
 10
-2.301640015387242
 20
1.12004354193716
 30
0.0
 10
-2.292192870671991
 20
1.139164241156335
 30
0.0
 10
-2.279882532141176
 20
1.156030339956448
 30
0.0
 10
-2.26499827735196
 20
1.170507472973614
 30
0.0
 10
-2.248027609643593
 20
1.182348971831915
 30
0.0
 10
-2.229286487801116
 20
1.190765013171294
 30
0.0
 10
-2.209184568633681
 20
1.196003828453137
 30
0.0
 10
-2.195308620957785
 20
1.196563400682266
 30
0.0
 10
-2.188234706324603
 20
1.196848668850784
 30
0.0
  0
LINE
  5
82
330
1F
100
AcDbEntity
  8
0
  6
Continuous
 62
     7
370
    25
100
AcDbLine
 10
-2.1882347063
 20
1.1968486689
 30
0.0
 11
-2.0785642771
 21
1.1968486689
 31
0.0
  0
LINE
  5
83
330
1F
100
AcDbEntity
  8
0
  6
Continuous
 62
     7
370
    25
100
AcDbLine
 10
-2.0785642771
 20
1.1088486689
 30
0.0
 11
-2.0785642771
 21
1.1968486689
 31
0.0
  0
LINE
  5
84
330
1F
100
AcDbEntity
  8
0
  6
Continuous
 62
     7
370
    25
100
AcDbLine
 10
-2.0785642771
 20
1.1088486689
 30
0.0
 11
-2.0859847063
 21
1.1088486689
 31
0.0
  0
LINE
  5
85
330
1F
100
AcDbEntity
  8
0
  6
Continuous
 62
     7
370
    25
100
AcDbLine
 10
-2.0859847063
 20
1.1088486689
 30
0.0
 11
-2.1773597063
 21
0.6848486689
 31
0.0
  0
LINE
  5
86
330
1F
100
AcDbEntity
  8
0
  6
Continuous
 62
     7
370
    25
100
AcDbLine
 10
-1.9831097063
 20
0.5968486689
 30
0.0
 11
-2.0842738902
 21
0.5968486689
 31
0.0
  0
LINE
  5
87
330
1F
100
AcDbEntity
  8
0
  6
Continuous
 62
     7
370
    25
100
AcDbLine
 10
-2.0842738902
 20
0.6848486689
 30
0.0
 11
-2.0842738902
 21
0.5968486689
 31
0.0
  0
LINE
  5
88
330
1F
100
AcDbEntity
  8
0
  6
Continuous
 62
     7
370
    25
100
AcDbLine
 10
-2.0842738902
 20
0.6848486689
 30
0.0
 11
-2.0777347063
 21
0.6848486689
 31
0.0
  0
LINE
  5
89
330
1F
100
AcDbEntity
  8
0
  6
Continuous
 62
     7
370
    25
100
AcDbLine
 10
-2.0777347063
 20
0.6848486689
 30
0.0
 11
-1.9859847063
 21
1.1088486689
 31
0.0
  0
LINE
  5
8A
330
1F
100
AcDbEntity
  8
0
  6
Continuous
 62
     7
370
    25
100
AcDbLine
 10
-1.9859847063
 20
1.1088486689
 30
0.0
 11
-1.9999943592
 21
1.1088486689
 31
0.0
  0
LINE
  5
8B
330
1F
100
AcDbEntity
  8
0
  6
Continuous
 62
     7
370
    25
100
AcDbLine
 10
-1.9999943592
 20
1.1968486689
 30
0.0
 11
-1.9999943592
 21
1.1088486689
 31
0.0
  0
LINE
  5
8C
330
1F
100
AcDbEntity
  8
0
  6
Continuous
 62
     7
370
    25
100
AcDbLine
 10
-1.9999943592
 20
1.1968486689
 30
0.0
 11
-1.8592347063
 21
1.1968486689
 31
0.0
  0
SPLINE
  5
8D
330
1F
100
AcDbEntity
  8
0
  6
Continuous
 62
     7
370
    25
100
AcDbSpline
210
0.0
220
0.0
230
1.0
 70
     8
 71
     3
 72
    23
 73
    19
 74
     0
 42
0.00000001
 43
0.00000001
 40
0.0
 40
0.0
 40
0.0
 40
0.0
 40
0.0780705209272943
 40
0.1509887329416897
 40
0.2194495998765773
 40
0.2842340877057707
 40
0.3448805129263228
 40
0.4043484224532822
 40
0.4619549286749443
 40
0.5199427790393016
 40
0.5770078587158028
 40
0.6334163672033329
 40
0.6900445786003065
 40
0.7468042035440974
 40
0.8063242916452152
 40
0.8670014213273831
 40
0.9318481720136466
 40
1.0
 40
1.0
 40
1.0
 40
1.0
 10
-1.859234706324604
 20
1.196848668850784
 30
0.0
 10
-1.855107026351585
 20
1.196735768534826
 30
0.0
 10
-1.847124075018453
 20
1.19651741882417
 30
0.0
 10
-1.835565224974987
 20
1.19532319203066
 30
0.0
 10
-1.824866567632814
 20
1.193103440202262
 30
0.0
 10
-1.815129527235045
 20
1.189829654155318
 30
0.0
 10
-1.806192165191048
 20
1.185817414117413
 30
0.0
 10
-1.798179291001808
 20
1.180839776069268
 30
0.0
 10
-1.7910938262469
 20
1.174841412949766
 30
0.0
 10
-1.78486007872296
 20
1.168138649164435
 30
0.0
 10
-1.779596183706447
 20
1.160724669641695
 30
0.0
 10
-1.775314583468275
 20
1.15279090498381
 30
0.0
 10
-1.772033489145147
 20
1.144404010403272
 30
0.0
 10
-1.769906956251066
 20
1.135485387079516
 30
0.0
 10
-1.768808742018832
 20
1.126172038110805
 30
0.0
 10
-1.768720012459132
 20
1.116374889700206
 30
0.0
 10
-1.769536362045714
 20
1.106140666761636
 30
0.0
 10
-1.770989884657881
 20
1.099253054953186
 30
0.0
 10
-1.771734706324603
 20
1.095723668850784
 30
0.0
  0
LINE
  5
8E
330
1F
100
AcDbEntity
  8
0
  6
Continuous
 62
     7
370
    25
100
AcDbLine
 10
-1.7717347063
 20
1.0957236689
 30
0.0
 11
-1.8564847063
 21
0.6943486689
 31
0.0
  0
SPLINE
  5
8F
330
1F
100
AcDbEntity
  8
0
  6
Continuous
 62
     7
370
    25
100
AcDbSpline
210
0.0
220
0.0
230
1.0
 70
     8
 71
     3
 72
    19
 73
    15
 74
     0
 42
0.00000001
 43
0.00000001
 40
0.0
 40
0.0
 40
0.0
 40
0.0
 40
0.1205372908563445
 40
0.2385954740847778
 40
0.3589330128268003
 40
0.4837442193890221
 40
0.54738832680316
 40
0.6104006640476752
 40
0.6724975191602497
 40
0.7354808002877619
 40
0.7993545817319214
 40
0.8643122510112897
 40
0.9312368562754864
 40
1.0
 40
1.0
 40
1.0
 40
1.0
 10
-1.856484706324604
 20
0.6943486688507843
 30
0.0
 10
-1.858326154098478
 20
0.68763392655486
 30
0.0
 10
-1.861971176327603
 20
0.6743425450241224
 30
0.0
 10
-1.871731837969266
 20
0.6559344546748188
 30
0.0
 10
-1.884341265987159
 20
0.6391542246926617
 30
0.0
 10
-1.897276773062655
 20
0.6267842652910346
 30
0.0
 10
-1.909014404281184
 20
0.6182765104711003
 30
0.0
 10
-1.918213183929389
 20
0.6124425706626919
 30
0.0
 10
-1.927983725492567
 20
0.60772189277064
 30
0.0
 10
-1.938087251387352
 20
0.603620274876227
 30
0.0
 10
-1.948773563625063
 20
0.6007389620837815
 30
0.0
 10
-1.959812527333844
 20
0.5983759513228089
 30
0.0
 10
-1.971334771076899
 20
0.5972017393311517
 30
0.0
 10
-1.979149432275223
 20
0.59696741734762
 30
0.0
 10
-1.983109706324603
 20
0.5968486688507844
 30
0.0
  0
LINE
  5
90
330
1F
100
AcDbEntity
  8
0
  6
Continuous
 62
     7
370
    25
100
AcDbLine
 10
-1.4514847063
 20
2.7475888263
 30
0.0
 11
-1.4733597063
 21
2.6515888263
 31
0.0
  0
LINE
  5
91
330
1F
100
AcDbEntity
  8
0
  6
Continuous
 62
     7
370
    25
100
AcDbLine
 10
-1.4733597063
 20
2.6515888263
 30
0.0
 11
-1.1562347063
 21
2.6515888263
 31
0.0
  0
LINE
  5
92
330
1F
100
AcDbEntity
  8
0
  6
Continuous
 62
     7
370
    25
100
AcDbLine
 10
-1.1562347063
 20
2.6515888263
 30
0.0
 11
-1.1733597063
 21
2.5635888263
 31
0.0
  0
LINE
  5
93
330
1F
100
AcDbEntity
  8
0
  6
Continuous
 62
     7
370
    25
100
AcDbLine
 10
-1.1733597063
 20
2.5635888263
 30
0.0
 11
-1.7077347063
 21
2.5635888263
 31
0.0
  0
LINE
  5
94
330
1F
100
AcDbEntity
  8
0
  6
Continuous
 62
     7
370
    25
100
AcDbLine
 10
-1.7077347063
 20
2.5635888263
 30
0.0
 11
-1.6727347063
 21
2.7377138263
 31
0.0
  0
SPLINE
  5
95
330
1F
100
AcDbEntity
  8
0
  6
Continuous
 62
     7
370
    25
100
AcDbSpline
210
0.0
220
0.0
230
1.0
 70
     8
 71
     3
 72
    19
 73
    15
 74
     0
 42
0.00000001
 43
0.00000001
 40
0.0
 40
0.0
 40
0.0
 40
0.0
 40
0.1315328499508948
 40
0.2575121971111766
 40
0.3803972853675746
 40
0.5054352985987456
 40
0.5680664228873649
 40
0.6293752258885761
 40
0.6906886060522835
 40
0.7512049866464553
 40
0.8116285506513468
 40
0.8729007240433131
 40
0.9355318483319317
 40
1.0
 40
1.0
 40
1.0
 40
1.0
 10
-1.672734706324603
 20
2.737713826331099
 30
0.0
 10
-1.670846114349669
 20
2.744797101663833
 30
0.0
 10
-1.667148669421704
 20
2.758664586435558
 30
0.0
 10
-1.657671201990186
 20
2.777735144695809
 30
0.0
 10
-1.645515478162516
 20
2.794712720989215
 30
0.0
 10
-1.632993470750688
 20
2.806768614049338
 30
0.0
 10
-1.621856216603037
 20
2.815007140753092
 30
0.0
 10
-1.6132044753477
 20
2.820627421022145
 30
0.0
 10
-1.604084020562433
 20
2.825206972991885
 30
0.0
 10
-1.594655497877622
 20
2.828948862864462
 30
0.0
 10
-1.584982458924289
 20
2.832016317890762
 30
0.0
 10
-1.574934176796889
 20
2.834116638033662
 30
0.0
 10
-1.564518994054705
 20
2.835409300609055
 30
0.0
 10
-1.557446874490811
 20
2.835528410572426
 30
0.0
 10
-1.553859706324603
 20
2.835588826331099
 30
0.0
  0
LINE
  5
96
330
1F
100
AcDbEntity
  8
0
  6
Continuous
 62
     7
370
    25
100
AcDbLine
 10
-1.5538597063
 20
2.8355888263
 30
0.0
 11
-1.3347347063
 21
2.8355888263
 31
0.0
  0
LINE
  5
97
330
1F
100
AcDbEntity
  8
0
  6
Continuous
 62
     7
370
    25
100
AcDbLine
 10
-1.3347347063
 20
2.8355888263
 30
0.0
 11
-1.2819847063
 21
3.0755888263
 31
0.0
  0
LINE
  5
98
330
1F
100
AcDbEntity
  8
0
  6
Continuous
 62
     7
370
    25
100
AcDbLine
 10
-1.2819847063
 20
3.0755888263
 30
0.0
 11
-1.3819847063
 21
3.0755888263
 31
0.0
  0
LINE
  5
99
330
1F
100
AcDbEntity
  8
0
  6
Continuous
 62
     7
370
    25
100
AcDbLine
 10
-1.3819847063
 20
3.0755888263
 30
0.0
 11
-1.4023597063
 21
2.9788388263
 31
0.0
  0
LINE
  5
9A
330
1F
100
AcDbEntity
  8
0
  6
Continuous
 62
     7
370
    25
100
AcDbLine
 10
-1.4023597063
 20
2.9788388263
 30
0.0
 11
-1.6194847063
 21
2.9788388263
 31
0.0
  0
LINE
  5
9B
330
1F
100
AcDbEntity
  8
0
  6
Continuous
 62
     7
370
    25
100
AcDbLine
 10
-1.6194847063
 20
2.9788388263
 30
0.0
 11
-1.6032347063
 21
3.0673388263
 31
0.0
  0
SPLINE
  5
9C
330
1F
100
AcDbEntity
  8
0
  6
Continuous
 62
     7
370
    25
100
AcDbSpline
210
0.0
220
0.0
230
1.0
 70
     8
 71
     3
 72
    15
 73
    11
 74
     0
 42
0.00000001
 43
0.00000001
 40
0.0
 40
0.0
 40
0.0
 40
0.0
 40
0.130972331624228
 40
0.256781091510688
 40
0.3792704022274537
 40
0.5041033051297719
 40
0.6279388829752727
 40
0.7501562299183607
 40
0.8721639614384677
 40
1.0
 40
1.0
 40
1.0
 40
1.0
 10
-1.603234706324603
 20
3.067338826331099
 30
0.0
 10
-1.601357939095144
 20
3.074346053785303
 30
0.0
 10
-1.597678396006038
 20
3.088084249416703
 30
0.0
 10
-1.588015659972084
 20
3.106833355975802
 30
0.0
 10
-1.575896449976539
 20
3.12361877044073
 30
0.0
 10
-1.560856473714065
 20
3.137718131635219
 30
0.0
 10
-1.543866439065578
 20
3.149338065574015
 30
0.0
 10
-1.525189274578038
 20
3.157621819996162
 30
0.0
 10
-1.505129365936854
 20
3.162724554136317
 30
0.0
 10
-1.491307074110209
 20
3.16329628981977
 30
0.0
 10
-1.484234706324603
 20
3.163588826331099
 30
0.0
  0
LINE
  5
9D
330
1F
100
AcDbEntity
  8
0
  6
Continuous
 62
     7
370
    25
100
AcDbLine
 10
-1.4842347063
 20
3.1635888263
 30
0.0
 11
-1.1552347063
 21
3.1635888263
 31
0.0
  0
SPLINE
  5
9E
330
1F
100
AcDbEntity
  8
0
  6
Continuous
 62
     7
370
    25
100
AcDbSpline
210
0.0
220
0.0
230
1.0
 70
     8
 71
     3
 72
    23
 73
    19
 74
     0
 42
0.00000001
 43
0.00000001
 40
0.0
 40
0.0
 40
0.0
 40
0.0
 40
0.078121090210672
 40
0.1510865341595133
 40
0.2195917458347647
 40
0.2841731964538555
 40
0.3459050244120183
 40
0.4049973540553823
 40
0.462641174229902
 40
0.5206665855584082
 40
0.5777686284849408
 40
0.6342136749360562
 40
0.6898600874336315
 40
0.7474229660936085
 40
0.8061988404292806
 40
0.8669152730253898
 40
0.9318040274497158
 40
1.0
 40
1.0
 40
1.0
 40
1.0
 10
-1.155234706324603
 20
3.163588826331099
 30
0.0
 10
-1.151107544523213
 20
3.163474479189082
 30
0.0
 10
-1.143125595336302
 20
3.163253331310425
 30
0.0
 10
-1.131559750985654
 20
3.162078633849198
 30
0.0
 10
-1.120897986085837
 20
3.159793984980924
 30
0.0
 10
-1.111037080838163
 20
3.156740788568259
 30
0.0
 10
-1.102168427249618
 20
3.152530710319483
 30
0.0
 10
-1.094013776100799
 20
3.147731550100958
 30
0.0
 10
-1.08697562367567
 20
3.141695487525669
 30
0.0
 10
-1.08073161070568
 20
3.135007409963627
 30
0.0
 10
-1.075478188974334
 20
3.127586414883113
 30
0.0
 10
-1.071191025421937
 20
3.119713467261422
 30
0.0
 10
-1.068019791545792
 20
3.111296934358497
 30
0.0
 10
-1.065931081062877
 20
3.10243036086489
 30
0.0
 10
-1.064799647253858
 20
3.093121693608301
 30
0.0
 10
-1.064722546811614
 20
3.083364781301293
 30
0.0
 10
-1.065535672260845
 20
3.073130896607366
 30
0.0
 10
-1.066989650951668
 20
3.066243236951648
 30
0.0
 10
-1.067734706324603
 20
3.0627138263311
 30
0.0
  0
LINE
  5
9F
330
1F
100
AcDbEntity
  8
0
  6
Continuous
 62
     7
370
    25
100
AcDbLine
 10
-1.0677347063
 20
3.0627138263
 30
0.0
 11
-1.1134847063
 21
2.8448388263
 31
0.0
  0
SPLINE
  5
A0
330
1F
100
AcDbEntity
  8
0
  6
Continuous
 62
     7
370
    25
100
AcDbSpline
210
0.0
220
0.0
230
1.0
 70
     8
 71
     3
 72
    19
 73
    15
 74
     0
 42
0.00000001
 43
0.00000001
 40
0.0
 40
0.0
 40
0.0
 40
0.0
 40
0.1199899886764822
 40
0.238188422993339
 40
0.3580909999960381
 40
0.4830504801220987
 40
0.5461875134143906
 40
0.6092747082303259
 40
0.6720954300713953
 40
0.7351535342521612
 40
0.7984067046109486
 40
0.8641510563023691
 40
0.9311551668450119
 40
1.0
 40
1.0
 40
1.0
 40
1.0
 10
-1.113484706324603
 20
2.844838826331099
 30
0.0
 10
-1.11533310186205
 20
2.83816867630672
 30
0.0
 10
-1.119002294792133
 20
2.824927967369581
 30
0.0
 10
-1.128693937566434
 20
2.806564905692925
 30
0.0
 10
-1.141378038977637
 20
2.789874614241946
 30
0.0
 10
-1.154280554054034
 20
2.777586955703244
 30
0.0
 10
-1.165905345161393
 20
2.7689828664344
 30
0.0
 10
-1.175115604261481
 20
2.763151787886572
 30
0.0
 10
-1.184956398080686
 20
2.758490390672345
 30
0.0
 10
-1.195051187908313
 20
2.754383406294662
 30
0.0
 10
-1.205722552760969
 20
2.751440321612279
 30
0.0
 10
-1.21677478188377
 20
2.749133985320424
 30
0.0
 10
-1.228334003725198
 20
2.747938326385784
 30
0.0
 10
-1.236149174191169
 20
2.747706373983609
 30
0.0
 10
-1.240109706324603
 20
2.747588826331099
 30
0.0
  0
LINE
  5
A1
330
1F
100
AcDbEntity
  8
0
  6
Continuous
 62
     7
370
    25
100
AcDbLine
 10
-1.2401097063
 20
2.7475888263
 30
0.0
 11
-1.4514847063
 21
2.7475888263
 31
0.0
  0
LINE
  5
A2
330
1F
100
AcDbEntity
  8
0
  6
Continuous
 62
     7
370
    25
100
AcDbLine
 10
-1.9598597063
 20
2.1802187476
 30
0.0
 11
-1.7422347063
 21
2.1802187476
 31
0.0
  0
LINE
  5
A3
330
1F
100
AcDbEntity
  8
0
  6
Continuous
 62
     7
370
    25
100
AcDbLine
 10
-1.7422347063
 20
2.1802187476
 30
0.0
 11
-1.8118597063
 21
1.8522187476
 31
0.0
  0
LINE
  5
A4
330
1F
100
AcDbEntity
  8
0
  6
Continuous
 62
     7
370
    25
100
AcDbLine
 10
-1.8118597063
 20
1.8522187476
 30
0.0
 11
-1.7122347063
 21
1.8522187476
 31
0.0
  0
LINE
  5
A5
330
1F
100
AcDbEntity
  8
0
  6
Continuous
 62
     7
370
    25
100
AcDbLine
 10
-1.7122347063
 20
1.8522187476
 30
0.0
 11
-1.6426097063
 21
2.1802187476
 31
0.0
  0
LINE
  5
A6
330
1F
100
AcDbEntity
  8
0
  6
Continuous
 62
     7
370
    25
100
AcDbLine
 10
-1.6426097063
 20
2.1802187476
 30
0.0
 11
-1.4251097063
 21
2.1802187476
 31
0.0
  0
LINE
  5
A7
330
1F
100
AcDbEntity
  8
0
  6
Continuous
 62
     7
370
    25
100
AcDbLine
 10
-1.4251097063
 20
2.1802187476
 30
0.0
 11
-1.5508597063
 21
1.5802187476
 31
0.0
  0
LINE
  5
A8
330
1F
100
AcDbEntity
  8
0
  6
Continuous
 62
     7
370
    25
100
AcDbLine
 10
-1.5508597063
 20
1.5802187476
 30
0.0
 11
-1.7679847063
 21
1.5802187476
 31
0.0
  0
LINE
  5
A9
330
1F
100
AcDbEntity
  8
0
  6
Continuous
 62
     7
370
    25
100
AcDbLine
 10
-1.7679847063
 20
1.5802187476
 30
0.0
 11
-1.7289847063
 21
1.7642187476
 31
0.0
  0
LINE
  5
AA
330
1F
100
AcDbEntity
  8
0
  6
Continuous
 62
     7
370
    25
100
AcDbLine
 10
-1.7289847063
 20
1.7642187476
 30
0.0
 11
-1.9464847063
 21
1.7642187476
 31
0.0
  0
SPLINE
  5
AB
330
1F
100
AcDbEntity
  8
0
  6
Continuous
 62
     7
370
    25
100
AcDbSpline
210
0.0
220
0.0
230
1.0
 70
     8
 71
     3
 72
    23
 73
    19
 74
     0
 42
0.00000001
 43
0.00000001
 40
0.0
 40
0.0
 40
0.0
 40
0.0
 40
0.0723038679740549
 40
0.1410559173074478
 40
0.2050061371191976
 40
0.2668170167496156
 40
0.3252116742863244
 40
0.3828391712351337
 40
0.4404666681839433
 40
0.4980239162277896
 40
0.5558791330344722
 40
0.6131721805543557
 40
0.671613009007578
 40
0.7305764870852258
 40
0.7926051647112465
 40
0.8582977912038859
 40
0.9266958516611598
 40
1.0
 40
1.0
 40
1.0
 40
1.0
 10
-1.946484706324603
 20
1.764218747590942
 30
0.0
 10
-1.950157022676245
 20
1.764262962529179
 30
0.0
 10
-1.957321258368447
 20
1.764349220413389
 30
0.0
 10
-1.967639776275333
 20
1.765815148460031
 30
0.0
 10
-1.977311331307935
 20
1.767857315276836
 30
0.0
 10
-1.986139460110289
 20
1.77100246559559
 30
0.0
 10
-1.994281101399596
 20
1.774923304464257
 30
0.0
 10
-2.001749579755129
 20
1.779659015994225
 30
0.0
 10
-2.008343142492892
 20
1.785479829188699
 30
0.0
 10
-2.014278494351881
 20
1.791977827269447
 30
0.0
 10
-2.019248319872919
 20
1.799228047624104
 30
0.0
 10
-2.023319214763083
 20
1.807065350180873
 30
0.0
 10
-2.026291434240731
 20
1.815446789729498
 30
0.0
 10
-2.028278149699117
 20
1.824345535739829
 30
0.0
 10
-2.029471305994
 20
1.833767816601888
 30
0.0
 10
-2.029336887710316
 20
1.843736953885185
 30
0.0
 10
-2.028524323521131
 20
1.854242619308791
 30
0.0
 10
-2.027180092282121
 20
1.861311787354167
 30
0.0
 10
-2.026484706324603
 20
1.864968747590942
 30
0.0
  0
LINE
  5
AC
330
1F
100
AcDbEntity
  8
0
  6
Continuous
 62
     7
370
    25
100
AcDbLine
 10
-2.0264847063
 20
1.8649687476
 30
0.0
 11
-1.9598597063
 21
2.1802187476
 31
0.0
  0
LINE
  5
AD
330
1F
100
AcDbEntity
  8
0
  6
Continuous
 62
     7
370
    25
100
AcDbLine
 10
-2.2797347063
 20
0.2134785901
 30
0.0
 11
-2.4053597063
 21
-0.3858964099
 31
0.0
  0
LINE
  5
AE
330
1F
100
AcDbEntity
  8
0
  6
Continuous
 62
     7
370
    25
100
AcDbLine
 10
-2.4053597063
 20
-0.3858964099
 30
0.0
 11
-2.6224847063
 21
-0.3858964099
 31
0.0
  0
LINE
  5
AF
330
1F
100
AcDbEntity
  8
0
  6
Continuous
 62
     7
370
    25
100
AcDbLine
 10
-2.6224847063
 20
-0.3858964099
 30
0.0
 11
-2.5139847063
 21
0.1254785901
 31
0.0
  0
LINE
  5
B0
330
1F
100
AcDbEntity
  8
0
  6
Continuous
 62
     7
370
    25
100
AcDbLine
 10
-2.5139847063
 20
0.1254785901
 30
0.0
 11
-2.6139847063
 21
0.1254785901
 31
0.0
  0
LINE
  5
B1
330
1F
100
AcDbEntity
  8
0
  6
Continuous
 62
     7
370
    25
100
AcDbLine
 10
-2.6139847063
 20
0.1254785901
 30
0.0
 11
-2.6343597063
 21
0.0287285901
 31
0.0
  0
LINE
  5
B2
330
1F
100
AcDbEntity
  8
0
  6
Continuous
 62
     7
370
    25
100
AcDbLine
 10
-2.6343597063
 20
0.0287285901
 30
0.0
 11
-2.8514847063
 21
0.0287285901
 31
0.0
  0
LINE
  5
B3
330
1F
100
AcDbEntity
  8
0
  6
Continuous
 62
     7
370
    25
100
AcDbLine
 10
-2.8514847063
 20
0.0287285901
 30
0.0
 11
-2.8352347063
 21
0.1172285901
 31
0.0
  0
SPLINE
  5
B4
330
1F
100
AcDbEntity
  8
0
  6
Continuous
 62
     7
370
    25
100
AcDbSpline
210
0.0
220
0.0
230
1.0
 70
     8
 71
     3
 72
    15
 73
    11
 74
     0
 42
0.00000001
 43
0.00000001
 40
0.0
 40
0.0
 40
0.0
 40
0.0
 40
0.1309723316242283
 40
0.256781091510687
 40
0.3792704022274542
 40
0.5041033051297714
 40
0.6279388829752707
 40
0.7501562299183602
 40
0.8721639614384679
 40
1.0
 40
1.0
 40
1.0
 40
1.0
 10
-2.835234706324603
 20
0.1172285901106264
 30
0.0
 10
-2.833357939095145
 20
0.1242358175648306
 30
0.0
 10
-2.829678396006037
 20
0.1379740131962301
 30
0.0
 10
-2.820015659972084
 20
0.156723119755328
 30
0.0
 10
-2.807896449976539
 20
0.1735085342202569
 30
0.0
 10
-2.792856473714066
 20
0.187607895414746
 30
0.0
 10
-2.775866439065578
 20
0.1992278293535418
 30
0.0
 10
-2.757189274578038
 20
0.2075115837756908
 30
0.0
 10
-2.737129365936854
 20
0.2126143179158436
 30
0.0
 10
-2.723307074110209
 20
0.2131860535992973
 30
0.0
 10
-2.716234706324603
 20
0.2134785901106264
 30
0.0
  0
LINE
  5
B5
330
1F
100
AcDbEntity
  8
0
  6
Continuous
 62
     7
370
    25
100
AcDbLine
 10
-2.7162347063
 20
0.2134785901
 30
0.0
 11
-2.2797347063
 21
0.2134785901
 31
0.0
  0
CIRCLE
  5
B6
330
1F
100
AcDbEntity
  8
0
  6
Continuous
 62
     7
370
    25
100
AcDbCircle
 10
-3.5371022519
 20
-2.2659345168
 30
0.0
 40
0.09375
  0
CIRCLE
  5
B7
330
1F
100
AcDbEntity
  8
0
  6
Continuous
 62
     7
370
    25
100
AcDbCircle
 10
-2.9731446804
 20
-1.5045055389
 30
0.0
 40
0.09375
  0
CIRCLE
  5
B8
330
1F
100
AcDbEntity
  8
0
  6
Continuous
 62
     7
370
    25
100
AcDbCircle
 10
-2.0632595407
 20
-1.0935753221
 30
0.0
 40
0.09375
  0
CIRCLE
  5
B9
330
1F
100
AcDbEntity
  8
0
  6
Continuous
 62
     7
370
    25
100
AcDbCircle
 10
-1.0921862207
 20
-1.1834462232
 30
0.0
 40
0.09375
  0
CIRCLE
  5
BA
330
1F
100
AcDbEntity
  8
0
  6
Continuous
 62
     7
370
    25
100
AcDbCircle
 10
1.0
 20
2.25
 30
0.0
 40
0.1250000000000001
  0
CIRCLE
  5
BB
330
1F
100
AcDbEntity
  8
0
  6
Continuous
 62
     7
370
    25
100
AcDbCircle
 10
1.0
 20
2.75
 30
0.0
 40
0.125
  0
CIRCLE
  5
BC
330
1F
100
AcDbEntity
  8
0
  6
Continuous
 62
     7
370
    25
100
AcDbCircle
 10
1.0
 20
3.75
 30
0.0
 40
0.125
  0
MTEXT
  5
BE
330
1F
100
AcDbEntity
  8
0
  6
Continuous
 62
     7
100
AcDbMText
 10
-4.0
 20
-4.5208941791
 30
0.0
 40
0.1903
 41
0.0
 71
     1
 72
     1
  1
SOLIDWORKS Educational Product.
  7
SLDTEXTSTYLE0
 73
     1
 44
1.0
  0
MTEXT
  5
BF
330
1F
100
AcDbEntity
  8
0
  6
Continuous
 62
     7
100
AcDbMText
 10
-4.0
 20
-4.8063441791
 30
0.0
 40
0.1903
 41
0.0
 71
     1
 72
     1
  1
For Instructional Use Only.
  7
SLDTEXTSTYLE0
 73
     1
 44
1.0
  0
ENDSEC
  0
SECTION
  2
OBJECTS
  0
DICTIONARY
  5
C
330
0
100
AcDbDictionary
281
     1
  3
ACAD_GROUP
350
D
  3
ACAD_LAYOUT
350
1A
  3
ACAD_MLINESTYLE
350
17
  3
ACAD_PLOTSETTINGS
350
19
  3
ACAD_PLOTSTYLENAME
350
E
  3
ACAD_SCALELIST
350
47
  3
DWGPROPS
350
C0
  0
DICTIONARY
  5
D
102
{ACAD_REACTORS
330
C
102
}
330
C
100
AcDbDictionary
281
     1
  0
DICTIONARY
  5
1A
102
{ACAD_REACTORS
330
C
102
}
330
C
100
AcDbDictionary
281
     1
  3
Layout1
350
1E
  3
Layout2
350
26
  3
Model
350
22
  0
DICTIONARY
  5
17
102
{ACAD_REACTORS
330
C
102
}
330
C
100
AcDbDictionary
281
     1
  3
Standard
350
18
  0
DICTIONARY
  5
19
102
{ACAD_REACTORS
330
C
102
}
330
C
100
AcDbDictionary
281
     1
  0
ACDBDICTIONARYWDFLT
  5
E
102
{ACAD_REACTORS
330
C
102
}
330
C
100
AcDbDictionary
281
     1
  3
Normal
350
F
100
AcDbDictionaryWithDefault
340
F
  0
DICTIONARY
  5
47
102
{ACAD_REACTORS
330
C
102
}
330
C
100
AcDbDictionary
281
     1
  3
A0
350
48
  3
A1
350
49
  3
A2
350
4A
  3
A3
350
4B
  3
A4
350
4C
  3
A5
350
4D
  3
A6
350
4E
  3
A7
350
4F
  3
A8
350
50
  3
A9
350
51
  3
B1
350
52
  3
B2
350
53
  3
B3
350
54
  3
B4
350
55
  3
B5
350
56
  3
B6
350
57
  3
B7
350
58
  0
XRECORD
  5
C0
102
{ACAD_REACTORS
330
C
102
}
330
C
100
AcDbXrecord
280
     1
  1
DWGPROPS COOKIE
  2

  3

  4

  6

  7

  8
ericg
  9

300
=
301
=
302
=
303
=
304
=
305
=
306
=
307
=
308
=
309
=
 40
0.0
 41
2460366.33014029
 42
2460366.330434618
  1

 90
        0
  0
LAYOUT
  5
1E
102
{ACAD_REACTORS
330
1A
102
}
330
1A
100
AcDbPlotSettings
  1

  2
none_device
  4

  6

 40
0.0
 41
0.0
 42
0.0
 43
0.0
 44
0.0
 45
0.0
 46
0.0
 47
0.0
 48
0.0
 49
0.0
140
0.0
141
0.0
142
1.0
143
1.0
 70
   688
 72
     0
 73
     0
 74
     5
  7

 75
    16
147
1.0
148
0.0
149
0.0
100
AcDbLayout
  1
Layout1
 70
     1
 71
     1
 10
0.0
 20
0.0
 11
12.0
 21
9.0
 12
0.0
 22
0.0
 32
0.0
 14
1.0000000000E+20
 24
1.0000000000E+20
 34
1.0000000000E+20
 15
-1.0000000000E+20
 25
-1.0000000000E+20
 35
-1.0000000000E+20
146
0.0
 13
0.0
 23
0.0
 33
0.0
 16
1.0
 26
0.0
 36
0.0
 17
0.0
 27
1.0
 37
0.0
 76
     0
330
1B
  0
LAYOUT
  5
26
102
{ACAD_REACTORS
330
1A
102
}
330
1A
100
AcDbPlotSettings
  1

  2
none_device
  4

  6

 40
0.0
 41
0.0
 42
0.0
 43
0.0
 44
0.0
 45
0.0
 46
0.0
 47
0.0
 48
0.0
 49
0.0
140
0.0
141
0.0
142
1.0
143
1.0
 70
   688
 72
     0
 73
     0
 74
     5
  7

 75
    16
147
1.0
148
0.0
149
0.0
100
AcDbLayout
  1
Layout2
 70
     1
 71
     2
 10
0.0
 20
0.0
 11
0.0
 21
0.0
 12
0.0
 22
0.0
 32
0.0
 14
0.0
 24
0.0
 34
0.0
 15
0.0
 25
0.0
 35
0.0
146
0.0
 13
0.0
 23
0.0
 33
0.0
 16
1.0
 26
0.0
 36
0.0
 17
0.0
 27
1.0
 37
0.0
 76
     0
330
23
  0
LAYOUT
  5
22
102
{ACAD_REACTORS
330
1A
102
}
330
1A
100
AcDbPlotSettings
  1

  2
none_device
  4
ANSI_A_(11.00_x_8.50_Inches)
  6

 40
6.35
 41
19.05
 42
6.35000508
 43
19.05000254
 44
279.4
 45
215.9
 46
163.3957247476
 47
87.3549041857
 48
0.0
 49
0.0
140
0.0
141
0.0
142
0.9254401645
143
1.0
 70
  1696
 72
     0
 73
     0
 74
     0
  7

 75
     0
147
0.5913241897
148
-39.4088153714
149
0.0
100
AcDbLayout
  1
Model
 70
     1
 71
     0
 10
0.0
 20
0.0
 11
12.0
 21
9.0
 12
0.0
 22
0.0
 32
0.0
 14
-4.0
 24
-4.48075377
 34
0.0
 15
1.4435891277
 25
4.6122166051
 35
0.0
146
0.0
 13
0.0
 23
0.0
 33
0.0
 16
1.0
 26
0.0
 36
0.0
 17
0.0
 27
1.0
 37
0.0
 76
     0
330
1F
331
29
  0
MLINESTYLE
  5
18
102
{ACAD_REACTORS
330
17
102
}
330
17
100
AcDbMlineStyle
  2
Standard
 70
     0
  3

 62
   256
 51
90.0
 52
90.0
 71
     2
 49
0.5
 62
   256
  6
BYLAYER
 49
-0.5
 62
   256
  6
BYLAYER
  0
ACDBPLACEHOLDER
  5
F
102
{ACAD_REACTORS
330
E
102
}
330
E
  0
SCALE
  5
48
102
{ACAD_REACTORS
330
47
102
}
330
47
100
AcDbScale
 70
     0
300
1:1
140
1.0
141
1.0
290
     1
  0
SCALE
  5
49
102
{ACAD_REACTORS
330
47
102
}
330
47
100
AcDbScale
 70
     0
300
1/128" = 1'-0"
140
0.0078125
141
12.0
290
     0
  0
SCALE
  5
4A
102
{ACAD_REACTORS
330
47
102
}
330
47
100
AcDbScale
 70
     0
300
1/64" = 1'-0"
140
0.015625
141
12.0
290
     0
  0
SCALE
  5
4B
102
{ACAD_REACTORS
330
47
102
}
330
47
100
AcDbScale
 70
     0
300
1/32" = 1'-0"
140
0.03125
141
12.0
290
     0
  0
SCALE
  5
4C
102
{ACAD_REACTORS
330
47
102
}
330
47
100
AcDbScale
 70
     0
300
1/16" = 1'-0"
140
0.0625
141
12.0
290
     0
  0
SCALE
  5
4D
102
{ACAD_REACTORS
330
47
102
}
330
47
100
AcDbScale
 70
     0
300
3/32" = 1'-0"
140
0.09375
141
12.0
290
     0
  0
SCALE
  5
4E
102
{ACAD_REACTORS
330
47
102
}
330
47
100
AcDbScale
 70
     0
300
1/8" = 1'-0"
140
0.125
141
12.0
290
     0
  0
SCALE
  5
4F
102
{ACAD_REACTORS
330
47
102
}
330
47
100
AcDbScale
 70
     0
300
3/16" = 1'-0"
140
0.1875
141
12.0
290
     0
  0
SCALE
  5
50
102
{ACAD_REACTORS
330
47
102
}
330
47
100
AcDbScale
 70
     0
300
1/4" = 1'-0"
140
0.25
141
12.0
290
     0
  0
SCALE
  5
51
102
{ACAD_REACTORS
330
47
102
}
330
47
100
AcDbScale
 70
     0
300
3/8" = 1'-0"
140
0.375
141
12.0
290
     0
  0
SCALE
  5
52
102
{ACAD_REACTORS
330
47
102
}
330
47
100
AcDbScale
 70
     0
300
1/2" = 1'-0"
140
0.5
141
12.0
290
     0
  0
SCALE
  5
53
102
{ACAD_REACTORS
330
47
102
}
330
47
100
AcDbScale
 70
     0
300
3/4" = 1'-0"
140
0.75
141
12.0
290
     0
  0
SCALE
  5
54
102
{ACAD_REACTORS
330
47
102
}
330
47
100
AcDbScale
 70
     0
300
1" = 1'-0"
140
1.0
141
12.0
290
     0
  0
SCALE
  5
55
102
{ACAD_REACTORS
330
47
102
}
330
47
100
AcDbScale
 70
     0
300
1-1/2" = 1'-0"
140
1.5
141
12.0
290
     0
  0
SCALE
  5
56
102
{ACAD_REACTORS
330
47
102
}
330
47
100
AcDbScale
 70
     0
300
3" = 1'-0"
140
3.0
141
12.0
290
     0
  0
SCALE
  5
57
102
{ACAD_REACTORS
330
47
102
}
330
47
100
AcDbScale
 70
     0
300
6" = 1'-0"
140
6.0
141
12.0
290
     0
  0
SCALE
  5
58
102
{ACAD_REACTORS
330
47
102
}
330
47
100
AcDbScale
 70
     0
300
1'-0" = 1'-0"
140
12.0
141
12.0
290
     0
  0
ENDSEC
  0
EOF
